<?xml version="1.0" standalone="no"?>
<!DOCTYPE svg PUBLIC "-//W3C//DTD SVG 20010904//EN"
 "http://www.w3.org/TR/2001/REC-SVG-20010904/DTD/svg10.dtd">
<svg version="1.0" xmlns="http://www.w3.org/2000/svg"
 width="16.000000pt" height="16.000000pt" viewBox="0 0 16.000000 16.000000"
 preserveAspectRatio="xMidYMid meet">
<metadata>
Created by potrace 1.11, written by Peter Selinger 2001-2013
</metadata>
<g transform="translate(0.000000,16.000000) scale(0.002286,-0.002286)"
fill="#000000" stroke="none">
<path d="M3278 6995 c-2 -1 -39 -5 -83 -9 -117 -9 -222 -22 -298 -37 -29 -5
-65 -12 -82 -15 -203 -35 -461 -115 -700 -216 -438 -186 -845 -472 -1180 -829
-81 -86 -219 -253 -259 -312 -12 -17 -47 -68 -78 -112 -219 -316 -393 -706
-495 -1110 -13 -55 -27 -111 -29 -125 -2 -14 -7 -36 -9 -50 -3 -14 -8 -37 -10
-52 -3 -16 -7 -40 -10 -55 -3 -16 -8 -50 -11 -78 -3 -27 -7 -56 -9 -62 -18
-57 -27 -562 -12 -716 38 -396 118 -716 268 -1069 177 -415 415 -766 749
-1098 420 -419 905 -708 1469 -875 140 -42 412 -99 516 -110 38 -4 72 -8 75
-10 14 -9 216 -19 385 -19 200 0 328 6 460 24 117 16 152 23 355 65 276 57
679 219 959 385 143 84 388 253 421 289 3 3 30 26 60 51 105 85 251 227 360
350 41 47 78 87 81 90 4 3 50 62 102 133 240 319 433 695 543 1055 39 129 89
332 99 402 4 25 10 63 15 85 5 22 11 69 15 105 4 36 8 67 10 70 6 10 18 269
17 392 0 174 -11 322 -37 513 -11 73 -54 277 -76 360 -11 38 -22 80 -24 91 -8
37 -86 255 -122 344 -218 530 -589 1028 -1028 1379 -38 31 -72 58 -75 61 -15
15 -232 165 -285 197 -413 247 -822 403 -1225 468 -19 3 -47 8 -62 11 -30 6
-54 9 -148 19 -36 4 -78 9 -95 12 -32 5 -512 13 -517 8z m1072 -1176 c377 -68
680 -333 793 -694 34 -108 38 -140 42 -285 4 -143 -16 -253 -66 -380 -153
-380 -519 -631 -929 -634 -379 -3 -735 219 -905 562 -31 63 -68 170 -80 231
-20 96 -26 294 -11 361 1 8 6 33 10 55 20 106 77 243 145 345 109 166 282 307
466 381 44 18 41 17 150 43 110 26 285 32 385 15z m-1335 -1766 c91 -21 185
-59 251 -102 356 -234 446 -710 200 -1054 -230 -324 -676 -407 -1008 -188
-393 259 -450 807 -117 1140 111 111 224 173 374 204 87 18 221 18 300 0z
m2300 -87 c276 -72 468 -318 469 -601 0 -118 -23 -209 -76 -305 -72 -129 -44
-106 -923 -765 -634 -475 -1361 -1014 -1411 -1047 -179 -116 -442 -145 -639
-69 -164 64 -209 101 -480 401 -33 36 -64 70 -70 76 -5 6 -28 31 -50 55 -22
24 -87 96 -145 159 -58 63 -109 120 -115 126 -34 38 -172 189 -180 198 -6 6
-56 61 -110 121 -140 154 -176 194 -205 224 -127 130 -189 282 -188 462 1 212
100 389 288 518 113 78 215 106 342 97 83 -6 120 -20 153 -56 18 -21 20 -34
17 -163 -4 -216 32 -358 140 -540 47 -79 171 -211 233 -248 22 -13 49 -29 60
-36 11 -7 27 -15 35 -19 8 -3 29 -12 45 -19 67 -29 172 -56 259 -65 265 -31
497 47 716 240 35 30 71 62 80 70 37 32 153 136 164 145 6 6 81 71 166 145 85
74 162 142 170 150 9 8 47 42 85 75 74 64 139 121 195 171 19 17 109 96 200
175 91 79 170 149 175 155 33 36 148 121 192 141 111 51 278 63 408 29z"/>
</g>
</svg>
