<svg xmlns="http://www.w3.org/2000/svg" viewBox="0 0 581.1 170.1"><path fill="#F3F2F2" d="M45 28.3h176.6l-89.1 109.3L45 28.3zm32.3 8.3l-8.7 9.6 64.1 81.3 65.8-80.7-8.7-10.2H77.3z"/><path fill="#ACABAE" d="M49 32.5h175.3l-89.1 109.3L49 32.5zm32.3 8.2l-8.7 9.6 64.1 81.3 65.8-80.7-8.7-10.2H81.3z"/><linearGradient id="a" gradientUnits="userSpaceOnUse" x1="135.32" y1="143.649" x2="135.32" y2="26.157"><stop offset="0" stop-color="#c2c1c3"/><stop offset=".18" stop-color="#d3d2d3"/><stop offset=".441" stop-color="#e9e7e8"/><stop offset=".607" stop-color="#f1f0f0"/><stop offset=".833" stop-color="#efeeee"/><stop offset=".944" stop-color="#e8e6e6"/><stop offset=".989" stop-color="#e2e0e1"/></linearGradient><path fill="url(#a)" d="M47 30.4h176.6l-89.1 109.3L47 30.4zm32.3 8.3l-8.7 9.6 64.1 81.3 65.8-80.7-8.7-10.2H79.3z"/><path fill="#007AC2" d="M104.2 52.7C89.7 52.7 78 63.6 78 77.1c0 15.4 10.8 26.2 26.2 26.2 15.4 0 26.2-10.8 26.2-26.2-.1-13.5-11.8-24.4-26.2-24.4zm0 39.5c-8 0-14.2-6.6-14.2-15 0-7.1 6.7-13.4 14.2-13.4 7.6 0 14.2 6.2 14.2 13.4 0 8.3-6.3 15-14.2 15zm170.2.2c-.7.7-1.6 1-2.7 1-1.5 0-3.2-1.3-5.1-3.8l-6.5 6.8c2.9 4.2 7 6.5 11.7 6.5 9.8 0 15.5-6 15.5-16.4V54.3h-11.4v31.6c0 2.1 0 5-1.5 6.5zm29.8-13.1v-25h-11.4V81c0 6.5.4 12.3 4.9 16.7 3.4 3.3 9.1 5.2 15.7 5.2s12.3-1.9 15.7-5.2c4.5-4.4 4.9-10.2 4.9-16.7V54.3h-11.4v24.9c0 5.1 0 13.8-9.1 13.8-9.3 0-9.3-8.6-9.3-13.7z"/><path fill="#FFF" d="M104.2 51.5c-15.1 0-27.3 11.4-27.3 25.5 0 15.8 11.5 27.3 27.3 27.3s27.3-11.5 27.3-27.3c0-14-12.3-25.5-27.3-25.5zm0 51.7C88.8 103.2 78 92.5 78 77.1c0-13.4 11.7-24.4 26.2-24.4 14.4 0 26.2 10.9 26.2 24.4-.1 15.4-10.8 26.1-26.2 26.1z"/><path fill="#FFF" d="M104.2 63.8C96.6 63.8 90 70 90 77.2c0 8.4 6.3 15 14.2 15 8 0 14.2-6.6 14.2-15 0-7.2-6.7-13.4-14.2-13.4zm0 27.2c-7.3 0-13.1-6.1-13.1-13.9 0-6.5 6.1-12.2 13.1-12.2s13.1 5.7 13.1 12.2c-.1 7.8-5.8 13.9-13.1 13.9z"/><path fill="none" d="M42.5 65v26h2.3c8.7 0 13.8-4.9 13.8-13 0-8-5.3-13-13.7-13h-2.4z"/><path fill="#007AC2" d="M29.5 54.3v47.3h17.9c13.7 0 24.9-10.6 24.9-23.7 0-13-11.2-23.7-24.9-23.7H29.5zM59.9 78c0 10.4-7.7 14.1-15 14.1h-3.5V63.8H45c9 0 14.9 5.6 14.9 14.2z"/><path fill="#FFF" d="M47.4 53.1h-19v49.6h19c14.3 0 26-11.1 26-24.8 0-13.6-11.7-24.8-26-24.8zm-17.9 48.5V54.3h17.9c13.7 0 24.9 10.6 24.9 23.7 0 13-11.2 23.7-24.9 23.7H29.5z"/><path fill="#FFF" d="M45 63.8h-3.6v28.3h3.5c7.2 0 15-3.7 15-14.1 0-8.6-5.9-14.2-14.9-14.2zm-.1 27.1h-2.3V65H45c8.5 0 13.7 5 13.7 13 0 8.1-5.2 12.9-13.8 12.9z"/><path fill="#007AC2" d="M161.6 81.8c6.4-1.1 10.5-6.2 10.5-13.1 0-9.1-6.1-14.3-16.8-14.3h-18.9v47.3h11.9V83h1l12.3 18.6h14.7l-15.6-19.7.9-.1zM150.1 76h-1.8V62.8h1.8c4.1 0 9.6.7 9.6 6.6 0 5.9-5.5 6.6-9.6 6.6z"/><path fill="#FFF" d="M173.2 68.6c0-9.7-6.7-15.5-18-15.5h-20v49.6h14.2V85.3l11.5 17.5h17.7l-15.9-20.1c6.4-1.5 10.5-6.9 10.5-14.1zm-11.7 33L149.2 83h-1v18.6h-11.9V54.3h18.9c10.7 0 16.8 5.2 16.8 14.3 0 6.9-4.1 12-10.5 13.1l-1 .2 15.6 19.7h-14.6z"/><path fill="#FFF" d="M150.1 62.8h-1.8V76h1.8c4.1 0 9.6-.7 9.6-6.6 0-5.9-5.5-6.6-9.6-6.6zm0 12.1h-.7v-11h.7c5.8 0 8.5 1.7 8.5 5.5-.1 3.8-2.7 5.5-8.5 5.5zM274.8 86c0 1.9 0 4.4-1.2 5.6-.5.5-1.1.7-1.8.7-1.1 0-2.8-1.4-4.6-3.9l-.4-.6-8.1 8.5.3.4c3.2 4.8 7.6 7.4 13 7.4 10.6 0 16.6-6.4 16.6-17.6V53.2h-13.8V86zm12.6.5c0 10.4-5.6 16.4-15.5 16.4-4.8 0-8.8-2.2-11.7-6.5l6.5-6.8c1.9 2.5 3.7 3.8 5.1 3.8 1.1 0 2-.3 2.7-1C276 90.9 276 88 276 86V54.4h11.4v32.1zm33.9-7.2c0 6.6-.6 12.6-8 12.6s-8-6-8-12.6V53.2h-13.8V81c0 6.8.4 12.8 5.2 17.5 4.9 4.8 12.4 5.6 16.5 5.6 4 0 11.6-.7 16.5-5.6 4.9-4.7 5.2-10.7 5.2-17.5V53.2h-13.8v26.1zm1.2-25h11.4V81c0 6.5-.4 12.3-4.9 16.7-3.4 3.3-9.1 5.2-15.7 5.2s-12.3-1.9-15.7-5.2c-4.5-4.4-4.9-10.2-4.9-16.7V54.3h11.4v24.9c0 5.1 0 13.8 9.1 13.8s9.1-8.6 9.1-13.8V54.3z"/><path fill="#007AC2" d="M350.6 54.3h-12.4l19.9 47.3h9l20.2-47.3h-12.4l-12.2 30.4z"/><path fill="#FFF" d="M362.7 81.6l-11.3-28.4h-15l20.7 49.3.1.4h10.5L389 53.1h-15l-11.3 28.5zm24.6-27.3l-20.2 47.3h-9l-19.9-47.3h12.4l12.1 30.4 12.2-30.4h12.4z"/><path fill="#007AC2" d="M402.1 82.6h14.2v-9.5h-14.2v-9.3h15v-9.5h-26.4v47.3h26.4v-9.5h-15z"/><path fill="#FFF" d="M389.5 102.8h28.7V90.9h-15v-7.2h14.2V71.9h-14.2V65h15V53.1h-28.7v49.7zm1.2-48.5h26.4v9.5h-15v9.3h14.2v9.5h-14.2v9.5h15v9.5h-26.4V54.3z"/><path fill="#007AC2" d="M422.6 54.3v47.3h11.5V71.9h1l23 29.7h11.7V54.3h-11.4v29.6h-1l-.2-.2-22.8-29.4z"/><path fill="#FFF" d="M457.3 81.8l-22.1-28.4-.2-.2h-13.5v49.6h13.8V74l22.3 28.7H471V53.1h-13.8v28.7zm1.1-27.5h11.4v47.3h-11.7L435 71.9h-1v29.7h-11.4V54.3h11.7l22.9 29.4.2.2h1V54.3z"/><path fill="#007AC2" d="M475.8 54.3h11.4v47.3h-11.4z"/><path fill="#FFF" d="M474.6 102.8h13.8V53.1h-13.8v49.7zm1.2-48.5h11.4v47.3h-11.4V54.3z"/><path fill="#007AC2" d="M504.9 54.3h-11.4v47.3H520v-9.5h-15.1z"/><path fill="#FFF" d="M506 53.1h-13.8v49.6h28.9V90.9H506V53.1zm14 48.5h-26.5V54.3h11.4v37.8H520v9.5z"/><path fill="#007AC2" d="M551.6 63.8v-9.5h-26.4v47.3h26.4v-9.5h-15v-9.5h14.2v-9.5h-14.2v-9.3z"/><path fill="#FFF" d="M552.8 65V53.1H524v49.6h28.7V90.9h-15v-7.2H552V71.9h-14.2V65h15zm-2 17.6h-14.2v9.5h15v9.5h-26.4V54.3h26.4v9.5h-15v9.3h14.2v9.5z"/><path fill="#007AC2" d="M194.3 82.6H209v-9.5h-14.7v-9.3h15.5v-9.5h-27.3v47.3h27.3v-9.5h-15.5z"/><path fill="#FFF" d="M181.3 102.8h29.6V90.9h-15.5v-7.2h14.7V71.9h-14.7V65h15.5V53.1h-29.6v49.7zm1.2-48.5h27.3v9.5h-15.5v9.3H209v9.5h-14.7v9.5h15.5v9.5h-27.3V54.3z"/><path fill="#007AC2" d="M231.3 54.3h-11.9v47.3h27.5v-9.5h-15.6z"/><path fill="#FFF" d="M232.4 53.1h-14.2v49.6H248V90.9h-15.6V53.1zm14.5 48.5h-27.5V54.3h11.9v37.8h15.6v9.5z"/><path fill="#007AC2" d="M245.9 54.5c.3.2.6.5.8.8.2.4.3.7.3 1.1 0 .4-.1.7-.3 1.1-.2.3-.5.6-.8.8-.3.2-.7.3-1.1.3-.4 0-.7-.1-1.1-.3-.3-.2-.6-.5-.8-.8-.2-.3-.3-.7-.3-1.1 0-.4.1-.7.3-1.1.2-.4.5-.6.8-.8.3-.2.7-.3 1.1-.3.4 0 .8.1 1.1.3zm-2.3-.4c-.4.2-.7.5-1 1-.2.4-.4.9-.4 1.3 0 .5.1.9.3 1.3.2.4.6.7 1 1 .4.2.8.3 1.3.3s.9-.1 1.3-.3c.4-.2.7-.6 1-1 .2-.4.3-.9.3-1.3 0-.5-.1-.9-.4-1.3-.2-.4-.6-.7-1-1-.4-.2-.8-.3-1.3-.3-.3 0-.7.1-1.1.3zm.6 3.7v-1.2h.3c.2 0 .3 0 .4.1.1.1.3.3.5.7l.3.4h.6l-.3-.6c-.2-.3-.3-.5-.4-.6l-.2-.2c.2 0 .4-.1.6-.3.1-.2.2-.3.2-.5 0-.1 0-.3-.1-.4-.1-.1-.2-.2-.4-.3-.1-.1-.4-.1-.7-.1h-1v2.8h.2zm0-2.4h1c.1 0 .1.1.2.1 0 .1.1.1.1.2s0 .2-.1.3c-.1.1-.3.1-.5.1h-.5v-.7z"/><path d="M259.9 131.7c0-5.9 4.1-10.1 9.9-10.1 4.9 0 7.3 2.8 7.3 4.1 0 1.4-1.7 1.8-1.8 1.7-1.1-2-3.3-3-5.5-3-3.9 0-6.7 3-6.7 7.3s2.9 7.3 6.8 7.3c2.6 0 4.8-1.3 5.6-3.4.1-.2 1.9.2 1.9 1.7 0 1.4-2.6 4.5-7.7 4.5-5.8-.1-9.8-4.2-9.8-10.1zm19.5 5.9c0-3.3 3.2-4.8 9.7-4.9h.4v-.3c0-2.2-1.3-3.4-3.6-3.4-2.2 0-3.5 1.1-4.2 2.5 0 0-1.8 0-1.8-1.4s2.1-3.5 6.2-3.5 6.3 2.1 6.3 5.8v8.9c0 .2-.5.3-1.1.3-1.1 0-1.8-.6-1.8-2.3-1.1 1.6-3 2.5-5.2 2.5-3-.1-4.9-1.8-4.9-4.2zm10.1-2v-1.1h-.8c-4.2.1-6.4.9-6.4 2.9 0 1.3 1 2.1 2.7 2.1 2.7 0 4.5-1.6 4.5-3.9zm9.3-6.3c.6-1.8 1.8-2.7 3.7-2.7 1.5 0 2.4.7 2.4 1.9 0 1.1-.8 1.6-.9 1.5-.5-.4-1-.6-1.8-.6-2.3 0-3.3 2.3-3.3 5.6v5.1c0 1.1-.6 1.4-1.3 1.4h-.3c-.8 0-1.3-.3-1.3-1.4v-13c0-.1.5-.3 1.1-.3.7-.1 1.7.4 1.7 2.5zm7.2 4.9c0-4.4 3.1-7.7 7.4-7.7 4.2 0 6.9 2.9 6.9 7.3v.2c0 .6-.2.9-.9.9h-10.7c.2 2.7 2.2 4.5 4.9 4.5 2.5 0 3.8-1.1 4.5-2.4.1-.1 1.6.2 1.6 1.5s-2.2 3.3-6.2 3.3c-4.4-.1-7.5-3.1-7.5-7.6zm2.8-1.3h8.7c-.2-2.5-1.7-4.1-4.1-4.1-2.4 0-4.2 1.7-4.6 4.1zm22.9-4.7v-.2c0-.7.4-1.1 1.3-1.1h1.7v-1.1c0-3.6 1.7-5.3 4.6-5.3 2.2 0 3.2.9 3.2 2 0 .8-.7 1.4-.7 1.3-.4-.4-1.3-.8-2.2-.8-1.4 0-2.1.9-2.1 2.9v1.1h2.4c1 0 1.3.4 1.3 1.1v.2c0 .7-.4 1.1-1.3 1.1h-2.4v10.7c0 1.1-.5 1.4-1.3 1.4h-.2c-.8 0-1.4-.3-1.4-1.4v-10.7H333c-1-.1-1.3-.5-1.3-1.2zm10.7 5.9c0-4.4 3.1-7.6 7.6-7.6 4.4 0 7.6 3.2 7.6 7.6 0 4.4-3.1 7.6-7.6 7.6s-7.6-3.1-7.6-7.6zm12.4.1c0-3-2-5.2-4.8-5.2s-4.8 2.2-4.8 5.1c0 3 2.1 5.2 4.8 5.2 2.8 0 4.8-2.2 4.8-5.1zm8.5-4.9c.6-1.8 1.8-2.7 3.7-2.7 1.5 0 2.4.7 2.4 1.9 0 1.1-.8 1.6-.9 1.5-.5-.4-1-.6-1.8-.6-2.3 0-3.3 2.3-3.3 5.6v5.1c0 1.1-.6 1.4-1.3 1.4h-.3c-.8 0-1.3-.3-1.3-1.4v-13c0-.1.5-.3 1.1-.3.7-.1 1.7.4 1.7 2.5zm18.6 10.8v-16.4c0-1.1.7-1.7 1.7-1.7h5c4.8 0 7.6 2.2 7.6 6.2 0 4.1-2.6 6.2-7.7 6.2H385v5.7c0 .8-.5 1.4-1.4 1.4h-.5c-.7 0-1.2-.5-1.2-1.4zm3.1-8.2h3.6c3 0 4.5-1.3 4.5-3.7 0-2.4-1.5-3.7-4.5-3.7H385v7.4zm16.8-2.6c.6-1.8 1.8-2.7 3.7-2.7 1.5 0 2.4.7 2.4 1.9 0 1.1-.8 1.6-.9 1.5-.5-.4-1-.6-1.8-.6-2.3 0-3.3 2.3-3.3 5.6v5.1c0 1.1-.6 1.4-1.3 1.4h-.3c-.8 0-1.3-.3-1.3-1.4v-13c0-.1.5-.3 1.1-.3.7-.1 1.6.4 1.7 2.5zm7.1 4.9c0-4.4 3.1-7.7 7.4-7.7 4.2 0 6.9 2.9 6.9 7.3v.2c0 .6-.2.9-.9.9h-10.7c.2 2.7 2.2 4.5 4.9 4.5 2.5 0 3.8-1.1 4.5-2.4.1-.1 1.6.2 1.6 1.5s-2.2 3.3-6.2 3.3c-4.4-.1-7.5-3.1-7.5-7.6zm2.8-1.3h8.7c-.2-2.5-1.7-4.1-4.1-4.1-2.4 0-4.2 1.7-4.6 4.1zm13.5 1.2c0-4.4 3.2-7.6 7.5-7.6s6.2 2.6 6.2 4c0 1.2-1.7 1.5-1.8 1.3-.7-1.6-1.9-2.8-4.4-2.8-2.7 0-4.8 2.1-4.8 5.1 0 3 2 5.1 4.8 5.1 2.4 0 3.7-1.2 4.4-2.8.1-.2 1.8.1 1.8 1.4 0 1.3-1.9 4-6.2 4-4.4-.1-7.5-3.3-7.5-7.7zm16.2-11.9c0-1.1.7-1.7 1.8-1.7s1.7.6 1.7 1.7-.6 1.7-1.8 1.7c-1-.1-1.7-.7-1.7-1.7zm.3 17.9v-11.9c0-1.1.6-1.4 1.4-1.4h.3c.8 0 1.3.3 1.3 1.4v11.9c0 1.1-.5 1.4-1.3 1.4h-.3c-.8 0-1.4-.4-1.4-1.4zm5.9-6c0-4.4 3.1-7.6 7.6-7.6 4.4 0 7.6 3.2 7.6 7.6 0 4.4-3.1 7.6-7.6 7.6s-7.6-3.1-7.6-7.6zm12.4.1c0-3-2-5.2-4.8-5.2s-4.8 2.2-4.8 5.1c0 3 2.1 5.2 4.8 5.2 2.8 0 4.8-2.2 4.8-5.1zm15.8 5c-1 1.5-2.6 2.5-4.8 2.5-3.8 0-5.6-2.6-5.6-6.2v-7.3c0-1.1.5-1.4 1.3-1.4h.3c.8 0 1.3.3 1.3 1.4v7c0 2.5 1.3 4 3.5 4 1.8 0 3.2-1 4-2.6v-8.4c0-1.1.5-1.4 1.3-1.4h.3c.8 0 1.3.3 1.3 1.4v12.9c0 .1-.5.3-1.1.3-.8.1-1.7-.4-1.8-2.2zm5.6-.6c0-.9 1.1-1.4 1.2-1.4 1 1.2 2.6 2.2 4.9 2.2 2 0 3.2-.8 3.2-2 0-1.5-1.4-1.7-3.7-2.3-2.1-.4-5.1-1.1-5.1-4.2 0-2.7 2.3-4.5 5.8-4.5 3.7 0 5.6 1.6 5.6 2.9 0 .9-1.1 1.5-1.2 1.4-.9-1.2-2.4-2-4.2-2-2 0-3.1.8-3.1 2 0 1.3 1.3 1.6 3.6 2.1 2.2.5 5.3 1.1 5.3 4.3 0 2.8-2.3 4.5-6 4.5-4.2.1-6.3-1.6-6.3-3zm24.4 1.1v-16.4c0-1 .5-1.4 1.3-1.4h.5c.9 0 1.4.5 1.4 1.4v15.3h8.5c.9 0 1.4.5 1.4 1.3v.1c0 .9-.5 1.4-1.4 1.4h-9.9c-1.2 0-1.8-.6-1.8-1.7zm15.5-17.5c0-1.1.7-1.7 1.8-1.7s1.7.6 1.7 1.7-.6 1.7-1.8 1.7c-1.1-.1-1.7-.7-1.7-1.7zm.2 17.9v-11.9c0-1.1.6-1.4 1.4-1.4h.3c.8 0 1.3.3 1.3 1.4v11.9c0 1.1-.5 1.4-1.3 1.4h-.3c-.8 0-1.4-.4-1.4-1.4zm5.2-11.9v-.2c0-.7.4-1.1 1.3-1.1h1.7v-1.1c0-3.6 1.7-5.3 4.6-5.3 2.2 0 3.2.9 3.2 2 0 .8-.7 1.4-.7 1.3-.4-.4-1.3-.8-2.2-.8-1.4 0-2.1.9-2.1 2.9v1.1h2.4c1 0 1.3.4 1.3 1.1v.2c0 .7-.4 1.1-1.3 1.1h-2.4v10.7c0 1.1-.5 1.4-1.3 1.4h-.3c-.8 0-1.4-.3-1.4-1.4v-10.7h-1.7c-.7-.1-1.1-.5-1.1-1.2zm10.8 6c0-4.4 3.1-7.7 7.4-7.7 4.2 0 6.9 2.9 6.9 7.3v.2c0 .6-.2.9-.9.9h-10.7c.2 2.7 2.2 4.5 4.9 4.5 2.5 0 3.8-1.1 4.5-2.4.1-.1 1.6.2 1.6 1.5s-2.2 3.3-6.2 3.3c-4.4-.1-7.5-3.1-7.5-7.6zm2.8-1.3h8.7c-.2-2.5-1.7-4.1-4.1-4.1-2.4 0-4.2 1.7-4.6 4.1z" fill="#ACABAE"/></svg>