<?xml version="1.0" standalone="no"?>
<!DOCTYPE svg PUBLIC "-//W3C//DTD SVG 1.1//EN" "http://www.w3.org/Graphics/SVG/1.1/DTD/svg11.dtd" >
<svg xmlns="http://www.w3.org/2000/svg">
<metadata></metadata>
<defs>
<font id="precioussanstworegular" horiz-adv-x="1263" >
<font-face units-per-em="2048" ascent="1522" descent="-526" />
<missing-glyph horiz-adv-x="622" />
<glyph unicode="&#xfb00;" horiz-adv-x="1433" d="M18 817v160l177 37v82q0 94 20.5 160.5t54.5 113.5q53 74 136 100.5t174 26.5q53 0 110.5 -8t116.5 -27l-66 -229q-31 12 -59.5 18t-63.5 2t-61.5 -14t-42.5 -37q-25 -35 -25 -121v-53h330v68q0 94 20.5 160.5t55.5 113.5q57 74 141 100.5t176 26.5q68 0 140.5 -13.5 t144.5 -41.5l-63 -228q-41 18 -86 30.5t-99 8.5q-35 -4 -63.5 -15t-44.5 -38q-27 -39 -27 -119v-53h270v-211h-270v-817h-295v817h-330v-817h-294v817h-177z" />
<glyph unicode="&#xfb01;" horiz-adv-x="1232" d="M18 817v160l177 51v72q0 117 39.5 194.5t99.5 126.5q72 59 158 82t157 23q72 0 155 -10.5t161 -42.5l-66 -244q-49 16 -94 27.5t-105 11.5q-47 0 -87 -9.5t-68 -35.5q-27 -23 -41.5 -58t-14.5 -86v-51h603v-1028h-293v817h-310v-817h-294v817h-177z" />
<glyph unicode="&#xfb02;" horiz-adv-x="1273" d="M18 817v160l177 51v74q0 117 39.5 195.5t99.5 125.5q66 53 161 80t232 27q78 0 175 -8.5t190 -28.5v-1145q0 -80 25.5 -107.5t74.5 -27.5q18 0 37.5 4t36.5 10l49 -227q-41 -14 -91 -22.5t-106 -8.5q-49 0 -104.5 13.5t-103.5 52.5t-79.5 110.5t-31.5 190.5v926 q-45 10 -94 10q-104 0 -160 -47q-27 -23 -41.5 -56.5t-14.5 -87.5v-53h226v-211h-226v-817h-294v817h-177z" />
<glyph unicode="&#xfb03;" horiz-adv-x="1857" d="M18 817v160l177 37v82q0 94 19 160.5t54 113.5q55 74 137 100.5t173 26.5q53 0 109 -8t114 -27l-64 -229q-31 12 -59.5 18t-63.5 2q-33 -4 -59.5 -14t-42.5 -37q-23 -37 -23 -121v-53h330v72q0 117 39 195.5t98 127.5q72 59 159 81t159 22t154.5 -10.5t160.5 -42.5 l-65 -244q-49 16 -94.5 27.5t-104.5 11.5q-47 0 -87 -9.5t-69 -35.5q-27 -23 -41 -58t-14 -86v-51h602v-1028h-293v817h-309v-817h-295v817h-330v-817h-294v817h-177z" />
<glyph unicode="&#xfb04;" horiz-adv-x="1898" d="M18 817v160l177 37v82q0 94 19 160.5t54 113.5q55 74 137 100.5t173 26.5q53 0 109 -8t114 -27l-64 -229q-31 12 -59.5 18t-63.5 2q-33 -4 -59.5 -14t-42.5 -37q-23 -37 -23 -121v-53h330v74q0 117 39 195.5t98 127.5q125 104 396 105q78 0 175 -8.5t189 -28.5v-1145 q0 -80 25.5 -107.5t75.5 -27.5q18 0 37.5 4t35.5 10l49 -227q-41 -14 -91 -22.5t-105 -8.5q-49 0 -104.5 13.5t-103.5 52.5t-80 110.5t-32 190.5v926q-45 10 -94 10q-104 0 -160 -47q-27 -23 -41 -56.5t-14 -87.5v-53h225v-211h-225v-817h-295v817h-330v-817h-294v817h-177z " />
<glyph horiz-adv-x="0" />
<glyph horiz-adv-x="0" />
<glyph unicode="&#xd;" horiz-adv-x="512" />
<glyph unicode=" "  horiz-adv-x="622" />
<glyph unicode="&#x09;" horiz-adv-x="622" />
<glyph unicode="&#xa0;" horiz-adv-x="622" />
<glyph unicode="!" horiz-adv-x="688" d="M195 1464h299l-2 -366l-37 -641h-222l-36 641zM197 0v285h295v-285h-295z" />
<glyph unicode="&#x22;" horiz-adv-x="989" d="M135 1462h291l-25 -510h-241zM561 1462h291l-23 -510h-243z" />
<glyph unicode="#" horiz-adv-x="1511" d="M82 223l49 242h223l47 240h-223l49 241h224l45 223h260l-43 -223h231l45 223h260l-43 -223h224l-50 -241h-223l-47 -240h221l-47 -242h-223l-47 -223h-260l45 223h-232l-45 -223h-260l43 223h-223zM614 465h234l49 240h-233z" />
<glyph unicode="$" horiz-adv-x="1167" d="M98 33l31 248q76 -31 157 -50.5t185 -19.5q141 0 218 42t77 132q0 47 -23.5 80t-66.5 59q-41 25 -89 43.5t-100.5 38t-104.5 44t-99 59.5q-66 49 -109 121.5t-43 193.5q0 154 101.5 254t263.5 131v186h237v-176q147 -14 254 -65l-31 -242q-66 29 -144.5 47.5t-162.5 18.5 q-119 0 -174 -37t-55 -105q0 -63 52 -99t128 -67q74 -31 158 -58.5t155 -78.5q72 -53 115 -124.5t43 -188.5q0 -100 -35 -176t-94 -129.5t-135 -85t-160 -45.5v-160h-239v147q-88 4 -163 18.5t-147 43.5z" />
<glyph unicode="%" horiz-adv-x="2213" d="M168 1055q0 219 87 329.5t271 110.5q359 0 359 -440q0 -442 -359 -443q-184 0 -271 111t-87 332zM406 1055q0 -74 10 -120t26.5 -70.5t38 -34t45.5 -9.5q23 0 45.5 9.5t39 34t26.5 70.5t10 120t-10 119t-26.5 69.5t-39 33.5t-45.5 9q-25 0 -46 -9t-37.5 -33.5t-26.5 -70 t-10 -118.5zM518 -6l875 1470h301l-873 -1470h-303zM1331 410q0 440 359 440q184 0 270 -110.5t86 -329.5t-86 -330t-270 -111q-358 0 -359 441zM1569 410q0 -74 10 -119t26.5 -69.5t38 -34t46.5 -9.5t46 9.5t37.5 34t26.5 69.5t10 119t-10 118.5t-26.5 69.5t-38 34t-45.5 9 q-25 0 -46.5 -9t-38 -34t-26.5 -70t-10 -118z" />
<glyph unicode="&#x26;" horiz-adv-x="1384" d="M80 397q0 68 17.5 129.5t52.5 112.5q80 115 243 156q-47 66 -78.5 144.5t-31.5 164.5q0 186 110 287q111 104 328 104q115 0 208 -27.5t179 -85.5l-100 -217q-57 47 -119 73t-131 26q-82 0 -125 -37q-49 -39 -49 -115q0 -66 36.5 -130t90.5 -128l221 -289q10 59 13 125 t3 137h281q0 -115 -23.5 -250t-83.5 -258l246 -319h-348l-76 94q-72 -57 -167 -91t-222 -34q-113 0 -194.5 25.5t-141.5 73.5q-72 55 -105.5 139t-33.5 190zM377 403q0 -49 12 -86.5t35 -66.5q56 -70 162 -70q133 0 221 88l-279 353q-82 -27 -114 -80q-37 -55 -37 -138z" />
<glyph unicode="'" horiz-adv-x="561" d="M135 1462h291l-25 -510h-241z" />
<glyph unicode="(" horiz-adv-x="835" d="M166 721q0 246 39 411.5t105.5 273t155.5 168t189 93.5l31 -213q-109 -66 -160 -241t-51 -492q0 -315 51.5 -490.5t159.5 -242.5l-31 -211q-100 33 -189 93t-155.5 167.5t-105.5 273.5t-39 410z" />
<glyph unicode=")" horiz-adv-x="835" d="M147 -12q111 68 162 243t51 490q0 317 -51 492.5t-162 240.5l33 213q100 -33 189.5 -93.5t156 -168t105.5 -273t39 -411.5q0 -244 -39 -410t-105.5 -273.5t-155.5 -167.5t-190 -93z" />
<glyph unicode="*" horiz-adv-x="1198" d="M201 1087l71 224l213 -72l-4 225h236l-4 -227l213 74l73 -224l-217 -65l138 -180l-191 -140l-131 187l-129 -187l-188 140l137 180z" />
<glyph unicode="+" horiz-adv-x="1175" d="M98 571v267h355v356h266v-356h358v-267h-358v-356h-266v356h-355z" />
<glyph unicode="," horiz-adv-x="657" d="M172 -160q39 195 27 445h288q2 -57 -1 -130t-15 -149t-37.5 -148.5t-68.5 -131.5z" />
<glyph unicode="-" horiz-adv-x="1157" d="M197 463v246h764v-246h-764z" />
<glyph unicode="." horiz-adv-x="663" d="M184 0v285h295v-285h-295z" />
<glyph unicode="/" horiz-adv-x="980" d="M-61 -154l872 1770h231l-872 -1770h-231z" />
<glyph unicode="0" horiz-adv-x="1187" d="M59 733q0 180 27 314.5t86 228.5q127 217 422 217t422 -217q59 -94 85.5 -228.5t26.5 -314.5t-26.5 -315t-85.5 -230q-127 -217 -422 -217t-422 217q-59 94 -86 229.5t-27 315.5zM383 733q0 -152 12.5 -249t36.5 -154q29 -61 69 -85t93 -24t94 23.5t70 85.5 q23 57 36 154.5t13 248.5q0 152 -13.5 248t-35.5 154q-29 63 -70 85.5t-94 22.5t-93 -22.5t-69 -85.5q-25 -57 -37 -153.5t-12 -248.5z" />
<glyph unicode="1" horiz-adv-x="1187" d="M145 1171l498 306h219v-1477h-309v1118l-299 -172z" />
<glyph unicode="2" horiz-adv-x="1187" d="M59 1225q72 123 193 196.5t315 73.5q111 0 204 -29.5t159 -89.5q61 -57 96 -141t35 -197q0 -76 -23.5 -140t-63.5 -121.5t-92.5 -109t-111.5 -100.5q-61 -49 -118.5 -90t-107.5 -79t-88 -72.5t-59 -71.5h654l-19 -254h-962v111q0 78 21.5 145.5t64.5 130t108.5 122.5 t153.5 128q61 47 119.5 92t103.5 93t72.5 101.5t27.5 114.5q0 41 -10 78t-35 66t-64.5 45t-92.5 16q-76 0 -150 -41t-137 -153z" />
<glyph unicode="3" horiz-adv-x="1187" d="M66 86l120 233q86 -63 158 -83.5t150 -18.5q53 2 101 18.5t83 51.5q59 59 59 155q0 106 -63 166q-80 70 -248 70h-76v209h51q178 0 261 94q39 41 55 99.5t20 136.5h-604l21 247h866q-4 -162 -17.5 -271.5t-54.5 -186.5q-31 -63 -80 -108.5t-127 -84.5q80 -23 141.5 -61.5 t104.5 -102.5q63 -90 64 -231q0 -113 -41 -194t-109 -136q-80 -68 -182.5 -93.5t-212.5 -25.5q-117 0 -219.5 24.5t-220.5 92.5z" />
<glyph unicode="4" horiz-adv-x="1187" d="M20 516l666 961h285v-942l198 -31v-201h-198v-303h-297v303h-629zM324 545h348v502z" />
<glyph unicode="5" horiz-adv-x="1187" d="M74 125l147 227q49 -59 119 -95t152 -36q55 0 103 17.5t83 52.5q68 61 67 166q0 111 -63 168q-43 39 -94 54t-115 15q-59 0 -118.5 -14t-104.5 -35l-127 107l166 712h760l-23 -270h-510l-59 -268q74 4 140.5 -1t125.5 -20q68 -16 132.5 -48t113.5 -89q94 -115 94 -309 q0 -117 -39 -206t-111 -153q-147 -131 -381 -131q-61 0 -118.5 6.5t-112.5 22.5t-111.5 47t-115.5 80z" />
<glyph unicode="6" horiz-adv-x="1187" d="M86 641q0 162 43 292t121 228q63 84 144 144.5t173 99.5t193.5 56.5t202.5 11.5l2 -246q-137 -4 -254 -56.5t-193 -166.5q-43 -61 -65 -130q47 25 100 40.5t117 15.5q104 0 191 -33t147 -98q104 -115 104 -316q0 -100 -26.5 -190t-81.5 -160q-59 -76 -153.5 -120 t-227.5 -44q-141 0 -240.5 51.5t-165.5 141.5q-68 94 -99.5 218t-31.5 261zM408 578q0 -158 47 -248q53 -111 157 -111q57 0 96.5 22.5t63.5 63.5q37 74 37 168q0 111 -47 168q-27 33 -66 46t-88 13q-66 0 -119 -32.5t-81 -81.5v-8z" />
<glyph unicode="7" horiz-adv-x="1187" d="M63 1194l23 270h952l58 -213l-541 -1251h-338l551 1194h-705z" />
<glyph unicode="8" horiz-adv-x="1187" d="M57 381q0 127 63.5 223t215.5 174q-127 84 -167 173t-38 177q2 84 36 152t94.5 115t146.5 73.5t192 26.5q102 0 186 -25.5t144.5 -73.5t93.5 -118t33 -156q0 -80 -44 -168t-167 -163q152 -78 218 -178.5t66 -229.5q0 -82 -32.5 -157.5t-99 -132t-168 -90.5t-238.5 -34 q-129 0 -228.5 32t-168 88t-103.5 131t-35 161zM371 418q0 -88 57 -142.5t166 -54.5q111 0 168 48t57 132q0 78 -70.5 132.5t-183.5 111.5q-92 -49 -143 -102.5t-51 -124.5zM410 1116q0 -68 56 -118t150 -97q78 41 120 87t42 112q0 80 -56 121t-128 41q-80 0 -132 -37 t-52 -109z" />
<glyph unicode="9" horiz-adv-x="1187" d="M72 979q0 100 26.5 190.5t81.5 159.5q59 76 154.5 120t226.5 44q141 0 241.5 -51t164.5 -139q68 -94 99.5 -219.5t31.5 -262.5q0 -162 -43 -291t-119 -229q-63 -82 -145 -143.5t-174.5 -100.5t-192.5 -56t-203 -11l-2 246q137 4 254 57t195 166q18 29 34.5 60.5 t28.5 66.5q-47 -25 -101.5 -39.5t-115.5 -14.5q-104 0 -191 33t-147 99q-104 115 -104 315zM375 989q0 -113 47 -166q29 -35 66.5 -48t86.5 -13q66 0 118 32.5t83 79.5v11q0 158 -47 248q-53 111 -158 110q-55 0 -95 -22.5t-62 -63.5q-23 -35 -31 -79t-8 -89z" />
<glyph unicode=":" horiz-adv-x="661" d="M184 0v285h295v-285h-295zM184 743v285h295v-285h-295z" />
<glyph unicode=";" horiz-adv-x="663" d="M174 -160q39 195 27 445h288q2 -57 -1 -130t-15 -149t-37.5 -148.5t-68.5 -131.5zM195 743v285h294v-285h-294z" />
<glyph unicode="&#x3c;" horiz-adv-x="1396" d="M160 508v262l1065 424v-270l-772 -285l772 -285v-270z" />
<glyph unicode="=" horiz-adv-x="1175" d="M98 272v267h979v-267h-979zM98 854v266h979v-266h-979z" />
<glyph unicode="&#x3e;" horiz-adv-x="1396" d="M172 84v270l772 285l-772 285v270l1065 -424v-262z" />
<glyph unicode="?" horiz-adv-x="1306" d="M184 1237q66 119 177.5 188.5t295.5 69.5q84 0 166 -21.5t147.5 -69.5t105.5 -127t40 -194q0 -76 -29.5 -140t-73.5 -118.5t-95.5 -101.5t-95.5 -91t-73.5 -87t-29.5 -88h-273q0 68 27 122t67 102t87 90t87 85t66.5 90t26.5 101q0 74 -42 125t-134 51q-33 0 -68 -6.5 t-68.5 -24.5t-64.5 -52t-55 -89zM436 0v285h293v-285h-293z" />
<glyph unicode="@" horiz-adv-x="2015" d="M188 735q0 170 62.5 318.5t174.5 259t265.5 174t335.5 63.5q221 0 374.5 -59t248 -156.5t136.5 -220.5t42 -250q0 -166 -52.5 -277.5t-127 -178t-159.5 -95t-153 -28.5q-123 0 -178 73q-59 -39 -117.5 -54t-124.5 -15q-127 0 -206.5 77.5t-79.5 202.5q0 78 35.5 130.5 t99 84t152 47t194.5 21.5v18q0 74 -25.5 100.5t-93.5 26.5q-33 0 -86 -10t-98 -24l-57 174q63 27 147 44t150 17q49 0 103 -10t99 -43t75 -93.5t30 -160.5v-289q0 -47 12 -73.5t55 -26.5q29 0 71 19.5t80 62.5t64.5 111.5t26.5 168.5q0 96 -29.5 192.5t-103.5 173.5 t-197 126t-307 49q-147 0 -271 -54.5t-214 -145.5t-140.5 -213t-50.5 -257q0 -147 49.5 -270t137.5 -212t206.5 -138t257.5 -49q158 0 262.5 28.5t172.5 65.5l51 -154q-88 -39 -205 -61.5t-281 -22.5q-172 0 -320.5 59.5t-258 166t-172 257t-62.5 330.5zM877 575 q0 -53 32.5 -80.5t87.5 -27.5q29 0 57.5 8.5t57.5 28.5q0 10 -1 17t-1 16v159q-51 -4 -94 -10t-74 -18.5t-48 -34t-17 -58.5z" />
<glyph unicode="A" horiz-adv-x="1392" d="M47 0l332 1464h620l347 -1464h-328l-92 414h-486l-88 -414h-305zM494 666h376l-122 538h-138z" />
<glyph unicode="B" horiz-adv-x="1298" d="M154 0v1454q72 16 189.5 28.5t252.5 12.5q123 0 232.5 -25.5t187.5 -89.5q53 -45 86 -110.5t33 -157.5q0 -104 -45.5 -174t-110.5 -121q104 -51 168.5 -137t64.5 -231q0 -115 -37.5 -197t-105.5 -137q-82 -66 -200.5 -93.5t-266.5 -27.5h-107.5t-118 1t-116.5 2t-106 3z M463 252q39 -4 80 -5t78 -1q131 0 196 53q66 54 66 154q0 88 -52 135q-35 33 -87 46t-117 13h-164v-395zM463 889h151q59 0 109 -6q98 73 98 190q0 74 -49 119q-57 51 -168 51q-68 0 -141 -12v-342z" />
<glyph unicode="C" horiz-adv-x="1255" d="M106 733q0 178 42 319.5t123 240t198 150.5t266 52q98 0 173 -17.5t131.5 -50t98.5 -78.5t79 -106l-201 -184q-45 84 -109.5 128t-171.5 44q-82 0 -140 -38t-95 -104.5t-54.5 -158.5t-17.5 -201q0 -260 93 -381t274 -121q113 0 196.5 30t159.5 75l76 -244 q-94 -53 -211 -86t-275 -33q-326 0 -480.5 198t-154.5 566z" />
<glyph unicode="D" horiz-adv-x="1409" d="M154 2v1464q57 6 107 11.5t101.5 8.5t106.5 5t125 2q195 0 341 -57.5t236 -186.5q68 -94 101 -229t33 -309q0 -182 -47.5 -314.5t-139.5 -222.5q-98 -96 -235.5 -140t-311.5 -44q-106 0 -206.5 1t-210.5 11zM463 250q25 -4 52.5 -4h55.5q41 0 85 4t87 17.5t83 40t71 69.5 q39 53 60.5 134t21.5 200q0 133 -19.5 224t-54.5 150q-27 47 -59.5 77t-69.5 47.5t-75.5 23.5t-75.5 6q-47 0 -84 -2t-78 -10v-977z" />
<glyph unicode="E" horiz-adv-x="1126" d="M154 0v1464h870v-262h-561v-336h448v-256h-448v-348h604l-23 -262h-890z" />
<glyph unicode="F" horiz-adv-x="1077" d="M154 0v1464h872l-22 -262h-541v-336h407v-256h-407v-610h-309z" />
<glyph unicode="G" horiz-adv-x="1355" d="M106 733q0 178 42 319.5t123 240t198 150.5t266 52q96 0 171 -17.5t132.5 -50t100.5 -78.5t78 -106l-197 -182q-29 55 -63.5 89t-71.5 52.5t-75 25.5t-75 7q-160 0 -233.5 -135t-73.5 -365q0 -252 82 -379t256 -127q51 0 86 6.5t80 18.5v256h-217l22 242h475v-691 q-104 -43 -225 -67.5t-246 -24.5q-326 0 -480.5 198t-154.5 566z" />
<glyph unicode="H" horiz-adv-x="1472" d="M154 0v1464h309v-577h547v577h311v-1464h-311v629h-547v-629h-309z" />
<glyph unicode="I" horiz-adv-x="616" d="M154 0v1464h309v-1464h-309z" />
<glyph unicode="J" horiz-adv-x="628" d="M-117 -94q76 8 129.5 21.5t87 46t49 90t15.5 151.5v1249h311v-1302q0 -137 -32.5 -231.5t-99.5 -155t-168 -89t-238 -32.5z" />
<glyph unicode="K" horiz-adv-x="1366" d="M154 0v1464h309v-602h106l430 602h361l-539 -706l551 -758h-375l-419 602h-115v-602h-309z" />
<glyph unicode="L" horiz-adv-x="1134" d="M154 0v1464h309v-1202h631l-21 -262h-919z" />
<glyph unicode="M" horiz-adv-x="1884" d="M137 0l56 1464h374l375 -882l391 882h344l68 -1464h-305l-43 997l-353 -798h-247l-340 798l-35 -997h-285z" />
<glyph unicode="N" horiz-adv-x="1507" d="M154 0v1464h295l614 -954l-4 954h297v-1466h-299l-613 946q2 -238 3.5 -472t1.5 -472h-295z" />
<glyph unicode="O" horiz-adv-x="1431" d="M106 731q0 160 27 283t78 215q78 137 205 201.5t299 64.5q174 0 301 -64.5t205 -201.5q51 -92 78.5 -215t27.5 -283q0 -158 -27.5 -280.5t-78.5 -214.5q-78 -137 -205 -202t-301 -65q-172 0 -299 64.5t-205 202.5q-51 92 -78 214.5t-27 280.5zM430 731q0 -106 11.5 -186 t33.5 -137q39 -111 104.5 -149t135.5 -38q72 0 138.5 38t104.5 149q23 57 34.5 137t11.5 186q0 109 -11.5 188.5t-34.5 139.5q-41 111 -106.5 147.5t-136.5 36.5q-70 0 -135.5 -38t-104.5 -146q-23 -59 -34 -139t-11 -189z" />
<glyph unicode="P" horiz-adv-x="1251" d="M154 0v1464q37 6 88 11.5t109.5 9.5t122 7t122.5 3q137 0 253 -34t195 -105q63 -59 98.5 -140t35.5 -192q0 -121 -45.5 -209t-124.5 -147q-86 -63 -209 -92t-267 -29h-69v-547h-309zM463 793h84q66 0 123 13t98 42t65.5 72t24.5 102q0 109 -65 164q-35 29 -85.5 43 t-113.5 14q-31 0 -63.5 -2t-67.5 -6v-442z" />
<glyph unicode="Q" horiz-adv-x="1431" d="M106 731q0 160 27 283t78 215q78 137 205 201.5t299 64.5q174 0 301 -64.5t205 -201.5q51 -92 78.5 -215t27.5 -283q0 -158 -27.5 -280.5t-78.5 -214.5q-57 -102 -143.5 -164t-196.5 -84q-6 -8 2 -17q12 -23 48 -35t86 -19t109.5 -9t116.5 -2l-63 -252 q-281 0 -421.5 76.5t-140.5 212.5v32q-135 16 -238.5 80t-168.5 181q-51 92 -78 214.5t-27 280.5zM430 731q0 -106 11.5 -186t33.5 -137q39 -111 104.5 -149t135.5 -38q72 0 138.5 38t104.5 149q23 57 34.5 137t11.5 186q0 109 -11.5 188.5t-34.5 139.5 q-41 111 -106.5 147.5t-136.5 36.5q-70 0 -135.5 -38t-104.5 -146q-23 -59 -34 -139t-11 -189z" />
<glyph unicode="R" horiz-adv-x="1294" d="M154 0v1464q33 4 85 10.5t112.5 10.5t120.5 7t112 3q145 0 253.5 -30.5t188.5 -98.5q72 -61 112 -150.5t40 -203.5q0 -74 -17.5 -141.5t-50.5 -120.5q-35 -53 -82 -93.5t-106 -68.5l309 -588h-344l-260 510q-23 -2 -44.5 -3t-45.5 -1h-74v-506h-309zM463 750h78 q55 0 121.5 13t119.5 60q33 29 52.5 72t19.5 106q0 70 -21.5 116t-56.5 73q-41 33 -88 44t-94 11q-27 0 -61.5 -2t-69.5 -6v-487z" />
<glyph unicode="S" horiz-adv-x="1159" d="M59 37l33 260q78 -33 164 -53.5t195 -20.5q150 0 229.5 44t79.5 139q0 51 -24.5 84.5t-69.5 60.5q-43 27 -93.5 46t-104.5 39.5t-109.5 46.5t-104.5 62q-70 51 -115 127t-45 203q0 98 41 176t112.5 132.5t169 83t212.5 28.5t204 -19.5t160 -54.5l-32 -254 q-68 31 -152 50.5t-172 19.5q-123 0 -181.5 -39t-58.5 -111q0 -66 55.5 -103.5t133.5 -68.5q78 -33 166 -62.5t163 -82.5q76 -55 121 -130t45 -198q0 -131 -55 -221t-142 -146.5t-194.5 -81t-214.5 -24.5q-123 0 -222 15.5t-194 52.5z" />
<glyph unicode="T" d="M51 1186v278h1178l-25 -278h-416v-1186h-309v1186h-428z" />
<glyph unicode="U" horiz-adv-x="1443" d="M154 508v956h309v-909q0 -158 70.5 -242t244.5 -84q53 0 102.5 6.5t98.5 16.5v1212h311v-1425q-104 -27 -237 -48.5t-281 -21.5q-131 0 -244.5 27t-196.5 90.5t-130 165.5t-47 256z" />
<glyph unicode="V" horiz-adv-x="1396" d="M47 1464h324l329 -1108l322 1108h328l-478 -1474h-362z" />
<glyph unicode="W" horiz-adv-x="2164" d="M47 1464h324l297 -1099l293 1099h262l299 -1095l293 1095h303l-432 -1474h-336l-263 903l-268 -903h-348z" />
<glyph unicode="X" horiz-adv-x="1374" d="M39 0l491 733l-456 731h366l262 -442l265 442h366l-473 -706l471 -758h-356l-285 475l-282 -475h-369z" />
<glyph unicode="Y" horiz-adv-x="1327" d="M27 1464h358l283 -600l286 600h346l-493 -882v-582h-309v578z" />
<glyph unicode="Z" horiz-adv-x="1200" d="M37 0v190l766 1016h-678v258h995l43 -239l-719 -953h701v-272h-1108z" />
<glyph unicode="[" horiz-adv-x="819" d="M166 -219v1884h506v-270h-197v-1342h197v-272h-506z" />
<glyph unicode="\" horiz-adv-x="1126" d="M-33 1610h330l870 -1764h-329z" />
<glyph unicode="]" horiz-adv-x="819" d="M147 53h197v1342h-197v270h506v-1884h-506v272z" />
<glyph unicode="^" horiz-adv-x="1146" d="M96 772l379 692h197l379 -692h-250l-228 412l-227 -412h-250z" />
<glyph unicode="_" horiz-adv-x="1142" d="M0 -436h1143v-213h-1143v213z" />
<glyph unicode="`" horiz-adv-x="978" d="M266 1573h279l166 -363h-224z" />
<glyph unicode="a" horiz-adv-x="1107" d="M94 291q0 106 55.5 175t147.5 107q80 35 176 49.5t197 14.5v29q0 41 -4 70.5t-19 49.5q-31 45 -123 45q-86 0 -172 -23.5t-151 -51.5l-70 219q78 33 195.5 60.5t236.5 27.5q113 0 192 -22.5t128 -75.5q47 -51 63.5 -126t16.5 -175v-437q0 -57 4 -113.5t12 -111.5 l-244 -10q-4 12 -8 25.5t-8 29.5q-68 -41 -135.5 -59.5t-147.5 -18.5q-150 0 -246 86t-96 236zM391 309q0 -61 41 -96q39 -33 103 -33q35 0 69.5 10.5t65.5 34.5v232q-41 0 -88 -5.5t-88 -19.5q-45 -16 -74 -46t-29 -77z" />
<glyph unicode="b" horiz-adv-x="1163" d="M141 29v1413l293 45v-438q78 14 148 14q133 0 233 -41t164 -127q100 -135 100 -377q0 -129 -33.5 -226t-95.5 -165q-72 -80 -172 -119t-219 -39q-61 0 -112.5 3t-100.5 10.5t-98 18.5t-107 28zM434 227q35 -8 60.5 -11t60.5 -3q53 0 100 24.5t78 79.5q23 37 34 86.5 t11 116.5q0 147 -47 219q-29 45 -69.5 63.5t-96.5 18.5q-35 0 -65.5 -5t-65.5 -13v-576z" />
<glyph unicode="c" horiz-adv-x="999" d="M84 518q0 129 30.5 226.5t88.5 162.5q66 80 160 118t206 38q127 0 221.5 -42t167.5 -163l-180 -162q-41 76 -90 101.5t-104 25.5q-109 0 -158 -94q-20 -35 -31.5 -87t-11.5 -120q0 -150 53 -225q31 -47 78 -66.5t111 -19.5q78 0 144.5 27.5t115.5 60.5l69 -219 q-82 -53 -175 -82t-206 -29q-123 0 -222 40t-165 126q-49 66 -75.5 161t-26.5 222z" />
<glyph unicode="d" horiz-adv-x="1163" d="M84 518q0 123 27.5 216t78.5 159q68 86 169.5 129t228.5 43q74 0 141 -18v395l295 45v-1487h-223l-15 55q-47 -39 -113.5 -62.5t-142.5 -23.5q-96 0 -178 34t-145 106q-59 68 -91 169t-32 240zM383 508q0 -68 10 -118t31 -87q47 -90 158 -90q86 0 147 59v527 q-53 22 -121 22h-6q-125 0 -178 -100q-41 -76 -41 -213z" />
<glyph unicode="e" horiz-adv-x="1087" d="M84 518q0 127 30.5 223.5t86.5 161.5q66 82 160 121t210 39q104 0 193.5 -33t148.5 -104q49 -60 76 -152q22 -76 22 -169q0 -21 -1 -42l-99 -127q-45 -4 -109.5 -5t-119.5 -1h-293q4 -47 19.5 -91t44.5 -75q61 -63 176 -63q86 0 162.5 28.5t130.5 65.5l71 -213 q-82 -53 -185 -83t-235 -30q-258 0 -387 166q-49 66 -75.5 161t-26.5 222zM387 621h361q0 90 -31 145q-40 65 -128 65h-3q-100 0 -154 -71q-39 -59 -45 -139z" />
<glyph unicode="f" horiz-adv-x="808" d="M18 817v160l177 37v82q0 94 20.5 160.5t54.5 113.5q57 74 141.5 100.5t176.5 26.5q68 0 140.5 -13.5t143.5 -41.5l-63 -228q-41 18 -86 30q-34 10 -73 10q-12 0 -25 -1q-35 -4 -64 -15t-45 -38q-27 -39 -27 -119v-53h271v-211h-271v-817h-294v817h-177z" />
<glyph unicode="g" horiz-adv-x="1161" d="M84 516q0 117 28.5 209t80.5 158q72 92 177 136t230 44q121 0 217 -15.5t209 -50.5v-897q0 -283 -129 -430q-143 -162 -438 -162q-92 0 -179 19.5t-165 54.5l78 252q70 -35 134 -51t140 -16q127 0 192 59q61 59 74 174q-41 -12 -87 -20.5t-93 -8.5q-121 0 -210 42 t-148 120q-111 141 -111 383zM385 516q0 -74 13.5 -128t37.5 -93q55 -80 164 -80q68 0 123 31v559q-29 10 -58.5 13t-64.5 3q-49 0 -93 -22.5t-77 -73.5q-23 -37 -34 -88t-11 -121z" />
<glyph unicode="h" horiz-adv-x="1236" d="M141 0v1442l293 45v-453q53 12 111.5 20.5t118.5 8.5q94 0 179 -25.5t148 -85.5q111 -113 111 -331v-621h-293v528q0 74 -6 132.5t-35 97.5q-27 35 -70 49t-98 14q-43 0 -86 -7t-80 -17v-797h-293z" />
<glyph unicode="i" horiz-adv-x="575" d="M141 0v1028h293v-1028h-293zM141 1202v285h293v-285h-293z" />
<glyph unicode="j" horiz-adv-x="575" d="M-57 -240q51 8 89 20.5t62.5 42.5t35.5 81t11 139v985h293v-1012q0 -244 -104.5 -372.5t-341.5 -135.5zM141 1202v285h293v-285h-293z" />
<glyph unicode="k" horiz-adv-x="1167" d="M141 0v1442l293 45v-830h107l301 371h313l-397 -479l405 -549h-340l-284 408h-105v-408h-293z" />
<glyph unicode="l" horiz-adv-x="616" d="M141 336v1106l293 45v-1139q0 -80 25.5 -107.5t72.5 -27.5q39 0 74 14l49 -227q-41 -14 -90 -22.5t-106 -8.5q-47 0 -102.5 13.5t-103.5 52.5t-80 110.5t-32 190.5z" />
<glyph unicode="m" horiz-adv-x="1875" d="M141 0v999q111 25 238 44.5t250 19.5q94 0 167.5 -17.5t133.5 -58.5q98 41 184 58.5t201 17.5q219 0 323 -117q53 -59 78 -139t25 -186v-621h-293v530q0 72 -6 128.5t-31 93.5q-23 37 -62.5 53t-93.5 16q-47 0 -91 -11t-97 -34q20 -61 20 -155v-621h-292v530 q0 70 -6.5 127.5t-28.5 94.5q-23 37 -63 53t-91 16q-45 0 -90 -6t-82 -14v-801h-293z" />
<glyph unicode="n" horiz-adv-x="1236" d="M141 0v999q115 27 238 45.5t246 18.5t212 -25.5t154 -85.5q57 -55 84 -138t27 -193v-621h-293v528q0 74 -6 132.5t-35 97.5q-27 35 -71 49t-99 14q-43 0 -84 -6t-80 -14v-801h-293z" />
<glyph unicode="o" horiz-adv-x="1148" d="M84 516q0 250 100 381q123 166 387 166q131 0 229.5 -40t162.5 -126q100 -131 100 -381q0 -248 -100 -381q-63 -86 -162 -126t-230 -40q-264 0 -387 166q-100 133 -100 381zM383 516q0 -135 31 -207q23 -53 63.5 -74.5t93.5 -21.5q57 0 97.5 21.5t62.5 74.5q33 68 33 207 t-33 207q-23 53 -62.5 75.5t-97.5 22.5q-53 0 -94 -22.5t-63 -75.5q-31 -70 -31 -207z" />
<glyph unicode="p" horiz-adv-x="1165" d="M141 -492v1520h221l15 -63q49 41 119.5 70.5t146.5 29.5q104 0 189.5 -39t144.5 -119q49 -68 76.5 -164t27.5 -225q0 -133 -31.5 -231.5t-91.5 -163.5q-70 -82 -165 -118t-199 -36q-82 0 -160 25v-486h-293zM434 236q51 -23 127 -23q55 0 98 19.5t72 66.5q49 78 49 229 q0 68 -10 117t-29 84q-25 47 -63.5 69.5t-83.5 22.5q-41 0 -83 -17.5t-77 -51.5v-516z" />
<glyph unicode="q" horiz-adv-x="1163" d="M84 516q0 117 26.5 205t75.5 153q78 104 200 146.5t259 42.5q102 0 195.5 -15.5t181.5 -43.5v-1496h-295v486q-41 -10 -85 -17.5t-87 -7.5q-98 0 -189.5 35t-158.5 115q-59 68 -91 165t-32 232zM383 514q0 -78 13.5 -132t35.5 -91q29 -41 71 -59.5t91 -18.5q72 0 133 23 v565q-59 20 -121 20q-59 0 -108 -27.5t-78 -86.5q-16 -37 -26.5 -84.5t-10.5 -108.5z" />
<glyph unicode="r" horiz-adv-x="763" d="M141 0v1028h230l22 -88q70 72 145.5 97.5t184.5 25.5l27 -275q-16 2 -35 2.5t-37 0.5q-63 -4 -124.5 -18.5t-119.5 -55.5v-717h-293z" />
<glyph unicode="s" horiz-adv-x="901" d="M59 25l33 229q131 -66 275 -66q39 0 72.5 6.5t58.5 20.5q49 29 49 80q0 33 -26.5 54.5t-67.5 40t-90.5 36.5t-96.5 43q-37 18 -69.5 43t-58 56.5t-41 74.5t-15.5 98q0 143 104 230q117 92 310 92q92 0 163.5 -17.5t135.5 -48.5l-33 -215q-59 27 -120.5 42.5t-127.5 15.5 q-70 0 -104 -23q-41 -25 -41 -65q0 -31 25.5 -52.5t66.5 -39t90 -35t98 -41.5q74 -35 130.5 -94.5t56.5 -163.5q0 -92 -37 -158t-97 -107q-70 -51 -156.5 -71.5t-162.5 -20.5q-115 0 -186.5 15.5t-137.5 40.5z" />
<glyph unicode="t" horiz-adv-x="856" d="M6 817v160l170 35v299l252 12l27 -295h325v-211h-307v-420q0 -94 31 -137q20 -29 51 -39t63 -10q84 0 166 31l43 -222q-68 -27 -143.5 -39t-153.5 -12t-146.5 19.5t-117.5 68.5q-43 43 -66.5 114t-23.5 169v477h-170z" />
<glyph unicode="u" horiz-adv-x="1236" d="M141 412v616h291v-524q0 -74 7 -132.5t34 -97.5q27 -35 71 -49t99 -14q45 0 85 6t81 16v795h293v-993q-117 -29 -231.5 -47.5t-252.5 -18.5q-123 0 -212 25.5t-154 85.5q-57 55 -84 139t-27 193z" />
<glyph unicode="v" horiz-adv-x="1089" d="M4 1028h324l229 -706l217 706h311l-411 -1038h-268z" />
<glyph unicode="w" horiz-adv-x="1667" d="M4 1028h311l193 -698l199 698h258l196 -698l193 698h311l-354 -1038h-279l-196 637l-197 -637h-281z" />
<glyph unicode="x" horiz-adv-x="1165" d="M10 0l418 518l-399 510h370l199 -301l193 301h348l-402 -496l418 -532h-360l-224 326l-215 -326h-346z" />
<glyph unicode="y" horiz-adv-x="1134" d="M4 1028h315l259 -692l229 692h326l-414 -1038q-45 -117 -97.5 -204t-121 -147.5t-157.5 -92t-206 -33.5l-88 243q106 4 186 38t130 100q29 31 44 62.5t25 53.5z" />
<glyph unicode="z" horiz-adv-x="1058" d="M76 0v190l504 598h-461v240h831l21 -194l-516 -598h532v-236h-911z" />
<glyph unicode="{" horiz-adv-x="813" d="M168 655l16 140q80 35 80 127q0 43 -15.5 95t-31.5 111q-16 47 -26.5 95.5t-10.5 99.5q0 96 33 161.5t90 105.5t132 57.5t159 17.5h72v-240h-45q-59 0 -99.5 -37.5t-40.5 -107.5q0 -45 9.5 -85t19.5 -79q12 -45 23.5 -88t11.5 -90q0 -86 -41 -136t-109 -71v-14 q68 -20 109 -71.5t41 -137.5q0 -47 -11.5 -90t-23.5 -88q-10 -39 -19.5 -79t-9.5 -85q0 -70 40 -108t100 -38h45v-237h-72q-84 0 -159 17.5t-132 57.5t-90 105.5t-33 159.5q0 53 11.5 105.5t27.5 101.5q18 59 31.5 106t13.5 88q0 49 -21.5 82t-74.5 49z" />
<glyph unicode="|" horiz-adv-x="1169" d="M430 -346v1810h309v-1810h-309z" />
<glyph unicode="}" horiz-adv-x="813" d="M147 23h46q59 0 99 37.5t40 107.5q0 45 -9.5 85t-19.5 79q-12 45 -23.5 88t-11.5 90q0 86 41 136t109 71v14q-68 20 -109 71.5t-41 137.5q0 47 11.5 90t23.5 88q10 39 19.5 79t9.5 85q0 70 -40 107.5t-99 37.5h-46v238h72q84 0 159 -17.5t132 -57.5t90 -104.5t33 -160.5 q0 -53 -11.5 -105.5t-27.5 -101.5q-18 -59 -31.5 -106t-13.5 -88q0 -49 21.5 -82t74.5 -49l-16 -140q-80 -35 -80 -127q0 -43 15.5 -95t31.5 -112q16 -47 26.5 -95t10.5 -99q0 -96 -33 -161.5t-90 -105.5t-132 -57.5t-159 -17.5h-72v240z" />
<glyph unicode="~" horiz-adv-x="1488" d="M123 821q41 262 153.5 385t268.5 123q86 0 142 -37t98 -82t79 -81.5t84 -36.5q35 0 58.5 25.5t41 62.5t26.5 78.5t13 74.5h279q-43 -262 -152.5 -385t-263.5 -123q-88 0 -146.5 37t-101.5 82t-79.5 82t-83.5 37q-35 0 -59.5 -25.5t-40 -62.5t-24.5 -79t-14 -75h-278z" />
<glyph unicode="&#xa1;" horiz-adv-x="688" d="M195 -436l2 366l36 639h222l37 -639l2 -366h-299zM197 743v285h295v-285h-295z" />
<glyph unicode="&#xa2;" horiz-adv-x="976" d="M84 518q0 129 30.5 226.5t88.5 162.5q47 59 111.5 94t140.5 52v166h223v-164q86 -14 154.5 -59.5t125.5 -137.5l-180 -162q-41 76 -90 101.5t-104 25.5q-109 0 -158 -94q-20 -35 -31.5 -87t-11.5 -120q0 -150 53 -225q31 -47 78 -66.5t111 -19.5q78 0 144.5 27.5 t115.5 60.5l69 -219q-61 -41 -129.5 -66.5t-146.5 -36.5v-163h-223v166q-84 16 -151.5 54t-117.5 101q-49 66 -75.5 161t-26.5 222z" />
<glyph unicode="&#xa3;" horiz-adv-x="1167" d="M166 0v279h80q127 86 127 245q0 10 -1 21.5t-3 21.5h-203v242h88q-29 53 -50.5 113.5t-21.5 136.5q0 104 30 179t83 126q72 72 178.5 102.5t226.5 30.5q98 0 185.5 -20.5t148.5 -61.5l-94 -248q-47 35 -108.5 50.5t-118.5 15.5q-106 0 -168 -49q-61 -51 -62 -140 q0 -72 27 -126t57 -109h279v-242h-201v-6q0 -106 -39 -172.5t-86 -109.5h539l-25 -279h-868z" />
<glyph unicode="&#xa4;" horiz-adv-x="1261" d="M182 387l135 137q-59 90 -59 197.5t59 200.5l-135 135l115 114l135 -135q90 59 198.5 59.5t198.5 -59.5l136 135l114 -114l-135 -135q59 -92 59.5 -200t-59.5 -198l135 -137l-114 -115l-136 138q-90 -59 -198.5 -59.5t-198.5 59.5l-135 -138zM420 722q0 -40 15.5 -79 t45.5 -70q31 -31 70 -46t80 -15t79.5 15t69.5 46t46.5 70t15.5 79t-15.5 79t-46.5 69q-31 31 -69.5 47.5t-79.5 16.5t-80 -16.5t-70 -47.5t-46 -69.5t-15 -78.5z" />
<glyph unicode="&#xa5;" horiz-adv-x="1167" d="M14 1464h340l236 -614l239 614h326l-328 -710h226v-164h-297l-29 -62v-67h326v-164h-326l2 -297h-309v297h-320v164h320v53l-33 76h-287v164h222z" />
<glyph unicode="&#xa6;" horiz-adv-x="1169" d="M430 -346v809h309v-809h-309zM430 655v809h309v-809h-309z" />
<glyph unicode="&#xa7;" horiz-adv-x="1288" d="M203 737q0 92 40 148.5t87 97.5q-33 35 -52.5 80t-19.5 104q0 78 28.5 138.5t80 101.5t123 62.5t157.5 21.5q109 0 203 -24.5t160 -59.5l-56 -201q-41 16 -115.5 35t-154.5 19q-78 0 -105.5 -27t-27.5 -62q0 -27 13.5 -44t41 -31.5t72.5 -28.5t108 -37 q150 -49 225.5 -119.5t75.5 -179.5q0 -92 -39.5 -150.5t-86.5 -99.5q70 -68 69 -184q0 -78 -28.5 -138.5t-81 -101.5t-124 -62.5t-157.5 -21.5q-109 0 -204 16.5t-161 51.5l62 217q41 -16 114.5 -35.5t153.5 -19.5q78 0 105.5 26.5t27.5 61.5q0 29 -13 47t-43 32.5t-76 29 t-111 36.5q-145 49 -218 122t-73 179zM481 768q0 -57 70 -87t205 -77q18 12 34.5 34.5t16.5 57.5q0 57 -68.5 87t-203.5 75q-20 -10 -37 -32.5t-17 -57.5z" />
<glyph unicode="&#xa8;" horiz-adv-x="978" d="M182 1210v336h224v-336h-224zM573 1210v336h222v-336h-222z" />
<glyph unicode="&#xa9;" horiz-adv-x="1736" d="M106 731q0 158 60.5 297t164 242.5t242 164t295.5 60.5q158 0 297.5 -60.5t242.5 -164t163.5 -242.5t60.5 -297t-60.5 -296t-163.5 -241.5t-242.5 -164t-297.5 -60.5t-296 60.5t-241.5 164t-164 241.5t-60.5 296zM215 731q0 -135 51 -254t140.5 -207t208 -139t253.5 -51 t255 51t209 139t140.5 207t51.5 254t-51.5 255t-140.5 208t-208.5 139t-255.5 51q-135 0 -253.5 -51t-208 -139t-140.5 -208t-51 -255zM551 731q0 109 27.5 187.5t73.5 129t109.5 75t133.5 24.5q66 0 111 -15.5t75.5 -38t49 -48t30.5 -48.5l-123 -112q-23 41 -50 68.5 t-93 27.5q-86 0 -119 -69.5t-33 -180.5q0 -250 181 -250q53 0 95 11.5t89 35.5l45 -149q-49 -27 -114.5 -44.5t-139.5 -17.5q-156 0 -252 97.5t-96 316.5z" />
<glyph unicode="&#xaa;" horiz-adv-x="790" d="M127 1079q0 59 33 95t86 59q45 18 101 25.5t116 7.5v8q0 47 -14 67q-18 23 -70 23q-51 0 -99.5 -13.5t-89.5 -29.5l-43 125q47 18 116 33.5t138 15.5q133 0 189 -55q29 -27 38 -67t9 -95v-234q0 -31 2 -61.5t6 -60.5l-145 -4q-2 6 -3 12t-5 16q-74 -41 -164 -41 q-88 0 -144 45q-57 47 -57 129zM256 561v113h268v-113h-268zM303 1090q0 -33 23 -52q23 -16 61 -16q18 0 38.5 5t37.5 17v123q-25 0 -52.5 -2t-50.5 -12q-25 -8 -41 -23.5t-16 -39.5z" />
<glyph unicode="&#xab;" horiz-adv-x="1662" d="M152 575l495 496l201 -201l-283 -295l283 -296l-201 -201zM813 575l500 496l198 -201l-282 -295l282 -296l-198 -201z" />
<glyph unicode="&#xac;" horiz-adv-x="1112" d="M139 569v267h846v-494h-182v227h-664z" />
<glyph unicode="&#xad;" horiz-adv-x="1157" d="M197 463v246h764v-246h-764z" />
<glyph unicode="&#xae;" horiz-adv-x="1095" d="M113 1059q0 90 34.5 170t93 139t138.5 93t168 34q90 0 170 -34t139 -93t93 -139t34 -170t-34 -169t-93 -138.5t-139 -93t-170 -33.5q-88 0 -168 33.5t-138.5 93t-93 138.5t-34.5 169zM193 1059q0 -74 27.5 -138.5t75.5 -112.5t112.5 -75.5t138.5 -27.5t139.5 27.5 t114.5 75.5t76.5 112.5t27.5 138.5t-27.5 139.5t-76.5 113.5t-114.5 75.5t-139.5 27.5t-138.5 -27.5t-112.5 -75.5t-75.5 -113.5t-27.5 -139.5zM369 829v453q41 4 78.5 8t78.5 4q47 0 85 -9t65 -30q51 -41 51 -116q0 -49 -20 -82q-10 -16 -23.5 -26.5t-30.5 -20.5l101 -181 h-131l-84 148h-54v-148h-116zM485 1079h35q16 0 32.5 2t29.5 11q24 14 24 45q0 27 -18 41q-10 10 -23.5 12t-29.5 2h-22.5t-27.5 -2v-111z" />
<glyph unicode="&#xaf;" horiz-adv-x="978" d="M203 1233v231h573v-231h-573z" />
<glyph unicode="&#xb0;" horiz-adv-x="829" d="M150 1438q0 55 20 103t56 84t84 56.5t104 20.5q55 0 104 -20.5t86 -56.5t57.5 -84t20.5 -103t-20.5 -104.5t-57.5 -86.5t-86 -57.5t-104 -20.5t-103.5 20.5t-84.5 57.5t-56 86t-20 105zM244 1438q0 -72 49 -122t121 -50t122 50t50 122q0 70 -50.5 120t-121.5 50 q-72 0 -121 -50.5t-49 -119.5z" />
<glyph unicode="&#xb1;" horiz-adv-x="1216" d="M119 76v266h979v-266h-979zM119 803v266h354v356h266v-356h359v-266h-359v-357h-266v357h-354z" />
<glyph unicode="&#xb2;" horiz-adv-x="872" d="M125 1323q47 72 123 116t194 44q68 0 126.5 -16.5t99.5 -51.5q80 -68 80 -196q0 -86 -53.5 -150.5t-127.5 -122.5q-76 -55 -138 -96t-91 -78h405l-10 -151h-602v63q0 92 54.5 159.5t164.5 145.5q37 27 73 52.5t63.5 53t44 58.5t16.5 66q0 23 -5 43t-22 36 q-16 16 -39.5 25.5t-54.5 9.5q-47 0 -92 -22.5t-84 -87.5z" />
<glyph unicode="&#xb3;" horiz-adv-x="923" d="M162 674l76 129q53 -35 93 -45t87 -10q66 0 112 43q35 31 35 83q0 66 -37 97q-49 39 -153 39h-47v123h47q102 0 147 36q45 35 45 105v35h-374l14 155h541v-137q0 -47 -5.5 -85t-23.5 -68q-33 -53 -115 -89q82 -31 123 -88q37 -49 37 -135q0 -61 -24.5 -109t-65.5 -81 q-49 -39 -114.5 -54.5t-133.5 -15.5q-72 0 -134.5 15.5t-129.5 56.5z" />
<glyph unicode="&#xb4;" horiz-adv-x="978" d="M266 1210l166 363h279l-222 -363h-223z" />
<glyph unicode="&#xb5;" horiz-adv-x="1226" d="M141 -379v1407h293v-774q90 -12 172 -12q66 0 104 19.5t57 56t25.5 89t6.5 115.5v506h293v-604q0 -217 -111 -336t-346 -119q-47 0 -98.5 3t-102.5 8v-359h-293z" />
<glyph unicode="&#xb6;" horiz-adv-x="1521" d="M225 1106q0 74 30 139.5t81 113.5t119.5 76.5t146.5 28.5h709v-235h-127v-1454h-242v1454h-127v-1454h-242v973q-72 4 -135 33.5t-110 77.5t-75 111.5t-28 135.5z" />
<glyph unicode="&#xb7;" horiz-adv-x="663" d="M184 453v282h295v-282h-295z" />
<glyph unicode="&#xb8;" horiz-adv-x="978" d="M293 -397l2 110q12 -4 34.5 -5t37.5 -1q57 0 85.5 16.5t28.5 38.5q0 18 -15 29.5t-40 18t-54.5 7.5t-56.5 1l21 213l131 -6v-113q113 0 166 -44t53 -116q0 -76 -67.5 -122t-188.5 -46q-37 0 -70.5 4t-66.5 15z" />
<glyph unicode="&#xb9;" horiz-adv-x="858" d="M154 1294l309 179h139v-852h-194v641l-185 -101z" />
<glyph unicode="&#xba;" horiz-adv-x="847" d="M135 1200q0 133 60 205q72 90 227 90q158 0 229 -90q57 -70 58 -205q0 -135 -58 -207q-74 -90 -229 -90q-154 0 -227 90q-60 76 -60 207zM291 561v113h268v-113h-268zM315 1200q0 -74 17 -108q14 -29 36.5 -39.5t53.5 -10.5q33 0 55.5 10.5t36.5 39.5q16 43 16 108 q0 68 -16 107q-14 29 -36.5 39t-55.5 10q-31 0 -53.5 -10.5t-36.5 -38.5q-10 -18 -13.5 -45t-3.5 -62z" />
<glyph unicode="&#xbb;" horiz-adv-x="1662" d="M152 279l284 296l-284 295l198 201l498 -496l-498 -497zM813 279l285 296l-283 295l201 201l495 -496l-495 -497z" />
<glyph unicode="&#xbc;" horiz-adv-x="1619" d="M51 1294l311 179h140v-852h-197v641l-182 -101zM313 -31l750 1524h215l-750 -1524h-215zM856 299l412 553h180v-541q29 -4 60.5 -9t60.5 -9v-119h-121v-174h-191v174h-387zM1047 315h208v283z" />
<glyph unicode="&#xbd;" horiz-adv-x="1728" d="M51 1294l311 179h140v-852h-197v641l-182 -101zM313 -31l750 1524h215l-750 -1524h-215zM1036 702q47 72 123 116t195 44q70 0 128 -16.5t99 -50.5q80 -68 80 -197q0 -86 -53.5 -150.5t-128.5 -121.5q-74 -55 -136.5 -96.5t-91.5 -77.5h404l-10 -152h-603v63 q0 92 54.5 160t165.5 146q37 27 72.5 52t63 53t45 58.5t17.5 65.5q0 51 -28 80q-16 16 -40 25.5t-55 9.5q-47 0 -92 -22.5t-84 -88.5z" />
<glyph unicode="&#xbe;" horiz-adv-x="1742" d="M76 674l76 129q53 -35 93 -45t87 -10q66 0 112 43q35 31 35 83q0 66 -37 97q-49 39 -153 39h-47v123h47q102 0 147 36q45 35 45 105v35h-375l15 155h541v-137q0 -47 -5.5 -85t-23.5 -68q-33 -53 -115 -89q82 -31 123 -88q37 -49 37 -135q0 -61 -24.5 -109t-65.5 -81 q-49 -39 -114.5 -54.5t-133.5 -15.5q-72 0 -134.5 15.5t-129.5 56.5zM434 -31l750 1524h213l-750 -1524h-213zM975 299l411 553h183v-541q29 -4 60.5 -9t58.5 -9v-119h-119v-174h-191v174h-387zM1167 315h209v283z" />
<glyph unicode="&#xbf;" horiz-adv-x="1304" d="M213 -57q0 78 29.5 141t73.5 118.5t95.5 102.5t95.5 91t73.5 86t29.5 87h275q0 -66 -27 -121t-66.5 -102t-87 -90t-87 -86t-66.5 -90t-27 -100q0 -72 41 -124.5t133 -52.5q35 0 68 6.5t65.5 25t64.5 52t60 88.5l189 -184q-66 -121 -176.5 -190.5t-294.5 -69.5 q-84 0 -167 20.5t-148.5 68.5t-105.5 127t-40 196zM600 743v285h295v-285h-295z" />
<glyph unicode="&#xc0;" horiz-adv-x="1392" d="M47 0l332 1464h620l347 -1464h-328l-92 414h-486l-88 -414h-305zM469 1962h279l165 -363h-223zM494 666h376l-122 538h-138z" />
<glyph unicode="&#xc1;" horiz-adv-x="1392" d="M47 0l332 1464h620l347 -1464h-328l-92 414h-486l-88 -414h-305zM494 666h376l-122 538h-138zM500 1599l166 363h278l-221 -363h-223z" />
<glyph unicode="&#xc2;" horiz-adv-x="1392" d="M47 0l332 1464h620l347 -1464h-328l-92 414h-486l-88 -414h-305zM356 1620l250 362h187l249 -362h-225l-119 152l-116 -152h-226zM494 666h376l-122 538h-138z" />
<glyph unicode="&#xc3;" horiz-adv-x="1392" d="M47 0l332 1464h620l347 -1464h-328l-92 414h-486l-88 -414h-305zM352 1628q2 154 52.5 225.5t134.5 71.5q41 0 74.5 -13.5t64.5 -30.5t59.5 -30.5t57.5 -13.5q63 0 65 84h178q-2 -154 -52 -226.5t-132 -72.5q-39 0 -74 14.5t-65.5 30.5t-59 30.5t-57.5 14.5 q-35 0 -50.5 -20.5t-17.5 -63.5h-178zM494 666h376l-122 538h-138z" />
<glyph unicode="&#xc4;" horiz-adv-x="1392" d="M47 0l332 1464h620l347 -1464h-328l-92 414h-486l-88 -414h-305zM389 1599v336h223v-336h-223zM494 666h376l-122 538h-138zM780 1599v336h221v-336h-221z" />
<glyph unicode="&#xc5;" horiz-adv-x="1392" d="M47 0l332 1464h620l347 -1464h-328l-92 414h-486l-88 -414h-305zM475 1831q0 47 17.5 87t47 69.5t70.5 47t86 17.5q47 0 87 -17.5t70 -47t47.5 -69.5t17.5 -87q0 -45 -17.5 -86t-47.5 -69.5t-70 -46t-87 -17.5q-45 0 -86 17.5t-70.5 46t-47 69.5t-17.5 86zM494 666h376 l-122 538h-138zM600 1831q0 -41 27.5 -68.5t68.5 -27.5t70 27.5t29 68.5t-29 69.5t-70 28.5t-68.5 -28.5t-27.5 -69.5z" />
<glyph unicode="&#xc6;" horiz-adv-x="1984" d="M47 0l641 1464h1151v-262h-520v-315h407v-256h-407v-369h604l-22 -262h-891v414h-467l-174 -414h-322zM645 666h365v538h-138z" />
<glyph unicode="&#xc7;" horiz-adv-x="1255" d="M106 733q0 178 42 319.5t123 240t198 150.5t266 52q98 0 173 -17.5t131.5 -50t98.5 -78.5t79 -106l-201 -184q-45 84 -109.5 128t-171.5 44q-82 0 -140 -38t-95 -104.5t-54.5 -158.5t-17.5 -201q0 -260 93 -381t274 -121q113 0 196.5 30t159.5 75l76 -244 q-84 -47 -185.5 -79t-232.5 -38v-59q113 0 166 -44t53 -116q0 -76 -67.5 -122t-188.5 -46q-37 0 -70.5 4t-66.5 15l2 110q12 -4 34.5 -5t37.5 -1q57 0 85.5 16.5t28.5 38.5q0 18 -15 29.5t-40 18t-54.5 7.5t-56.5 1l15 153q-291 20 -428.5 217t-137.5 545z" />
<glyph unicode="&#xc8;" horiz-adv-x="1126" d="M154 0v1464h870v-262h-561v-336h448v-256h-448v-348h604l-23 -262h-890zM338 1962h278l166 -363h-223z" />
<glyph unicode="&#xc9;" horiz-adv-x="1126" d="M154 0v1464h870v-262h-561v-336h448v-256h-448v-348h604l-23 -262h-890zM420 1599l166 363h278l-221 -363h-223z" />
<glyph unicode="&#xca;" horiz-adv-x="1126" d="M154 0v1464h870v-262h-561v-336h448v-256h-448v-348h604l-23 -262h-890zM227 1620l250 362h187l249 -362h-225l-119 152l-116 -152h-226z" />
<glyph unicode="&#xcb;" horiz-adv-x="1126" d="M154 0v1464h870v-262h-561v-336h448v-256h-448v-348h604l-23 -262h-890zM285 1599v336h223v-336h-223zM676 1599v336h221v-336h-221z" />
<glyph unicode="&#xcc;" horiz-adv-x="616" d="M84 1962h278l166 -363h-223zM154 0v1464h309v-1464h-309z" />
<glyph unicode="&#xcd;" horiz-adv-x="616" d="M102 1599l166 363h279l-221 -363h-224zM154 0v1464h309v-1464h-309z" />
<glyph unicode="&#xce;" horiz-adv-x="616" d="M-33 1620l250 362h186l250 -362h-225l-119 152l-116 -152h-226zM154 0v1464h309v-1464h-309z" />
<glyph unicode="&#xcf;" horiz-adv-x="616" d="M0 1599v336h223v-336h-223zM154 0v1464h309v-1464h-309zM391 1599v336h221v-336h-221z" />
<glyph unicode="&#xd0;" horiz-adv-x="1435" d="M-12 621v272h192v573q57 6 107.5 11.5t101.5 8.5t106.5 5t125.5 2q195 0 341 -57.5t236 -186.5q68 -94 100.5 -229t32.5 -309q0 -182 -47 -314.5t-139 -222.5q-98 -96 -235.5 -140t-311.5 -44q-106 0 -206.5 1t-211.5 11v619h-192zM489 250q25 -4 52.5 -4h56.5q41 0 85 4 t87 17.5t83 40t71 69.5q39 53 60.5 134t21.5 200q0 133 -19.5 224t-54.5 150q-27 47 -59.5 77t-69.5 47.5t-76 23.5t-76 6q-47 0 -84 -2t-78 -10v-334h211v-272h-211v-371z" />
<glyph unicode="&#xd1;" horiz-adv-x="1507" d="M154 0v1464h295l614 -954l-4 954h297v-1466h-299l-613 946q2 -238 3.5 -472t1.5 -472h-295zM408 1628q2 154 52 225.5t134 71.5q41 0 74.5 -13.5t64.5 -30.5t59.5 -30.5t57.5 -13.5q63 0 65 84h179q-2 -154 -52.5 -226.5t-132.5 -72.5q-39 0 -73.5 14.5t-65.5 30.5 t-59.5 30.5t-57.5 14.5q-35 0 -50 -20.5t-17 -63.5h-178z" />
<glyph unicode="&#xd2;" horiz-adv-x="1431" d="M106 731q0 160 27 283t78 215q78 137 205 201.5t299 64.5q174 0 301 -64.5t205 -201.5q51 -92 78.5 -215t27.5 -283q0 -158 -27.5 -280.5t-78.5 -214.5q-78 -137 -205 -202t-301 -65q-172 0 -299 64.5t-205 202.5q-51 92 -78 214.5t-27 280.5zM430 731q0 -106 11.5 -186 t33.5 -137q39 -111 104.5 -149t135.5 -38q72 0 138.5 38t104.5 149q23 57 34.5 137t11.5 186q0 109 -11.5 188.5t-34.5 139.5q-41 111 -106.5 147.5t-136.5 36.5q-70 0 -135.5 -38t-104.5 -146q-23 -59 -34 -139t-11 -189zM502 1962h278l166 -363h-223z" />
<glyph unicode="&#xd3;" horiz-adv-x="1431" d="M106 731q0 160 27 283t78 215q78 137 205 201.5t299 64.5q174 0 301 -64.5t205 -201.5q51 -92 78.5 -215t27.5 -283q0 -158 -27.5 -280.5t-78.5 -214.5q-78 -137 -205 -202t-301 -65q-172 0 -299 64.5t-205 202.5q-51 92 -78 214.5t-27 280.5zM430 731q0 -106 11.5 -186 t33.5 -137q39 -111 104.5 -149t135.5 -38q72 0 138.5 38t104.5 149q23 57 34.5 137t11.5 186q0 109 -11.5 188.5t-34.5 139.5q-41 111 -106.5 147.5t-136.5 36.5q-70 0 -135.5 -38t-104.5 -146q-23 -59 -34 -139t-11 -189zM547 1599l166 363h278l-221 -363h-223z" />
<glyph unicode="&#xd4;" horiz-adv-x="1431" d="M106 731q0 160 27 283t78 215q78 137 205 201.5t299 64.5q174 0 301 -64.5t205 -201.5q51 -92 78.5 -215t27.5 -283q0 -158 -27.5 -280.5t-78.5 -214.5q-78 -137 -205 -202t-301 -65q-172 0 -299 64.5t-205 202.5q-51 92 -78 214.5t-27 280.5zM395 1620l250 362h186 l250 -362h-225l-119 152l-116 -152h-226zM430 731q0 -106 11.5 -186t33.5 -137q39 -111 104.5 -149t135.5 -38q72 0 138.5 38t104.5 149q23 57 34.5 137t11.5 186q0 109 -11.5 188.5t-34.5 139.5q-41 111 -106.5 147.5t-136.5 36.5q-70 0 -135.5 -38t-104.5 -146 q-23 -59 -34 -139t-11 -189z" />
<glyph unicode="&#xd5;" horiz-adv-x="1431" d="M106 731q0 160 27 283t78 215q78 137 205 201.5t299 64.5q174 0 301 -64.5t205 -201.5q51 -92 78.5 -215t27.5 -283q0 -158 -27.5 -280.5t-78.5 -214.5q-78 -137 -205 -202t-301 -65q-172 0 -299 64.5t-205 202.5q-51 92 -78 214.5t-27 280.5zM389 1628q2 154 52.5 225.5 t133.5 71.5q41 0 75 -13.5t64.5 -30.5t59.5 -30.5t57 -13.5q63 0 66 84h178q-2 -154 -52 -226.5t-132 -72.5q-39 0 -74 14.5t-65.5 30.5t-59 30.5t-57.5 14.5q-35 0 -50.5 -20.5t-17.5 -63.5h-178zM430 731q0 -106 11.5 -186t33.5 -137q39 -111 104.5 -149t135.5 -38 q72 0 138.5 38t104.5 149q23 57 34.5 137t11.5 186q0 109 -11.5 188.5t-34.5 139.5q-41 111 -106.5 147.5t-136.5 36.5q-70 0 -135.5 -38t-104.5 -146q-23 -59 -34 -139t-11 -189z" />
<glyph unicode="&#xd6;" horiz-adv-x="1431" d="M106 731q0 160 27 283t78 215q78 137 205 201.5t299 64.5q174 0 301 -64.5t205 -201.5q51 -92 78.5 -215t27.5 -283q0 -158 -27.5 -280.5t-78.5 -214.5q-78 -137 -205 -202t-301 -65q-172 0 -299 64.5t-205 202.5q-51 92 -78 214.5t-27 280.5zM422 1599v336h223v-336 h-223zM430 731q0 -106 11.5 -186t33.5 -137q39 -111 104.5 -149t135.5 -38q72 0 138.5 38t104.5 149q23 57 34.5 137t11.5 186q0 109 -11.5 188.5t-34.5 139.5q-41 111 -106.5 147.5t-136.5 36.5q-70 0 -135.5 -38t-104.5 -146q-23 -59 -34 -139t-11 -189zM813 1599v336h221 v-336h-221z" />
<glyph unicode="&#xd7;" horiz-adv-x="1142" d="M90 412l293 293l-293 292l189 189l292 -293l293 293l189 -189l-293 -292l291 -293l-189 -189l-291 293l-292 -291z" />
<glyph unicode="&#xd8;" horiz-adv-x="1431" d="M106 731q0 160 27 283t78 215q78 137 205 201.5t299 64.5q135 0 246 -41l20 39h231l-75 -154q25 -23 45 -51t39 -59q51 -92 78.5 -215t27.5 -283q0 -158 -27.5 -280.5t-78.5 -214.5q-78 -137 -205 -202t-301 -65q-129 0 -234 37l-18 -37h-232l72 146q-51 47 -92 121 q-51 92 -78 214.5t-27 280.5zM430 731q0 -92 8 -163.5t25 -127.5l379 770q-29 18 -61.5 25.5t-65.5 7.5q-70 0 -135.5 -38t-104.5 -146q-23 -59 -34 -139t-11 -189zM600 246q29 -14 57.5 -19.5t57.5 -5.5q72 0 138.5 38t104.5 149q23 57 34.5 137t11.5 186q0 86 -7.5 154.5 t-21.5 122.5z" />
<glyph unicode="&#xd9;" horiz-adv-x="1443" d="M154 508v956h309v-909q0 -158 70.5 -242t244.5 -84q53 0 102.5 6.5t98.5 16.5v1212h311v-1425q-104 -27 -237 -48.5t-281 -21.5q-131 0 -244.5 27t-196.5 90.5t-130 165.5t-47 256zM469 1962h279l165 -363h-223z" />
<glyph unicode="&#xda;" horiz-adv-x="1443" d="M154 508v956h309v-909q0 -158 70.5 -242t244.5 -84q53 0 102.5 6.5t98.5 16.5v1212h311v-1425q-104 -27 -237 -48.5t-281 -21.5q-131 0 -244.5 27t-196.5 90.5t-130 165.5t-47 256zM553 1599l166 363h278l-221 -363h-223z" />
<glyph unicode="&#xdb;" horiz-adv-x="1443" d="M154 508v956h309v-909q0 -158 70.5 -242t244.5 -84q53 0 102.5 6.5t98.5 16.5v1212h311v-1425q-104 -27 -237 -48.5t-281 -21.5q-131 0 -244.5 27t-196.5 90.5t-130 165.5t-47 256zM375 1620l250 362h186l250 -362h-225l-119 152l-117 -152h-225z" />
<glyph unicode="&#xdc;" horiz-adv-x="1443" d="M154 508v956h309v-909q0 -158 70.5 -242t244.5 -84q53 0 102.5 6.5t98.5 16.5v1212h311v-1425q-104 -27 -237 -48.5t-281 -21.5q-131 0 -244.5 27t-196.5 90.5t-130 165.5t-47 256zM412 1599v336h223v-336h-223zM803 1599v336h221v-336h-221z" />
<glyph unicode="&#xdd;" horiz-adv-x="1327" d="M27 1464h358l283 -600l286 600h346l-493 -882v-582h-309v578zM483 1563l166 362h279l-221 -362h-224z" />
<glyph unicode="&#xde;" horiz-adv-x="1251" d="M154 0v1462h309v-258q29 4 66.5 6t72.5 2q133 0 248 -33.5t194 -107.5q61 -57 96.5 -138t35.5 -192q0 -123 -45.5 -210t-122.5 -146q-88 -66 -210 -93.5t-266 -27.5h-69v-264h-309zM463 514h78q57 0 115.5 11.5t105.5 41.5q39 25 63.5 67t24.5 105q0 51 -14.5 87 t-38.5 61q-37 41 -92.5 55t-106.5 14q-31 0 -65.5 -2t-69.5 -6v-434z" />
<glyph unicode="&#xdf;" horiz-adv-x="1273" d="M141 0v1030q0 129 37 216t99.5 141.5t144.5 78t170 23.5q111 0 191.5 -28.5t133 -76t77 -111t24.5 -134.5q0 -27 -1 -52.5t-5 -52.5q-43 -8 -83 -19t-72 -28.5t-51.5 -44.5t-19.5 -65q0 -39 17.5 -68t45.5 -52.5t64.5 -44t73.5 -44.5q39 -23 76 -49.5t65.5 -63.5t46 -86 t17.5 -115q0 -182 -109.5 -282.5t-314.5 -100.5q-78 0 -149.5 17.5t-139.5 62.5v252q47 -45 116 -68.5t134 -23.5q78 0 124 30.5t46 94.5q0 41 -18.5 69.5t-48 51t-67.5 41t-75 39.5q-35 18 -67.5 40.5t-57 53.5t-40 70.5t-15.5 93.5q0 70 20.5 121t56.5 89.5t83 66.5 t100 50q-2 66 -43 104t-106 38q-96 0 -141.5 -64.5t-45.5 -169.5v-1030h-293z" />
<glyph unicode="&#xe0;" horiz-adv-x="1107" d="M94 291q0 106 55.5 175t147.5 107q80 35 176 49.5t197 14.5v29q0 41 -4 70.5t-19 49.5q-31 45 -123 45q-86 0 -172 -23.5t-151 -51.5l-70 219q78 33 195.5 60.5t236.5 27.5q113 0 192 -22.5t128 -75.5q47 -51 63.5 -126t16.5 -175v-437q0 -57 4 -113.5t12 -111.5 l-244 -10q-4 12 -8 25.5t-8 29.5q-68 -41 -135.5 -59.5t-147.5 -18.5q-150 0 -246 86t-96 236zM332 1573h278l166 -363h-223zM391 309q0 -61 41 -96q39 -33 103 -33q35 0 69.5 10.5t65.5 34.5v232q-41 0 -88 -5.5t-88 -19.5q-45 -16 -74 -46t-29 -77z" />
<glyph unicode="&#xe1;" horiz-adv-x="1107" d="M94 291q0 106 55.5 175t147.5 107q80 35 176 49.5t197 14.5v29q0 41 -4 70.5t-19 49.5q-31 45 -123 45q-86 0 -172 -23.5t-151 -51.5l-70 219q78 33 195.5 60.5t236.5 27.5q113 0 192 -22.5t128 -75.5q47 -51 63.5 -126t16.5 -175v-437q0 -57 4 -113.5t12 -111.5 l-244 -10q-4 12 -8 25.5t-8 29.5q-68 -41 -135.5 -59.5t-147.5 -18.5q-150 0 -246 86t-96 236zM391 309q0 -61 41 -96q39 -33 103 -33q35 0 69.5 10.5t65.5 34.5v232q-41 0 -88 -5.5t-88 -19.5q-45 -16 -74 -46t-29 -77zM416 1210l166 363h278l-221 -363h-223z" />
<glyph unicode="&#xe2;" horiz-adv-x="1107" d="M94 291q0 106 55.5 175t147.5 107q80 35 176 49.5t197 14.5v29q0 41 -4 70.5t-19 49.5q-31 45 -123 45q-86 0 -172 -23.5t-151 -51.5l-70 219q78 33 195.5 60.5t236.5 27.5q113 0 192 -22.5t128 -75.5q47 -51 63.5 -126t16.5 -175v-437q0 -57 4 -113.5t12 -111.5 l-244 -10q-4 12 -8 25.5t-8 29.5q-68 -41 -135.5 -59.5t-147.5 -18.5q-150 0 -246 86t-96 236zM211 1210l250 363h186l250 -363h-225l-119 152l-117 -152h-225zM391 309q0 -61 41 -96q39 -33 103 -33q35 0 69.5 10.5t65.5 34.5v232q-41 0 -88 -5.5t-88 -19.5 q-45 -16 -74 -46t-29 -77z" />
<glyph unicode="&#xe3;" horiz-adv-x="1107" d="M94 291q0 106 55.5 175t147.5 107q80 35 176 49.5t197 14.5v29q0 41 -4 70.5t-19 49.5q-31 45 -123 45q-86 0 -172 -23.5t-151 -51.5l-70 219q78 33 195.5 60.5t236.5 27.5q113 0 192 -22.5t128 -75.5q47 -51 63.5 -126t16.5 -175v-437q0 -57 4 -113.5t12 -111.5 l-244 -10q-4 12 -8 25.5t-8 29.5q-68 -41 -135.5 -59.5t-147.5 -18.5q-150 0 -246 86t-96 236zM227 1239q2 154 52.5 225.5t134.5 71.5q41 0 74.5 -13.5t64.5 -30.5t59.5 -30.5t57.5 -13.5q63 0 65 84h178q-2 -154 -52 -226.5t-132 -72.5q-39 0 -73.5 14.5t-65.5 30.5 t-59.5 30.5t-57.5 14.5q-35 0 -50 -20.5t-17 -63.5h-179zM391 309q0 -61 41 -96q39 -33 103 -33q35 0 69.5 10.5t65.5 34.5v232q-41 0 -88 -5.5t-88 -19.5q-45 -16 -74 -46t-29 -77z" />
<glyph unicode="&#xe4;" horiz-adv-x="1107" d="M94 291q0 106 55.5 175t147.5 107q80 35 176 49.5t197 14.5v29q0 41 -4 70.5t-19 49.5q-31 45 -123 45q-86 0 -172 -23.5t-151 -51.5l-70 219q78 33 195.5 60.5t236.5 27.5q113 0 192 -22.5t128 -75.5q47 -51 63.5 -126t16.5 -175v-437q0 -57 4 -113.5t12 -111.5 l-244 -10q-4 12 -8 25.5t-8 29.5q-68 -41 -135.5 -59.5t-147.5 -18.5q-150 0 -246 86t-96 236zM264 1210v336h223v-336h-223zM391 309q0 -61 41 -96q39 -33 103 -33q35 0 69.5 10.5t65.5 34.5v232q-41 0 -88 -5.5t-88 -19.5q-45 -16 -74 -46t-29 -77zM655 1210v336h222v-336 h-222z" />
<glyph unicode="&#xe5;" horiz-adv-x="1107" d="M94 291q0 106 55.5 175t147.5 107q80 35 176 49.5t197 14.5v29q0 41 -4 70.5t-19 49.5q-31 45 -123 45q-86 0 -172 -23.5t-151 -51.5l-70 219q78 33 195.5 60.5t236.5 27.5q113 0 192 -22.5t128 -75.5q47 -51 63.5 -126t16.5 -175v-437q0 -57 4 -113.5t12 -111.5 l-244 -10q-4 12 -8 25.5t-8 29.5q-68 -41 -135.5 -59.5t-147.5 -18.5q-150 0 -246 86t-96 236zM369 1421q0 47 17 87t47 70t71 47t86 17q47 0 87 -17t69.5 -47t47 -70t17.5 -87q0 -45 -17.5 -86t-47 -69.5t-69.5 -46t-87 -17.5q-45 0 -86 17.5t-71 46t-47 69.5t-17 86z M391 309q0 -61 41 -96q39 -33 103 -33q35 0 69.5 10.5t65.5 34.5v232q-41 0 -88 -5.5t-88 -19.5q-45 -16 -74 -46t-29 -77zM494 1421q0 -41 27.5 -68.5t68.5 -27.5t69.5 27.5t28.5 68.5t-28.5 70t-69.5 29t-68.5 -29t-27.5 -70z" />
<glyph unicode="&#xe6;" horiz-adv-x="1673" d="M94 285q0 102 55.5 168.5t147.5 107.5q80 33 176 46.5t197 13.5v49q0 41 -4 70.5t-19 47.5q-29 43 -123 43q-86 0 -172 -23.5t-151 -51.5l-70 219q78 33 195.5 60.5t236.5 27.5q104 0 179 -19.5t124 -64.5q117 84 291 84q104 0 193.5 -33t148.5 -104q49 -59 76 -151.5 t20 -211.5l-98 -127q-45 -4 -109.5 -5t-119.5 -1h-293q4 -47 19.5 -91t43.5 -75q61 -63 176 -63q86 0 163 28.5t130 65.5l72 -213q-82 -53 -185.5 -83t-234.5 -30q-113 0 -200 30t-152 95q-70 -53 -156 -89t-215 -36q-152 0 -246 84q-96 84 -96 232zM391 303q0 -61 41 -92 q37 -31 103 -31q59 0 102 17.5t78 40.5q-16 43 -28.5 93t-16.5 109q-41 0 -89.5 -4t-86.5 -18q-45 -16 -74 -43t-29 -72zM973 621h360q0 90 -30 145q-41 66 -132 65q-100 0 -153 -71q-39 -59 -45 -139z" />
<glyph unicode="&#xe7;" horiz-adv-x="999" d="M84 518q0 129 30.5 226.5t88.5 162.5q66 80 160 118t206 38q127 0 221.5 -42t167.5 -163l-180 -162q-41 76 -90 101.5t-104 25.5q-109 0 -158 -94q-20 -35 -31.5 -87t-11.5 -120q0 -150 53 -225q31 -47 78 -66.5t111 -19.5q78 0 144.5 27.5t115.5 60.5l69 -219 q-72 -47 -149.5 -73.5t-169.5 -33.5v-61q113 0 166 -44t53 -116q0 -76 -67.5 -122t-188.5 -46q-37 0 -70.5 4t-66.5 15l2 110q12 -4 34.5 -5t37.5 -1q57 0 85.5 16.5t28.5 38.5q0 18 -15.5 29.5t-40 18t-54 7.5t-56.5 1l15 155q-98 10 -177 50t-135 112q-49 66 -75.5 161 t-26.5 222z" />
<glyph unicode="&#xe8;" horiz-adv-x="1087" d="M84 518q0 127 30.5 223.5t86.5 161.5q66 82 160 121t210 39q104 0 193.5 -33t148.5 -104q49 -59 76 -151.5t21 -211.5l-99 -127q-45 -4 -109.5 -5t-119.5 -1h-293q4 -47 19.5 -91t44.5 -75q61 -63 176 -63q86 0 162.5 28.5t130.5 65.5l71 -213q-82 -53 -185 -83t-235 -30 q-258 0 -387 166q-49 66 -75.5 161t-26.5 222zM356 1573h279l166 -363h-223zM387 621h361q0 90 -31 145q-41 66 -131 65q-100 0 -154 -71q-39 -59 -45 -139z" />
<glyph unicode="&#xe9;" horiz-adv-x="1087" d="M84 518q0 127 30.5 223.5t86.5 161.5q66 82 160 121t210 39q104 0 193.5 -33t148.5 -104q49 -59 76 -151.5t21 -211.5l-99 -127q-45 -4 -109.5 -5t-119.5 -1h-293q4 -47 19.5 -91t44.5 -75q61 -63 176 -63q86 0 162.5 28.5t130.5 65.5l71 -213q-82 -53 -185 -83t-235 -30 q-258 0 -387 166q-49 66 -75.5 161t-26.5 222zM387 621h361q0 90 -31 145q-41 66 -131 65q-100 0 -154 -71q-39 -59 -45 -139zM410 1210l165 363h279l-221 -363h-223z" />
<glyph unicode="&#xea;" horiz-adv-x="1087" d="M84 518q0 127 30.5 223.5t86.5 161.5q66 82 160 121t210 39q104 0 193.5 -33t148.5 -104q49 -59 76 -151.5t21 -211.5l-99 -127q-45 -4 -109.5 -5t-119.5 -1h-293q4 -47 19.5 -91t44.5 -75q61 -63 176 -63q86 0 162.5 28.5t130.5 65.5l71 -213q-82 -53 -185 -83t-235 -30 q-258 0 -387 166q-49 66 -75.5 161t-26.5 222zM233 1210l250 363h187l250 -363h-226l-119 152l-116 -152h-226zM387 621h361q0 90 -31 145q-41 66 -131 65q-100 0 -154 -71q-39 -59 -45 -139z" />
<glyph unicode="&#xeb;" horiz-adv-x="1087" d="M84 518q0 127 30.5 223.5t86.5 161.5q66 82 160 121t210 39q104 0 193.5 -33t148.5 -104q49 -59 76 -151.5t21 -211.5l-99 -127q-45 -4 -109.5 -5t-119.5 -1h-293q4 -47 19.5 -91t44.5 -75q61 -63 176 -63q86 0 162.5 28.5t130.5 65.5l71 -213q-82 -53 -185 -83t-235 -30 q-258 0 -387 166q-49 66 -75.5 161t-26.5 222zM262 1210v336h223v-336h-223zM387 621h361q0 90 -31 145q-41 66 -131 65q-100 0 -154 -71q-39 -59 -45 -139zM653 1210v336h221v-336h-221z" />
<glyph unicode="&#xec;" horiz-adv-x="575" d="M63 1573h279l166 -363h-223zM141 0v1028h293v-1028h-293z" />
<glyph unicode="&#xed;" horiz-adv-x="575" d="M63 1210l166 363h279l-221 -363h-224zM141 0v1028h293v-1028h-293z" />
<glyph unicode="&#xee;" horiz-adv-x="575" d="M-57 1210l250 363h186l250 -363h-226l-118 152l-117 -152h-225zM141 0v1028h293v-1028h-293z" />
<glyph unicode="&#xef;" horiz-adv-x="575" d="M-20 1210v336h223v-336h-223zM141 0v1028h293v-1028h-293zM371 1210v336h221v-336h-221z" />
<glyph unicode="&#xf0;" horiz-adv-x="1138" d="M84 442q0 115 42 199t109.5 144.5t155.5 96.5t180 54q-33 35 -68.5 69.5t-76.5 65.5l-84 -113l-152 113l76 96q-72 41 -141 70l127 242q43 -16 88 -38t92 -50l78 100l149 -113l-65 -84q92 -68 175 -152.5t145.5 -187t100.5 -224.5t38 -261q0 -117 -38 -209t-104.5 -156.5 t-154.5 -99.5t-189 -35q-111 0 -199.5 36t-151 99.5t-97.5 150.5t-35 187zM369 455q0 -43 12 -82t36.5 -69t63.5 -48t90 -18q88 0 143.5 62.5t55.5 168.5q0 135 -61 258q-86 -8 -149.5 -35.5t-105.5 -65.5t-63.5 -82t-21.5 -89z" />
<glyph unicode="&#xf1;" horiz-adv-x="1236" d="M141 0v999q115 27 238 45.5t246 18.5t212 -25.5t154 -85.5q57 -55 84 -138t27 -193v-621h-293v528q0 74 -6 132.5t-35 97.5q-27 35 -71 49t-99 14q-43 0 -84 -6t-80 -14v-801h-293zM283 1239q2 154 52 225.5t134 71.5q41 0 75 -13.5t64.5 -30.5t59 -30.5t57.5 -13.5 q63 0 66 84h178q-2 -154 -52.5 -226.5t-132.5 -72.5q-39 0 -73.5 14.5t-65.5 30.5t-59.5 30.5t-57.5 14.5q-35 0 -50 -20.5t-17 -63.5h-178z" />
<glyph unicode="&#xf2;" horiz-adv-x="1148" d="M84 516q0 250 100 381q123 166 387 166q131 0 229.5 -40t162.5 -126q100 -131 100 -381q0 -248 -100 -381q-63 -86 -162 -126t-230 -40q-264 0 -387 166q-100 133 -100 381zM356 1573h279l166 -363h-223zM383 516q0 -135 31 -207q23 -53 63.5 -74.5t93.5 -21.5 q57 0 97.5 21.5t62.5 74.5q33 68 33 207t-33 207q-23 53 -62.5 75.5t-97.5 22.5q-53 0 -94 -22.5t-63 -75.5q-31 -70 -31 -207z" />
<glyph unicode="&#xf3;" horiz-adv-x="1148" d="M84 516q0 250 100 381q123 166 387 166q131 0 229.5 -40t162.5 -126q100 -131 100 -381q0 -248 -100 -381q-63 -86 -162 -126t-230 -40q-264 0 -387 166q-100 133 -100 381zM383 516q0 -135 31 -207q23 -53 63.5 -74.5t93.5 -21.5q57 0 97.5 21.5t62.5 74.5q33 68 33 207 t-33 207q-23 53 -62.5 75.5t-97.5 22.5q-53 0 -94 -22.5t-63 -75.5q-31 -70 -31 -207zM426 1210l166 363h278l-221 -363h-223z" />
<glyph unicode="&#xf4;" horiz-adv-x="1148" d="M84 516q0 250 100 381q123 166 387 166q131 0 229.5 -40t162.5 -126q100 -131 100 -381q0 -248 -100 -381q-63 -86 -162 -126t-230 -40q-264 0 -387 166q-100 133 -100 381zM231 1210l250 363h187l250 -363h-226l-119 152l-116 -152h-226zM383 516q0 -135 31 -207 q23 -53 63.5 -74.5t93.5 -21.5q57 0 97.5 21.5t62.5 74.5q33 68 33 207t-33 207q-23 53 -62.5 75.5t-97.5 22.5q-53 0 -94 -22.5t-63 -75.5q-31 -70 -31 -207z" />
<glyph unicode="&#xf5;" horiz-adv-x="1148" d="M84 516q0 250 100 381q123 166 387 166q131 0 229.5 -40t162.5 -126q100 -131 100 -381q0 -248 -100 -381q-63 -86 -162 -126t-230 -40q-264 0 -387 166q-100 133 -100 381zM250 1239q2 154 52 225.5t134 71.5q41 0 75 -13.5t64.5 -30.5t59.5 -30.5t57 -13.5q63 0 66 84 h178q-2 -154 -52 -226.5t-132 -72.5q-39 0 -74 14.5t-65.5 30.5t-59.5 30.5t-57 14.5q-35 0 -50.5 -20.5t-17.5 -63.5h-178zM383 516q0 -135 31 -207q23 -53 63.5 -74.5t93.5 -21.5q57 0 97.5 21.5t62.5 74.5q33 68 33 207t-33 207q-23 53 -62.5 75.5t-97.5 22.5 q-53 0 -94 -22.5t-63 -75.5q-31 -70 -31 -207z" />
<glyph unicode="&#xf6;" horiz-adv-x="1148" d="M84 516q0 250 100 381q123 166 387 166q131 0 229.5 -40t162.5 -126q100 -131 100 -381q0 -248 -100 -381q-63 -86 -162 -126t-230 -40q-264 0 -387 166q-100 133 -100 381zM289 1210v336h223v-336h-223zM383 516q0 -135 31 -207q23 -53 63.5 -74.5t93.5 -21.5 q57 0 97.5 21.5t62.5 74.5q33 68 33 207t-33 207q-23 53 -62.5 75.5t-97.5 22.5q-53 0 -94 -22.5t-63 -75.5q-31 -70 -31 -207zM680 1210v336h221v-336h-221z" />
<glyph unicode="&#xf7;" horiz-adv-x="1175" d="M98 571v267h979v-267h-979zM453 141v275h266v-275h-266zM453 991v275h266v-275h-266z" />
<glyph unicode="&#xf8;" horiz-adv-x="1148" d="M84 516q0 250 100 381q123 166 387 166q106 0 199 -29l14 29h119l-37 -76q55 -37 97 -90q100 -131 100 -381q0 -248 -100 -381q-63 -86 -162 -126t-230 -40q-102 0 -192 29l-12 -29h-119l35 72q-29 18 -53.5 41.5t-45.5 52.5q-100 133 -100 381zM383 516q0 -135 31 -207 v-2l243 498q-39 16 -86 16q-53 0 -94 -22.5t-63 -75.5q-31 -70 -31 -207zM492 227q35 -14 79 -14q57 0 97.5 21.5t62.5 74.5q33 68 33 207q0 131 -31 201z" />
<glyph unicode="&#xf9;" horiz-adv-x="1236" d="M141 412v616h291v-524q0 -74 7 -132.5t34 -97.5q27 -35 71 -49t99 -14q45 0 85 6t81 16v795h293v-993q-117 -29 -231.5 -47.5t-252.5 -18.5q-123 0 -212 25.5t-154 85.5q-57 55 -84 139t-27 193zM414 1573h278l166 -363h-223z" />
<glyph unicode="&#xfa;" horiz-adv-x="1236" d="M141 412v616h291v-524q0 -74 7 -132.5t34 -97.5q27 -35 71 -49t99 -14q45 0 85 6t81 16v795h293v-993q-117 -29 -231.5 -47.5t-252.5 -18.5q-123 0 -212 25.5t-154 85.5q-57 55 -84 139t-27 193zM473 1210l166 363h279l-222 -363h-223z" />
<glyph unicode="&#xfb;" horiz-adv-x="1236" d="M141 412v616h291v-524q0 -74 7 -132.5t34 -97.5q27 -35 71 -49t99 -14q45 0 85 6t81 16v795h293v-993q-117 -29 -231.5 -47.5t-252.5 -18.5q-123 0 -212 25.5t-154 85.5q-57 55 -84 139t-27 193zM272 1210l250 363h187l249 -363h-225l-119 152l-116 -152h-226z" />
<glyph unicode="&#xfc;" horiz-adv-x="1236" d="M141 412v616h291v-524q0 -74 7 -132.5t34 -97.5q27 -35 71 -49t99 -14q45 0 85 6t81 16v795h293v-993q-117 -29 -231.5 -47.5t-252.5 -18.5q-123 0 -212 25.5t-154 85.5q-57 55 -84 139t-27 193zM317 1210v336h224v-336h-224zM709 1210v336h221v-336h-221z" />
<glyph unicode="&#xfd;" horiz-adv-x="1134" d="M4 1028h315l259 -692l229 692h326l-414 -1038q-45 -117 -97.5 -204t-121 -147.5t-157.5 -92t-206 -33.5l-88 243q106 4 186 38t130 100q29 31 44 62.5t25 53.5zM414 1210l166 363h278l-221 -363h-223z" />
<glyph unicode="&#xfe;" horiz-adv-x="1165" d="M141 -492v1936h293v-443q47 29 100.5 46.5t108.5 17.5q104 0 189.5 -39t144.5 -119q49 -68 76.5 -164t27.5 -225q0 -133 -31.5 -231.5t-91.5 -163.5q-68 -78 -164 -116t-216 -38q-72 0 -144 17v-478h-293zM434 244q29 -10 58.5 -14.5t68.5 -4.5q55 0 98 18.5t72 61.5 q49 72 49 213q0 63 -11 108.5t-28 78.5q-29 49 -66.5 66t-72.5 17q-47 0 -87 -14t-81 -51v-479z" />
<glyph unicode="&#xff;" horiz-adv-x="1134" d="M4 1028h315l259 -692l229 692h326l-414 -1038q-45 -117 -97.5 -204t-121 -147.5t-157.5 -92t-206 -33.5l-88 243q106 4 186 38t130 100q29 31 44 62.5t25 53.5zM260 1210v336h223v-336h-223zM651 1210v336h221v-336h-221z" />
<glyph unicode="&#x100;" horiz-adv-x="1392" d="M47 0l332 1464h620l347 -1464h-328l-92 414h-486l-88 -414h-305zM410 1700v231h573v-231h-573zM494 666h376l-122 538h-138z" />
<glyph unicode="&#x101;" horiz-adv-x="1107" d="M94 291q0 106 55.5 175t147.5 107q80 35 176 49.5t197 14.5v29q0 41 -4 70.5t-19 49.5q-31 45 -123 45q-86 0 -172 -23.5t-151 -51.5l-70 219q78 33 195.5 60.5t236.5 27.5q113 0 192 -22.5t128 -75.5q47 -51 63.5 -126t16.5 -175v-437q0 -57 4 -113.5t12 -111.5 l-244 -10q-4 12 -8 25.5t-8 29.5q-68 -41 -135.5 -59.5t-147.5 -18.5q-150 0 -246 86t-96 236zM270 1233v231h574v-231h-574zM391 309q0 -61 41 -96q39 -33 103 -33q35 0 69.5 10.5t65.5 34.5v232q-41 0 -88 -5.5t-88 -19.5q-45 -16 -74 -46t-29 -77z" />
<glyph unicode="&#x102;" horiz-adv-x="1392" d="M47 0l332 1464h620l347 -1464h-328l-92 414h-486l-88 -414h-305zM338 1966h207q27 -141 145 -141q117 0 144 141h206q-20 -162 -105 -253t-245 -91t-246 91t-106 253zM494 666h376l-122 538h-138z" />
<glyph unicode="&#x103;" horiz-adv-x="1107" d="M94 291q0 106 55.5 175t147.5 107q80 35 176 49.5t197 14.5v29q0 41 -4 70.5t-19 49.5q-31 45 -123 45q-86 0 -172 -23.5t-151 -51.5l-70 219q78 33 195.5 60.5t236.5 27.5q113 0 192 -22.5t128 -75.5q47 -51 63.5 -126t16.5 -175v-437q0 -57 4 -113.5t12 -111.5 l-244 -10q-4 12 -8 25.5t-8 29.5q-68 -41 -135.5 -59.5t-147.5 -18.5q-150 0 -246 86t-96 236zM201 1524h207q27 -141 145 -142q117 0 143 142h207q-20 -162 -105 -253t-245 -91t-246 91t-106 253zM391 309q0 -61 41 -96q39 -33 103 -33q35 0 69.5 10.5t65.5 34.5v232 q-41 0 -88 -5.5t-88 -19.5q-45 -16 -74 -46t-29 -77z" />
<glyph unicode="&#x104;" horiz-adv-x="1392" d="M47 0l332 1464h620l347 -1464q-41 -16 -83 -38.5t-75 -51.5q-53 -47 -53 -96q0 -35 22 -54q27 -16 62 -16q51 0 106 23v-140q-41 -23 -90 -32t-92 -9q-94 0 -148 41q-57 45 -57 125q0 84 68 148q29 31 68.5 56.5t80.5 43.5h-137l-92 414h-486l-88 -414h-305zM494 666h376 l-122 538h-138z" />
<glyph unicode="&#x105;" horiz-adv-x="1107" d="M94 291q0 106 55.5 175t147.5 107q80 35 176 49.5t197 14.5v29q0 41 -4 70.5t-19 49.5q-31 45 -123 45q-86 0 -172 -23.5t-151 -51.5l-70 219q78 33 195.5 60.5t236.5 27.5q113 0 192 -22.5t128 -75.5q47 -51 63.5 -126t16.5 -175v-437q0 -57 4 -113.5t12 -111.5 q-41 -16 -83 -38.5t-77 -51.5q-23 -23 -38 -47.5t-15 -48.5q0 -35 25 -54q18 -16 61 -16q27 0 52.5 5t53.5 16v-140q-43 -23 -91 -31t-93 -8q-43 0 -82 10.5t-65 30.5q-57 45 -58 125q0 41 18.5 78t49.5 70q25 27 60.5 50t70.5 42l-33 -2q-4 12 -8 25.5t-8 29.5 q-68 -41 -135.5 -59.5t-147.5 -18.5q-150 0 -246 86t-96 236zM391 309q0 -61 41 -96q39 -33 103 -33q35 0 69.5 10.5t65.5 34.5v232q-41 0 -88 -5.5t-88 -19.5q-45 -16 -74 -46t-29 -77z" />
<glyph unicode="&#x106;" horiz-adv-x="1255" d="M106 733q0 178 42 319.5t123 240t198 150.5t266 52q98 0 173 -17.5t131.5 -50t98.5 -78.5t79 -106l-201 -184q-45 84 -109.5 128t-171.5 44q-82 0 -140 -38t-95 -104.5t-54.5 -158.5t-17.5 -201q0 -260 93 -381t274 -121q113 0 196.5 30t159.5 75l76 -244 q-94 -53 -211 -86t-275 -33q-326 0 -480.5 198t-154.5 566zM537 1599l165 363h279l-221 -363h-223z" />
<glyph unicode="&#x107;" horiz-adv-x="999" d="M84 518q0 129 30.5 226.5t88.5 162.5q66 80 160 118t206 38q127 0 221.5 -42t167.5 -163l-180 -162q-41 76 -90 101.5t-104 25.5q-109 0 -158 -94q-20 -35 -31.5 -87t-11.5 -120q0 -150 53 -225q31 -47 78 -66.5t111 -19.5q78 0 144.5 27.5t115.5 60.5l69 -219 q-82 -53 -175 -82t-206 -29q-123 0 -222 40t-165 126q-49 66 -75.5 161t-26.5 222zM381 1210l166 363h278l-221 -363h-223z" />
<glyph unicode="&#x10c;" horiz-adv-x="1255" d="M106 733q0 178 42 319.5t123 240t198 150.5t266 52q98 0 173 -17.5t131.5 -50t98.5 -78.5t79 -106l-201 -184q-45 84 -109.5 128t-171.5 44q-82 0 -140 -38t-95 -104.5t-54.5 -158.5t-17.5 -201q0 -260 93 -381t274 -121q113 0 196.5 30t159.5 75l76 -244 q-94 -53 -211 -86t-275 -33q-326 0 -480.5 198t-154.5 566zM381 1985h225l117 -152l119 152h225l-250 -363h-186z" />
<glyph unicode="&#x10d;" horiz-adv-x="999" d="M84 518q0 129 30.5 226.5t88.5 162.5q66 80 160 118t206 38q127 0 221.5 -42t167.5 -163l-180 -162q-41 76 -90 101.5t-104 25.5q-109 0 -158 -94q-20 -35 -31.5 -87t-11.5 -120q0 -150 53 -225q31 -47 78 -66.5t111 -19.5q78 0 144.5 27.5t115.5 60.5l69 -219 q-82 -53 -175 -82t-206 -29q-123 0 -222 40t-165 126q-49 66 -75.5 161t-26.5 222zM203 1573h225l117 -152l119 152h225l-250 -363h-186z" />
<glyph unicode="&#x10e;" horiz-adv-x="1409" d="M154 2v1464q57 6 107 11.5t101.5 8.5t106.5 5t125 2q195 0 341 -57.5t236 -186.5q68 -94 101 -229t33 -309q0 -182 -47.5 -314.5t-139.5 -222.5q-98 -96 -235.5 -140t-311.5 -44q-106 0 -206.5 1t-210.5 11zM319 1985h226l117 -152l118 152h226l-250 -363h-187zM463 250 q25 -4 52.5 -4h55.5q41 0 85 4t87 17.5t83 40t71 69.5q39 53 60.5 134t21.5 200q0 133 -19.5 224t-54.5 150q-27 47 -59.5 77t-69.5 47.5t-75.5 23.5t-75.5 6q-47 0 -84 -2t-78 -10v-977z" />
<glyph unicode="&#x10f;" horiz-adv-x="1546" d="M84 518q0 123 27.5 216t78.5 159q68 86 169.5 129t228.5 43q74 0 141 -18v395l295 45v-1487h-223l-15 55q-47 -39 -113.5 -62.5t-142.5 -23.5q-96 0 -178 34t-145 106q-59 68 -91 169t-32 240zM383 508q0 -68 10 -118t31 -87q47 -90 158 -90q86 0 147 59v527 q-55 23 -127 22q-125 0 -178 -100q-41 -76 -41 -213zM1221 1085q37 172 24 379h240q2 -49 0 -110.5t-13.5 -125t-32 -125t-55.5 -112.5z" />
<glyph unicode="&#x110;" horiz-adv-x="1435" d="M-12 621v272h192v573q57 6 107.5 11.5t101.5 8.5t106.5 5t125.5 2q195 0 341 -57.5t236 -186.5q68 -94 100.5 -229t32.5 -309q0 -182 -47 -314.5t-139 -222.5q-98 -96 -235.5 -140t-311.5 -44q-106 0 -206.5 1t-211.5 11v619h-192zM489 250q25 -4 52.5 -4h56.5q41 0 85 4 t87 17.5t83 40t71 69.5q39 53 60.5 134t21.5 200q0 133 -19.5 224t-54.5 150q-27 47 -59.5 77t-69.5 47.5t-76 23.5t-76 6q-47 0 -84 -2t-78 -10v-334h211v-272h-211v-371z" />
<glyph unicode="&#x111;" horiz-adv-x="1163" d="M84 518q0 123 27.5 216t78.5 159q68 86 169.5 129t228.5 43q74 0 141 -18v118h-209v189h209v88l295 45v-133h145v-189h-145v-1165h-223l-15 55q-47 -39 -113.5 -62.5t-142.5 -23.5q-96 0 -178 34t-145 106q-59 68 -91 169t-32 240zM383 508q0 -68 10 -118t31 -87 q47 -90 158 -90q86 0 147 59v527q-55 23 -127 22q-125 0 -178 -100q-41 -76 -41 -213z" />
<glyph unicode="&#x112;" horiz-adv-x="1126" d="M154 0v1464h870v-262h-561v-336h448v-256h-448v-348h604l-23 -262h-890zM262 1700v231h574v-231h-574z" />
<glyph unicode="&#x113;" horiz-adv-x="1087" d="M84 518q0 127 30.5 223.5t86.5 161.5q66 82 160 121t210 39q104 0 193.5 -33t148.5 -104q49 -59 76 -151.5t21 -211.5l-99 -127q-45 -4 -109.5 -5t-119.5 -1h-293q4 -47 19.5 -91t44.5 -75q61 -63 176 -63q86 0 162.5 28.5t130.5 65.5l71 -213q-82 -53 -185 -83t-235 -30 q-258 0 -387 166q-49 66 -75.5 161t-26.5 222zM252 1233v231h573v-231h-573zM387 621h361q0 90 -31 145q-41 66 -131 65q-100 0 -154 -71q-39 -59 -45 -139z" />
<glyph unicode="&#x116;" horiz-adv-x="1126" d="M154 0v1464h870v-262h-561v-336h448v-256h-448v-348h604l-23 -262h-890zM446 1708v283h238v-283h-238z" />
<glyph unicode="&#x117;" horiz-adv-x="1087" d="M84 518q0 127 30.5 223.5t86.5 161.5q66 82 160 121t210 39q104 0 193.5 -33t148.5 -104q49 -59 76 -151.5t21 -211.5l-99 -127q-45 -4 -109.5 -5t-119.5 -1h-293q4 -47 19.5 -91t44.5 -75q61 -63 176 -63q86 0 162.5 28.5t130.5 65.5l71 -213q-82 -53 -185 -83t-235 -30 q-258 0 -387 166q-49 66 -75.5 161t-26.5 222zM387 621h361q0 90 -31 145q-41 66 -131 65q-100 0 -154 -71q-39 -59 -45 -139zM434 1251v283h238v-283h-238z" />
<glyph unicode="&#x118;" horiz-adv-x="1126" d="M154 0v1464h870v-262h-561v-336h448v-256h-448v-348h604l-23 -262h3q-41 -16 -83 -38.5t-75 -51.5q-25 -20 -40 -45t-15 -51q0 -33 24 -54q23 -16 62 -16q29 0 53 6t53 17v-140q-43 -23 -91 -31t-93 -8q-43 0 -82 9.5t-64 31.5q-59 43 -59 125q0 41 18.5 78t49.5 70 q29 29 69.5 54.5t79.5 43.5h-700z" />
<glyph unicode="&#x119;" horiz-adv-x="1087" d="M84 518q0 127 30.5 223.5t86.5 161.5q66 82 160 121t210 39q104 0 193.5 -33t148.5 -104q49 -59 76 -151.5t21 -211.5l-99 -127q-45 -4 -109.5 -5t-119.5 -1h-293q4 -47 19.5 -91t44.5 -75q61 -63 176 -63q86 0 162.5 28.5t130.5 65.5l71 -213q-47 -31 -100 -53h2 q-41 -16 -83 -39t-75 -51q-25 -20 -40 -45t-15 -52q0 -33 25 -53q23 -16 61 -16q29 0 53.5 6t52.5 16v-139q-43 -23 -91 -31t-93 -8q-43 0 -82 9t-63 32q-59 43 -60 125q0 41 18.5 78t49.5 69q10 10 21.5 19.5t23.5 19.5h-25q-258 0 -387 166q-49 66 -75.5 161t-26.5 222z M387 621h361q0 90 -31 145q-41 66 -131 65q-100 0 -154 -71q-39 -59 -45 -139z" />
<glyph unicode="&#x11a;" horiz-adv-x="1126" d="M154 0v1464h870v-262h-561v-336h448v-256h-448v-348h604l-23 -262h-890zM227 1985h226l116 -152l119 152h225l-249 -363h-187z" />
<glyph unicode="&#x11b;" horiz-adv-x="1087" d="M84 518q0 127 30.5 223.5t86.5 161.5q66 82 160 121t210 39q104 0 193.5 -33t148.5 -104q49 -59 76 -151.5t21 -211.5l-99 -127q-45 -4 -109.5 -5t-119.5 -1h-293q4 -47 19.5 -91t44.5 -75q61 -63 176 -63q86 0 162.5 28.5t130.5 65.5l71 -213q-82 -53 -185 -83t-235 -30 q-258 0 -387 166q-49 66 -75.5 161t-26.5 222zM215 1573h225l117 -152l119 152h225l-250 -363h-186zM387 621h361q0 90 -31 145q-41 66 -131 65q-100 0 -154 -71q-39 -59 -45 -139z" />
<glyph unicode="&#x11e;" horiz-adv-x="1355" d="M106 733q0 178 42 319.5t123 240t198 150.5t266 52q96 0 171 -17.5t132.5 -50t100.5 -78.5t78 -106l-197 -182q-29 55 -63.5 89t-71.5 52.5t-75 25.5t-75 7q-160 0 -233.5 -135t-73.5 -365q0 -252 82 -379t256 -127q51 0 86 6.5t80 18.5v256h-217l22 242h475v-691 q-104 -43 -225 -67.5t-246 -24.5q-326 0 -480.5 198t-154.5 566zM348 1962h207q27 -141 145 -141q117 0 144 141h207q-20 -162 -105.5 -253t-245.5 -91t-245.5 91t-106.5 253z" />
<glyph unicode="&#x11f;" horiz-adv-x="1161" d="M84 516q0 117 28.5 209t80.5 158q72 92 177 136t230 44q121 0 217 -15.5t209 -50.5v-897q0 -283 -129 -430q-143 -162 -438 -162q-92 0 -179 19.5t-165 54.5l78 252q70 -35 134 -51t140 -16q127 0 192 59q61 59 74 174q-41 -12 -87 -20.5t-93 -8.5q-121 0 -210 42 t-148 120q-111 141 -111 383zM223 1524h207q27 -141 145 -142q117 0 144 142h207q-20 -162 -105.5 -253t-245.5 -91t-245.5 91t-106.5 253zM385 516q0 -74 13.5 -128t37.5 -93q55 -80 164 -80q68 0 123 31v559q-29 10 -58.5 13t-64.5 3q-49 0 -93 -22.5t-77 -73.5 q-23 -37 -34 -88t-11 -121z" />
<glyph unicode="&#x122;" horiz-adv-x="1355" d="M106 733q0 178 42 319.5t123 240t198 150.5t266 52q96 0 171 -17.5t132.5 -50t100.5 -78.5t78 -106l-197 -182q-29 55 -63.5 89t-71.5 52.5t-75 25.5t-75 7q-160 0 -233.5 -135t-73.5 -365q0 -252 82 -379t256 -127q51 0 86 6.5t80 18.5v256h-217l22 242h475v-691 q-104 -43 -225 -67.5t-246 -24.5q-326 0 -480.5 198t-154.5 566zM621 -535q37 172 24 379h240q2 -49 0 -110.5t-13.5 -125t-32 -125t-55.5 -112.5z" />
<glyph unicode="&#x123;" horiz-adv-x="1161" d="M84 516q0 117 28.5 209t80.5 158q72 92 177 136t230 44q121 0 217 -15.5t209 -50.5v-897q0 -283 -129 -430q-143 -162 -438 -162q-92 0 -179 19.5t-165 54.5l78 252q70 -35 134 -51t140 -16q127 0 192 59q61 59 74 174q-41 -12 -87 -20.5t-93 -8.5q-121 0 -210 42 t-148 120q-111 141 -111 383zM385 516q0 -74 13.5 -128t37.5 -93q55 -80 164 -80q68 0 123 31v559q-29 10 -58.5 13t-64.5 3q-49 0 -93 -22.5t-77 -73.5q-23 -37 -34 -88t-11 -121zM426 1196q-2 49 0 110.5t13.5 125t32 125t54.5 112.5l164 -94q-37 -172 -24 -379h-240z" />
<glyph unicode="&#x12a;" horiz-adv-x="616" d="M20 1700v231h574v-231h-574zM154 0v1464h309v-1464h-309z" />
<glyph unicode="&#x12b;" horiz-adv-x="575" d="M0 1233v231h573v-231h-573zM141 0v1028h293v-1028h-293z" />
<glyph unicode="&#x12e;" horiz-adv-x="616" d="M-70 -244q0 41 18.5 78t49.5 70q29 29 72 55.5t84 44.5v1460h309v-1464h-133q-39 -16 -79 -37.5t-69 -48.5q-53 -47 -53 -96q0 -35 23 -54q18 -16 61 -16q53 0 106 21v-140q-41 -23 -90 -31t-94 -8q-43 0 -82 10.5t-63 30.5q-59 43 -60 125z" />
<glyph unicode="&#x12f;" horiz-adv-x="575" d="M-78 -246q0 41 18.5 78t49.5 70q29 31 69.5 56.5t81.5 43.5v1026h293v-1028h-108q-39 -16 -80 -37.5t-74 -50.5q-23 -23 -38 -47.5t-15 -48.5q0 -35 24 -54q18 -16 62 -16q27 0 52.5 5t53.5 16v-140q-43 -23 -91 -31t-93 -8q-43 0 -82 10.5t-65 30.5q-57 45 -58 125z M141 1202v285h293v-285h-293z" />
<glyph unicode="&#x130;" horiz-adv-x="616" d="M154 0v1464h309v-1464h-309zM188 1708v283h238v-283h-238z" />
<glyph unicode="&#x131;" horiz-adv-x="575" d="M141 0v1028h293v-1028h-293z" />
<glyph unicode="&#x136;" horiz-adv-x="1366" d="M154 0v1464h309v-602h106l430 602h361l-539 -706l551 -758h-375l-419 602h-115v-602h-309zM588 -535q37 172 24 379h240q2 -49 0 -110.5t-13.5 -125t-32 -125t-54.5 -112.5z" />
<glyph unicode="&#x137;" horiz-adv-x="1167" d="M141 0v1442l293 45v-830h107l301 371h313l-397 -479l405 -549h-340l-284 408h-105v-408h-293zM463 -535q37 172 24 379h240q2 -49 0 -110.5t-13.5 -125t-31.5 -125t-55 -112.5z" />
<glyph unicode="&#x139;" horiz-adv-x="1134" d="M154 0v1464h309v-1202h631l-21 -262h-919zM164 1599l166 363h278l-221 -363h-223z" />
<glyph unicode="&#x13a;" horiz-adv-x="641" d="M139 1599l166 363h279l-222 -363h-223zM166 336v1106l293 45v-1139q0 -80 25.5 -107.5t72.5 -27.5q39 0 74 14l49 -227q-41 -14 -90 -22.5t-107 -8.5q-47 0 -102 13.5t-103.5 52.5t-80 110.5t-31.5 190.5z" />
<glyph unicode="&#x13b;" horiz-adv-x="1134" d="M154 0v1464h309v-1202h631l-21 -262h-919zM479 -535q37 172 25 379h239q2 -49 0 -110.5t-13 -125t-31.5 -125t-55.5 -112.5z" />
<glyph unicode="&#x13c;" horiz-adv-x="616" d="M141 336v1106l293 45v-1139q0 -80 25.5 -107.5t72.5 -27.5q39 0 74 14l49 -227q-41 -14 -90 -22.5t-106 -8.5q-47 0 -102.5 13.5t-103.5 52.5t-80 110.5t-32 190.5zM270 -535q37 172 25 379h240q2 -49 -0.5 -110.5t-13.5 -125t-31.5 -125t-55.5 -112.5z" />
<glyph unicode="&#x13d;" horiz-adv-x="1134" d="M154 0v1464h309v-1202h631l-21 -262h-919zM610 1085q37 172 25 379h239q2 -49 0 -110.5t-13 -125t-31.5 -125t-55.5 -112.5z" />
<glyph unicode="&#x13e;" horiz-adv-x="954" d="M141 336v1106l293 45v-1139q0 -80 25.5 -107.5t72.5 -27.5q39 0 74 14l49 -227q-41 -14 -90 -22.5t-106 -8.5q-47 0 -102.5 13.5t-103.5 52.5t-80 110.5t-32 190.5zM629 1085q37 172 24 379h240q2 -49 0 -110.5t-13.5 -125t-32 -125t-54.5 -112.5z" />
<glyph unicode="&#x141;" horiz-adv-x="1161" d="M-80 596l260 121v747h309v-602l246 117l115 -246l-361 -170v-301h631l-20 -262h-920v418l-147 -68z" />
<glyph unicode="&#x142;" horiz-adv-x="661" d="M-109 711l230 106v625l293 45v-531l104 50l115 -246l-219 -103v-309q0 -80 25.5 -107.5t72.5 -27.5q39 0 74 14l49 -227q-41 -14 -90 -22.5t-107 -8.5q-47 0 -102 13.5t-103.5 52.5t-80 110.5t-31.5 190.5v184l-117 -53z" />
<glyph unicode="&#x143;" horiz-adv-x="1507" d="M154 0v1464h295l614 -954l-4 954h297v-1466h-299l-613 946q2 -238 3.5 -472t1.5 -472h-295zM549 1599l166 363h278l-221 -363h-223z" />
<glyph unicode="&#x144;" horiz-adv-x="1236" d="M141 0v999q115 27 238 45.5t246 18.5t212 -25.5t154 -85.5q57 -55 84 -138t27 -193v-621h-293v528q0 74 -6 132.5t-35 97.5q-27 35 -71 49t-99 14q-43 0 -84 -6t-80 -14v-801h-293zM408 1210l165 363h279l-221 -363h-223z" />
<glyph unicode="&#x145;" horiz-adv-x="1507" d="M154 0v1464h295l614 -954l-4 954h297v-1466h-299l-613 946q2 -238 3.5 -472t1.5 -472h-295zM618 -535q37 172 25 379h240q2 -49 0 -110.5t-13.5 -125t-32 -125t-55.5 -112.5z" />
<glyph unicode="&#x146;" horiz-adv-x="1236" d="M141 0v999q115 27 238 45.5t246 18.5t212 -25.5t154 -85.5q57 -55 84 -138t27 -193v-621h-293v528q0 74 -6 132.5t-35 97.5q-27 35 -71 49t-99 14q-43 0 -84 -6t-80 -14v-801h-293zM479 -535q37 172 25 379h239q2 -49 0 -110.5t-13 -125t-31.5 -125t-55.5 -112.5z" />
<glyph unicode="&#x147;" horiz-adv-x="1507" d="M154 0v1464h295l614 -954l-4 954h297v-1466h-299l-613 946q2 -238 3.5 -472t1.5 -472h-295zM410 1985h225l117 -152l118 152h226l-250 -363h-187z" />
<glyph unicode="&#x148;" horiz-adv-x="1236" d="M141 0v999q115 27 238 45.5t246 18.5t212 -25.5t154 -85.5q57 -55 84 -138t27 -193v-621h-293v528q0 74 -6 132.5t-35 97.5q-27 35 -71 49t-99 14q-43 0 -84 -6t-80 -14v-801h-293zM268 1573h226l116 -152l119 152h225l-249 -363h-187z" />
<glyph unicode="&#x14c;" horiz-adv-x="1431" d="M106 731q0 160 27 283t78 215q78 137 205 201.5t299 64.5q174 0 301 -64.5t205 -201.5q51 -92 78.5 -215t27.5 -283q0 -158 -27.5 -280.5t-78.5 -214.5q-78 -137 -205 -202t-301 -65q-172 0 -299 64.5t-205 202.5q-51 92 -78 214.5t-27 280.5zM428 1700v231h573v-231 h-573zM430 731q0 -106 11.5 -186t33.5 -137q39 -111 104.5 -149t135.5 -38q72 0 138.5 38t104.5 149q23 57 34.5 137t11.5 186q0 109 -11.5 188.5t-34.5 139.5q-41 111 -106.5 147.5t-136.5 36.5q-70 0 -135.5 -38t-104.5 -146q-23 -59 -34 -139t-11 -189z" />
<glyph unicode="&#x14d;" horiz-adv-x="1148" d="M84 516q0 250 100 381q123 166 387 166q131 0 229.5 -40t162.5 -126q100 -131 100 -381q0 -248 -100 -381q-63 -86 -162 -126t-230 -40q-264 0 -387 166q-100 133 -100 381zM287 1233v231h573v-231h-573zM383 516q0 -135 31 -207q23 -53 63.5 -74.5t93.5 -21.5 q57 0 97.5 21.5t62.5 74.5q33 68 33 207t-33 207q-23 53 -62.5 75.5t-97.5 22.5q-53 0 -94 -22.5t-63 -75.5q-31 -70 -31 -207z" />
<glyph unicode="&#x150;" horiz-adv-x="1431" d="M106 731q0 160 27 283t78 215q78 137 205 201.5t299 64.5q174 0 301 -64.5t205 -201.5q51 -92 78.5 -215t27.5 -283q0 -158 -27.5 -280.5t-78.5 -214.5q-78 -137 -205 -202t-301 -65q-172 0 -299 64.5t-205 202.5q-51 92 -78 214.5t-27 280.5zM362 1632l123 363h263 l-181 -363h-205zM430 731q0 -106 11.5 -186t33.5 -137q39 -111 104.5 -149t135.5 -38q72 0 138.5 38t104.5 149q23 57 34.5 137t11.5 186q0 109 -11.5 188.5t-34.5 139.5q-41 111 -106.5 147.5t-136.5 36.5q-70 0 -135.5 -38t-104.5 -146q-23 -59 -34 -139t-11 -189z M752 1632l122 363h263l-179 -363h-206z" />
<glyph unicode="&#x151;" horiz-adv-x="1148" d="M84 516q0 250 100 381q123 166 387 166q131 0 229.5 -40t162.5 -126q100 -131 100 -381q0 -248 -100 -381q-63 -86 -162 -126t-230 -40q-264 0 -387 166q-100 133 -100 381zM256 1210l123 363h262l-180 -363h-205zM383 516q0 -135 31 -207q23 -53 63.5 -74.5t93.5 -21.5 q57 0 97.5 21.5t62.5 74.5q33 68 33 207t-33 207q-23 53 -62.5 75.5t-97.5 22.5q-53 0 -94 -22.5t-63 -75.5q-31 -70 -31 -207zM645 1210l123 363h262l-178 -363h-207z" />
<glyph unicode="&#x152;" horiz-adv-x="1890" d="M106 731q0 154 28 275.5t85 212.5q74 123 205 184t311 61h1053v-262h-561v-315h448v-256h-448v-369h604l-23 -262h-1073q-365 0 -516 244q-113 180 -113 487zM432 731q0 -88 10.5 -166t38.5 -141q33 -78 100.5 -126t188.5 -48q66 0 148 18v928q-88 16 -148 16 q-119 0 -187.5 -47t-101.5 -125q-29 -63 -39 -141t-10 -168z" />
<glyph unicode="&#x153;" horiz-adv-x="1767" d="M84 516q0 250 100 381q123 166 387 166q223 0 349 -119q125 119 331 119q104 0 193.5 -33t148.5 -104q49 -59 76 -151.5t21 -211.5l-99 -127q-45 -4 -109.5 -5t-119.5 -1h-293q4 -47 19.5 -91t44.5 -75q61 -63 176 -63q86 0 162.5 28.5t130.5 65.5l71 -213 q-82 -53 -185.5 -83t-234.5 -30q-109 0 -192.5 27t-147.5 86q-61 -59 -147 -86t-195 -27q-264 0 -387 166q-100 133 -100 381zM383 516q0 -135 31 -207q23 -53 63.5 -74.5t93.5 -21.5q57 0 97.5 21.5t62.5 74.5q33 68 33 207t-33 207q-23 53 -62.5 75.5t-97.5 22.5 q-53 0 -94 -22.5t-63 -75.5q-31 -70 -31 -207zM1067 621h360q0 90 -30 145q-41 66 -131 65q-100 0 -154 -71q-39 -59 -45 -139z" />
<glyph unicode="&#x154;" horiz-adv-x="1294" d="M154 0v1464q33 4 85 10.5t112.5 10.5t120.5 7t112 3q145 0 253.5 -30.5t188.5 -98.5q72 -61 112 -150.5t40 -203.5q0 -74 -17.5 -141.5t-50.5 -120.5q-35 -53 -82 -93.5t-106 -68.5l309 -588h-344l-260 510q-23 -2 -44.5 -3t-45.5 -1h-74v-506h-309zM428 1599l166 363 h278l-221 -363h-223zM463 750h78q55 0 121.5 13t119.5 60q33 29 52.5 72t19.5 106q0 70 -21.5 116t-56.5 73q-41 33 -88 44t-94 11q-27 0 -61.5 -2t-69.5 -6v-487z" />
<glyph unicode="&#x155;" horiz-adv-x="763" d="M141 0v1028h230l22 -88q70 72 145.5 97.5t184.5 25.5l27 -275q-16 2 -35 2.5t-37 0.5q-63 -4 -124.5 -18.5t-119.5 -55.5v-717h-293zM188 1210l166 363h279l-221 -363h-224z" />
<glyph unicode="&#x156;" horiz-adv-x="1294" d="M154 0v1464q33 4 85 10.5t112.5 10.5t120.5 7t112 3q145 0 253.5 -30.5t188.5 -98.5q72 -61 112 -150.5t40 -203.5q0 -74 -17.5 -141.5t-50.5 -120.5q-35 -53 -82 -93.5t-106 -68.5l309 -588h-344l-260 510q-23 -2 -44.5 -3t-45.5 -1h-74v-506h-309zM463 750h78 q55 0 121.5 13t119.5 60q33 29 52.5 72t19.5 106q0 70 -21.5 116t-56.5 73q-41 33 -88 44t-94 11q-27 0 -61.5 -2t-69.5 -6v-487zM526 -535q37 172 25 379h240q2 -49 -0.5 -110.5t-13.5 -125t-31.5 -125t-55.5 -112.5z" />
<glyph unicode="&#x157;" horiz-adv-x="763" d="M141 0v1028h230l22 -88q70 72 145.5 97.5t184.5 25.5l27 -275q-16 2 -35 2.5t-37 0.5q-63 -4 -124.5 -18.5t-119.5 -55.5v-717h-293zM147 -535q37 172 25 379h240q2 -49 0 -110.5t-13.5 -125t-32 -125t-55.5 -112.5z" />
<glyph unicode="&#x158;" horiz-adv-x="1294" d="M154 0v1464q33 4 85 10.5t112.5 10.5t120.5 7t112 3q145 0 253.5 -30.5t188.5 -98.5q72 -61 112 -150.5t40 -203.5q0 -74 -17.5 -141.5t-50.5 -120.5q-35 -53 -82 -93.5t-106 -68.5l309 -588h-344l-260 510q-23 -2 -44.5 -3t-45.5 -1h-74v-506h-309zM262 1985h225 l117 -152l119 152h225l-250 -363h-186zM463 750h78q55 0 121.5 13t119.5 60q33 29 52.5 72t19.5 106q0 70 -21.5 116t-56.5 73q-41 33 -88 44t-94 11q-27 0 -61.5 -2t-69.5 -6v-487z" />
<glyph unicode="&#x159;" horiz-adv-x="763" d="M49 1573h225l117 -152l119 152h225l-250 -363h-186zM141 0v1028h230l22 -88q70 72 145.5 97.5t184.5 25.5l27 -275q-16 2 -35 2.5t-37 0.5q-63 -4 -124.5 -18.5t-119.5 -55.5v-717h-293z" />
<glyph unicode="&#x15a;" horiz-adv-x="1159" d="M59 37l33 260q78 -33 164 -53.5t195 -20.5q150 0 229.5 44t79.5 139q0 51 -24.5 84.5t-69.5 60.5q-43 27 -93.5 46t-104.5 39.5t-109.5 46.5t-104.5 62q-70 51 -115 127t-45 203q0 98 41 176t112.5 132.5t169 83t212.5 28.5t204 -19.5t160 -54.5l-32 -254 q-68 31 -152 50.5t-172 19.5q-123 0 -181.5 -39t-58.5 -111q0 -66 55.5 -103.5t133.5 -68.5q78 -33 166 -62.5t163 -82.5q76 -55 121 -130t45 -198q0 -131 -55 -221t-142 -146.5t-194.5 -81t-214.5 -24.5q-123 0 -222 15.5t-194 52.5zM395 1599l166 363h279l-222 -363h-223z " />
<glyph unicode="&#x15b;" horiz-adv-x="901" d="M59 25l33 229q131 -66 275 -66q39 0 72.5 6.5t58.5 20.5q49 29 49 80q0 33 -26.5 54.5t-67.5 40t-90.5 36.5t-96.5 43q-37 18 -69.5 43t-58 56.5t-41 74.5t-15.5 98q0 143 104 230q117 92 310 92q92 0 163.5 -17.5t135.5 -48.5l-33 -215q-59 27 -120.5 42.5t-127.5 15.5 q-70 0 -104 -23q-41 -25 -41 -65q0 -31 25.5 -52.5t66.5 -39t90 -35t98 -41.5q74 -35 130.5 -94.5t56.5 -163.5q0 -92 -37 -158t-97 -107q-70 -51 -156.5 -71.5t-162.5 -20.5q-115 0 -186.5 15.5t-137.5 40.5zM240 1210l166 363h278l-221 -363h-223z" />
<glyph unicode="&#x15e;" horiz-adv-x="1159" d="M59 37l33 260q78 -33 164 -53.5t195 -20.5q150 0 229.5 44t79.5 139q0 51 -24.5 84.5t-69.5 60.5q-43 27 -93.5 46t-104.5 39.5t-109.5 46.5t-104.5 62q-70 51 -115 127t-45 203q0 98 41 176t112.5 132.5t169 83t212.5 28.5t204 -19.5t160 -54.5l-32 -254 q-68 31 -152 50.5t-172 19.5q-123 0 -181.5 -39t-58.5 -111q0 -66 55.5 -103.5t133.5 -68.5q78 -33 166 -62.5t163 -82.5q76 -55 121 -130t45 -198q0 -111 -40 -192.5t-106.5 -137t-152.5 -88t-176 -44.5v-68q113 0 166 -44t53 -116q0 -76 -67.5 -122t-188.5 -46 q-37 0 -70.5 4t-66.5 15l2 110q12 -4 35 -5t37 -1q57 0 86 16.5t29 38.5q0 18 -15.5 29.5t-40 18t-54.5 7.5t-56 1l14 151q-121 0 -219 16.5t-191 51.5z" />
<glyph unicode="&#x15f;" horiz-adv-x="901" d="M59 25l33 229q131 -66 275 -66q39 0 72.5 6.5t58.5 20.5q49 29 49 80q0 33 -26.5 54.5t-67.5 40t-90.5 36.5t-96.5 43q-37 18 -69.5 43t-58 56.5t-41 74.5t-15.5 98q0 143 104 230q117 92 310 92q92 0 163.5 -17.5t135.5 -48.5l-33 -215q-59 27 -120.5 42.5t-127.5 15.5 q-70 0 -104 -23q-41 -25 -41 -65q0 -31 25.5 -52.5t66.5 -39t90 -35t98 -41.5q74 -35 130.5 -94.5t56.5 -163.5q0 -92 -37 -158t-97 -107q-47 -35 -104 -54t-115 -30v-65q113 0 166 -44t53 -116q0 -76 -67.5 -122t-188.5 -46q-37 0 -70.5 4t-66.5 15l2 110q12 -4 35 -5 t37 -1q57 0 86 16.5t29 38.5q0 18 -15.5 29.5t-40 18t-54.5 7.5t-56 1l14 151q-98 4 -162.5 18.5t-124.5 37.5z" />
<glyph unicode="&#x160;" horiz-adv-x="1159" d="M59 37l33 260q78 -33 164 -53.5t195 -20.5q150 0 229.5 44t79.5 139q0 51 -24.5 84.5t-69.5 60.5q-43 27 -93.5 46t-104.5 39.5t-109.5 46.5t-104.5 62q-70 51 -115 127t-45 203q0 98 41 176t112.5 132.5t169 83t212.5 28.5t204 -19.5t160 -54.5l-32 -254 q-68 31 -152 50.5t-172 19.5q-123 0 -181.5 -39t-58.5 -111q0 -66 55.5 -103.5t133.5 -68.5q78 -33 166 -62.5t163 -82.5q76 -55 121 -130t45 -198q0 -131 -55 -221t-142 -146.5t-194.5 -81t-214.5 -24.5q-123 0 -222 15.5t-194 52.5zM291 1985h225l117 -152l119 152h225 l-250 -363h-186z" />
<glyph unicode="&#x161;" horiz-adv-x="901" d="M59 25l33 229q131 -66 275 -66q39 0 72.5 6.5t58.5 20.5q49 29 49 80q0 33 -26.5 54.5t-67.5 40t-90.5 36.5t-96.5 43q-37 18 -69.5 43t-58 56.5t-41 74.5t-15.5 98q0 143 104 230q117 92 310 92q92 0 163.5 -17.5t135.5 -48.5l-33 -215q-59 27 -120.5 42.5t-127.5 15.5 q-70 0 -104 -23q-41 -25 -41 -65q0 -31 25.5 -52.5t66.5 -39t90 -35t98 -41.5q74 -35 130.5 -94.5t56.5 -163.5q0 -92 -37 -158t-97 -107q-70 -51 -156.5 -71.5t-162.5 -20.5q-115 0 -186.5 15.5t-137.5 40.5zM109 1573h225l117 -152l118 152h226l-250 -363h-187z" />
<glyph unicode="&#x162;" d="M51 1186v278h1178l-25 -278h-416v-1186h-309v1186h-428zM494 -535q37 172 24 379h240q2 -49 0 -110.5t-13.5 -125t-32 -125t-55.5 -112.5z" />
<glyph unicode="&#x163;" horiz-adv-x="880" d="M31 817v160l170 35v299l252 12l26 -295h326v-211h-307v-420q0 -94 30 -137q20 -29 51 -39t64 -10q84 0 166 31l43 -222q-68 -27 -143.5 -39t-153.5 -12t-146.5 19.5t-117.5 68.5q-43 43 -66.5 114t-23.5 169v477h-170zM387 -535q37 172 25 379h239q2 -49 0 -110.5 t-13 -125t-31.5 -125t-55.5 -112.5z" />
<glyph unicode="&#x164;" d="M51 1186v278h1178l-25 -278h-416v-1186h-309v1186h-428zM293 1985h225l117 -152l119 152h225l-250 -363h-186z" />
<glyph unicode="&#x165;" horiz-adv-x="1202" d="M31 817v160l170 35v299l252 12l26 -295h326v-211h-307v-420q0 -94 30 -137q20 -29 51 -39t64 -10q84 0 166 31l43 -222q-68 -27 -143.5 -39t-153.5 -12t-146.5 19.5t-117.5 68.5q-43 43 -66.5 114t-23.5 169v477h-170zM877 1085q37 172 24 379h240q2 -49 0 -110.5 t-13.5 -125t-32 -125t-55.5 -112.5z" />
<glyph unicode="&#x16a;" horiz-adv-x="1443" d="M154 508v956h309v-909q0 -158 70.5 -242t244.5 -84q53 0 102.5 6.5t98.5 16.5v1212h311v-1425q-104 -27 -237 -48.5t-281 -21.5q-131 0 -244.5 27t-196.5 90.5t-130 165.5t-47 256zM438 1700v231h574v-231h-574z" />
<glyph unicode="&#x16b;" horiz-adv-x="1236" d="M141 412v616h291v-524q0 -74 7 -132.5t34 -97.5q27 -35 71 -49t99 -14q45 0 85 6t81 16v795h293v-993q-117 -29 -231.5 -47.5t-252.5 -18.5q-123 0 -212 25.5t-154 85.5q-57 55 -84 139t-27 193zM334 1233v231h573v-231h-573z" />
<glyph unicode="&#x16e;" horiz-adv-x="1443" d="M154 508v956h309v-909q0 -158 70.5 -242t244.5 -84q53 0 102.5 6.5t98.5 16.5v1212h311v-1425q-104 -27 -237 -48.5t-281 -21.5q-131 0 -244.5 27t-196.5 90.5t-130 165.5t-47 256zM504 1849q0 47 17.5 87t47 70t70.5 47.5t86 17.5q47 0 87 -17.5t69.5 -47.5t47 -70 t17.5 -87q0 -45 -17.5 -86t-47 -69.5t-69.5 -46t-87 -17.5q-45 0 -86 17.5t-70.5 46t-47 69.5t-17.5 86zM629 1849q0 -41 27.5 -68.5t68.5 -27.5t69.5 27.5t28.5 68.5t-28.5 70t-69.5 29t-68.5 -29t-27.5 -70z" />
<glyph unicode="&#x16f;" horiz-adv-x="1236" d="M141 412v616h291v-524q0 -74 7 -132.5t34 -97.5q27 -35 71 -49t99 -14q45 0 85 6t81 16v795h293v-993q-117 -29 -231.5 -47.5t-252.5 -18.5q-123 0 -212 25.5t-154 85.5q-57 55 -84 139t-27 193zM403 1421q0 47 17.5 87t47.5 70t71 47t86 17q47 0 87 -17t69.5 -47t47 -70 t17.5 -87q0 -45 -17.5 -86t-47 -69.5t-69.5 -46t-87 -17.5q-45 0 -86 17.5t-71 46t-47.5 69.5t-17.5 86zM528 1421q0 -41 28 -68.5t69 -27.5t69.5 27.5t28.5 68.5t-28.5 70t-69.5 29t-69 -29t-28 -70z" />
<glyph unicode="&#x170;" horiz-adv-x="1443" d="M154 508v956h309v-909q0 -158 70.5 -242t244.5 -84q53 0 102.5 6.5t98.5 16.5v1212h311v-1425q-104 -27 -237 -48.5t-281 -21.5q-131 0 -244.5 27t-196.5 90.5t-130 165.5t-47 256zM365 1632l122 363h263l-181 -363h-204zM754 1632l123 363h262l-178 -363h-207z" />
<glyph unicode="&#x171;" horiz-adv-x="1236" d="M141 412v616h291v-524q0 -74 7 -132.5t34 -97.5q27 -35 71 -49t99 -14q45 0 85 6t81 16v795h293v-993q-117 -29 -231.5 -47.5t-252.5 -18.5q-123 0 -212 25.5t-154 85.5q-57 55 -84 139t-27 193zM270 1210l123 363h262l-180 -363h-205zM659 1210l123 363h262l-178 -363 h-207z" />
<glyph unicode="&#x172;" horiz-adv-x="1443" d="M154 508v956h309v-909q0 -158 70.5 -242t244.5 -84q53 0 102.5 6.5t98.5 16.5v1212h311v-1425q-41 -16 -83 -39t-74 -51q-25 -20 -40.5 -45t-15.5 -51q0 -33 25 -54q23 -16 61 -16q29 0 53.5 6t53.5 16v-139q-43 -23 -91.5 -31t-93.5 -8q-43 0 -81.5 9.5t-63.5 31.5 q-59 43 -59 125q0 41 18.5 78t48.5 70q20 23 53 43q-55 -6 -112.5 -10.5t-116.5 -4.5q-131 0 -244.5 27t-196.5 90.5t-130 165.5t-47 256z" />
<glyph unicode="&#x173;" horiz-adv-x="1236" d="M141 412v616h291v-524q0 -74 7 -132.5t34 -97.5q27 -35 71 -49t99 -14q45 0 85 6t81 16v795h293v-993q-2 -2 -6 -2h2q-41 -16 -83 -39t-75 -51q-25 -20 -40 -45t-15 -52q0 -33 24 -53q23 -16 62 -16q29 0 53.5 6t52.5 16v-139q-43 -23 -91 -31t-93 -8q-43 0 -82 9.5 t-63 31.5q-59 43 -60 125q0 41 18.5 78t49.5 69q10 12 24.5 23.5t30.5 22.5q-47 -4 -94 -7.5t-99 -3.5q-123 0 -212 25.5t-154 85.5q-57 55 -84 139t-27 193z" />
<glyph unicode="&#x174;" horiz-adv-x="2164" d="M47 1464h324l297 -1099l293 1099h262l299 -1095l293 1095h303l-432 -1474h-336l-263 903l-268 -903h-348zM739 1638l250 363h187l249 -363h-225l-119 152l-116 -152h-226z" />
<glyph unicode="&#x175;" horiz-adv-x="1667" d="M4 1028h311l193 -698l199 698h258l196 -698l193 698h311l-354 -1038h-279l-196 637l-197 -637h-281zM489 1210l250 363h187l250 -363h-226l-119 152l-116 -152h-226z" />
<glyph unicode="&#x176;" horiz-adv-x="1327" d="M27 1464h358l283 -600l286 600h346l-493 -882v-582h-309v578zM303 1638l250 363h186l250 -363h-225l-119 152l-117 -152h-225z" />
<glyph unicode="&#x177;" horiz-adv-x="1134" d="M4 1028h315l259 -692l229 692h326l-414 -1038q-45 -117 -97.5 -204t-121 -147.5t-157.5 -92t-206 -33.5l-88 243q106 4 186 38t130 100q29 31 44 62.5t25 53.5zM223 1210l250 363h186l250 -363h-225l-119 152l-116 -152h-226z" />
<glyph unicode="&#x178;" horiz-adv-x="1327" d="M27 1464h358l283 -600l286 600h346l-493 -882v-582h-309v578zM356 1595v336h224v-336h-224zM748 1595v336h221v-336h-221z" />
<glyph unicode="&#x179;" horiz-adv-x="1251" d="M57 0v190l766 1016h-678v258h996l43 -239l-719 -953h700v-272h-1108zM492 1599l165 363h279l-221 -363h-223z" />
<glyph unicode="&#x17a;" horiz-adv-x="1103" d="M109 0v190l503 598h-460v240h831l21 -194l-517 -598h533v-236h-911zM346 1210l166 363h279l-222 -363h-223z" />
<glyph unicode="&#x17b;" horiz-adv-x="1200" d="M37 0v190l766 1016h-678v258h995l43 -239l-719 -953h701v-272h-1108zM485 1708v283h238v-283h-238z" />
<glyph unicode="&#x17c;" horiz-adv-x="1058" d="M76 0v190l504 598h-461v240h831l21 -194l-516 -598h532v-236h-911zM399 1251v283h238v-283h-238z" />
<glyph unicode="&#x17d;" horiz-adv-x="1200" d="M37 0v190l766 1016h-678v258h995l43 -239l-719 -953h701v-272h-1108zM303 1985h225l117 -152l119 152h225l-250 -363h-186z" />
<glyph unicode="&#x17e;" horiz-adv-x="1058" d="M76 0v190l504 598h-461v240h831l21 -194l-516 -598h532v-236h-911zM197 1573h225l117 -152l118 152h226l-250 -363h-187z" />
<glyph unicode="&#x192;" horiz-adv-x="1017" d="M98 817l19 160l176 31l10 84q12 100 43 169.5t84 120.5q74 72 160 93.5t162 21.5q61 0 131.5 -13.5t134.5 -41.5l-92 -213q-41 10 -83 17t-81 7q-80 0 -125 -59q-16 -23 -24.5 -53.5t-14.5 -71.5l-6 -41h282l-22 -211h-283l-108 -932l-101 -291h-229l143 1223h-176z" />
<glyph unicode="&#x218;" horiz-adv-x="1159" d="M59 37l33 260q78 -33 164 -53.5t195 -20.5q150 0 229.5 44t79.5 139q0 51 -24.5 84.5t-69.5 60.5q-43 27 -93.5 46t-104.5 39.5t-109.5 46.5t-104.5 62q-70 51 -115 127t-45 203q0 98 41 176t112.5 132.5t169 83t212.5 28.5t204 -19.5t160 -54.5l-32 -254 q-68 31 -152 50.5t-172 19.5q-123 0 -181.5 -39t-58.5 -111q0 -66 55.5 -103.5t133.5 -68.5q78 -33 166 -62.5t163 -82.5q76 -55 121 -130t45 -198q0 -131 -55 -221t-142 -146.5t-194.5 -81t-214.5 -24.5q-123 0 -222 15.5t-194 52.5zM406 -535q37 172 24 379h240 q2 -49 0 -110.5t-13.5 -125t-32 -125t-55.5 -112.5z" />
<glyph unicode="&#x219;" horiz-adv-x="901" d="M59 25l33 229q131 -66 275 -66q39 0 72.5 6.5t58.5 20.5q49 29 49 80q0 33 -26.5 54.5t-67.5 40t-90.5 36.5t-96.5 43q-37 18 -69.5 43t-58 56.5t-41 74.5t-15.5 98q0 143 104 230q117 92 310 92q92 0 163.5 -17.5t135.5 -48.5l-33 -215q-59 27 -120.5 42.5t-127.5 15.5 q-70 0 -104 -23q-41 -25 -41 -65q0 -31 25.5 -52.5t66.5 -39t90 -35t98 -41.5q74 -35 130.5 -94.5t56.5 -163.5q0 -92 -37 -158t-97 -107q-70 -51 -156.5 -71.5t-162.5 -20.5q-115 0 -186.5 15.5t-137.5 40.5zM309 -535q37 172 25 379h239q2 -49 0 -110.5t-13 -125 t-31.5 -125t-55.5 -112.5z" />
<glyph unicode="&#x21a;" d="M51 1186v278h1178l-25 -278h-416v-1186h-309v1186h-428zM494 -535q37 172 24 379h240q2 -49 0 -110.5t-13.5 -125t-32 -125t-55.5 -112.5z" />
<glyph unicode="&#x21b;" horiz-adv-x="880" d="M31 817v160l170 35v299l252 12l26 -295h326v-211h-307v-420q0 -94 30 -137q20 -29 51 -39t64 -10q84 0 166 31l43 -222q-68 -27 -143.5 -39t-153.5 -12t-146.5 19.5t-117.5 68.5q-43 43 -66.5 114t-23.5 169v477h-170zM387 -535q37 172 25 379h239q2 -49 0 -110.5 t-13 -125t-31.5 -125t-55.5 -112.5z" />
<glyph unicode="&#x2c6;" horiz-adv-x="978" d="M145 1210l250 363h187l249 -363h-225l-119 152l-116 -152h-226z" />
<glyph unicode="&#x2c7;" horiz-adv-x="978" d="M145 1573h226l116 -152l119 152h225l-249 -363h-187z" />
<glyph unicode="&#x2d8;" horiz-adv-x="978" d="M137 1524h207q27 -141 145 -142q117 0 144 142h207q-20 -162 -105.5 -253t-245.5 -91t-245.5 91t-106.5 253z" />
<glyph unicode="&#x2d9;" horiz-adv-x="978" d="M371 1251v283h237v-283h-237z" />
<glyph unicode="&#x2da;" horiz-adv-x="978" d="M268 1421q0 47 17.5 87t47 70t70.5 47t86 17q47 0 87 -17t70 -47t47.5 -70t17.5 -87q0 -45 -17.5 -86t-47.5 -69.5t-69.5 -46t-87.5 -17.5q-45 0 -86 17.5t-70.5 46t-47 69.5t-17.5 86zM393 1421q0 -41 28 -68.5t68 -27.5q41 0 70 27.5t29 68.5t-29 70t-70 29t-68.5 -29 t-27.5 -70z" />
<glyph unicode="&#x2db;" horiz-adv-x="978" d="M285 -246q0 41 18.5 78t48.5 70q39 39 97.5 70.5t103.5 50.5l141 -23q-41 -16 -83 -38.5t-74 -51.5q-25 -20 -40.5 -45t-15.5 -51q0 -33 25 -54q23 -16 61 -16q29 0 53.5 6t53.5 17v-140q-43 -23 -91 -31t-94 -8q-43 0 -81.5 9.5t-63.5 31.5q-59 43 -59 125z" />
<glyph unicode="&#x2dc;" horiz-adv-x="978" d="M145 1239q2 154 52.5 225.5t134.5 71.5q41 0 74.5 -13.5t64.5 -30.5t59.5 -30.5t57.5 -13.5q63 0 65 84h178q-2 -154 -52 -226.5t-132 -72.5q-39 0 -73.5 14.5t-65.5 30.5t-59.5 30.5t-57.5 14.5q-35 0 -50 -20.5t-17 -63.5h-179z" />
<glyph unicode="&#x2dd;" horiz-adv-x="978" d="M102 1243l123 363h262l-180 -363h-205zM492 1243l122 363h263l-179 -363h-206z" />
<glyph unicode="&#x3a9;" horiz-adv-x="1427" d="M61 0v244h256q-53 47 -93 108.5t-66 132.5q-59 154 -60 322q0 137 37 254t105 207q80 109 199.5 168t275.5 59q154 0 273.5 -59.5t199.5 -167.5q68 -90 104.5 -207t36.5 -254q0 -168 -59 -322q-27 -72 -67 -133t-93 -108h256v-244h-535v227q51 33 85 96.5t53 141.5 q16 66 22 136.5t6 139.5q0 76 -9 157t-38 151q-33 76 -89 125t-146 49q-92 0 -148.5 -49.5t-87.5 -124.5q-29 -70 -38 -151t-9 -157q0 -70 6 -140.5t23 -135.5q18 -78 51 -141.5t84 -96.5v-227h-535z" />
<glyph unicode="&#x3c0;" horiz-adv-x="1226" d="M53 788v269h1121v-269h-103v-788h-293v788h-340v-526q0 -98 -13 -162.5t-56 -99.5h-269q35 53 40 143t5 219v426h-92z" />
<glyph unicode="&#x2000;" horiz-adv-x="1035" />
<glyph unicode="&#x2001;" horiz-adv-x="2071" />
<glyph unicode="&#x2002;" horiz-adv-x="1035" />
<glyph unicode="&#x2003;" horiz-adv-x="2071" />
<glyph unicode="&#x2004;" horiz-adv-x="690" />
<glyph unicode="&#x2005;" horiz-adv-x="517" />
<glyph unicode="&#x2006;" horiz-adv-x="345" />
<glyph unicode="&#x2007;" horiz-adv-x="345" />
<glyph unicode="&#x2008;" horiz-adv-x="258" />
<glyph unicode="&#x2009;" horiz-adv-x="414" />
<glyph unicode="&#x200a;" horiz-adv-x="115" />
<glyph unicode="&#x2010;" horiz-adv-x="1157" d="M197 463v246h764v-246h-764z" />
<glyph unicode="&#x2011;" horiz-adv-x="1157" d="M197 463v246h764v-246h-764z" />
<glyph unicode="&#x2012;" horiz-adv-x="1157" d="M197 463v246h764v-246h-764z" />
<glyph unicode="&#x2013;" horiz-adv-x="925" d="M0 463v246h926v-246h-926z" />
<glyph unicode="&#x2014;" horiz-adv-x="1853" d="M0 463v246h1853v-246h-1853z" />
<glyph unicode="&#x2018;" horiz-adv-x="555" d="M137 971q-2 53 0 118.5t13.5 134t34 134t61.5 121.5l174 -103q-16 -92 -23.5 -192.5t-1.5 -212.5h-258z" />
<glyph unicode="&#x2019;" horiz-adv-x="555" d="M135 1059q37 184 25 405h258q2 -53 0 -118.5t-13.5 -133t-34 -133t-61.5 -121.5z" />
<glyph unicode="&#x201a;" horiz-adv-x="555" d="M135 -96q37 184 25 405h258q2 -53 0 -118.5t-13.5 -133t-34 -133t-61.5 -121.5z" />
<glyph unicode="&#x201c;" horiz-adv-x="989" d="M137 971q-2 53 0 118.5t13.5 134t34 134t61.5 121.5l174 -103q-16 -92 -23.5 -192.5t-1.5 -212.5h-258zM571 971q-2 53 0 118.5t13.5 134t34 134t61.5 121.5l174 -103q-16 -92 -23.5 -192.5t-1.5 -212.5h-258z" />
<glyph unicode="&#x201d;" horiz-adv-x="989" d="M135 1059q37 184 25 405h258q2 -53 0 -118.5t-13.5 -133t-34 -133t-61.5 -121.5zM569 1059q37 184 25 405h258q2 -53 0 -118.5t-13.5 -133t-34 -133t-61.5 -121.5z" />
<glyph unicode="&#x201e;" horiz-adv-x="989" d="M135 -96q37 184 25 405h258q2 -53 0 -118.5t-13.5 -133t-34 -133t-61.5 -121.5zM569 -96q37 184 25 405h258q2 -53 0 -118.5t-13.5 -133t-34 -133t-61.5 -121.5z" />
<glyph unicode="&#x2020;" horiz-adv-x="1519" d="M217 782v295q102 -4 202.5 -8t203.5 -10l-19 405h314q-6 -102 -10.5 -202.5t-8.5 -202.5q100 6 200.5 10t200.5 8v-295l-401 19q4 -297 8 -590t11 -590h-314l19 1180z" />
<glyph unicode="&#x2021;" horiz-adv-x="1521" d="M217 8v295l406 -18v516l-406 -19v295l406 -18l-19 405h314l-19 -405l404 18v-295l-404 19v-516l404 18v-295l-404 19l19 -406h-314l19 406z" />
<glyph unicode="&#x2022;" horiz-adv-x="1425" d="M236 655q0 98 37.5 185.5t102 152t151.5 102.5t186 38q98 0 185 -38t151.5 -102.5t102.5 -152t38 -185.5t-38 -185t-102.5 -151.5t-151.5 -102.5t-185 -38t-185.5 38t-152 102.5t-102 151.5t-37.5 185z" />
<glyph unicode="&#x2026;" horiz-adv-x="1992" d="M184 0v285h295v-285h-295zM850 0v285h293v-285h-293zM1513 0v285h295v-285h-295z" />
<glyph unicode="&#x202f;" horiz-adv-x="414" />
<glyph unicode="&#x2030;" horiz-adv-x="3053" d="M168 1055q0 219 87 329.5t271 110.5q359 0 359 -440q0 -442 -359 -443q-184 0 -271 111t-87 332zM406 1055q0 -74 10 -120t26.5 -70.5t38 -34t45.5 -9.5q23 0 45.5 9.5t39 34t26.5 70.5t10 120t-10 119t-26.5 69.5t-39 33.5t-45.5 9q-25 0 -46 -9t-37.5 -33.5t-26.5 -70 t-10 -118.5zM518 -6l875 1470h301l-873 -1470h-303zM1331 410q0 440 359 440q184 0 270 -110.5t86 -329.5t-86 -330t-270 -111q-358 0 -359 441zM1569 410q0 -74 10 -119t26.5 -69.5t38 -34t46.5 -9.5t46 9.5t37.5 34t26.5 69.5t10 119t-10 118.5t-26.5 69.5t-38 34t-45.5 9 q-25 0 -46.5 -9t-38 -34t-26.5 -70t-10 -118zM2171 410q0 219 87 329.5t271 110.5q359 0 359 -440t-359 -441q-184 0 -271 110.5t-87 330.5zM2406 410q0 -74 10.5 -119t28 -69.5t39 -34t45.5 -9.5q25 0 46.5 9.5t38 34t25.5 69.5t9 119t-9 118.5t-25.5 69.5t-38 34t-46.5 9 t-46 -9t-38.5 -34t-28 -70t-10.5 -118z" />
<glyph unicode="&#x2039;" horiz-adv-x="1001" d="M152 575l495 496l201 -201l-283 -295l283 -296l-201 -201z" />
<glyph unicode="&#x203a;" horiz-adv-x="1001" d="M152 279l284 296l-284 295l198 201l498 -496l-498 -497z" />
<glyph unicode="&#x2044;" horiz-adv-x="1445" d="M37 0l979 1464h362l-979 -1464h-362z" />
<glyph unicode="&#x205f;" horiz-adv-x="517" />
<glyph unicode="&#x20ac;" horiz-adv-x="1167" d="M45 471l29 191h86v71v53h-115l29 191h106q14 70 36 132t52 116q74 129 201 199.5t319 70.5q80 0 166 -15.5t166 -43.5l-65 -250q-55 23 -107.5 32t-111.5 9q-106 0 -175 -40t-110 -112q-27 -51 -41 -98h496l-48 -191h-475v-53v-36.5t2 -34.5h443l-45 -191h-371 q20 -63 45 -102q82 -131 270 -131q66 0 125.5 11t118.5 38l51 -260q-80 -29 -172 -43.5t-178 -14.5q-330 0 -485 234q-74 106 -105 268h-137z" />
<glyph unicode="&#x2122;" horiz-adv-x="1728" d="M141 1296v168h568l-7 -168h-188v-567h-182v567h-191zM758 729l28 735h207l168 -395l174 395h193l35 -735h-183l-16 418l-143 -322h-142l-137 320l-12 -416h-172z" />
<glyph unicode="&#x2202;" horiz-adv-x="1181" d="M84 442q0 98 30.5 173t84.5 128q66 68 154.5 102t181.5 34q33 0 62.5 -3.5t57.5 -7.5q-31 53 -69.5 101.5t-83.5 95.5q-102 106 -232 190l195 213q86 -57 158.5 -124.5t111.5 -110.5q158 -168 238 -355.5t80 -394.5q0 -111 -30 -195.5t-81 -148.5q-72 -86 -172 -128 t-217 -42q-111 0 -198 35t-148 100q-59 61 -91 147.5t-32 190.5zM369 438q0 -88 49 -141q53 -57 147 -57q47 0 88 20.5t70 61.5q43 64 43 170q0 55 -8 98q-39 20 -80 30.5t-90 10.5q-43 0 -86 -14.5t-76 -43.5q-27 -23 -42 -56.5t-15 -78.5z" />
<glyph unicode="&#x2206;" d="M88 0v252l391 1212h305l392 -1212v-252h-1088zM393 252h477l-239 768z" />
<glyph unicode="&#x220f;" horiz-adv-x="1386" d="M154 0v1464h1081v-1464h-311v1192h-461v-1192h-309z" />
<glyph unicode="&#x2211;" horiz-adv-x="1171" d="M139 0v281l482 454l-482 449v280h922v-272h-533l398 -358v-199l-398 -363h533v-272h-922z" />
<glyph unicode="&#x221a;" horiz-adv-x="1693" d="M174 319v226h354l181 -303l669 1276l217 -115l-792 -1483h-174l-250 399h-205z" />
<glyph unicode="&#x221e;" horiz-adv-x="1792" d="M102 647q0 90 27 166t78 131t128 86t177 31q145 0 234.5 -64.5t150.5 -154.5q59 90 149.5 154.5t233.5 64.5q100 0 177 -31t128 -86t78 -131t27 -166t-27 -165.5t-78 -131t-128 -86.5t-177 -31q-143 0 -233.5 65t-149.5 155q-61 -90 -150.5 -155t-234.5 -65 q-100 0 -177 31t-128 86.5t-78 131t-27 165.5zM317 647q0 -98 54.5 -160.5t154.5 -62.5q47 0 84 17.5t68 48t57.5 71.5t50.5 86q-25 45 -51 86t-57 72t-68 48t-84 17q-100 0 -154.5 -62.5t-54.5 -160.5zM1008 647q25 -45 50 -86t56 -71.5t69 -48t83 -17.5q100 0 154.5 62.5 t54.5 160.5t-54.5 160.5t-154.5 62.5q-45 0 -83 -17t-69 -48t-56.5 -72t-49.5 -86z" />
<glyph unicode="&#x222b;" horiz-adv-x="757" d="M-143 -154h98q131 0 192.5 72t61.5 213v780q0 260 135 406.5t401 146.5h99v-268h-99q-129 0 -190 -74.5t-61 -210.5v-780q0 -260 -135.5 -406.5t-403.5 -146.5h-98v268z" />
<glyph unicode="&#x2248;" horiz-adv-x="1310" d="M223 281v235q29 51 90.5 81t141.5 30q61 0 113.5 -16.5t101.5 -36t96 -36t96 -16.5q76 0 130.5 29t94.5 72v-236q-31 -49 -91 -80t-140 -31q-61 0 -113.5 16.5t-101.5 36t-96 36t-96 16.5q-76 0 -130.5 -28.5t-95.5 -71.5zM223 770v236q29 51 90.5 80.5t141.5 29.5 q61 0 113.5 -16.5t101.5 -36t96 -35.5t96 -16q76 0 130.5 28.5t94.5 71.5v-235q-31 -49 -91 -80t-140 -31q-61 0 -113.5 16.5t-101.5 36t-96 35.5t-96 16q-76 0 -130.5 -28.5t-95.5 -71.5z" />
<glyph unicode="&#x2260;" horiz-adv-x="1273" d="M223 317v265h254l133 229h-387v264h543l98 168l135 -86l-49 -82h101v-264h-254l-133 -229h387v-265h-543l-98 -170l-134 89l48 81h-101z" />
<glyph unicode="&#x2264;" horiz-adv-x="1380" d="M160 0v240h1065v-240h-1065zM160 788v263l1065 424v-271l-772 -284l772 -285v-270z" />
<glyph unicode="&#x2265;" horiz-adv-x="1380" d="M168 0v240h1065v-240h-1065zM168 365v270l772 285l-772 284v271l1065 -424v-263z" />
<glyph unicode="&#x25ca;" horiz-adv-x="1300" d="M78 733l452 731h238l453 -731l-453 -733h-238zM383 733l266 -434l266 434l-266 432z" />
<glyph unicode="&#x25fc;" horiz-adv-x="1024" d="M0 0v1024h1024v-1024h-1024z" />
<glyph unicode="&#xf639;" horiz-adv-x="1187" d="M59 733q0 180 27 314.5t86 228.5q127 217 422 217t422 -217q59 -94 85.5 -228.5t26.5 -314.5t-26.5 -315t-85.5 -230q-127 -217 -422 -217t-422 217q-59 94 -86 229.5t-27 315.5zM383 733q0 -152 12.5 -249t36.5 -154q29 -61 69 -85t93 -24t94 23.5t70 85.5 q23 57 36 154.5t13 248.5q0 152 -13.5 248t-35.5 154q-29 63 -70 85.5t-94 22.5t-93 -22.5t-69 -85.5q-25 -57 -37 -153.5t-12 -248.5z" />
<glyph unicode="&#xf63a;" horiz-adv-x="1157" d="M43 1225q72 123 192.5 196.5t315.5 73.5q111 0 204 -29.5t158 -89.5q61 -57 96 -141t35 -197q0 -76 -23.5 -140t-63 -121.5t-92 -109t-111.5 -100.5q-61 -49 -118.5 -90t-108 -79t-88.5 -72.5t-58 -71.5h653l-18 -254h-963v111q0 78 21.5 145.5t64.5 130t108.5 122.5 t153.5 128q61 47 120 92t104 93t72.5 101.5t27.5 114.5q0 41 -10 78t-35 66t-65 45t-93 16q-76 0 -149.5 -41t-136.5 -153z" />
<glyph unicode="&#xf63b;" horiz-adv-x="1118" d="M6 86l121 233q86 -63 157.5 -83.5t149.5 -18.5q53 2 101.5 18.5t82.5 51.5q59 59 60 155q0 106 -64 166q-80 70 -247 70h-76v209h51q178 0 260 94q39 41 55.5 99.5t20.5 136.5h-604l20 247h867q-4 -162 -17.5 -271.5t-54.5 -186.5q-31 -63 -80 -108.5t-127 -84.5 q80 -23 141.5 -61.5t104.5 -102.5q63 -90 63 -231q0 -113 -41 -194t-108 -136q-80 -68 -182.5 -93.5t-213.5 -25.5q-117 0 -219 24.5t-221 92.5z" />
<glyph unicode="&#xf63c;" horiz-adv-x="1169" d="M12 516l666 961h285v-942l198 -31v-201h-198v-303h-297v303h-629zM315 545h349v502z" />
<glyph unicode="&#xf63d;" horiz-adv-x="1169" d="M59 125l148 227q49 -59 118.5 -95t151.5 -36q55 0 103.5 17.5t83.5 52.5q68 61 67 166q0 111 -63 168q-43 39 -94.5 54t-114.5 15q-59 0 -118.5 -14t-104.5 -35l-127 107l165 712h760l-22 -270h-510l-60 -268q74 4 140.5 -1t126.5 -20q68 -16 132 -48t113 -89 q94 -115 95 -309q0 -117 -39 -206t-111 -153q-147 -131 -381 -131q-61 0 -118.5 6.5t-113 22.5t-111.5 47t-116 80z" />
<glyph unicode="&#xf63e;" horiz-adv-x="1187" d="M86 641q0 162 43 292t121 228q63 84 144 144.5t173 99.5t193.5 56.5t202.5 11.5l2 -246q-137 -4 -254 -56.5t-193 -166.5q-43 -61 -65 -130q47 25 100 40.5t117 15.5q104 0 191 -33t147 -98q104 -115 104 -316q0 -100 -26.5 -190t-81.5 -160q-59 -76 -153.5 -120 t-227.5 -44q-141 0 -240.5 51.5t-165.5 141.5q-68 94 -99.5 218t-31.5 261zM408 578q0 -158 47 -248q53 -111 157 -111q57 0 96.5 22.5t63.5 63.5q37 74 37 168q0 111 -47 168q-27 33 -66 46t-88 13q-66 0 -119 -32.5t-81 -81.5v-8z" />
<glyph unicode="&#xf63f;" horiz-adv-x="1060" d="M2 1194l23 270h952l57 -213l-540 -1251h-338l551 1194h-705z" />
<glyph unicode="&#xf640;" horiz-adv-x="1187" d="M57 381q0 127 63.5 223t215.5 174q-127 84 -167 173t-38 177q2 84 36 152t94.5 115t146.5 73.5t192 26.5q102 0 186 -25.5t144.5 -73.5t93.5 -118t33 -156q0 -80 -44 -168t-167 -163q152 -78 218 -178.5t66 -229.5q0 -82 -32.5 -157.5t-99 -132t-168 -90.5t-238.5 -34 q-129 0 -228.5 32t-168 88t-103.5 131t-35 161zM371 418q0 -88 57 -142.5t166 -54.5q111 0 168 48t57 132q0 78 -70.5 132.5t-183.5 111.5q-92 -49 -143 -102.5t-51 -124.5zM410 1116q0 -68 56 -118t150 -97q78 41 120 87t42 112q0 80 -56 121t-128 41q-80 0 -132 -37 t-52 -109z" />
<glyph unicode="&#xf641;" horiz-adv-x="1187" d="M72 979q0 100 26.5 190.5t81.5 159.5q59 76 154.5 120t226.5 44q141 0 241.5 -51t164.5 -139q68 -94 99.5 -219.5t31.5 -262.5q0 -162 -43 -291t-119 -229q-63 -82 -145 -143.5t-174.5 -100.5t-192.5 -56t-203 -11l-2 246q137 4 254 57t195 166q18 29 34.5 60.5 t28.5 66.5q-47 -25 -101.5 -39.5t-115.5 -14.5q-104 0 -191 33t-147 99q-104 115 -104 315zM375 989q0 -113 47 -166q29 -35 66.5 -48t86.5 -13q66 0 118 32.5t83 79.5v11q0 158 -47 248q-53 111 -158 110q-55 0 -95 -22.5t-62 -63.5q-23 -35 -31 -79t-8 -89z" />
<glyph unicode="&#xf6dc;" horiz-adv-x="1017" d="M72 1171l497 306h219v-1477h-309v1118l-299 -172z" />
<glyph unicode="&#xf8ff;" horiz-adv-x="1366" d="M102 764q0 29 11.5 54.5t33.5 25.5q14 0 28.5 -6.5t31.5 -14.5q-14 143 13.5 266t91 213.5t158.5 141.5t214 51q143 0 240.5 -60.5t155 -156.5t76 -219t3.5 -248q12 6 24.5 12t28.5 6t27.5 -11t15.5 -21q6 -14 7.5 -34t-2.5 -54q-4 -25 -15.5 -51.5t-21.5 -55.5 q-2 -18 -14.5 -32.5t-16.5 -28.5q-10 -20 -20.5 -31.5t-22.5 -22.5q-10 -158 -75.5 -260t-168.5 -168q-111 -90 -221 -90q-59 0 -101 17.5t-91 48.5q-53 20 -102.5 65t-76.5 93q-31 59 -55.5 136t-32.5 148q-16 12 -28.5 32.5t-28.5 43.5t-26.5 57.5t-20.5 63.5 q-6 20 -12.5 42.5t-6.5 47.5zM414 952q0 -166 125 -221q-37 -31 -37 -72q0 -37 27.5 -61.5t68.5 -42.5t90 -32.5t90 -31t68.5 -37t27.5 -51.5q0 -57 -51 -94t-139 -37q-92 0 -142 38t-50 91v13l-68 -33q0 -51 25.5 -86t63.5 -56.5t84 -30.5t87 -9q43 0 92 11t91 35.5 t69 63.5t27 94q0 68 -46.5 105t-109.5 61q-66 25 -128.5 41.5t-90.5 36.5v66q16 -4 35.5 -7.5t40.5 -3.5q111 0 178 67t67 183q0 115 -69 181q4 41 27.5 50t39.5 9h80v68l-65 6q-66 10 -100 -14.5t-38 -77.5q-57 23 -120 22q-117 0 -183.5 -66.5t-66.5 -177.5zM500 952 q0 76 42 123t122 47q78 0 118.5 -46t40.5 -124t-41 -126t-118 -48q-82 0 -123 47t-41 127zM549 403h18v-49h19v49h18v15h-55v-15zM612 418l23 -39v-25h18v25l21 39h-21l-8 -23l-10 23h-23zM688 354h19v19h4q28 -1 28 22t-24 23h-27v-64zM707 385v21h2q12 -1 12 -11t-12 -10 h-2zM756 354h45v17h-27v8h25v16h-25v8h27v15h-45v-64z" />
<glyph d="M80 0l272 1178h547l285 -1178h-295l-72 322h-393l-72 -322h-272zM471 547h297l-94 397h-113z" />
<glyph horiz-adv-x="1759" d="M80 0l528 1178h983v-236h-426v-217h332v-229h-332v-260h500l-20 -236h-758v322h-379l-139 -322h-289zM600 547h287v397h-113z" />
<glyph d="M80 0l272 1178h547l285 -1178h-295l-72 322h-393l-72 -322h-272zM463 1288l139 291h246l-186 -291h-199zM471 547h297l-94 397h-113z" />
<glyph d="M80 0l272 1178h547l285 -1178h-295l-72 322h-393l-72 -322h-272zM328 1591h184q23 -111 117 -110q94 0 114 110h187q-16 -135 -90 -213t-211 -78q-139 0 -212 78t-89 213zM471 547h297l-94 397h-113z" />
<glyph d="M80 0l272 1178h547l285 -1178h-295l-72 322h-393l-72 -322h-272zM340 1307l211 290h164l213 -290h-201l-94 104l-94 -104h-199zM471 547h297l-94 397h-113z" />
<glyph d="M80 0l272 1178h547l285 -1178h-295l-72 322h-393l-72 -322h-272zM360 1288v273h205v-273h-205zM471 547h297l-94 397h-113zM698 1288v273h205v-273h-205z" />
<glyph d="M80 0l272 1178h547l285 -1178h-295l-72 322h-393l-72 -322h-272zM434 1579h250l135 -291h-196zM471 547h297l-94 397h-113z" />
<glyph d="M80 0l272 1178h547l285 -1178h-295l-72 322h-393l-72 -322h-272zM387 1370v205h492v-205h-492zM471 547h297l-94 397h-113z" />
<glyph d="M80 0l272 1178h547l285 -1178q-35 -12 -70 -30.5t-63 -41.5q-43 -33 -43 -75q0 -29 18 -41t51 -13q45 0 90 19v-123q-37 -18 -78.5 -26.5t-80.5 -8.5q-37 0 -71 8t-56 25q-49 39 -50 106q0 68 56 119q25 25 57.5 45.5t67.5 36.5h-123l-72 322h-393l-72 -322h-272z M471 547h297l-94 397h-113z" />
<glyph d="M80 0l272 1178h547l285 -1178h-295l-72 322h-393l-72 -322h-272zM442 1473q0 78 54.5 131t134.5 53t135 -53t55 -131t-55 -130.5t-135 -52.5t-134.5 52.5t-54.5 130.5zM471 547h297l-94 397h-113zM551 1473q0 -31 23.5 -52.5t56.5 -21.5t57.5 21.5t24.5 52.5 q0 33 -24.5 54t-57.5 21t-56.5 -21.5t-23.5 -53.5z" />
<glyph d="M80 0l272 1178h547l285 -1178h-295l-72 322h-393l-72 -322h-272zM322 1309q4 129 55 189.5t129 60.5q35 0 66.5 -12.5t58.5 -28.5q31 -16 58.5 -32t49.5 -16q51 0 54 89h143q-4 -129 -54.5 -190.5t-127.5 -61.5q-35 0 -67 12t-58 29q-31 18 -57.5 33.5t-51.5 15.5 q-47 0 -53 -88h-145zM471 547h297l-94 397h-113z" />
<glyph horiz-adv-x="1183" d="M170 0v1169q59 12 159.5 22.5t217.5 10.5q106 0 198.5 -21.5t157.5 -72.5q47 -35 75 -88t28 -125q0 -86 -38 -140.5t-91 -92.5q86 -43 139 -112t53 -185q0 -92 -30.5 -159t-88.5 -112q-68 -53 -169 -75.5t-228 -22.5h-191.5t-191.5 4zM451 227q59 -6 120 -6q47 0 86 8.5 t66 30.5q25 18 38 44t13 67q0 57 -39 90q-27 25 -67.5 36t-89.5 11h-127v-281zM451 723h112h44.5t41.5 -2q35 25 54.5 60.5t19.5 76.5q0 51 -39 82q-43 37 -127 37q-29 0 -53.5 -2t-52.5 -6v-246z" />
<glyph horiz-adv-x="1142" d="M129 590q0 141 36 254.5t103.5 192.5t167 122t226.5 43q84 0 147 -14t111.5 -42t84 -66t66.5 -85l-182 -164q-35 63 -88 99.5t-139 36.5q-68 0 -114 -30t-76 -82t-42 -120.5t-12 -148.5q0 -379 299 -379q92 0 160.5 23.5t134.5 60.5l67 -219q-82 -43 -179 -70t-232 -27 q-276 0 -407.5 162t-131.5 453z" />
<glyph horiz-adv-x="1142" d="M129 590q0 141 36 254.5t103.5 192.5t167 122t226.5 43q84 0 147 -14t111.5 -42t84 -66t66.5 -85l-182 -164q-35 63 -88 99.5t-139 36.5q-68 0 -114 -30t-76 -82t-42 -120.5t-12 -148.5q0 -379 299 -379q92 0 160.5 23.5t134.5 60.5l67 -219q-82 -43 -179 -70t-232 -27 q-276 0 -407.5 162t-131.5 453zM489 1288l140 291h245l-186 -291h-199z" />
<glyph horiz-adv-x="1142" d="M129 590q0 141 36 254.5t103.5 192.5t167 122t226.5 43q84 0 147 -14t111.5 -42t84 -66t66.5 -85l-182 -164q-35 63 -88 99.5t-139 36.5q-68 0 -114 -30t-76 -82t-42 -120.5t-12 -148.5q0 -379 299 -379q92 0 160.5 23.5t134.5 60.5l67 -219q-82 -43 -179 -70t-232 -27 q-276 0 -407.5 162t-131.5 453zM358 1593h199l94 -104l94 104h201l-213 -290h-164z" />
<glyph horiz-adv-x="1142" d="M129 590q0 141 36 254.5t103.5 192.5t167 122t226.5 43q84 0 147 -14t111.5 -42t84 -66t66.5 -85l-182 -164q-35 63 -88 99.5t-139 36.5q-68 0 -114 -30t-76 -82t-42 -120.5t-12 -148.5q0 -379 299 -379q92 0 160.5 23.5t134.5 60.5l67 -219q-72 -39 -156.5 -64.5 t-195.5 -30.5v-49q92 0 137 -36t45 -91q0 -61 -57 -98t-160 -37q-33 0 -60.5 3t-56.5 14l3 94q10 0 28.5 -1t28.5 -1q92 0 92 35q0 12 -13.5 19t-32.5 10t-43 4t-46 1l12 136q-246 16 -360.5 174.5t-114.5 435.5z" />
<glyph horiz-adv-x="1273" d="M170 2v1178q49 4 93 8t87 7t91 4t108 1q164 0 288 -47t199 -152q111 -154 111 -430q0 -145 -41 -252.5t-119 -179.5q-80 -76 -195.5 -111.5t-261.5 -35.5q-92 0 -178 1t-182 9zM451 223q16 -2 36.5 -3t42.5 -1q31 0 66 3t68.5 13.5t66.5 31t57 55.5q31 41 48.5 100 t17.5 149q0 100 -15.5 169t-41.5 114q-43 76 -103.5 96.5t-118.5 22.5q-35 0 -63.5 -1t-60.5 -7v-742z" />
<glyph horiz-adv-x="1273" d="M170 2v1178q49 4 93 8t87 7t91 4t108 1q164 0 288 -47t199 -152q111 -154 111 -430q0 -145 -41 -252.5t-119 -179.5q-80 -76 -195.5 -111.5t-261.5 -35.5q-92 0 -178 1t-182 9zM309 1593h199l94 -104l94 104h201l-213 -290h-164zM451 223q16 -2 36.5 -3t42.5 -1 q31 0 66 3t68.5 13.5t66.5 31t57 55.5q31 41 48.5 100t17.5 149q0 100 -15.5 169t-41.5 114q-43 76 -103.5 96.5t-118.5 22.5q-35 0 -63.5 -1t-60.5 -7v-742z" />
<glyph horiz-adv-x="1292" d="M31 487v242h157v451q49 4 93.5 8t87.5 7t91 4t107 1q164 0 288 -47t200 -152q110 -154 110 -430q0 -145 -41 -252.5t-118 -179.5q-80 -76 -196 -111.5t-261 -35.5q-92 0 -178 1t-183 9v485h-157zM469 223q16 -2 36.5 -3t43.5 -1q31 0 65.5 3t68.5 13.5t66.5 31t57.5 55.5 q31 41 48 100t17 149q0 100 -15 169t-42 114q-43 76 -103.5 96.5t-117.5 22.5q-35 0 -63.5 -1t-61.5 -7v-236h164v-242h-164v-264z" />
<glyph horiz-adv-x="1042" d="M170 0v1178h739v-236h-458v-233h366v-232h-366v-241h497l-20 -236h-758z" />
<glyph horiz-adv-x="1042" d="M170 0v1178h739v-236h-458v-233h366v-232h-366v-241h497l-20 -236h-758zM395 1288l140 291h245l-186 -291h-199z" />
<glyph horiz-adv-x="1042" d="M170 0v1178h739v-236h-458v-233h366v-232h-366v-241h497l-20 -236h-758zM229 1593h199l94 -104l94 104h201l-213 -290h-164z" />
<glyph horiz-adv-x="1044" d="M170 0v1178h739v-236h-458v-233h366v-232h-366v-241h497l-20 -236h-758zM231 1307l211 290h164l213 -290h-201l-94 104l-94 -104h-199z" />
<glyph horiz-adv-x="1042" d="M170 0v1178h739v-236h-458v-233h366v-232h-366v-241h497l-20 -236h-758zM260 1288v273h205v-273h-205zM598 1288v273h205v-273h-205z" />
<glyph horiz-adv-x="1042" d="M170 0v1178h739v-236h-458v-233h366v-232h-366v-241h497l-20 -236h-758zM412 1376v236h213v-236h-213z" />
<glyph horiz-adv-x="1042" d="M170 0v1178h739v-236h-458v-233h366v-232h-366v-241h497l-20 -236h-758zM322 1579h249l136 -291h-197z" />
<glyph horiz-adv-x="1042" d="M170 0v1178h739v-236h-458v-233h366v-232h-366v-241h497l-20 -236h-758zM264 1370v205h492v-205h-492z" />
<glyph horiz-adv-x="1042" d="M170 0v1178h739v-236h-458v-233h366v-232h-366v-241h497l-20 -236q-35 -12 -70 -30.5t-63 -41.5q-20 -16 -32.5 -35.5t-12.5 -39.5q0 -25 20 -39q16 -14 49 -15q25 0 46.5 5.5t45.5 13.5v-123q-39 -18 -81 -26.5t-78 -8.5q-39 0 -72 8t-55 27q-51 39 -52 104 q0 33 15.5 64t42.5 55q23 25 57.5 45.5t69.5 36.5h-588z" />
<glyph horiz-adv-x="1292" d="M31 487v242h157v451q49 4 93.5 8t87.5 7t91 4t107 1q164 0 288 -47t200 -152q110 -154 110 -430q0 -145 -41 -252.5t-118 -179.5q-80 -76 -196 -111.5t-261 -35.5q-92 0 -178 1t-183 9v485h-157zM469 223q16 -2 36.5 -3t43.5 -1q31 0 65.5 3t68.5 13.5t66.5 31t57.5 55.5 q31 41 48 100t17 149q0 100 -15 169t-42 114q-43 76 -103.5 96.5t-117.5 22.5q-35 0 -63.5 -1t-61.5 -7v-236h164v-242h-164v-264z" />
<glyph horiz-adv-x="1069" d="M82 371l24 170h70v49v35h-94l24 170h89q23 113 71 190q63 104 172 160.5t271 56.5q68 0 139.5 -12t136.5 -35l-57 -223q-47 16 -87 22.5t-91 6.5q-86 0 -141.5 -29t-88.5 -82q-12 -20 -26 -55h397l-41 -170h-383v-35v-49h360l-43 -170h-288q6 -16 12 -29.5t16 -26.5 q63 -100 217 -100q104 0 201 39l45 -234q-66 -23 -143.5 -34t-149.5 -11q-283 0 -413 193q-55 78 -84 203h-115z" />
<glyph horiz-adv-x="997" d="M170 0v1178h741l-18 -236h-442v-233h331v-232h-331v-477h-281z" />
<glyph horiz-adv-x="1228" d="M129 590q0 141 36 254.5t103.5 192.5t167 122t226.5 43q166 0 259 -55t150 -152l-176 -164q-49 88 -112.5 113t-120.5 25q-129 0 -186.5 -104.5t-57.5 -272.5q0 -186 65.5 -285.5t204.5 -99.5q41 0 67.5 4t59.5 14v172h-168l19 215h401v-561q-86 -35 -189.5 -55.5 t-209.5 -20.5q-279 0 -409 162t-130 453z" />
<glyph horiz-adv-x="1228" d="M129 590q0 141 36 254.5t103.5 192.5t167 122t226.5 43q166 0 259 -55t150 -152l-176 -164q-49 88 -112.5 113t-120.5 25q-129 0 -186.5 -104.5t-57.5 -272.5q0 -186 65.5 -285.5t204.5 -99.5q41 0 67.5 4t59.5 14v172h-168l19 215h401v-561q-86 -35 -189.5 -55.5 t-209.5 -20.5q-279 0 -409 162t-130 453zM330 1591h184q23 -111 117 -110q94 0 114 110h187q-16 -135 -90 -213t-211 -78q-139 0 -212 78t-89 213z" />
<glyph horiz-adv-x="1228" d="M129 590q0 141 36 254.5t103.5 192.5t167 122t226.5 43q166 0 259 -55t150 -152l-176 -164q-49 88 -112.5 113t-120.5 25q-129 0 -186.5 -104.5t-57.5 -272.5q0 -186 65.5 -285.5t204.5 -99.5q41 0 67.5 4t59.5 14v172h-168l19 215h401v-561q-86 -35 -189.5 -55.5 t-209.5 -20.5q-279 0 -409 162t-130 453zM557 -436q16 72 21.5 148.5t1.5 162.5h219q2 -41 0 -92t-11.5 -105.5t-29 -106.5t-51.5 -95z" />
<glyph horiz-adv-x="1335" d="M170 0v1178h281v-453h434v453h278v-1178h-278v494h-434v-494h-281z" />
<glyph horiz-adv-x="620" d="M170 0v1178h281v-1178h-281z" />
<glyph horiz-adv-x="786" d="M72 0v229h168v1006h-168v229h645v-229h-168v-1006h168v-229h-645z" />
<glyph horiz-adv-x="620" d="M131 1288l139 291h246l-186 -291h-199zM170 0v1178h281v-1178h-281z" />
<glyph horiz-adv-x="786" d="M72 0v229h168v1006h-168v229h645v-229h-168v-1006h168v-229h-645zM172 1599l166 363h278l-221 -363h-223z" />
<glyph horiz-adv-x="620" d="M18 1307l211 290h164l213 -290h-200l-95 104l-94 -104h-199zM170 0v1178h281v-1178h-281z" />
<glyph horiz-adv-x="786" d="M53 1620l250 362h186l250 -362h-225l-119 152l-116 -152h-226zM72 0v229h168v1006h-168v229h645v-229h-168v-1006h168v-229h-645z" />
<glyph horiz-adv-x="620" d="M39 1288v273h205v-273h-205zM170 0v1178h281v-1178h-281zM377 1288v273h205v-273h-205z" />
<glyph horiz-adv-x="786" d="M72 0v229h168v1006h-168v229h645v-229h-168v-1006h168v-229h-645zM88 1587v336h223v-336h-223zM479 1587v336h221v-336h-221z" />
<glyph horiz-adv-x="786" d="M72 0v229h168v1006h-168v229h645v-229h-168v-1006h168v-229h-645zM276 1708v283h238v-283h-238z" />
<glyph horiz-adv-x="620" d="M113 1579h249l136 -291h-197zM170 0v1178h281v-1178h-281z" />
<glyph horiz-adv-x="786" d="M72 0v229h168v1006h-168v229h645v-229h-168v-1006h168v-229h-645zM172 1962h279l165 -363h-223z" />
<glyph horiz-adv-x="620" d="M63 1370v205h492v-205h-492zM170 0v1178h281v-1178h-281z" />
<glyph horiz-adv-x="786" d="M72 0v229h168v1006h-168v229h645v-229h-168v-1006h168v-229h-645zM109 1700v231h573v-231h-573z" />
<glyph horiz-adv-x="620" d="M-16 -199q0 35 15 65t42 56q25 27 59.5 46.5t69.5 35.5v1174h281v-1178h-123q-33 -12 -66 -29.5t-57 -40.5q-20 -16 -32.5 -34.5t-12.5 -38.5q0 -27 18 -41q25 -14 51 -15q25 0 46.5 5.5t46.5 13.5v-123q-39 -18 -81 -26.5t-81 -8.5q-37 0 -70 9.5t-55 25.5 q-51 39 -51 104z" />
<glyph horiz-adv-x="786" d="M72 0v229h168v1006h-168v229h645v-229h-168v-1006h168v-229h-219q-41 -16 -83 -38.5t-75 -51.5q-53 -47 -53 -96q0 -35 22 -54q23 -16 62 -16q29 0 53.5 6t52.5 17v-140q-41 -23 -90 -32t-94 -9q-43 0 -82 10.5t-64 30.5q-59 43 -59 125q0 41 18.5 79t49.5 69 q29 31 69.5 56.5t81.5 43.5h-235z" />
<glyph horiz-adv-x="630" d="M-49 -59q61 6 105 16t72 34.5t40 67.5t12 117v1002h279v-1051q0 -219 -111.5 -311t-347.5 -101z" />
<glyph horiz-adv-x="1249" d="M170 0v1178h281v-473h86l344 473h323l-442 -566l452 -612h-335l-336 473h-92v-473h-281z" />
<glyph horiz-adv-x="1257" d="M170 0v1178h281v-473h86l344 473h323l-442 -566l452 -612h-335l-336 473h-92v-473h-281zM543 -436q16 72 21 148.5t1 162.5h219q2 -41 0 -92t-11 -105.5t-28.5 -106.5t-52.5 -95z" />
<glyph horiz-adv-x="1046" d="M170 0v1178h281v-942h518l-17 -236h-782z" />
<glyph horiz-adv-x="1046" d="M170 0v1178h281v-942h518l-17 -236h-782zM180 1288l139 291h246l-186 -291h-199z" />
<glyph horiz-adv-x="1046" d="M170 0v1178h281v-942h518l-17 -236h-782zM555 819q37 172 25 379h239q2 -49 0 -110.5t-13 -125t-31.5 -125t-55.5 -112.5z" />
<glyph horiz-adv-x="1050" d="M170 0v1178h281v-942h518l-17 -236h-782zM440 -436q16 72 21.5 148.5t1.5 162.5h219q2 -41 0 -92t-11 -105.5t-28.5 -106.5t-52.5 -95z" />
<glyph horiz-adv-x="1067" d="M-31 492l219 100v586h281v-459l199 92l104 -221l-303 -137v-217h518l-16 -236h-783v326l-118 -54z" />
<glyph horiz-adv-x="1677" d="M158 0l45 1178h336l301 -674l313 674h309l58 -1178h-277l-35 760q-70 -147 -138.5 -299t-137.5 -299h-221l-273 598l-26 -760h-254z" />
<glyph horiz-adv-x="1363" d="M170 0v1178h266l496 -721l-4 721h264v-1180h-266l-494 713l4 -711h-266z" />
<glyph horiz-adv-x="1363" d="M170 0v1178h266l496 -721l-4 721h264v-1180h-266l-494 713l4 -711h-266zM504 1288l139 291h246l-187 -291h-198z" />
<glyph horiz-adv-x="1363" d="M170 0v1178h266l496 -721l-4 721h264v-1180h-266l-494 713l4 -711h-266zM387 1593h199l94 -104l94 104h201l-213 -290h-164z" />
<glyph horiz-adv-x="1366" d="M170 0v1178h266l496 -721l-4 721h264v-1180h-266l-494 713l4 -711h-266zM559 -436q16 72 21.5 148.5t1.5 162.5h219q2 -41 0 -92t-11.5 -105.5t-29 -106.5t-51.5 -95z" />
<glyph horiz-adv-x="1363" d="M170 0v1178h266l496 -721l-4 721h264v-1180h-266l-494 713l4 -711h-266zM369 1309q4 129 55 189.5t129 60.5q35 0 66.5 -12.5t58.5 -28.5q31 -16 58.5 -32t49.5 -16q51 0 54 89h143q-4 -129 -54 -190.5t-128 -61.5q-35 0 -67 12t-58 29q-31 18 -57.5 33.5t-51.5 15.5 q-47 0 -53 -88h-145z" />
<glyph horiz-adv-x="1292" d="M129 588q0 129 23.5 228t66.5 171q66 111 173.5 163t252.5 52t254 -52t174 -163q43 -72 66.5 -171t23.5 -228t-23.5 -227.5t-66.5 -172.5q-66 -111 -174 -162t-254 -51q-145 0 -252.5 51.5t-173.5 161.5q-43 74 -66.5 172.5t-23.5 227.5zM420 588q0 -156 35 -244 q33 -86 85 -114.5t105 -28.5q55 0 107.5 28.5t85.5 114.5q33 84 32 244q0 162 -32 248q-31 86 -84.5 113.5t-108.5 27.5q-53 0 -106.5 -27.5t-83.5 -113.5q-16 -45 -25.5 -105.5t-9.5 -142.5z" />
<glyph horiz-adv-x="1681" d="M129 588q0 242 94 389q63 102 173 151.5t261 49.5h891v-236h-458v-217h366v-229h-366v-260h497l-20 -236h-910q-305 0 -432 199q-96 143 -96 389zM422 588q0 -66 8 -123t31 -105q25 -61 79 -99t150 -38q55 0 121 15v700q-66 14 -121 14q-96 0 -150.5 -36.5t-78.5 -96.5 q-23 -47 -31 -106.5t-8 -124.5z" />
<glyph horiz-adv-x="1292" d="M129 588q0 129 23.5 228t66.5 171q66 111 173.5 163t252.5 52t254 -52t174 -163q43 -72 66.5 -171t23.5 -228t-23.5 -227.5t-66.5 -172.5q-66 -111 -174 -162t-254 -51q-145 0 -252.5 51.5t-173.5 161.5q-43 74 -66.5 172.5t-23.5 227.5zM420 588q0 -156 35 -244 q33 -86 85 -114.5t105 -28.5q55 0 107.5 28.5t85.5 114.5q33 84 32 244q0 162 -32 248q-31 86 -84.5 113.5t-108.5 27.5q-53 0 -106.5 -27.5t-83.5 -113.5q-16 -45 -25.5 -105.5t-9.5 -142.5zM500 1288l139 291h246l-187 -291h-198z" />
<glyph horiz-adv-x="1292" d="M129 588q0 129 23.5 228t66.5 171q66 111 173.5 163t252.5 52t254 -52t174 -163q43 -72 66.5 -171t23.5 -228t-23.5 -227.5t-66.5 -172.5q-66 -111 -174 -162t-254 -51q-145 0 -252.5 51.5t-173.5 161.5q-43 74 -66.5 172.5t-23.5 227.5zM371 1307l211 290h163l213 -290 h-200l-94 104l-95 -104h-198zM420 588q0 -156 35 -244q33 -86 85 -114.5t105 -28.5q55 0 107.5 28.5t85.5 114.5q33 84 32 244q0 162 -32 248q-31 86 -84.5 113.5t-108.5 27.5q-53 0 -106.5 -27.5t-83.5 -113.5q-16 -45 -25.5 -105.5t-9.5 -142.5z" />
<glyph horiz-adv-x="1292" d="M129 588q0 129 23.5 228t66.5 171q66 111 173.5 163t252.5 52t254 -52t174 -163q43 -72 66.5 -171t23.5 -228t-23.5 -227.5t-66.5 -172.5q-66 -111 -174 -162t-254 -51q-145 0 -252.5 51.5t-173.5 161.5q-43 74 -66.5 172.5t-23.5 227.5zM375 1288v273h205v-273h-205z M420 588q0 -156 35 -244q33 -86 85 -114.5t105 -28.5q55 0 107.5 28.5t85.5 114.5q33 84 32 244q0 162 -32 248q-31 86 -84.5 113.5t-108.5 27.5q-53 0 -106.5 -27.5t-83.5 -113.5q-16 -45 -25.5 -105.5t-9.5 -142.5zM713 1288v273h205v-273h-205z" />
<glyph horiz-adv-x="1292" d="M129 588q0 129 23.5 228t66.5 171q66 111 173.5 163t252.5 52t254 -52t174 -163q43 -72 66.5 -171t23.5 -228t-23.5 -227.5t-66.5 -172.5q-66 -111 -174 -162t-254 -51q-145 0 -252.5 51.5t-173.5 161.5q-43 74 -66.5 172.5t-23.5 227.5zM420 588q0 -156 35 -244 q33 -86 85 -114.5t105 -28.5q55 0 107.5 28.5t85.5 114.5q33 84 32 244q0 162 -32 248q-31 86 -84.5 113.5t-108.5 27.5q-53 0 -106.5 -27.5t-83.5 -113.5q-16 -45 -25.5 -105.5t-9.5 -142.5zM459 1579h250l135 -291h-197z" />
<glyph horiz-adv-x="1292" d="M129 588q0 129 23.5 228t66.5 171q66 111 173.5 163t252.5 52t254 -52t174 -163q43 -72 66.5 -171t23.5 -228t-23.5 -227.5t-66.5 -172.5q-66 -111 -174 -162t-254 -51q-145 0 -252.5 51.5t-173.5 161.5q-43 74 -66.5 172.5t-23.5 227.5zM336 1339l102 291h236l-154 -291 h-184zM420 588q0 -156 35 -244q33 -86 85 -114.5t105 -28.5q55 0 107.5 28.5t85.5 114.5q33 84 32 244q0 162 -32 248q-31 86 -84.5 113.5t-108.5 27.5q-53 0 -106.5 -27.5t-83.5 -113.5q-16 -45 -25.5 -105.5t-9.5 -142.5zM674 1339l102 291h234l-152 -291h-184z" />
<glyph horiz-adv-x="1292" d="M129 588q0 129 23.5 228t66.5 171q66 111 173.5 163t252.5 52t254 -52t174 -163q43 -72 66.5 -171t23.5 -228t-23.5 -227.5t-66.5 -172.5q-66 -111 -174 -162t-254 -51q-145 0 -252.5 51.5t-173.5 161.5q-43 74 -66.5 172.5t-23.5 227.5zM399 1370v205h492v-205h-492z M420 588q0 -156 35 -244q33 -86 85 -114.5t105 -28.5q55 0 107.5 28.5t85.5 114.5q33 84 32 244q0 162 -32 248q-31 86 -84.5 113.5t-108.5 27.5q-53 0 -106.5 -27.5t-83.5 -113.5q-16 -45 -25.5 -105.5t-9.5 -142.5z" />
<glyph horiz-adv-x="1290" d="M129 588q0 129 23.5 228t66.5 171q66 111 173.5 163t252.5 52q113 0 201 -31l14 29h215l-67 -129q39 -37 65 -84q43 -72 66.5 -171t23.5 -228t-23.5 -227.5t-66.5 -172.5q-66 -111 -174 -162t-254 -51q-102 0 -188 25l-13 -25h-215l62 121q-43 43 -72 92 q-43 74 -66.5 172.5t-23.5 227.5zM420 588q0 -127 20 -203l295 573q-43 18 -90 19q-53 0 -106.5 -27.5t-83.5 -113.5q-16 -45 -25.5 -105.5t-9.5 -142.5zM567 215q35 -14 78 -14q55 0 107.5 28.5t85.5 114.5q32 84 32 244q0 55 -4 101t-12 85z" />
<glyph horiz-adv-x="1292" d="M129 588q0 129 23.5 228t66.5 171q66 111 173.5 163t252.5 52t254 -52t174 -163q43 -72 66.5 -171t23.5 -228t-23.5 -227.5t-66.5 -172.5q-66 -111 -174 -162t-254 -51q-145 0 -252.5 51.5t-173.5 161.5q-43 74 -66.5 172.5t-23.5 227.5zM350 1309q4 129 55.5 189.5 t129.5 60.5q35 0 66.5 -12.5t57.5 -28.5q31 -16 58.5 -32t50.5 -16q51 0 53 89h144q-4 -129 -54.5 -190.5t-128.5 -61.5q-35 0 -66.5 12t-58.5 29q-31 18 -57.5 33.5t-50.5 15.5q-47 0 -53 -88h-146zM420 588q0 -156 35 -244q33 -86 85 -114.5t105 -28.5q55 0 107.5 28.5 t85.5 114.5q33 84 32 244q0 162 -32 248q-31 86 -84.5 113.5t-108.5 27.5q-53 0 -106.5 -27.5t-83.5 -113.5q-16 -45 -25.5 -105.5t-9.5 -142.5z" />
<glyph horiz-adv-x="1144" d="M170 0v1178q31 4 75 8t95 8t104.5 6t104.5 2q117 0 214 -27.5t165 -87.5q53 -47 81.5 -112.5t28.5 -153.5q0 -98 -37.5 -169.5t-103.5 -121.5q-72 -51 -174 -74.5t-223 -23.5h-49v-432h-281zM451 651h59q111 0 174 43q68 41 68 125q0 80 -52 117q-53 41 -153 41 q-23 0 -46.5 -1t-49.5 -3v-322z" />
<glyph horiz-adv-x="1292" d="M129 588q0 129 23.5 228t66.5 171q66 111 173.5 163t252.5 52t254 -52t174 -163q43 -72 66.5 -171t23.5 -228t-23.5 -227.5t-66.5 -172.5q-47 -80 -117.5 -128t-162.5 -68q-4 -6 2 -12q12 -14 42.5 -21.5t72.5 -11.5t90.5 -5t93.5 -1l-56 -226q-242 0 -360.5 65.5 t-118.5 172.5v27q-115 14 -201 65t-139 143q-43 74 -66.5 172.5t-23.5 227.5zM420 588q0 -156 35 -244q33 -86 85 -114.5t105 -28.5q55 0 107.5 28.5t85.5 114.5q33 84 32 244q0 162 -32 248q-31 86 -84.5 113.5t-108.5 27.5q-53 0 -106.5 -27.5t-83.5 -113.5 q-16 -45 -25.5 -105.5t-9.5 -142.5z" />
<glyph horiz-adv-x="1181" d="M170 0v1178q29 4 74 8t96 8t102.5 6t94.5 2q127 0 219 -25.5t157 -80.5q59 -51 93 -123t34 -162q0 -59 -13 -113.5t-42 -95.5q-51 -82 -151 -133l253 -469h-309l-207 399q-18 -2 -34.5 -2h-32.5h-53v-397h-281zM451 616h55q43 0 93 8.5t91 41.5q29 23 44.5 55.5 t15.5 81.5t-16.5 83t-45.5 54q-31 23 -68.5 31t-70.5 8q-45 0 -98 -6v-357z" />
<glyph horiz-adv-x="1181" d="M170 0v1178q29 4 74 8t96 8t102.5 6t94.5 2q127 0 219 -25.5t157 -80.5q59 -51 93 -123t34 -162q0 -59 -13 -113.5t-42 -95.5q-51 -82 -151 -133l253 -469h-309l-207 399q-18 -2 -34.5 -2h-32.5h-53v-397h-281zM399 1288l140 291h245l-186 -291h-199zM451 616h55 q43 0 93 8.5t91 41.5q29 23 44.5 55.5t15.5 81.5t-16.5 83t-45.5 54q-31 23 -68.5 31t-70.5 8q-45 0 -98 -6v-357z" />
<glyph horiz-adv-x="1181" d="M170 0v1178q29 4 74 8t96 8t102.5 6t94.5 2q127 0 219 -25.5t157 -80.5q59 -51 93 -123t34 -162q0 -59 -13 -113.5t-42 -95.5q-51 -82 -151 -133l253 -469h-309l-207 399q-18 -2 -34.5 -2h-32.5h-53v-397h-281zM262 1593h199l94 -104l94 104h201l-213 -290h-164zM451 616 h55q43 0 93 8.5t91 41.5q29 23 44.5 55.5t15.5 81.5t-16.5 83t-45.5 54q-31 23 -68.5 31t-70.5 8q-45 0 -98 -6v-357z" />
<glyph horiz-adv-x="1183" d="M170 0v1178q29 4 74 8t96 8t102.5 6t94.5 2q127 0 219 -25.5t157 -80.5q59 -51 93 -123t34 -162q0 -59 -13 -113.5t-42 -95.5q-51 -82 -151 -133l253 -469h-309l-207 399q-18 -2 -34.5 -2h-32.5h-53v-397h-281zM451 616h55q43 0 93 8.5t91 41.5q29 23 44.5 55.5 t15.5 81.5t-16.5 83t-45.5 54q-31 23 -68.5 31t-70.5 8q-45 0 -98 -6v-357zM483 -436q16 72 21.5 148.5t1.5 162.5h219q2 -41 0 -92t-11 -105.5t-28.5 -106.5t-52.5 -95z" />
<glyph horiz-adv-x="1067" d="M92 33l29 231q66 -27 137.5 -44t163.5 -17q248 0 248 127q0 37 -20.5 62.5t-55.5 45.5q-35 18 -77 32.5t-86 31t-90 36t-87 50.5q-59 43 -95 105.5t-36 164.5q0 80 33.5 144.5t94 108.5t143.5 67.5t179 23.5q98 0 175 -16.5t137 -44.5l-29 -228q-57 27 -128 42.5 t-144 15.5q-100 0 -145.5 -26.5t-45.5 -74.5q0 -51 46 -78.5t114 -50.5q63 -23 133 -46t129 -64q66 -43 104.5 -104.5t38.5 -161.5q0 -109 -47 -182.5t-121.5 -120t-166 -67t-179.5 -20.5q-104 0 -189 13.5t-163 44.5z" />
<glyph horiz-adv-x="1067" d="M92 33l29 231q66 -27 137.5 -44t163.5 -17q248 0 248 127q0 37 -20.5 62.5t-55.5 45.5q-35 18 -77 32.5t-86 31t-90 36t-87 50.5q-59 43 -95 105.5t-36 164.5q0 80 33.5 144.5t94 108.5t143.5 67.5t179 23.5q98 0 175 -16.5t137 -44.5l-29 -228q-57 27 -128 42.5 t-144 15.5q-100 0 -145.5 -26.5t-45.5 -74.5q0 -51 46 -78.5t114 -50.5q63 -23 133 -46t129 -64q66 -43 104.5 -104.5t38.5 -161.5q0 -109 -47 -182.5t-121.5 -120t-166 -67t-179.5 -20.5q-104 0 -189 13.5t-163 44.5zM371 1288l139 291h246l-187 -291h-198z" />
<glyph horiz-adv-x="1067" d="M92 33l29 231q66 -27 137.5 -44t163.5 -17q248 0 248 127q0 37 -20.5 62.5t-55.5 45.5q-35 18 -77 32.5t-86 31t-90 36t-87 50.5q-59 43 -95 105.5t-36 164.5q0 80 33.5 144.5t94 108.5t143.5 67.5t179 23.5q98 0 175 -16.5t137 -44.5l-29 -228q-57 27 -128 42.5 t-144 15.5q-100 0 -145.5 -26.5t-45.5 -74.5q0 -51 46 -78.5t114 -50.5q63 -23 133 -46t129 -64q66 -43 104.5 -104.5t38.5 -161.5q0 -109 -47 -182.5t-121.5 -120t-166 -67t-179.5 -20.5q-104 0 -189 13.5t-163 44.5zM258 1626h199l94 -104l94 104h201l-213 -291h-164z" />
<glyph horiz-adv-x="1067" d="M92 33l29 231q66 -27 137.5 -44t163.5 -17q248 0 248 127q0 37 -20.5 62.5t-55.5 45.5q-35 18 -77 32.5t-86 31t-90 36t-87 50.5q-59 43 -95 105.5t-36 164.5q0 80 33.5 144.5t94 108.5t143.5 67.5t179 23.5q98 0 175 -16.5t137 -44.5l-29 -228q-57 27 -128 42.5 t-144 15.5q-100 0 -145.5 -26.5t-45.5 -74.5q0 -51 46 -78.5t114 -50.5q63 -23 133 -46t129 -64q66 -43 104.5 -104.5t38.5 -161.5q0 -92 -33.5 -159t-90 -113t-128 -72.5t-147.5 -36.5v-56q92 0 137 -36t45 -91q0 -61 -57 -98t-160 -37q-33 0 -60.5 3t-55.5 14l2 94 q10 0 28.5 -1t28.5 -1q92 0 92 35q0 12 -13.5 19t-32.5 10t-43 4t-46 1l12 131q-100 2 -183 15.5t-161 42.5z" />
<glyph horiz-adv-x="1069" d="M92 33l29 231q66 -27 137.5 -44t163.5 -17q248 0 248 127q0 37 -20.5 62.5t-55.5 45.5q-35 18 -77 32.5t-86 31t-90 36t-87 50.5q-59 43 -95 105.5t-36 164.5q0 80 33.5 144.5t94 108.5t143.5 67.5t179 23.5q98 0 175 -16.5t137 -44.5l-29 -228q-57 27 -128 42.5 t-144 15.5q-100 0 -145.5 -26.5t-45.5 -74.5q0 -51 46 -78.5t114 -50.5q63 -23 133 -46t129 -64q66 -43 104.5 -104.5t38.5 -161.5q0 -109 -47 -182.5t-121.5 -120t-166 -67t-179.5 -20.5q-104 0 -189 13.5t-163 44.5zM381 -436q16 72 21.5 148.5t0.5 162.5h220q2 -41 0 -92 t-11.5 -105.5t-29 -106.5t-52.5 -95z" />
<glyph horiz-adv-x="1163" d="M88 928v250h1002l-23 -250h-344v-928h-279v928h-356z" />
<glyph horiz-adv-x="1163" d="M88 928v250h1002l-23 -250h-344v-928h-279v928h-356zM291 1593h198l95 -104l94 104h201l-213 -290h-164z" />
<glyph horiz-adv-x="1169" d="M88 928v250h1002l-23 -250h-344v-928h-279v928h-356zM459 -436q16 72 21 148.5t1 162.5h219q2 -41 0 -92t-11 -105.5t-28.5 -106.5t-52.5 -95z" />
<glyph horiz-adv-x="1144" d="M170 0v1176h279v-201q23 2 49 3t55 1q111 0 208 -27.5t165 -87.5q53 -47 81.5 -112.5t28.5 -155.5q0 -98 -36.5 -170t-102.5 -119q-72 -51 -174 -75.5t-225 -24.5h-49v-207h-279zM449 432h57q45 0 90 9.5t82 31.5q29 16 47 46t18 75q0 37 -10 62.5t-28 43.5 q-31 31 -74 39.5t-82 8.5h-47.5t-52.5 -5v-311z" />
<glyph horiz-adv-x="1306" d="M170 412v766h281v-725q0 -117 54 -180.5t195 -63.5q39 0 77 2t79 12v955h279v-1145q-90 -23 -201 -40.5t-240 -17.5q-111 0 -206 21.5t-165.5 73t-111.5 135.5t-41 207z" />
<glyph horiz-adv-x="1306" d="M170 412v766h281v-725q0 -117 54 -180.5t195 -63.5q39 0 77 2t79 12v955h279v-1145q-90 -23 -201 -40.5t-240 -17.5q-111 0 -206 21.5t-165.5 73t-111.5 135.5t-41 207zM506 1288l139 291h246l-186 -291h-199z" />
<glyph horiz-adv-x="1306" d="M170 412v766h281v-725q0 -117 54 -180.5t195 -63.5q39 0 77 2t79 12v955h279v-1145q-90 -23 -201 -40.5t-240 -17.5q-111 0 -206 21.5t-165.5 73t-111.5 135.5t-41 207zM356 1307l211 290h164l213 -290h-201l-94 104l-94 -104h-199z" />
<glyph horiz-adv-x="1306" d="M170 412v766h281v-725q0 -117 54 -180.5t195 -63.5q39 0 77 2t79 12v955h279v-1145q-90 -23 -201 -40.5t-240 -17.5q-111 0 -206 21.5t-165.5 73t-111.5 135.5t-41 207zM383 1288v273h205v-273h-205zM721 1288v273h205v-273h-205z" />
<glyph horiz-adv-x="1306" d="M170 412v766h281v-725q0 -117 54 -180.5t195 -63.5q39 0 77 2t79 12v955h279v-1145q-90 -23 -201 -40.5t-240 -17.5q-111 0 -206 21.5t-165.5 73t-111.5 135.5t-41 207zM430 1579h250l135 -291h-197z" />
<glyph horiz-adv-x="1306" d="M170 412v766h281v-725q0 -117 54 -180.5t195 -63.5q39 0 77 2t79 12v955h279v-1145q-90 -23 -201 -40.5t-240 -17.5q-111 0 -206 21.5t-165.5 73t-111.5 135.5t-41 207zM340 1346l102 290h236l-154 -290h-184zM678 1346l102 290h234l-152 -290h-184z" />
<glyph horiz-adv-x="1306" d="M170 412v766h281v-725q0 -117 54 -180.5t195 -63.5q39 0 77 2t79 12v955h279v-1145q-90 -23 -201 -40.5t-240 -17.5q-111 0 -206 21.5t-165.5 73t-111.5 135.5t-41 207zM410 1370v205h491v-205h-491z" />
<glyph horiz-adv-x="1306" d="M170 412v766h281v-725q0 -117 54 -180.5t195 -63.5q39 0 77 2t79 12v955h279v-1145q-35 -12 -70 -30.5t-64 -41.5q-20 -16 -32.5 -35.5t-12.5 -40.5q0 -25 21 -39q16 -14 49 -14q25 0 46.5 5t45.5 13v-122q-39 -18 -81 -26.5t-79 -8.5q-39 0 -71.5 8t-55.5 27 q-51 39 -51 104q0 33 15.5 63.5t42.5 55.5q20 20 43 35q-45 -4 -91.5 -7.5t-95.5 -3.5q-111 0 -206 21.5t-165.5 73t-111.5 135.5t-41 207z" />
<glyph horiz-adv-x="1306" d="M170 412v766h281v-725q0 -117 54 -180.5t195 -63.5q39 0 77 2t79 12v955h279v-1145q-90 -23 -201 -40.5t-240 -17.5q-111 0 -206 21.5t-165.5 73t-111.5 135.5t-41 207zM465 1481q0 78 54 131t134 53t135.5 -53t55.5 -131t-55.5 -130.5t-135.5 -52.5t-134 52.5t-54 130.5 zM573 1481q0 -31 24 -52.5t56 -21.5q33 0 57.5 21.5t24.5 52.5q0 33 -24.5 54t-57.5 21t-56.5 -21.5t-23.5 -53.5z" />
<glyph d="M80 1178h291l262 -859l256 859h295l-398 -1186h-323z" />
<glyph horiz-adv-x="1906" d="M80 1178h289l241 -850l234 850h235l240 -848l233 848h275l-363 -1186h-299l-209 674l-211 -674h-311z" />
<glyph horiz-adv-x="1906" d="M80 1178h289l241 -850l234 850h235l240 -848l233 848h275l-363 -1186h-299l-209 674l-211 -674h-311zM659 1313l211 291h164l213 -291h-200l-95 104l-94 -104h-199z" />
<glyph horiz-adv-x="1253" d="M76 0l411 590l-383 588h328l209 -328l209 328h328l-396 -566l394 -612h-320l-227 358l-223 -358h-330z" />
<glyph horiz-adv-x="1212" d="M63 1178h324l223 -455l230 455h309l-412 -709v-469h-278v465z" />
<glyph horiz-adv-x="1212" d="M63 1178h324l223 -455l230 455h309l-412 -709v-469h-278v465zM453 1253l139 291h246l-187 -291h-198z" />
<glyph horiz-adv-x="1212" d="M63 1178h324l223 -455l230 455h309l-412 -709v-469h-278v465zM313 1313l211 291h164l213 -291h-201l-94 104l-94 -104h-199z" />
<glyph horiz-adv-x="1212" d="M63 1178h324l223 -455l230 455h309l-412 -709v-469h-278v465zM334 1286v273h205v-273h-205zM672 1286v273h205v-273h-205z" />
<glyph horiz-adv-x="1099" d="M72 0v170l633 776h-558v232h840l41 -215l-590 -719h572v-244h-938z" />
<glyph horiz-adv-x="1140" d="M90 0v170l633 776h-557v232h840l41 -215l-590 -719h571v-244h-938zM455 1288l139 291h246l-187 -291h-198z" />
<glyph horiz-adv-x="1099" d="M72 0v170l633 776h-558v232h840l41 -215l-590 -719h572v-244h-938zM295 1593h199l94 -104l94 104h201l-213 -290h-164z" />
<glyph horiz-adv-x="1099" d="M72 0v170l633 776h-558v232h840l41 -215l-590 -719h572v-244h-938zM444 1376v236h213v-236h-213z" />
<glyph horiz-adv-x="907" d="M260 975l139 291h246l-186 -291h-199z" />
<glyph horiz-adv-x="1259" d="M109 322q0 51 14 100t43 90q29 43 79 77t120 52q-37 53 -61.5 112.5t-24.5 125.5q0 156 94 237q96 86 280 86q96 0 175 -21.5t153 -68.5l-88 -194q-100 78 -207 77q-66 0 -98 -26q-39 -29 -39 -86q0 -47 28.5 -91t67.5 -92l178 -225q12 86 13 195h251q0 -92 -19 -203 t-71 -209l207 -258h-311l-57 68q-59 -43 -138.5 -68t-183.5 -25q-98 0 -168 20.5t-119 59.5q-119 92 -118 267zM377 330q0 -74 33 -113q45 -51 131 -51q100 0 170 55l-219 264q-63 -23 -91 -61q-14 -23 -19 -46.5t-5 -47.5z" />
<glyph horiz-adv-x="786" d="M182 -176v1515h439v-243h-160v-1028h160v-244h-439z" />
<glyph horiz-adv-x="786" d="M166 68h160v1028h-160v243h438v-1515h-438v244z" />
<glyph horiz-adv-x="907" d="M154 1241h184q23 -111 117 -111t114 111h187q-16 -135 -90 -213t-211 -78q-139 0 -212 78t-89 213z" />
<glyph horiz-adv-x="907" d="M160 1266h198l95 -105l94 105h201l-213 -291h-164z" />
<glyph horiz-adv-x="907" d="M287 -317l2 94q10 0 28.5 -1t28.5 -1q92 0 92 35q0 12 -13 19t-32.5 10t-43 4t-46.5 1l19 185l116 -4v-97q92 0 137.5 -36t45.5 -91q0 -61 -57.5 -98t-160.5 -37q-33 0 -60.5 3t-55.5 14z" />
<glyph horiz-adv-x="903" d="M109 416q0 102 25.5 179t70.5 130q76 88 194 113v145h193v-143q63 -14 114.5 -49t96.5 -103l-146 -133q-31 57 -68.5 77.5t-84.5 20.5q-41 0 -69.5 -19.5t-49.5 -53.5q-16 -29 -25.5 -68t-9.5 -92q0 -59 11.5 -101.5t31.5 -72.5q47 -68 146 -68q63 0 113 21.5t89 48.5 l58 -178q-96 -61 -207 -80v-140h-193v142q-63 10 -116.5 39.5t-92.5 83.5q-39 49 -60 124.5t-21 176.5z" />
<glyph horiz-adv-x="907" d="M160 975l211 291h164l213 -291h-201l-94 104l-95 -104h-198z" />
<glyph horiz-adv-x="821" d="M139 975v272h205v-272h-205zM477 975v272h205v-272h-205z" />
<glyph horiz-adv-x="1069" d="M123 31l27 221q63 -25 131.5 -42t154.5 -17q238 0 238 122q0 35 -19.5 59.5t-52.5 43.5q-33 18 -73 31.5t-83 29t-86 34.5t-84 48q-55 41 -89.5 100.5t-34.5 157.5q0 125 82.5 206t218.5 110v147h213v-139q63 -4 116.5 -18.5t96.5 -37.5l-27 -215q-55 25 -121.5 39.5 t-138.5 14.5q-96 0 -139 -26t-43 -71q0 -47 43 -73.5t108 -48.5q61 -23 127 -44.5t123 -60.5q63 -41 100 -99.5t37 -154.5q0 -84 -29.5 -145.5t-78.5 -104.5t-113.5 -69.5t-132.5 -38.5v-131h-213v121q-72 4 -135.5 16t-122.5 35z" />
<glyph horiz-adv-x="907" d="M346 1008v235h213v-235h-213z" />
<glyph horiz-adv-x="1085" d="M88 307q0 94 49 173t176 145q-102 72 -134 142.5t-29 139.5q4 135 111.5 215t287.5 80q176 0 280.5 -83t104.5 -218q0 -57 -33 -129t-135 -135q129 -70 180 -149t51 -179q0 -66 -27.5 -126t-85 -106t-142.5 -74t-201 -28q-109 0 -194 26t-142.5 71t-87 105.5t-29.5 129.5 zM369 340q0 -63 45 -101t127 -38q84 0 130 33t46 92q0 53 -54.5 92t-146.5 88q-74 -41 -110.5 -80t-36.5 -86zM399 895q0 -47 43 -84t121 -76q61 33 91 67t30 79q0 53 -42 82.5t-101 29.5t-100.5 -22.5t-41.5 -75.5z" />
<glyph horiz-adv-x="681" d="M207 1178h268l-2 -295l-33 -508h-198l-33 508zM209 0v236h264v-236h-264z" />
<glyph horiz-adv-x="808" d="M18 817v160l177 37v82q0 94 20.5 160.5t54.5 113.5q57 74 141.5 100.5t176.5 26.5q68 0 140.5 -13.5t143.5 -41.5l-63 -228q-41 18 -86 30.5t-98 8.5q-35 -4 -64 -15t-45 -38q-27 -39 -27 -119v-53h271v-211h-271v-932l-67 -291h-227v1223h-177z" />
<glyph horiz-adv-x="1822" d="M18 817v160l177 51v74q0 117 39.5 195.5t99.5 125.5q66 53 161 80t232 27q78 0 175 -8.5t190 -28.5v-444q78 14 147 14q133 0 233.5 -41t163.5 -127q100 -131 101 -377q0 -129 -34 -226t-93 -165q-72 -80 -173.5 -119t-219.5 -39q-61 0 -112.5 3t-101 10.5t-98.5 18.5 t-106 28v1233q-45 10 -94 10q-104 0 -160 -47q-27 -23 -41.5 -56.5t-14.5 -87.5v-53h226v-211h-226v-817h-294v817h-177zM1092 227q35 -8 61.5 -11t60.5 -3q53 0 99.5 24.5t79.5 79.5q20 37 32.5 86.5t12.5 116.5q0 147 -47 219q-29 45 -71 63.5t-95 18.5q-35 0 -67 -5 t-66 -13v-576z" />
<glyph horiz-adv-x="2447" d="M18 817v160l177 37v82q0 94 19 160.5t54 113.5q55 74 137 100.5t173 26.5q53 0 109 -8t114 -27l-64 -229q-31 12 -59.5 18t-63.5 2q-33 -4 -59.5 -14t-42.5 -37q-23 -37 -23 -121v-53h330v74q0 117 39 195.5t98 127.5q125 104 396 105q78 0 175 -8.5t189 -28.5v-444 q78 14 148 14q133 0 233.5 -41t163.5 -127q100 -131 100 -377q0 -129 -33.5 -226t-93.5 -165q-72 -80 -173 -119t-220 -39q-61 0 -112.5 3t-100.5 10.5t-98 18.5t-107 28v1233q-45 10 -94 10q-104 0 -160 -47q-27 -23 -41 -56.5t-14 -87.5v-53h225v-211h-225v-817h-295v817 h-330v-817h-294v817h-177zM1716 227q35 -8 61.5 -11t61.5 -3q53 0 99.5 24.5t78.5 79.5q20 37 32.5 86.5t12.5 116.5q0 147 -47 219q-29 45 -70.5 63.5t-95.5 18.5q-35 0 -66.5 -5t-66.5 -13v-576z" />
<glyph horiz-adv-x="2521" d="M18 817v160l177 37v82q0 94 19 160.5t54 113.5q55 74 137 100.5t173 26.5q53 0 109 -8t114 -27l-64 -229q-31 12 -59.5 18t-63.5 2q-33 -4 -59.5 -14t-42.5 -37q-23 -37 -23 -121v-53h330v74q0 117 39 195.5t98 127.5q125 104 396 105q78 0 175 -8.5t189 -28.5l2 -459 q55 12 112.5 20.5t117.5 8.5q96 0 180 -25.5t147 -85.5q111 -113 111 -331v-621h-291v528q0 74 -7 132.5t-36 97.5q-27 35 -70 49t-98 14q-43 0 -86 -7t-80 -17v-797h-293l-2 1262q-45 10 -94 10q-104 0 -160 -47q-27 -23 -41 -56.5t-14 -87.5v-53h225v-211h-225v-817h-295 v817h-330v-817h-294v817h-177z" />
<glyph horiz-adv-x="1857" d="M18 817v160l177 37v82q0 94 19 160.5t54 113.5q55 74 137 100.5t173 26.5q53 0 109 -8t114 -27l-64 -229q-31 12 -59.5 18t-63.5 2q-33 -4 -59.5 -14t-42.5 -37q-23 -37 -23 -121v-53h330v72q0 117 39 195.5t98 127.5q72 59 159 81t159 22t154.5 -10.5t160.5 -42.5 l-65 -244q-49 16 -94.5 27.5t-104.5 11.5q-47 0 -87 -9.5t-69 -35.5q-27 -23 -41 -58t-14 -86v-51h602v-1012q0 -244 -103.5 -372.5t-342.5 -135.5l-45 252q53 8 90 20.5t61.5 42.5t35.5 81t11 139v774h-309v-817h-295v817h-330v-817h-294v817h-177z" />
<glyph horiz-adv-x="2449" d="M18 817v160l177 37v82q0 94 19 160.5t54 113.5q55 74 137 100.5t173 26.5q53 0 109 -8t114 -27l-64 -229q-31 12 -59.5 18t-63.5 2q-33 -4 -59.5 -14t-42.5 -37q-23 -37 -23 -121v-53h330v74q0 117 39 195.5t98 127.5q125 104 396 105q78 0 175 -8.5t189 -28.5v-836h107 l303 371h311l-397 -479l405 -549h-340l-284 408h-105v-408h-293v1262q-45 10 -94 10q-104 0 -160 -47q-27 -23 -41 -56.5t-14 -87.5v-53h225v-211h-225v-817h-295v817h-330v-817h-294v817h-177z" />
<glyph horiz-adv-x="2404" d="M18 817v160l177 37v82q0 94 19 160.5t54 113.5q55 74 137 100.5t173 26.5q53 0 109 -8t114 -27l-64 -229q-31 12 -59.5 18t-63.5 2q-33 -4 -59.5 -14t-42.5 -37q-23 -37 -23 -121v-53h330v72q0 117 40 194.5t99 126.5q72 59 158 82t158 23t154.5 -10.5t160.5 -42.5 l-65 -244q-49 16 -94.5 27.5t-104.5 11.5q-47 0 -87 -9.5t-69 -35.5q-27 -23 -41 -58t-14 -86v-51h475l252 -690l234 690h325l-411 -1038q-45 -117 -97.5 -204t-121 -147.5t-157.5 -92t-208 -33.5l-90 256q106 6 186 37.5t127 95.5q27 29 43.5 61.5t26.5 54.5l-338 799h-246 v-817h-295v817h-330v-817h-294v817h-177z" />
<glyph horiz-adv-x="1896" d="M18 817v160l177 51v74q0 117 39.5 195.5t99.5 125.5q66 53 161 80t232 27q78 0 175 -8.5t190 -28.5v-459q55 12 113.5 20.5t115.5 8.5q96 0 180 -25.5t148 -85.5q111 -113 110 -331v-621h-291v528q0 74 -7 132.5t-34 97.5q-27 35 -70.5 49t-99.5 14q-43 0 -85 -7t-80 -17 v-797h-293v1262q-45 10 -94 10q-104 0 -160 -47q-27 -23 -41.5 -56.5t-14.5 -87.5v-53h226v-211h-226v-817h-294v817h-177z" />
<glyph horiz-adv-x="1232" d="M18 817v160l177 51v72q0 117 39.5 194.5t99.5 126.5q72 59 158 82t157 23q72 0 155 -10.5t161 -42.5l-66 -244q-49 16 -94 27.5t-105 11.5q-47 0 -87 -9.5t-68 -35.5q-27 -23 -41.5 -58t-14.5 -86v-51h603v-1012q0 -244 -103.5 -372.5t-343.5 -135.5l-45 252 q53 8 90 20.5t61.5 42.5t36 81t11.5 139v774h-310v-817h-294v817h-177z" />
<glyph horiz-adv-x="1824" d="M18 817v160l177 51v74q0 117 39.5 195.5t99.5 125.5q66 53 161 80t232 27q78 0 175 -8.5t190 -28.5v-836h106l303 371h311l-397 -479l406 -549h-340l-285 408h-104v-408h-293v1262q-45 10 -94 10q-104 0 -160 -47q-27 -23 -41.5 -56.5t-14.5 -87.5v-53h226v-211h-226 v-817h-294v817h-177z" />
<glyph horiz-adv-x="1423" d="M18 817v160l177 51v72q0 117 39.5 194.5t99.5 126.5q72 59 158 82t157 23q72 0 155 -10.5t161 -42.5l-66 -244q-49 16 -94 27.5t-105 11.5q-47 0 -87 -9.5t-68 -35.5q-27 -23 -41.5 -58t-14.5 -86v-51h541l21 -88q72 72 147.5 97.5t181.5 25.5l27 -275q-16 2 -34.5 2.5 t-37.5 0.5q-63 -4 -123.5 -18.5t-119.5 -55.5v-717h-293v817h-310v-817h-294v817h-177z" />
<glyph horiz-adv-x="1449" d="M18 817v160l177 37v82q0 94 19 160.5t54 113.5q55 74 137 100.5t173 26.5q53 0 109 -8t114 -27l-64 -229q-31 12 -59.5 18t-63.5 2q-33 -4 -59.5 -14t-42.5 -37q-23 -37 -23 -121v-53h314l20 285l232 10l26 -295h326v-211h-307v-420q0 -94 30 -137q20 -29 51 -39t64 -10 q84 0 166 31l43 -222q-68 -27 -143.5 -39t-153.5 -12t-146.5 19.5t-117.5 68.5q-43 43 -66.5 114t-23.5 169v477h-314v-817h-294v817h-177z" />
<glyph horiz-adv-x="2406" d="M18 817v160l177 37v82q0 94 19 160.5t54 113.5q55 74 137 100.5t173 26.5q53 0 109 -8t114 -27l-64 -229q-31 12 -59.5 18t-63.5 2q-33 -4 -59.5 -14t-42.5 -37q-23 -37 -23 -121v-53h314l20 285l232 10l26 -295h508l252 -674l236 674h325l-413 -1038 q-45 -117 -97.5 -204t-121 -147.5t-157.5 -92t-206 -33.5l-90 256q104 6 185 37.5t128 95.5q25 29 42.5 61.5t27.5 54.5l-338 799h-262v-420q0 -94 30 -137q20 -29 51 -39t64 -10q84 0 166 31l43 -222q-68 -27 -143.5 -39t-153.5 -12t-146.5 19.5t-117.5 68.5 q-43 43 -66.5 114t-23.5 169v477h-314v-817h-294v817h-177z" />
<glyph horiz-adv-x="1898" d="M18 817v160l177 51v72q0 117 39.5 194.5t99.5 126.5q72 59 158 82t157 23q72 0 155 -10.5t161 -42.5l-66 -244q-49 16 -94 27.5t-105 11.5q-47 0 -87 -9.5t-68 -35.5q-27 -23 -41.5 -58t-14.5 -86v-51h603v-524q0 -74 7 -132.5t34 -97.5q27 -35 70.5 -49t99.5 -14 q45 0 84.5 6t80.5 16v795h293v-993q-117 -29 -231.5 -47.5t-251.5 -18.5q-123 0 -212 25.5t-155 85.5q-57 55 -83.5 139t-26.5 193v405h-312v-817h-294v817h-177z" />
<glyph horiz-adv-x="1753" d="M18 817v160l177 37v86q0 117 39.5 194.5t101.5 126.5q72 59 160 82t163 23q74 0 159 -11.5t165 -41.5l-68 -244q-49 16 -97 27.5t-107 11.5q-47 0 -90 -10.5t-72 -36.5q-29 -23 -44.5 -57t-15.5 -85v-51h504l228 -674l219 674h311l-412 -1038h-270l-321 827h-259v-817 h-294v817h-177z" />
<glyph horiz-adv-x="2340" d="M18 817v160l177 37v86q0 117 39.5 194.5t101.5 126.5q72 59 160 82t163 23q74 0 159 -11.5t165 -41.5l-68 -244q-49 16 -97 27.5t-107 11.5q-47 0 -90 -10.5t-72 -36.5q-29 -23 -44.5 -57t-15.5 -85v-51h498l193 -666l198 666h258l197 -666l192 666h312l-355 -1038h-278 l-197 604l-194 -604h-281l-284 827h-259v-817h-294v817h-177z" />
<glyph horiz-adv-x="1792" d="M18 817v160l177 37v86q0 117 39.5 194.5t101.5 126.5q72 59 160 82t163 23q74 0 159 -11.5t165 -41.5l-68 -244q-49 16 -97 27.5t-107 11.5q-47 0 -90 -10.5t-72 -36.5q-29 -23 -44.5 -57t-15.5 -85v-51h488l252 -690l233 690h326l-412 -1038q-45 -117 -97 -204 t-120.5 -147.5t-158 -92t-207.5 -33.5l-91 256q106 6 186.5 37.5t127.5 95.5q27 29 43 61.5t26 54.5l-337 799h-259v-817h-294v817h-177z" />
<glyph horiz-adv-x="1232" d="M18 817v160l177 51v72q0 117 39.5 194.5t99.5 126.5q72 59 158 82t157 23q72 0 155 -10.5t161 -42.5l-66 -244q-49 16 -94 27.5t-105 11.5q-47 0 -87 -9.5t-68 -35.5q-27 -23 -41.5 -58t-14.5 -86v-51h603v-1028h-293v817h-310v-932l-67 -291h-227v1223h-177z" />
<glyph horiz-adv-x="1085" d="M100 100l133 203q39 -43 96.5 -73.5t125.5 -30.5q43 0 80.5 14t66.5 37q51 45 51 119q0 86 -51 125q-35 29 -75 39t-89 10t-97 -11.5t-83 -27.5l-115 94l142 580h645l-21 -242h-420l-47 -180q127 0 222 -25q55 -16 106 -41.5t92 -73.5q78 -94 78 -245q0 -94 -34 -168 t-95 -125q-59 -51 -141 -77t-178 -26q-106 0 -197.5 24t-194.5 101z" />
<glyph horiz-adv-x="1273" d="M18 817v160l177 51v74q0 117 39.5 195.5t99.5 125.5q66 53 161 80t232 27q78 0 175 -8.5t190 -28.5v-1145q0 -80 25.5 -107.5t74.5 -27.5q18 0 37.5 4t36.5 10l49 -227q-41 -14 -91 -22.5t-106 -8.5q-49 0 -104.5 13.5t-103.5 52.5t-79.5 110.5t-31.5 190.5v926 q-45 10 -94 10q-104 0 -160 -47q-27 -23 -41.5 -56.5t-14.5 -87.5v-53h226v-211h-226v-932l-67 -291h-227v1223h-177z" />
<glyph horiz-adv-x="1085" d="M55 424l553 764h258v-748l166 -28v-179h-166v-233h-268v233h-520zM324 449h274v354z" />
<glyph horiz-adv-x="1198" d="M84 621q0 115 34 197.5t95 137t146 81t188 26.5q92 0 168 -21.5t135 -66.5q41 29 58.5 80t17.5 98v90h266v-78q0 -131 -66.5 -204.5t-162.5 -106.5q51 -98 51 -233q0 -109 -30 -184t-95 -136q-49 -47 -83 -74.5t-34 -66.5t40 -70t88 -67.5t88 -86t40 -124.5 q0 -84 -42 -141.5t-107.5 -93.5t-148.5 -52.5t-167 -16.5q-63 0 -124.5 6.5t-100.5 16.5l-68 236q59 -20 123 -29.5t117 -9.5q119 0 166 28.5t47 77.5q0 41 -38 72t-84 62.5t-84 68.5t-38 90q0 33 21 59q-90 6 -166 36t-131.5 83t-87 132t-31.5 184zM377 621q0 -104 42 -166 t128 -62q88 0 129 62t41 166q0 106 -41 167.5t-129 61.5q-86 0 -128 -61.5t-42 -167.5z" />
<glyph horiz-adv-x="1198" d="M84 621q0 115 34 197.5t95 137t146 81t188 26.5q92 0 168 -21.5t135 -66.5q41 29 58.5 80t17.5 98v90h266v-78q0 -131 -66.5 -204.5t-162.5 -106.5q51 -98 51 -233q0 -109 -30 -184t-95 -136q-49 -47 -83 -74.5t-34 -66.5t40 -70t88 -67.5t88 -86t40 -124.5 q0 -84 -42 -141.5t-107.5 -93.5t-148.5 -52.5t-167 -16.5q-63 0 -124.5 6.5t-100.5 16.5l-68 236q59 -20 123 -29.5t117 -9.5q119 0 166 28.5t47 77.5q0 41 -38 72t-84 62.5t-84 68.5t-38 90q0 33 21 59q-90 6 -166 36t-131.5 83t-87 132t-31.5 184zM182 1524h207 q27 -141 146 -142q117 0 143 142h207q-20 -162 -105.5 -253t-244.5 -91q-160 0 -246 91t-107 253zM377 621q0 -104 42 -166t128 -62q88 0 129 62t41 166q0 106 -41 167.5t-129 61.5q-86 0 -128 -61.5t-42 -167.5z" />
<glyph horiz-adv-x="1198" d="M84 621q0 115 34 197.5t95 137t146 81t188 26.5q92 0 168 -21.5t135 -66.5q41 29 58.5 80t17.5 98v90h266v-78q0 -131 -66.5 -204.5t-162.5 -106.5q51 -98 51 -233q0 -109 -30 -184t-95 -136q-49 -47 -83 -74.5t-34 -66.5t40 -70t88 -67.5t88 -86t40 -124.5 q0 -84 -42 -141.5t-107.5 -93.5t-148.5 -52.5t-167 -16.5q-63 0 -124.5 6.5t-100.5 16.5l-68 236q59 -20 123 -29.5t117 -9.5q119 0 166 28.5t47 77.5q0 41 -38 72t-84 62.5t-84 68.5t-38 90q0 33 21 59q-90 6 -166 36t-131.5 83t-87 132t-31.5 184zM377 621q0 -104 42 -166 t128 -62q88 0 129 62t41 166q0 106 -41 167.5t-129 61.5q-86 0 -128 -61.5t-42 -167.5zM410 1270q-2 47 0 106.5t11 121t29.5 121.5t55.5 110l158 -93q-16 -86 -21.5 -175t0.5 -191h-233z" />
<glyph horiz-adv-x="907" d="M260 1266h250l135 -291h-196z" />
<glyph horiz-adv-x="907" d="M117 975l102 291h236l-154 -291h-184zM455 975l102 291h234l-152 -291h-184z" />
<glyph horiz-adv-x="907" d="M209 995v205h491v-205h-491z" />
<glyph horiz-adv-x="1085" d="M100 784q0 78 22.5 152t70.5 131q51 61 130.5 97t190.5 36q121 0 206 -41t138 -112q57 -76 84 -174.5t27 -210.5q0 -129 -36 -233.5t-102 -184.5q-53 -68 -121.5 -117t-147.5 -81t-165 -45t-172 -9l-2 221q115 4 210 45t159 127q10 16 19.5 32.5t19.5 35.5 q-74 -29 -158 -29q-90 0 -162.5 26.5t-122.5 79.5q-88 92 -88 254zM373 793q0 -80 35 -121q23 -25 51 -34t69 -9q47 0 87 20.5t65 48.5v21q0 109 -35 178q-20 37 -50 58.5t-71 21.5q-45 0 -75.5 -17.5t-47.5 -46.5q-16 -29 -22 -60.5t-6 -59.5z" />
<glyph horiz-adv-x="907" d="M276 -201q0 33 15.5 64t42.5 55q33 35 83 60.5t89 41.5l125 -20q-35 -12 -70 -30.5t-63 -41.5q-20 -16 -32.5 -35.5t-12.5 -39.5q0 -25 20 -39q16 -14 49 -15q25 0 46.5 5.5t45.5 13.5v-123q-39 -18 -80.5 -26.5t-78.5 -8.5q-39 0 -72 8t-55 27q-51 39 -52 104z" />
<glyph horiz-adv-x="1087" d="M158 936l426 252h198v-1188h-278v866l-250 -131z" />
<glyph horiz-adv-x="796" d="M182 580q0 197 33 330.5t90 220t134 134.5t163 74l27 -188q-92 -53 -130 -192.5t-38 -378.5q0 -240 38 -379.5t130 -192.5l-27 -188q-86 27 -163 76t-134 135t-90 219t-33 330z" />
<glyph horiz-adv-x="796" d="M166 8q92 53 131 192.5t39 379.5t-39 379t-131 192l29 188q86 -27 162.5 -74.5t133 -134t90 -220t33.5 -330.5t-33.5 -330t-90 -219t-133 -135.5t-162.5 -75.5z" />
<glyph horiz-adv-x="1966" d="M182 846q0 178 74 267t229 89q301 0 301 -356t-301 -357q-156 0 -229.5 89.5t-73.5 267.5zM393 846q0 -55 8.5 -89t21.5 -52.5t29.5 -23.5t32.5 -5t31.5 5t29 23.5t21.5 52.5t8 89t-8 89t-21.5 52.5t-28.5 24.5t-32 6q-16 0 -32.5 -6t-29.5 -24.5t-21.5 -52.5t-8.5 -89z M477 -4l737 1182h271l-733 -1182h-275zM1180 332q0 176 74.5 266t228.5 90t227.5 -90t73.5 -266q0 -178 -74 -267.5t-227 -89.5q-303 0 -303 357zM1393 332q0 -55 8 -89t20.5 -52.5t28.5 -23.5t33 -5q16 0 32.5 5t28.5 23.5t20.5 52.5t8.5 89t-8.5 89t-20.5 52.5t-28.5 23.5 t-32.5 5t-32.5 -5t-29 -23.5t-20.5 -52.5t-8 -89z" />
<glyph horiz-adv-x="2674" d="M182 846q0 178 74 267t229 89q301 0 301 -356t-301 -357q-156 0 -229.5 89.5t-73.5 267.5zM393 846q0 -55 8.5 -89t21.5 -52.5t29.5 -23.5t32.5 -5t31.5 5t29 23.5t21.5 52.5t8 89t-8 89t-21.5 52.5t-28.5 24.5t-32 6q-16 0 -32.5 -6t-29.5 -24.5t-21.5 -52.5t-8.5 -89z M477 -4l737 1182h271l-733 -1182h-275zM1180 332q0 176 74.5 266t228.5 90t227.5 -90t73.5 -266q0 -178 -74 -267.5t-227 -89.5q-303 0 -303 357zM1393 332q0 -55 8 -89t20.5 -52.5t28.5 -23.5t33 -5q16 0 32.5 5t28.5 23.5t20.5 52.5t8.5 89t-8.5 89t-20.5 52.5t-28.5 23.5 t-32.5 5t-32.5 -5t-29 -23.5t-20.5 -52.5t-8 -89zM1888 332q0 176 75 266t228 90q154 0 228.5 -90t74.5 -266q0 -356 -303 -357q-303 0 -303 357zM2099 332q0 -55 8.5 -89t21.5 -52.5t29.5 -23.5t32.5 -5t33 5t29 23.5t20 52.5t8 89t-8 89t-20 52.5t-28.5 23.5t-33.5 5 q-16 0 -32.5 -5t-29.5 -23.5t-21.5 -52.5t-8.5 -89z" />
<glyph horiz-adv-x="1191" d="M197 987q57 98 150 156.5t251 58.5q72 0 142.5 -17.5t126 -56t90 -102.5t34.5 -156t-52 -163.5t-114.5 -129t-115 -106.5t-52.5 -96h-245q0 78 47 135t103 109.5t103.5 103.5t47.5 113q0 47 -32 84.5t-106 37.5q-51 0 -108 -23.5t-100 -111.5zM403 0v236h265v-236h-265z " />
<glyph horiz-adv-x="907" d="M264 1143q0 78 54.5 131t134.5 53t135 -53t55 -131t-55.5 -130t-134.5 -52q-80 0 -134.5 52t-54.5 130zM373 1143q0 -31 23.5 -52.5t56.5 -21.5t57.5 21.5t24.5 52.5q0 33 -25 54.5t-57 21.5q-33 0 -56.5 -21.5t-23.5 -54.5z" />
<glyph horiz-adv-x="1085" d="M94 936l21 242h805l51 -191l-449 -987h-303l457 936h-582z" />
<glyph horiz-adv-x="1085" d="M113 516q0 129 36.5 232.5t100.5 183.5q109 135 270.5 198.5t335.5 53.5l2 -219q-115 -6 -210 -46t-156 -128q-10 -16 -20.5 -33t-20.5 -35q35 12 74.5 20.5t84.5 8.5q182 0 285 -107q88 -92 88 -252q0 -80 -22.5 -153.5t-71.5 -130.5q-49 -61 -129 -97.5t-193 -36.5 q-121 0 -204.5 41t-139.5 113q-57 76 -83.5 175t-26.5 212zM401 457q0 -111 37 -178q18 -37 49 -58.5t72 -21.5q43 0 74 18.5t49 46.5q16 27 21.5 58.5t5.5 60.5q0 80 -35 121q-20 25 -50 34t-69 9q-49 0 -90 -21.5t-64 -50.5v-18z" />
<glyph horiz-adv-x="1069" d="M180 0v250h68q102 72 102 190v6h-168v216h68q-23 39 -39 84t-16 104q0 162 94 246q61 57 150 81.5t194 24.5q84 0 157.5 -15.5t127.5 -49.5l-87 -222q-37 27 -89 39.5t-97 12.5q-86 0 -131 -33q-49 -33 -49 -96q0 -53 22.5 -94.5t47.5 -81.5h227v-216h-168 q-6 -72 -37 -117.5t-65 -78.5h446l-23 -250h-735z" />
<glyph horiz-adv-x="1943" d="M6 817v160l170 35v299l252 12l27 -295h682v-524q0 -74 7 -132.5t34 -97.5q27 -35 70.5 -49t99.5 -14q45 0 85 6t80 16v795h293v-993q-117 -29 -231.5 -47.5t-251.5 -18.5q-123 0 -212 25.5t-155 85.5q-57 55 -83.5 139t-26.5 193v405h-373v-420q0 -94 31 -137 q20 -29 51 -39t63 -10q70 0 132 20l43 -221q-61 -23 -128 -32t-135 -9q-78 0 -146.5 19.5t-117.5 68.5q-43 43 -66.5 114t-23.5 169v477h-170z" />
<glyph horiz-adv-x="1779" d="M6 817v160l170 35v299l252 12l27 -295h508l251 -674l236 674h326l-414 -1038q-45 -117 -97.5 -204t-121 -147.5t-157.5 -92t-206 -33.5l-90 256q104 6 185 37.5t129 95.5q25 29 42 61.5t27 54.5l-338 799h-262v-420q0 -47 8 -79.5t23 -55.5q23 -29 52.5 -40t64.5 -11 q82 0 163 31l43 -222q-68 -27 -143.5 -39t-153.5 -12t-146.5 20.5t-115.5 67.5q-45 43 -68.5 113t-23.5 170v477h-170z" />
<glyph horiz-adv-x="1085" d="M92 70l111 215q68 -47 127 -64.5t123 -15.5q41 2 77.5 13t63.5 36q20 20 32.5 47t12.5 61q0 76 -51 117q-57 49 -187 49h-65v191h43q135 0 203 63q55 55 61 164h-491l18 232h733q-4 -131 -14 -218.5t-41 -148.5q-25 -51 -65 -88t-105 -72q137 -37 205 -137 q47 -68 47 -176q0 -92 -35 -156.5t-92 -111.5q-70 -53 -157 -74t-179 -21q-100 0 -188.5 20.5t-186.5 74.5z" />
<glyph horiz-adv-x="907" d="M145 997q4 129 55.5 189.5t129.5 60.5q35 0 66.5 -12t58.5 -29q31 -16 58.5 -31.5t49.5 -15.5q51 0 53 88h144q-4 -129 -54.5 -190.5t-127.5 -61.5q-35 0 -67 12.5t-58 28.5q-31 18 -57.5 33.5t-51.5 15.5q-47 0 -53 -88h-146z" />
<glyph horiz-adv-x="1085" d="M88 981q59 98 160.5 159.5t271.5 61.5q193 0 307 -96q53 -47 82 -115.5t29 -161.5q0 -59 -19.5 -110t-51 -96t-74.5 -85t-93 -79q-98 -78 -185 -130.5t-124 -101.5h539l-19 -227h-815v98q0 61 16.5 113.5t52.5 101.5t90 98.5t128 104.5q51 37 99 72t86 72.5t60.5 79.5 t22.5 89q0 27 -8 53.5t-27 49.5q-20 18 -49.5 31.5t-72.5 13.5q-59 0 -120 -32t-114 -124z" />
<glyph horiz-adv-x="1169" d="M88 928v250h1002l-23 -250h-344v-928h-279v928h-356zM459 -436q16 72 21 148.5t1 162.5h219q2 -41 0 -92t-11 -105.5t-28.5 -106.5t-52.5 -95z" />
<glyph horiz-adv-x="1069" d="M53 1178h305l183 -469l184 469h293l-268 -566h182v-145h-244l-24 -47v-45h268v-148h-268l2 -227h-277v227h-266v148h266v35l-29 57h-237v145h180z" />
<glyph horiz-adv-x="1085" d="M90 590q0 145 22.5 252.5t71.5 183.5q109 174 359 174q248 0 358 -174q94 -150 94 -436q0 -289 -94 -440q-113 -172 -358 -173q-250 0 -359 173q-49 78 -71.5 185.5t-22.5 254.5zM379 590q0 -119 9 -193.5t30 -117.5q20 -47 52 -63.5t73 -16.5t71.5 16t53.5 64 q18 43 27.5 117.5t9.5 193.5q0 117 -8.5 191.5t-28.5 115.5q-20 47 -52 63.5t-73 16.5t-73 -16.5t-52 -63.5q-20 -41 -29.5 -115.5t-9.5 -191.5z" />
</font>
</defs>
</svg>
