<?xml version="1.0" encoding="utf-8"?>
<!-- Generator: Adobe Illustrator 18.0.0, SVG Export Plug-In . SVG Version: 6.00 Build 0)  -->
<!DOCTYPE svg PUBLIC "-//W3C//DTD SVG 1.1//EN" "http://www.w3.org/Graphics/SVG/1.1/DTD/svg11.dtd">
<svg version="1.1" id="Layer_1" xmlns="http://www.w3.org/2000/svg" xmlns:xlink="http://www.w3.org/1999/xlink" x="0px" y="0px"
	 viewBox="0 0 581.1 170.1" enable-background="new 0 0 581.1 170.1" xml:space="preserve">
<g>
	<path fill="#F3F2F2" d="M45,28.3h176.6l-89.1,109.3L45,28.3z M77.3,36.6l-8.7,9.6l64.1,81.3l65.8-80.7l-8.7-10.2H77.3z"/>
	<path fill="#ACABAE" d="M49,32.5h175.3l-89.1,109.3L49,32.5z M81.3,40.7l-8.7,9.6l64.1,81.3l65.8-80.7l-8.7-10.2H81.3z"/>
	<linearGradient id="SVGID_1_" gradientUnits="userSpaceOnUse" x1="135.3199" y1="143.6492" x2="135.3199" y2="26.1571">
		<stop  offset="0" style="stop-color:#C2C1C3"/>
		<stop  offset="0.1796" style="stop-color:#D3D2D3"/>
		<stop  offset="0.4408" style="stop-color:#E9E7E8"/>
		<stop  offset="0.6067" style="stop-color:#F1F0F0"/>
		<stop  offset="0.8333" style="stop-color:#EFEEEE"/>
		<stop  offset="0.9441" style="stop-color:#E8E6E6"/>
		<stop  offset="0.9888" style="stop-color:#E2E0E1"/>
	</linearGradient>
	<path fill="url(#SVGID_1_)" d="M47,30.4h176.6l-89.1,109.3L47,30.4z M79.3,38.7l-8.7,9.6l64.1,81.3l65.8-80.7l-8.7-10.2H79.3z"/>
</g>
<path fill="#007AC2" d="M104.2,52.7C89.7,52.7,78,63.6,78,77.1c0,15.4,10.8,26.2,26.2,26.2c15.4,0,26.2-10.8,26.2-26.2
	C130.3,63.6,118.6,52.7,104.2,52.7z M104.2,92.2c-8,0-14.2-6.6-14.2-15c0-7.1,6.7-13.4,14.2-13.4c7.6,0,14.2,6.2,14.2,13.4
	C118.4,85.5,112.1,92.2,104.2,92.2z"/>
<path fill="#007AC2" d="M274.4,92.4c-0.7,0.7-1.6,1-2.7,1c-1.5,0-3.2-1.3-5.1-3.8l-6.5,6.8c2.9,4.2,7,6.5,11.7,6.5
	c9.8,0,15.5-6,15.5-16.4V54.3h-11.4l0,31.6C275.9,88,275.9,90.9,274.4,92.4z"/>
<path fill="#007AC2" d="M304.2,79.3V54.3h-11.4V81c0,6.5,0.4,12.3,4.9,16.7c3.4,3.3,9.1,5.2,15.7,5.2c6.6,0,12.3-1.9,15.7-5.2
	c4.5-4.4,4.9-10.2,4.9-16.7V54.3h-11.4v24.9c0,5.1,0,13.8-9.1,13.8C304.2,93,304.2,84.4,304.2,79.3z"/>
<path fill="#FFFFFF" d="M104.2,51.5c-15.1,0-27.3,11.4-27.3,25.5c0,15.8,11.5,27.3,27.3,27.3c15.8,0,27.3-11.5,27.3-27.3
	C131.5,63,119.2,51.5,104.2,51.5z M104.2,103.2C88.8,103.2,78,92.5,78,77.1c0-13.4,11.7-24.4,26.2-24.4c14.4,0,26.2,10.9,26.2,24.4
	C130.3,92.5,119.6,103.2,104.2,103.2z"/>
<path fill="#FFFFFF" d="M104.2,63.8c-7.6,0-14.2,6.2-14.2,13.4c0,8.4,6.3,15,14.2,15c8,0,14.2-6.6,14.2-15
	C118.4,70,111.7,63.8,104.2,63.8z M104.2,91c-7.3,0-13.1-6.1-13.1-13.9c0-6.5,6.1-12.2,13.1-12.2c7,0,13.1,5.7,13.1,12.2
	C117.2,84.9,111.5,91,104.2,91z"/>
<g>
	<path fill="none" d="M42.5,65v26h2.3c8.7,0,13.8-4.9,13.8-13c0-8-5.3-13-13.7-13H42.5z"/>
	<path fill="#007AC2" d="M29.5,54.3v47.3h17.9c13.7,0,24.9-10.6,24.9-23.7c0-13-11.2-23.7-24.9-23.7H29.5z M59.9,78
		c0,10.4-7.7,14.1-15,14.1h-3.5V63.8H45C54,63.8,59.9,69.4,59.9,78z"/>
	<path fill="#FFFFFF" d="M47.4,53.1h-19v49.6h19c14.3,0,26-11.1,26-24.8C73.4,64.3,61.7,53.1,47.4,53.1z M29.5,101.6V54.3h17.9
		c13.7,0,24.9,10.6,24.9,23.7c0,13-11.2,23.7-24.9,23.7H29.5z"/>
	<path fill="#FFFFFF" d="M45,63.8h-3.6v28.3h3.5c7.2,0,15-3.7,15-14.1C59.9,69.4,54,63.8,45,63.8z M44.9,90.9h-2.3V65H45
		c8.5,0,13.7,5,13.7,13C58.7,86.1,53.5,90.9,44.9,90.9z"/>
</g>
<g>
	<path fill="#007AC2" d="M161.6,81.8c6.4-1.1,10.5-6.2,10.5-13.1c0-9.1-6.1-14.3-16.8-14.3h-18.9v47.3h11.9V83h1l12.3,18.6h14.7
		l-15.6-19.7L161.6,81.8z M150.1,76h-1.8V62.8h1.8c4.1,0,9.6,0.7,9.6,6.6C159.7,75.3,154.2,76,150.1,76z"/>
	<path fill="#FFFFFF" d="M173.2,68.6c0-9.7-6.7-15.5-18-15.5h-20v49.6h14.2V85.3l11.5,17.5h17.7l-15.9-20.1
		C169.1,81.2,173.2,75.8,173.2,68.6z M161.5,101.6L149.2,83h-1v18.6h-11.9V54.3h18.9c10.7,0,16.8,5.2,16.8,14.3
		c0,6.9-4.1,12-10.5,13.1l-1,0.2l15.6,19.7H161.5z"/>
</g>
<path fill="#FFFFFF" d="M150.1,62.8h-1.8V76h1.8c4.1,0,9.6-0.7,9.6-6.6C159.7,63.5,154.2,62.8,150.1,62.8z M150.1,74.9h-0.7V63.9
	h0.7c5.8,0,8.5,1.7,8.5,5.5C158.5,73.2,155.9,74.9,150.1,74.9z"/>
<path fill="#FFFFFF" d="M274.8,86c0,1.9,0,4.4-1.2,5.6c-0.5,0.5-1.1,0.7-1.8,0.7c-1.1,0-2.8-1.4-4.6-3.9l-0.4-0.6l-8.1,8.5l0.3,0.4
	c3.2,4.8,7.6,7.4,13,7.4c10.6,0,16.6-6.4,16.6-17.6V53.2h-13.8V86z M287.4,86.5c0,10.4-5.6,16.4-15.5,16.4c-4.8,0-8.8-2.2-11.7-6.5
	l6.5-6.8c1.9,2.5,3.7,3.8,5.1,3.8c1.1,0,2-0.3,2.7-1c1.5-1.5,1.5-4.4,1.5-6.4l0-31.6h11.4V86.5z"/>
<path fill="#FFFFFF" d="M321.3,79.3c0,6.6-0.6,12.6-8,12.6c-7.4,0-8-6-8-12.6V53.2h-13.8V81c0,6.8,0.4,12.8,5.2,17.5
	c4.9,4.8,12.4,5.6,16.5,5.6c4,0,11.6-0.7,16.5-5.6c4.9-4.7,5.2-10.7,5.2-17.5V53.2h-13.8V79.3z M322.5,54.3h11.4V81
	c0,6.5-0.4,12.3-4.9,16.7c-3.4,3.3-9.1,5.2-15.7,5.2c-6.6,0-12.3-1.9-15.7-5.2c-4.5-4.4-4.9-10.2-4.9-16.7V54.3h11.4v24.9
	c0,5.1,0,13.8,9.1,13.8c9.1,0,9.1-8.6,9.1-13.8V54.3z"/>
<g>
	<polygon fill="#007AC2" points="350.6,54.3 338.2,54.3 358.1,101.6 367.1,101.6 387.3,54.3 374.9,54.3 362.7,84.7 	"/>
	<path fill="#FFFFFF" d="M362.7,81.6l-11.3-28.4h-15l20.7,49.3l0.1,0.4h10.5L389,53.1h-15L362.7,81.6z M387.3,54.3l-20.2,47.3h-9
		l-19.9-47.3h12.4l12.1,30.4l12.2-30.4H387.3z"/>
</g>
<g>
	<polygon fill="#007AC2" points="402.1,82.6 416.3,82.6 416.3,73.1 402.1,73.1 402.1,63.8 417.1,63.8 417.1,54.3 390.7,54.3 
		390.7,101.6 417.1,101.6 417.1,92.1 402.1,92.1 	"/>
	<path fill="#FFFFFF" d="M389.5,102.8h28.7V90.9h-15v-7.2h14.2V71.9h-14.2V65h15V53.1h-28.7V102.8z M390.7,54.3h26.4v9.5h-15v9.3
		h14.2v9.5h-14.2v9.5h15v9.5h-26.4V54.3z"/>
</g>
<g>
	<polygon fill="#007AC2" points="422.6,54.3 422.6,101.6 434.1,101.6 434.1,71.9 435.1,71.9 458.1,101.6 469.8,101.6 469.8,54.3 
		458.4,54.3 458.4,83.9 457.4,83.9 457.2,83.7 434.4,54.3 	"/>
	<path fill="#FFFFFF" d="M457.3,81.8l-22.1-28.4l-0.2-0.2h-13.5v49.6h13.8V74l22.3,28.7H471V53.1h-13.8V81.8z M458.4,54.3h11.4v47.3
		h-11.7l-23.1-29.7h-1v29.7h-11.4V54.3h11.7l22.9,29.4l0.2,0.2h1V54.3z"/>
</g>
<g>
	<rect x="475.8" y="54.3" fill="#007AC2" width="11.4" height="47.3"/>
	<path fill="#FFFFFF" d="M474.6,102.8h13.8V53.1h-13.8V102.8z M475.8,54.3h11.4v47.3h-11.4V54.3z"/>
</g>
<g>
	<polygon fill="#007AC2" points="504.9,54.3 493.5,54.3 493.5,101.6 520,101.6 520,92.1 504.9,92.1 	"/>
	<path fill="#FFFFFF" d="M506,53.1h-13.8v49.6h28.9V90.9H506V53.1z M520,101.6h-26.5V54.3h11.4v37.8H520V101.6z"/>
</g>
<g>
	<polygon fill="#007AC2" points="551.6,63.8 551.6,54.3 525.2,54.3 525.2,101.6 551.6,101.6 551.6,92.1 536.6,92.1 536.6,82.6 
		550.8,82.6 550.8,73.1 536.6,73.1 536.6,63.8 	"/>
	<path fill="#FFFFFF" d="M552.8,65V53.1H524v49.6h28.7V90.9h-15v-7.2H552V71.9h-14.2V65H552.8z M550.8,82.6h-14.2v9.5h15v9.5h-26.4
		V54.3h26.4v9.5h-15v9.3h14.2V82.6z"/>
</g>
<g>
	<polygon fill="#007AC2" points="194.3,82.6 209,82.6 209,73.1 194.3,73.1 194.3,63.8 209.8,63.8 209.8,54.3 182.5,54.3 
		182.5,101.6 209.8,101.6 209.8,92.1 194.3,92.1 	"/>
	<path fill="#FFFFFF" d="M181.3,102.8h29.6V90.9h-15.5v-7.2h14.7V71.9h-14.7V65h15.5V53.1h-29.6V102.8z M182.5,54.3h27.3v9.5h-15.5
		v9.3H209v9.5h-14.7v9.5h15.5v9.5h-27.3V54.3z"/>
</g>
<g>
	<polygon fill="#007AC2" points="231.3,54.3 219.4,54.3 219.4,101.6 246.9,101.6 246.9,92.1 231.3,92.1 	"/>
	<path fill="#FFFFFF" d="M232.4,53.1h-14.2v49.6H248V90.9h-15.6V53.1z M246.9,101.6h-27.5V54.3h11.9v37.8h15.6V101.6z"/>
</g>
<path fill="#007AC2" d="M245.9,54.5c0.3,0.2,0.6,0.5,0.8,0.8c0.2,0.4,0.3,0.7,0.3,1.1c0,0.4-0.1,0.7-0.3,1.1
	c-0.2,0.3-0.5,0.6-0.8,0.8c-0.3,0.2-0.7,0.3-1.1,0.3c-0.4,0-0.7-0.1-1.1-0.3c-0.3-0.2-0.6-0.5-0.8-0.8c-0.2-0.3-0.3-0.7-0.3-1.1
	c0-0.4,0.1-0.7,0.3-1.1c0.2-0.4,0.5-0.6,0.8-0.8c0.3-0.2,0.7-0.3,1.1-0.3C245.2,54.2,245.6,54.3,245.9,54.5z M243.6,54.1
	c-0.4,0.2-0.7,0.5-1,1c-0.2,0.4-0.4,0.9-0.4,1.3c0,0.5,0.1,0.9,0.3,1.3c0.2,0.4,0.6,0.7,1,1c0.4,0.2,0.8,0.3,1.3,0.3
	c0.5,0,0.9-0.1,1.3-0.3c0.4-0.2,0.7-0.6,1-1c0.2-0.4,0.3-0.9,0.3-1.3c0-0.5-0.1-0.9-0.4-1.3c-0.2-0.4-0.6-0.7-1-1
	c-0.4-0.2-0.8-0.3-1.3-0.3C244.4,53.8,244,53.9,243.6,54.1z M244.2,57.8v-1.2h0.3c0.2,0,0.3,0,0.4,0.1c0.1,0.1,0.3,0.3,0.5,0.7
	l0.3,0.4h0.6l-0.3-0.6c-0.2-0.3-0.3-0.5-0.4-0.6c-0.1-0.1-0.1-0.1-0.2-0.2c0.2,0,0.4-0.1,0.6-0.3c0.1-0.2,0.2-0.3,0.2-0.5
	c0-0.1,0-0.3-0.1-0.4c-0.1-0.1-0.2-0.2-0.4-0.3c-0.1-0.1-0.4-0.1-0.7-0.1h-1v2.8H244.2z M244.2,55.4h0.5c0.2,0,0.4,0,0.5,0
	c0.1,0,0.1,0.1,0.2,0.1c0,0.1,0.1,0.1,0.1,0.2c0,0.1,0,0.2-0.1,0.3c-0.1,0.1-0.3,0.1-0.5,0.1h-0.5V55.4z"/>
<g>
	<g>
		<path fill="#ACABAE" d="M259.9,131.7c0-5.9,4.1-10.1,9.9-10.1c4.9,0,7.3,2.8,7.3,4.1c0,1.4-1.7,1.8-1.8,1.7c-1.1-2-3.3-3-5.5-3
			c-3.9,0-6.7,3-6.7,7.3c0,4.3,2.9,7.3,6.8,7.3c2.6,0,4.8-1.3,5.6-3.4c0.1-0.2,1.9,0.2,1.9,1.7c0,1.4-2.6,4.5-7.7,4.5
			C263.9,141.7,259.9,137.6,259.9,131.7z"/>
		<path fill="#ACABAE" d="M279.4,137.6c0-3.3,3.2-4.8,9.7-4.9h0.4v-0.3c0-2.2-1.3-3.4-3.6-3.4c-2.2,0-3.5,1.1-4.2,2.5
			c0,0-1.8,0-1.8-1.4c0-1.4,2.1-3.5,6.2-3.5c4.1,0,6.3,2.1,6.3,5.8v8.9c0,0.2-0.5,0.3-1.1,0.3c-1.1,0-1.8-0.6-1.8-2.3
			c-1.1,1.6-3,2.5-5.2,2.5C281.3,141.7,279.4,140,279.4,137.6z M289.5,135.6v-1.1l-0.8,0c-4.2,0.1-6.4,0.9-6.4,2.9
			c0,1.3,1,2.1,2.7,2.1C287.7,139.5,289.5,137.9,289.5,135.6z"/>
		<path fill="#ACABAE" d="M298.8,129.3c0.6-1.8,1.8-2.7,3.7-2.7c1.5,0,2.4,0.7,2.4,1.9c0,1.1-0.8,1.6-0.9,1.5
			c-0.5-0.4-1-0.6-1.8-0.6c-2.3,0-3.3,2.3-3.3,5.6v5.1c0,1.1-0.6,1.4-1.3,1.4h-0.3c-0.8,0-1.3-0.3-1.3-1.4v-13
			c0-0.1,0.5-0.3,1.1-0.3C297.8,126.7,298.8,127.2,298.8,129.3z"/>
		<path fill="#ACABAE" d="M306,134.2c0-4.4,3.1-7.7,7.4-7.7c4.2,0,6.9,2.9,6.9,7.3v0.2c0,0.6-0.2,0.9-0.9,0.9h-10.7
			c0.2,2.7,2.2,4.5,4.9,4.5c2.5,0,3.8-1.1,4.5-2.4c0.1-0.1,1.6,0.2,1.6,1.5c0,1.3-2.2,3.3-6.2,3.3C309.1,141.7,306,138.7,306,134.2z
			 M308.8,132.9h8.7c-0.2-2.5-1.7-4.1-4.1-4.1C311,128.8,309.2,130.5,308.8,132.9z"/>
		<path fill="#ACABAE" d="M331.7,128.2V128c0-0.7,0.4-1.1,1.3-1.1h1.7v-1.1c0-3.6,1.7-5.3,4.6-5.3c2.2,0,3.2,0.9,3.2,2
			c0,0.8-0.7,1.4-0.7,1.3c-0.4-0.4-1.3-0.8-2.2-0.8c-1.4,0-2.1,0.9-2.1,2.9v1.1h2.4c1,0,1.3,0.4,1.3,1.1v0.2c0,0.7-0.4,1.1-1.3,1.1
			h-2.4v10.7c0,1.1-0.5,1.4-1.3,1.4H336c-0.8,0-1.4-0.3-1.4-1.4v-10.7H333C332,129.3,331.7,128.9,331.7,128.2z"/>
		<path fill="#ACABAE" d="M342.4,134.1c0-4.4,3.1-7.6,7.6-7.6c4.4,0,7.6,3.2,7.6,7.6c0,4.4-3.1,7.6-7.6,7.6
			C345.5,141.7,342.4,138.6,342.4,134.1z M354.8,134.2c0-3-2-5.2-4.8-5.2c-2.8,0-4.8,2.2-4.8,5.1c0,3,2.1,5.2,4.8,5.2
			C352.8,139.3,354.8,137.1,354.8,134.2z"/>
		<path fill="#ACABAE" d="M363.3,129.3c0.6-1.8,1.8-2.7,3.7-2.7c1.5,0,2.4,0.7,2.4,1.9c0,1.1-0.8,1.6-0.9,1.5
			c-0.5-0.4-1-0.6-1.8-0.6c-2.3,0-3.3,2.3-3.3,5.6v5.1c0,1.1-0.6,1.4-1.3,1.4h-0.3c-0.8,0-1.3-0.3-1.3-1.4v-13
			c0-0.1,0.5-0.3,1.1-0.3C362.3,126.7,363.3,127.2,363.3,129.3z"/>
		<path fill="#ACABAE" d="M381.9,140.1v-16.4c0-1.1,0.7-1.7,1.7-1.7h5c4.8,0,7.6,2.2,7.6,6.2c0,4.1-2.6,6.2-7.7,6.2H385v5.7
			c0,0.8-0.5,1.4-1.4,1.4h-0.5C382.4,141.5,381.9,141,381.9,140.1z M385,131.9h3.6c3,0,4.5-1.3,4.5-3.7c0-2.4-1.5-3.7-4.5-3.7H385
			V131.9z"/>
		<path fill="#ACABAE" d="M401.8,129.3c0.6-1.8,1.8-2.7,3.7-2.7c1.5,0,2.4,0.7,2.4,1.9c0,1.1-0.8,1.6-0.9,1.5
			c-0.5-0.4-1-0.6-1.8-0.6c-2.3,0-3.3,2.3-3.3,5.6v5.1c0,1.1-0.6,1.4-1.3,1.4h-0.3c-0.8,0-1.3-0.3-1.3-1.4v-13
			c0-0.1,0.5-0.3,1.1-0.3C400.8,126.7,401.7,127.2,401.8,129.3z"/>
		<path fill="#ACABAE" d="M408.9,134.2c0-4.4,3.1-7.7,7.4-7.7c4.2,0,6.9,2.9,6.9,7.3v0.2c0,0.6-0.2,0.9-0.9,0.9h-10.7
			c0.2,2.7,2.2,4.5,4.9,4.5c2.5,0,3.8-1.1,4.5-2.4c0.1-0.1,1.6,0.2,1.6,1.5c0,1.3-2.2,3.3-6.2,3.3
			C412,141.7,408.9,138.7,408.9,134.2z M411.7,132.9h8.7c-0.2-2.5-1.7-4.1-4.1-4.1C413.9,128.8,412.1,130.5,411.7,132.9z"/>
		<path fill="#ACABAE" d="M425.2,134.1c0-4.4,3.2-7.6,7.5-7.6c4.3,0,6.2,2.6,6.2,4c0,1.2-1.7,1.5-1.8,1.3c-0.7-1.6-1.9-2.8-4.4-2.8
			c-2.7,0-4.8,2.1-4.8,5.1c0,3,2,5.1,4.8,5.1c2.4,0,3.7-1.2,4.4-2.8c0.1-0.2,1.8,0.1,1.8,1.4c0,1.3-1.9,4-6.2,4
			C428.3,141.7,425.2,138.5,425.2,134.1z"/>
		<path fill="#ACABAE" d="M441.4,122.2c0-1.1,0.7-1.7,1.8-1.7c1.1,0,1.7,0.6,1.7,1.7s-0.6,1.7-1.8,1.7
			C442.1,123.8,441.4,123.2,441.4,122.2z M441.7,140.1v-11.9c0-1.1,0.6-1.4,1.4-1.4h0.3c0.8,0,1.3,0.3,1.3,1.4v11.9
			c0,1.1-0.5,1.4-1.3,1.4h-0.3C442.3,141.5,441.7,141.1,441.7,140.1z"/>
		<path fill="#ACABAE" d="M447.6,134.1c0-4.4,3.1-7.6,7.6-7.6c4.4,0,7.6,3.2,7.6,7.6c0,4.4-3.1,7.6-7.6,7.6
			C450.7,141.7,447.6,138.6,447.6,134.1z M460,134.2c0-3-2-5.2-4.8-5.2c-2.8,0-4.8,2.2-4.8,5.1c0,3,2.1,5.2,4.8,5.2
			C458,139.3,460,137.1,460,134.2z"/>
		<path fill="#ACABAE" d="M475.8,139.2c-1,1.5-2.6,2.5-4.8,2.5c-3.8,0-5.6-2.6-5.6-6.2v-7.3c0-1.1,0.5-1.4,1.3-1.4h0.3
			c0.8,0,1.3,0.3,1.3,1.4v7c0,2.5,1.3,4,3.5,4c1.8,0,3.2-1,4-2.6v-8.4c0-1.1,0.5-1.4,1.3-1.4h0.3c0.8,0,1.3,0.3,1.3,1.4v12.9
			c0,0.1-0.5,0.3-1.1,0.3C476.8,141.5,475.9,141,475.8,139.2z"/>
		<path fill="#ACABAE" d="M481.4,138.6c0-0.9,1.1-1.4,1.2-1.4c1,1.2,2.6,2.2,4.9,2.2c2,0,3.2-0.8,3.2-2c0-1.5-1.4-1.7-3.7-2.3
			c-2.1-0.4-5.1-1.1-5.1-4.2c0-2.7,2.3-4.5,5.8-4.5c3.7,0,5.6,1.6,5.6,2.9c0,0.9-1.1,1.5-1.2,1.4c-0.9-1.2-2.4-2-4.2-2
			c-2,0-3.1,0.8-3.1,2c0,1.3,1.3,1.6,3.6,2.1c2.2,0.5,5.3,1.1,5.3,4.3c0,2.8-2.3,4.5-6,4.5C483.5,141.7,481.4,140,481.4,138.6z"/>
		<path fill="#ACABAE" d="M505.8,139.7v-16.4c0-1,0.5-1.4,1.3-1.4h0.5c0.9,0,1.4,0.5,1.4,1.4v15.3h8.5c0.9,0,1.4,0.5,1.4,1.3v0.1
			c0,0.9-0.5,1.4-1.4,1.4h-9.9C506.4,141.4,505.8,140.8,505.8,139.7z"/>
		<path fill="#ACABAE" d="M521.3,122.2c0-1.1,0.7-1.7,1.8-1.7c1.1,0,1.7,0.6,1.7,1.7s-0.6,1.7-1.8,1.7
			C521.9,123.8,521.3,123.2,521.3,122.2z M521.5,140.1v-11.9c0-1.1,0.6-1.4,1.4-1.4h0.3c0.8,0,1.3,0.3,1.3,1.4v11.9
			c0,1.1-0.5,1.4-1.3,1.4h-0.3C522.1,141.5,521.5,141.1,521.5,140.1z"/>
		<path fill="#ACABAE" d="M526.7,128.2V128c0-0.7,0.4-1.1,1.3-1.1h1.7v-1.1c0-3.6,1.7-5.3,4.6-5.3c2.2,0,3.2,0.9,3.2,2
			c0,0.8-0.7,1.4-0.7,1.3c-0.4-0.4-1.3-0.8-2.2-0.8c-1.4,0-2.1,0.9-2.1,2.9v1.1h2.4c1,0,1.3,0.4,1.3,1.1v0.2c0,0.7-0.4,1.1-1.3,1.1
			h-2.4v10.7c0,1.1-0.5,1.4-1.3,1.4h-0.3c-0.8,0-1.4-0.3-1.4-1.4v-10.7h-1.7C527.1,129.3,526.7,128.9,526.7,128.2z"/>
		<path fill="#ACABAE" d="M537.5,134.2c0-4.4,3.1-7.7,7.4-7.7c4.2,0,6.9,2.9,6.9,7.3v0.2c0,0.6-0.2,0.9-0.9,0.9h-10.7
			c0.2,2.7,2.2,4.5,4.9,4.5c2.5,0,3.8-1.1,4.5-2.4c0.1-0.1,1.6,0.2,1.6,1.5c0,1.3-2.2,3.3-6.2,3.3
			C540.6,141.7,537.5,138.7,537.5,134.2z M540.3,132.9h8.7c-0.2-2.5-1.7-4.1-4.1-4.1C542.5,128.8,540.7,130.5,540.3,132.9z"/>
	</g>
</g>
</svg>
