<!DOCTYPE svg PUBLIC "-//W3C//DTD SVG 1.1//EN" "http://www.w3.org/Graphics/SVG/1.1/DTD/svg11.dtd">
<?xml version="1.0" encoding="UTF-8"?>
<svg width="320px" height="154px" viewBox="0 0 320 154" version="1.1" xmlns="http://www.w3.org/2000/svg" xmlns:xlink="http://www.w3.org/1999/xlink">
    <!-- Generator: Sketch 48.2 (47327) - http://www.bohemiancoding.com/sketch -->
    <desc>Created with Sketch.</desc>
    <defs></defs>
    <g id="car_graphics" stroke="none" stroke-width="1" fill="none" fill-rule="evenodd">
        <g>
            <g id="big_car" fill-rule="nonzero">
                <path d="M6.89085376,32.1630802 C7.79415882,32.970685 13.142659,29.411663 15.8683552,26.5553456 C18.193845,24.117997 20.1046098,19.1232332 19.4083516,18.301094 C18.6975749,17.4934893 13.9569592,20.2449065 11.9420397,22.5779869 C9.40887186,25.6434726 5.98691746,31.340941 6.89085376,32.1630802 L6.89085376,32.1630802 Z" id="Shape" fill="#A19F9E"></path>
                <path d="M19.4055833,135.685032 C18.5016247,136.666663 13.1542556,132.865756 10.4284924,129.86388 C8.10231417,127.258931 6.1915024,122.019247 6.88777771,121.190429 C7.59857192,120.363554 12.2357781,123.30521 14.265266,125.695185 C16.886872,128.820735 20.3089105,134.889885 19.4055833,135.685032 L19.4055833,135.685032 Z" id="Shape" fill="#9D9C9A"></path>
                <path d="M129.65273,136.134991 C111.828134,135.803643 57.1860224,133.546535 44.0308968,133.034568 C39.7510806,133.245715 28.5410361,133.45559 23.0335868,129.663216 C13.1410955,122.770419 7.43913809,105.764202 7.03481631,81.9866605 L7.03481631,78.8118274 L7.03481631,75.6357223 C7.43913809,51.8575451 13.2456835,30.7428698 23.0335868,23.8653367 C28.4364481,20.0729629 39.6458549,20.2834737 44.0308968,20.4946204 C57.1860224,19.9673895 111.918054,17.7255452 129.65273,17.4094611 C149.842034,17.0030672 204.977749,17.3038877 219.58499,17.4094611 C220.18382,15.7692578 220.482916,14.8515326 220.482916,14.8515326 C220.482916,14.8515326 146.370223,13.2106934 86.744878,14.8515326 C59.6259832,15.5733747 35.5758524,15.2579265 22.7191851,19.0503003 C21.6120832,21.9249489 19.0522289,25.4012385 16.807414,27.6589824 C13.4548594,31.1505356 8.35109415,35.3493033 4.98387177,36.5831127 C1.42214127,45.8074275 0.0905578747,62.5121884 0,78.3004961 L0,78.70689 L0,79.1279116 C0,95.0198847 1.42150354,107.51125 4.98387177,116.751465 C8.35109415,117.955383 13.3502715,122.168778 16.807414,125.660331 C18.947641,127.917439 21.6114455,131.379101 22.7191851,134.269649 C35.5758524,138.062023 59.7305712,137.759931 86.744878,138.483045 C146.370223,140.107984 220.482916,138.483045 220.482916,138.483045 C220.482916,138.483045 220.18382,137.550056 219.58499,135.894589 C204.977749,136.194774 149.842034,136.526121 129.65273,136.134991 L129.65273,136.134991 Z" id="Shape" fill="#CDCCCC"></path>
                <path d="M47.8724374,130.983153 C47.8724374,130.983153 26.9875939,132.518632 21.2625089,125.836053 C13.0737552,116.413273 10.1138952,101.241668 10.1138952,78.6948018 C10.1138952,54.1901036 15.8383399,32.4555018 25.7704851,25.592278 C32.4264886,20.9712104 47.8724374,22.4011016 47.8724374,22.4011016 C47.8724374,22.4011016 45.0028522,65.6737589 45.0028522,78.6948018 C45.0028522,91.8182524 47.8724374,130.983153 47.8724374,130.983153 L47.8724374,130.983153 Z" id="Shape" fill="#E1E1E1"></path>
                <path d="M127.215002,134.236408 C150.258461,134.869192 219.808656,135.170306 219.808656,135.170306 C219.808656,135.170306 216.035391,93.1111681 216.035391,79.0409517 C216.035391,65.09169 219.808656,19.0104898 219.808656,19.0104898 C219.808656,19.0104898 151.801199,18.6037 129.146296,19.0104898 C109.471596,19.4325581 50.5227828,22.1890524 50.5227828,22.1890524 C50.5227828,22.1890524 47.8724374,65.4978432 47.8724374,78.5297588 C47.8724374,91.5438496 50.5227828,130.771374 50.5227828,130.771374 C50.5227828,130.771374 108.034131,133.724579 127.215002,134.236408" id="Shape" fill="#F3F3F3"></path>
                <path d="M212.685482,12.1048035 L221.157175,12.1048035 C221.157175,12.1048035 219.821242,8.09921848 217.635228,4.90033101 C215.782389,2.09828168 213.080763,0 212.59491,0 C211.441415,0.102929893 211.653611,3.90265512 211.957674,6.99923275 C212.260442,9.90421198 212.685482,12.1048035 212.685482,12.1048035 L212.685482,12.1048035 Z" id="Shape" fill="#CDCCCC"></path>
                <path d="M212.689697,141.895197 L221.157175,141.895197 C221.157175,141.895197 219.792519,145.959945 217.652685,149.127519 C215.76067,151.964888 213.217056,154.086916 212.596517,153.997262 C211.418221,153.906976 211.635641,150.142759 212.03876,146.855856 C212.286578,144.107511 212.689697,141.895197 212.689697,141.895197 L212.689697,141.895197 Z" id="Shape" fill="#CDCCCC"></path>
                <path d="M222.355369,18.1572052 C222.355369,18.1572052 240.00618,21.5491192 246.448221,27.5040817 C256.037861,36.53432 264.398469,51.7310377 264.309085,74.2244478 C264.309085,98.7680419 258.255864,117.341383 246.628905,125.271352 C239.916157,129.793479 222.235977,134.497817 222.235977,134.497817 C222.235977,134.497817 218.460137,86.7364311 218.460137,73.7109462 C218.579528,60.6714451 222.355369,18.1572052 222.355369,18.1572052 L222.355369,18.1572052 Z" id="Shape" fill="#E1E1E1"></path>
                <path d="M245.808193,127.868963 C239.922894,131.874596 226.597906,136.060307 222.505695,137.205047 C222.625361,138.017627 222.625361,138.529864 222.625361,138.529864 C222.625361,138.529864 243.687932,138.73985 261.404298,135.577977 C262.21141,132.507098 268.305488,125.610664 272.996032,122.62887 C278.074855,119.466997 286.02249,115.973602 290.682481,115.040121 C294.147716,106.125281 296,93.8392193 296,78.73617 C296,64.5965088 295.581804,47.160075 291.518873,37.1017687 C288.053638,37.3130269 280.703698,35.355071 276.252487,32.2835556 C270.754832,28.4891809 263.853641,21.2014108 262.599053,17.8282798 C246.346692,14.9521145 227.405655,15.4637156 223.641253,15.569981 C229.018606,16.6988122 242.462624,19.9815858 247.750863,24.9957854 C257.818759,34.5418543 267.289596,54.6438316 267.289596,78.4351907 C267.199846,104.198505 258.027539,119.467634 245.808193,127.868963" id="Shape" fill="#CDCCCC"></path>
                <path d="M265.087153,135.437274 C264.069215,133.795418 270.805081,126.31421 275.774225,122.815868 C280.174446,119.804621 288.107474,118.163407 289.125411,119.501311 C290.173964,120.839215 284.754529,127.469614 280.684053,129.963564 C275.595001,133.278121 266.105091,137.109975 265.087153,135.437274 L265.087153,135.437274 Z" id="Shape" fill="#A2A09E"></path>
                <path d="M265.762215,17.8501253 C264.740262,19.5200998 271.472603,26.9362369 276.491444,30.4756245 C280.789282,33.5099402 288.783697,35.1799147 289.805651,33.8162209 C290.827604,32.4680678 285.417527,25.8943645 281.389904,23.3813087 C276.191773,20.0413598 266.664428,16.286993 265.762215,17.8501253 L265.762215,17.8501253 Z" id="Shape" fill="#A2A09E"></path>
            </g>
            <g id="normal_car" transform="translate(39.000000, 0.000000)" fill-rule="nonzero">
                <path d="M6.80956858,32.5068333 C7.73512219,33.350625 13.2102918,29.7361167 16.0005162,26.8736417 C18.3818953,24.4333833 20.3382818,19.3725583 19.6252244,18.5595667 C18.8973117,17.7452917 14.0441297,20.5179333 11.9811721,22.8657917 C9.38858853,25.8501833 5.88466085,31.6938417 6.80956858,32.5068333 L6.80956858,32.5068333 Z" id="Shape" fill="#A19F9E"></path>
                <path d="M19.5199451,135.418617 C18.5950374,136.353525 13.1192219,132.6479 10.3283516,129.695592 C7.94761845,127.104542 5.99123192,121.982758 6.70364339,121.168483 C7.43155611,120.356775 12.178813,123.218608 14.2566259,125.59855 C16.9415711,128.761967 20.4454988,134.604983 19.5199451,135.418617 L19.5199451,135.418617 Z" id="Shape" fill="#A19F9E"></path>
                <path d="M131.407945,136.353525 C113.327678,136.021783 57.9533491,133.793275 44.6216309,133.249142 C40.2838653,133.49105 28.923389,133.672 23.3422943,129.875258 C13.316217,123.0075 7.5374813,105.984725 7.12799002,82.1557917 L7.12799002,78.9917333 L7.12799002,75.8289583 C7.5374813,52.0282583 13.422788,30.88085 23.3422943,24.0111667 C28.8174638,20.214425 40.1772943,20.3960167 44.6216309,20.6366417 C57.9533491,20.095075 113.419394,17.8665667 131.407945,17.5335417 C151.852798,17.1280083 166.41299,17.4437083 181.185032,17.5335417 C181.822521,15.890875 182.126087,14.9739333 182.126087,14.9739333 C182.126087,14.9739333 148.334015,13.3312667 87.908217,14.9739333 C60.4251521,15.69645 36.0520249,15.378825 23.0238728,19.190325 C21.9013242,22.0521583 19.3080948,25.546675 17.0326409,27.8072667 C13.6346384,31.3017833 8.46303491,35.4905833 5.05082294,36.72515 C1.44097007,45.943975 0.0910698254,62.6946833 0,78.480325 L0,78.9025417 L0,79.3247583 C0,95.2015167 1.44097007,107.703108 5.05082294,116.952733 C8.46303491,118.188583 13.5287132,122.404333 17.0326409,125.900133 C19.2015237,128.128642 21.9013242,131.624442 23.0238728,134.517075 C36.0520249,138.310608 60.5323691,138.009667 87.908217,138.70395 C148.334015,140.360733 182.126087,138.70395 182.126087,138.70395 C182.126087,138.70395 181.822521,137.769042 181.185032,136.141775 C166.41299,136.444642 151.852798,136.744942 131.407945,136.353525 L131.407945,136.353525 Z" id="Shape" fill="#CDCCCC"></path>
                <path d="M48.44398,130.900642 C48.44398,130.900642 27.3616384,132.46695 21.5829027,125.900133 C13.3168628,116.440683 10.3289975,101.256925 10.3289975,78.6914333 C10.3289975,54.167575 16.1077332,32.417 26.1331646,25.5473167 C32.8523092,20.938225 48.44398,22.3543833 48.44398,22.3543833 C48.44398,22.3543833 45.5471845,65.6469917 45.5471845,78.6914333 C45.5471845,91.735875 48.44398,130.900642 48.44398,130.900642 L48.44398,130.900642 Z" id="Shape" fill="#E1E1E1"></path>
                <path d="M128.920641,134.305325 C152.277145,134.907208 181.39882,135.239592 181.39882,135.239592 C181.39882,135.239592 177.575825,93.1513917 177.575825,79.0834917 C177.575825,65.1651 181.39882,19.0716167 181.39882,19.0716167 C181.39882,19.0716167 153.825332,18.6494 130.861526,19.0716167 C110.947591,19.4912667 51.2348504,22.26455 51.2348504,22.26455 C51.2348504,22.26455 48.5499052,65.5552333 48.5499052,78.6009583 C48.5499052,91.616525 51.2348504,130.809525 51.2348504,130.809525 C51.2348504,130.809525 109.49112,133.793275 128.920641,134.305325" id="Shape" fill="#F3F3F3"></path>
                <path d="M173.633342,12.4130417 L182.126087,12.4130417 C182.126087,12.4130417 180.791688,8.3006 178.60795,5.01655 C176.756843,2.154075 174.057042,0 173.541626,0 C172.418431,0.0917583333 172.600571,3.99180833 172.934494,7.170625 C173.329776,10.154375 173.633342,12.4130417 173.633342,12.4130417 L173.633342,12.4130417 Z" id="Shape" fill="#CDCCCC"></path>
                <path d="M173.965327,141.806408 L182.247514,141.806408 C182.247514,141.806408 180.882758,145.904092 178.8198,149.066225 C176.969339,151.929342 174.481389,154.097533 173.874257,153.976258 C172.722643,153.885783 172.934494,150.090325 173.329776,146.806917 C173.541626,144.0362 173.965327,141.806408 173.965327,141.806408 L173.965327,141.806408 Z" id="Shape" fill="#CDCCCC"></path>
                <path d="M183.582559,18.2573417 C183.582559,18.2573417 201.448392,21.6613833 207.971187,27.5968 C217.677551,36.6045167 226.110229,51.7876333 226.049516,74.2632917 C226.049516,98.7845833 219.922648,117.375592 208.152681,125.266167 C201.357322,129.786067 183.461132,134.517075 183.461132,134.517075 C183.461132,134.517075 179.638137,86.796325 179.638137,73.7814 C179.760209,60.7343917 183.582559,18.2573417 183.582559,18.2573417 L183.582559,18.2573417 Z" id="Shape" fill="#E1E1E1"></path>
                <path d="M207.424122,127.946408 C201.448392,131.925383 187.889322,136.141133 183.763406,137.28715 C183.885479,138.102067 183.885479,138.613475 183.885479,138.613475 C183.885479,138.613475 205.269449,138.7925 223.257354,135.630367 C224.047272,132.556142 230.265855,125.658867 235.028613,122.706558 C240.185362,119.5117 248.253761,116.018467 252.986808,115.113717 C256.504299,106.195833 258.356052,93.87455 258.356052,78.780625 C258.356052,64.6228917 257.961416,47.2080583 253.835501,37.1473667 C250.31801,37.3263917 242.855451,35.398825 238.30519,32.3271667 C232.723449,28.5310667 225.716239,21.24045 224.472264,17.8672083 C207.971187,14.9752167 188.739307,15.4872667 184.916312,15.5912167 C190.377272,16.7211917 204.026766,20.0052417 209.396656,25.0352667 C219.619082,34.5563167 229.235668,54.679625 229.235668,78.480325 C229.143953,104.328583 219.831579,119.633617 207.424122,127.946408" id="Shape" fill="#CDCCCC"></path>
                <path d="M227.263135,135.239592 C226.23101,133.581525 233.056726,126.200433 238.122404,122.7072 C242.550594,119.722808 250.619638,118.066667 251.651117,119.421867 C252.683242,120.748833 247.223574,127.316292 243.066656,129.786067 C237.82013,132.948842 228.203544,136.744942 227.263135,135.239592 L227.263135,135.239592 Z" id="Shape" fill="#A2A09E"></path>
                <path d="M227.778551,17.5341833 C226.747718,19.1909667 233.572788,26.4809417 238.638466,29.9465833 C242.975586,32.9284083 251.044631,34.5563167 252.076756,33.22935 C253.107589,31.9055917 247.617564,25.4574833 243.582718,22.9877083 C238.30519,19.6728583 228.810676,15.998675 227.778551,17.5341833 L227.778551,17.5341833 Z" id="Shape" fill="#A2A09E"></path>
            </g>
            <g id="small_car" transform="translate(70.000000, 0.000000)" fill-rule="nonzero">
                <path d="M6.81701031,32.4619167 C7.7435567,33.2460333 13.2222938,29.6905583 16.0167526,26.7953583 C18.3994845,24.3236583 20.3588918,19.321225 19.6443299,18.4767917 C18.9162371,17.6625167 14.0573454,20.4358 11.9935567,22.7875083 C9.39755155,25.8925333 5.89046392,31.6194083 6.81701031,32.4619167 L6.81701031,32.4619167 Z" id="Shape" fill="#A19F9E"></path>
                <path d="M19.5386598,135.40065 C18.6121134,136.334275 13.1320876,132.627367 10.3389175,129.642333 C7.95489691,127.110317 5.99677835,121.95645 6.71005155,121.142817 C7.43814433,120.298383 12.1900773,123.191658 14.2699742,125.543367 C16.9574742,128.737583 20.4639175,134.586375 19.5386598,135.40065 L19.5386598,135.40065 Z" id="Shape" fill="#A19F9E"></path>
                <path d="M131.528351,136.424108 C113.432345,136.122525 58.007732,133.862575 44.6636598,133.349883 C40.3215206,133.560992 28.9503866,133.741942 23.3634021,129.943275 C13.3292526,123.070383 7.54510309,106.039267 7.13530928,82.2276583 L7.13530928,79.0629583 L7.13530928,75.8681 C7.54510309,52.0552083 13.435567,30.8956083 23.3634021,24.0227167 C28.8440722,20.2246917 40.2145619,20.4358 44.6636598,20.6469083 C58.0070876,20.1040583 113.522552,17.873625 131.528351,17.5720417 C151.992268,17.1511083 135.536082,17.4514083 150.352448,17.5720417 C150.960696,15.9146167 151.262887,14.9797083 151.262887,14.9797083 C151.262887,14.9797083 148.470361,13.3511583 87.9896907,14.9797083 C60.4819588,15.7035083 36.0856959,15.401925 23.0457474,19.19995 C21.9220361,22.093225 19.3266753,25.56015 17.0489691,27.8201 C13.6494845,31.3171833 8.47164948,35.537425 5.0560567,36.7418333 C1.44201031,45.997875 0.0914948454,62.726125 0,78.52075 L0,78.9429667 L0,79.3645417 C0,95.2798 1.44201031,107.78845 5.05541237,117.042567 C8.47100515,118.2489 13.5418814,122.467858 17.0483247,125.965583 C19.2197165,128.226175 21.9213918,131.692458 23.0451031,134.586375 C36.0856959,138.3844 60.5882732,138.082817 87.9890464,138.805333 C148.469716,140.433883 151.262242,138.805333 151.262242,138.805333 C151.262242,138.805333 150.960052,137.871708 150.351804,136.213642 C135.536082,136.515225 151.992268,136.756492 131.528351,136.424108 L131.528351,136.424108 Z" id="Shape" fill="#CDCCCC"></path>
                <path d="M48.4877577,130.908983 C48.4877577,130.908983 27.3859536,132.415617 21.6018041,125.845592 C13.3286082,116.409242 10.3389175,101.218425 10.3389175,78.6413833 C10.3389175,54.105975 16.123067,32.3432083 26.1572165,25.4709583 C32.8820876,20.8285 48.4877577,22.2754583 48.4877577,22.2754583 C48.4877577,22.2754583 45.5882732,65.6200417 45.5882732,78.6413833 C45.5882732,91.662725 48.4877577,130.908983 48.4877577,130.908983 L48.4877577,130.908983 Z" id="Shape" fill="#E1E1E1"></path>
                <path d="M129.039304,134.284792 C152.417526,134.886675 150.534794,135.187617 150.534794,135.187617 C150.534794,135.187617 146.708763,93.1096833 146.708763,79.0629583 C146.708763,65.0759083 150.534794,18.9888417 150.534794,18.9888417 C150.534794,18.9888417 153.965206,18.5967833 130.98067,18.9888417 C111.048325,19.4117 51.2822165,22.154825 51.2822165,22.154825 C51.2822165,22.154825 48.5947165,65.4994083 48.5947165,78.52075 C48.5947165,91.57225 51.2822165,130.787708 51.2822165,130.787708 C51.2822165,130.787708 109.591495,133.742583 129.039304,134.284792" id="Shape" fill="#F3F3F3"></path>
                <path d="M142.792526,12.4188167 L151.262887,12.4188167 C151.262887,12.4188167 149.927835,8.31920833 147.740335,5.033875 C145.890464,2.13995833 143.188144,0 142.70232,0 C141.548325,0.090475 141.760954,4.009775 142.063144,7.20335 C142.458119,10.0664667 142.792526,12.4188167 142.792526,12.4188167 L142.792526,12.4188167 Z" id="Shape" fill="#CDCCCC"></path>
                <path d="M143.096005,141.759567 L151.384021,141.759567 C151.384021,141.759567 150.048969,145.859175 147.953608,149.054033 C146.101804,151.94795 143.611469,154.089192 143.003866,153.996792 C141.85116,153.8768 142.0625,150.079417 142.457474,146.793442 C142.70232,144.0208 143.096005,141.759567 143.096005,141.759567 L143.096005,141.759567 Z" id="Shape" fill="#CDCCCC"></path>
                <path d="M172.577964,35.4174333 C178.16366,45.3632667 180.229381,56.3652833 180.83634,67.5495333 C181.564433,80.9013333 181.048969,94.1337833 177.131443,107.065292 C174.641108,115.175317 173.092784,122.680892 166.686856,128.5284 C163.590851,131.391517 159.947165,133.259408 155.938789,134.375267 C153.449742,135.099067 152.416881,134.284792 152.295747,131.813733 C151.869845,126.989683 151.262242,122.045642 150.960696,117.223517 C150.534794,110.773483 150.141108,104.202175 150.141108,97.7219833 C150.231314,89.7345167 148.681701,81.71625 149.078608,77.616 C149.806701,56.365925 150.535438,39.0935417 152.296392,21.973875 C152.599871,18.9894833 154.269974,19.2005917 156.243557,19.802475 C164.318943,22.5770417 168.32732,27.9420167 172.577964,35.4174333" id="Shape" fill="#E1E1E1"></path>
                <path d="M245.446521,37.1653333 C241.954897,37.3764417 232.450387,35.4174333 227.897552,32.3432083 C222.310567,28.5451833 215.267397,21.250075 214.052835,17.8742667 C197.474871,14.9809917 157.579897,15.5232 153.752577,15.6143167 C159.219716,16.730175 163.257088,19.8031167 168.631443,24.8677917 C178.893686,34.3926917 183.62951,54.7091417 183.62951,78.430275 C183.62951,91.57225 179.925258,110.170317 173.91366,121.655508 C171.971005,125.45225 169.784149,128.5284 167.295103,130.366133 C167.295103,130.366133 160.494201,136.334275 156.850515,136.846967 L154.664304,137.359658 C154.785438,138.17265 154.785438,138.686625 154.785438,138.686625 C154.785438,138.686625 194.801546,138.895808 212.776418,135.731108 C213.627577,132.627367 219.820232,125.753833 224.588273,122.770083 C229.749356,119.575867 239.890464,116.109583 244.657216,115.175317 C248.179768,106.253583 250,93.9239583 250,78.822975 C250,64.6543333 249.606314,47.2330833 245.446521,37.1653333 Z" id="Shape" fill="#CDCCCC"></path>
                <path d="M217.149485,135.188258 C216.116624,133.561633 222.917526,126.145892 227.987758,122.680892 C232.450387,119.695217 240.496778,118.068592 241.559278,119.395558 C242.591495,120.7206 237.096649,127.291908 232.936856,129.762967 C227.684278,133.048942 218.058634,136.756492 217.149485,135.188258 L217.149485,135.188258 Z" id="Shape" fill="#A2A09E"></path>
                <path d="M217.635309,17.5726833 C216.601804,19.2012333 223.463918,26.4944167 228.50451,29.9921417 C232.846649,32.9450917 240.921392,34.6031583 241.954897,33.2460333 C242.987758,31.9209917 237.490979,25.4703167 233.483892,22.9986167 C228.199742,19.7132833 218.666881,15.9152583 217.635309,17.5726833 L217.635309,17.5726833 Z" id="Shape" fill="#A2A09E"></path>
            </g>
            <g id="seat_7" transform="translate(52.000000, 90.000000)">
                <path d="M12.5018892,6.41917808 L39.1745335,6.41917808 C41.3714343,6.41917808 43.1677272,8.21577017 43.1677272,10.410992 L43.1677272,34.3630369 C43.1677272,36.5582588 41.3714343,38.3563025 39.1745335,38.3563025 L12.5018892,38.3563025 C10.3035566,38.3563025 8.50525927,36.5582588 8.50525927,34.3630369 L8.50525927,10.410992 C8.50525927,8.21577017 10.2041921,6.41917808 12.5018892,6.41917808 L12.5018892,6.41917808 Z" id="Shape" fill="#CDCCCC" fill-rule="nonzero"></path>
                <path d="M8.50525927,11.4091632 L10.4026348,11.4091632 C12.6012538,11.4091632 14.3992648,13.2060457 14.3992648,15.4009772 L14.3992648,29.3745034 C14.3992648,31.5694349 12.6012538,33.364285 10.4026348,33.364285 L8.50525927,33.364285 C6.30835841,33.364285 4.51006105,31.5691446 4.51006105,29.3742131 L4.51006105,15.4009772 C4.51006105,13.2060457 6.30835841,11.4091632 8.50525927,11.4091632 L8.50525927,11.4091632 Z" id="Shape" fill="#CDCCCC" fill-rule="nonzero"></path>
                <path d="M10.4026348,32.3658234 C12.101854,32.3658234 13.4001789,31.070059 13.4001789,29.3742131 L13.4001789,15.4009772 C13.4001789,13.7051313 12.101854,12.4076248 10.4026348,12.4076248 L8.50525927,12.4076248 C6.80775819,12.4076248 5.50914696,13.7051313 5.50914696,15.4009772 L5.50914696,29.3745034 C5.50914696,31.0703493 6.80775819,32.3661138 8.50525927,32.3661138 L10.4026348,32.3661138 L10.4026348,32.3658234 Z M10.4026348,33.364285 L8.50525927,33.364285 C6.30835841,33.364285 4.51006105,31.5691446 4.51006105,29.3742131 L4.51006105,15.4009772 C4.51006105,13.2060457 6.30835841,11.4091632 8.50525927,11.4091632 L10.4026348,11.4091632 C12.6012538,11.4091632 14.3992648,13.2060457 14.3992648,15.4009772 L14.3992648,29.3745034 C14.3992648,31.5691446 12.6012538,33.364285 10.4026348,33.364285 L10.4026348,33.364285 L10.4026348,33.364285 Z" id="Shape" fill="#F3F3F3" fill-rule="nonzero"></path>
                <polygon id="Shape" fill="#F3F3F3" fill-rule="nonzero" points="19.1936744 38.3560122 18.1945885 38.3560122 18.1945885 6.41917808 19.1936744 6.41917808"></polygon>
                <g id="icon_tether" transform="translate(0.000000, 17.376416)">
                    <path d="M4.83543664,0.00194507198 C7.52697664,0.00194507198 9.66725833,2.14305372 9.66725833,4.83640714 C9.66725833,7.52898711 7.52697664,9.67009576 4.83543664,9.67009576 C2.14312348,9.67009576 0.00284178774,7.52898711 0.00284178774,4.83640714 C0.00284178774,2.14305372 2.21174083,0.00194507198 4.83543664,0.00194507198 L4.83543664,0.00194507198 Z" id="Shape" fill="#595B5A" fill-rule="nonzero"></path>
                    <polygon id="Shape" fill="#FFFFFF" fill-rule="nonzero" points="5.5920247 7.59800626 4.21078629 7.59800626 4.21078629 5.52554148 2.14028169 5.52554148 2.14028169 4.14376938 4.21078629 4.14376938 4.21078629 2.0713046 5.5920247 2.0713046 5.5920247 4.14376938 7.66136957 4.14376938 7.66136957 5.52554148 5.5920247 5.52554148"></polygon>
                    <g id="hover_area" fill="#D8D8D8" fill-opacity="0">
                        <rect id="Shape" x="0.00284178774" y="0.00194507198" width="9.66413804" height="9.68800011"></rect>
                    </g>
                </g>
                <g id="icon_blue" transform="translate(14.864667, 0.201050)">
                    <g id="icon" transform="translate(5.995334, 0.798950)">
                        <ellipse id="button-bg-copy" fill="#0096C3" cx="10.2768694" cy="20.5203196" rx="9.49687057" ry="9.52031963"></ellipse>
                        <polygon id="Shape" fill="#FFFFFF" points="7.81402442 23.4506906 4.59587025 20.1514683 3.5 21.2670326 7.81402442 25.6897311 17.0748997 16.1955662 15.9867469 15.0800018"></polygon>
                    </g>
                    <g id="hover_area" transform="translate(0.000000, 5.000000)" fill="#FFFFFF" fill-opacity="0">
                        <polygon id="Shape" points="2.13162821e-14 0 32.5606991 0 32.5606991 32.6410959 2.13162821e-14 32.6410959"></polygon>
                    </g>
                </g>
                <g id="icon_red" transform="translate(14.864667, 5.201050)">
                    <g id="x-icon">
                        <ellipse id="button-bg-copy" fill="#8A1538" cx="16.2803496" cy="16.3205479" rx="9.49687057" ry="9.52031963"></ellipse>
                        <polygon id="Shape" fill="#FFFFFF" points="21.9332487 11.9990029 20.8173664 10.8803653 16.3934075 15.3152475 11.9694487 10.8803653 10.8535664 11.9990029 15.2775252 16.4338851 10.8535664 20.8687673 11.9694487 21.9874049 16.3934075 17.5525226 20.8173664 21.9874049 21.9332487 20.8687673 17.5092898 16.4338851"></polygon>
                        <polygon id="Shape-Copy" points="0 0 32.5606991 0 32.5606991 32.6410959 0 32.6410959"></polygon>
                    </g>
                </g>
                <g id="icon_orange" transform="translate(14.156826, 5.201050)">
                    <g id="icon" transform="translate(6.843174, 6.798950)">
                        <ellipse id="button-bg-copy" fill="#009688" cx="10.1468645" cy="9.52031963" rx="9.49687057" ry="9.52031963"></ellipse>
                        <polygon id="Shape" fill="#FFFFFF" points="7.30402991 12.4506906 4.08587574 9.15146825 2.99000549 10.2670326 7.30402991 14.6897311 16.5649052 5.19556621 15.4767524 4.08000183"></polygon>
                    </g>
                    <g id="icon_warning" transform="translate(14.190563, 0.360046)">
                        <g id="icon" transform="translate(0.652611, 0.438904)">
                            <ellipse id="button-bg-copy" fill="#F6BE00" cx="7.78664396" cy="8.01499748" rx="7.43663785" ry="7.45499992"></ellipse>
                            <path d="M8.30219484,12.3640752 L7.24794341,12.3640752 L7.24794341,10.8200624 L8.30219484,10.8200624 L8.30219484,12.3640752 L8.30219484,12.3640752 Z M8.30219484,8.50404323 L7.24794341,8.50404323 L7.24794341,3.09999847 L8.30219484,3.09999847 L8.30219484,8.50404323 L8.30219484,8.50404323 Z" id="Shape" fill="#FFFFFF"></path>
                        </g>
                    </g>
                    <g id="hover_area" fill="#FFFFFF" fill-opacity="0">
                        <polygon id="Shape" points="0.325895906 0 32.9154865 0 32.9154865 32.6410959 0.325895906 32.6410959"></polygon>
                    </g>
                </g>
                <g id="icon_green" transform="translate(14.864667, 5.201050)">
                    <g id="icon" transform="translate(6.135333, 6.798950)">
                        <ellipse id="button-bg-copy" fill="#009688" cx="10.1468645" cy="9.52031963" rx="9.49687057" ry="9.52031963"></ellipse>
                        <polygon id="Shape" fill="#FFFFFF" points="7.30402991 12.4506906 4.08587574 9.15146825 2.99000549 10.2670326 7.30402991 14.6897311 16.5649052 5.19556621 15.4767524 4.08000183"></polygon>
                    </g>
                    <g id="hover_area" fill="#FFFFFF" fill-opacity="0">
                        <polygon id="Shape" points="2.13162821e-14 0 32.5606991 0 32.5606991 32.6410959 2.13162821e-14 32.6410959"></polygon>
                    </g>
                </g>
            </g>
            <g id="seat_6" transform="translate(52.000000, 55.000000)">
                <path d="M12.5018892,6.41917808 L39.1745335,6.41917808 C41.3714343,6.41917808 43.1677272,8.21577017 43.1677272,10.410992 L43.1677272,34.3630369 C43.1677272,36.5582588 41.3714343,38.3563025 39.1745335,38.3563025 L12.5018892,38.3563025 C10.3035566,38.3563025 8.50525927,36.5582588 8.50525927,34.3630369 L8.50525927,10.410992 C8.50525927,8.21577017 10.2041921,6.41917808 12.5018892,6.41917808 L12.5018892,6.41917808 Z" id="Shape" fill="#CDCCCC" fill-rule="nonzero"></path>
                <path d="M8.50525927,11.4091632 L10.4026348,11.4091632 C12.6012538,11.4091632 14.3992648,13.2060457 14.3992648,15.4009772 L14.3992648,29.3745034 C14.3992648,31.5694349 12.6012538,33.364285 10.4026348,33.364285 L8.50525927,33.364285 C6.30835841,33.364285 4.51006105,31.5691446 4.51006105,29.3742131 L4.51006105,15.4009772 C4.51006105,13.2060457 6.30835841,11.4091632 8.50525927,11.4091632 L8.50525927,11.4091632 Z" id="Shape" fill="#CDCCCC" fill-rule="nonzero"></path>
                <path d="M10.4026348,32.3658234 C12.101854,32.3658234 13.4001789,31.070059 13.4001789,29.3742131 L13.4001789,15.4009772 C13.4001789,13.7051313 12.101854,12.4076248 10.4026348,12.4076248 L8.50525927,12.4076248 C6.80775819,12.4076248 5.50914696,13.7051313 5.50914696,15.4009772 L5.50914696,29.3745034 C5.50914696,31.0703493 6.80775819,32.3661138 8.50525927,32.3661138 L10.4026348,32.3661138 L10.4026348,32.3658234 Z M10.4026348,33.364285 L8.50525927,33.364285 C6.30835841,33.364285 4.51006105,31.5691446 4.51006105,29.3742131 L4.51006105,15.4009772 C4.51006105,13.2060457 6.30835841,11.4091632 8.50525927,11.4091632 L10.4026348,11.4091632 C12.6012538,11.4091632 14.3992648,13.2060457 14.3992648,15.4009772 L14.3992648,29.3745034 C14.3992648,31.5691446 12.6012538,33.364285 10.4026348,33.364285 L10.4026348,33.364285 L10.4026348,33.364285 Z" id="Shape" fill="#F3F3F3" fill-rule="nonzero"></path>
                <polygon id="Shape" fill="#F3F3F3" fill-rule="nonzero" points="19.1936744 38.3560122 18.1945885 38.3560122 18.1945885 6.41917808 19.1936744 6.41917808"></polygon>
                <g id="icon_tether" transform="translate(0.000000, 17.376416)">
                    <path d="M4.83543664,0.00194507198 C7.52697664,0.00194507198 9.66725833,2.14305372 9.66725833,4.83640714 C9.66725833,7.52898711 7.52697664,9.67009576 4.83543664,9.67009576 C2.14312348,9.67009576 0.00284178774,7.52898711 0.00284178774,4.83640714 C0.00284178774,2.14305372 2.21174083,0.00194507198 4.83543664,0.00194507198 L4.83543664,0.00194507198 Z" id="Shape" fill="#595B5A" fill-rule="nonzero"></path>
                    <polygon id="Shape" fill="#FFFFFF" fill-rule="nonzero" points="5.5920247 7.59800626 4.21078629 7.59800626 4.21078629 5.52554148 2.14028169 5.52554148 2.14028169 4.14376938 4.21078629 4.14376938 4.21078629 2.0713046 5.5920247 2.0713046 5.5920247 4.14376938 7.66136957 4.14376938 7.66136957 5.52554148 5.5920247 5.52554148"></polygon>
                    <g id="hover_area" fill="#D8D8D8" fill-opacity="0">
                        <rect id="Shape" x="0.00284178774" y="0.00194507198" width="9.66413804" height="9.68800011"></rect>
                    </g>
                </g>
                <g id="icon_blue" transform="translate(14.864667, 0.201050)">
                    <g id="icon" transform="translate(5.995334, 0.798950)">
                        <ellipse id="button-bg-copy" fill="#0096C3" cx="10.2768694" cy="20.5203196" rx="9.49687057" ry="9.52031963"></ellipse>
                        <polygon id="Shape" fill="#FFFFFF" points="7.81402442 23.4506906 4.59587025 20.1514683 3.5 21.2670326 7.81402442 25.6897311 17.0748997 16.1955662 15.9867469 15.0800018"></polygon>
                    </g>
                    <g id="hover_area" transform="translate(0.000000, 5.000000)" fill="#FFFFFF" fill-opacity="0">
                        <polygon id="Shape" points="2.13162821e-14 0 32.5606991 0 32.5606991 32.6410959 2.13162821e-14 32.6410959"></polygon>
                    </g>
                </g>
                <g id="icon_red" transform="translate(14.864667, 5.201050)">
                    <g id="x-icon">
                        <ellipse id="button-bg-copy" fill="#8A1538" cx="16.2803496" cy="16.3205479" rx="9.49687057" ry="9.52031963"></ellipse>
                        <polygon id="Shape" fill="#FFFFFF" points="21.9332487 11.9990029 20.8173664 10.8803653 16.3934075 15.3152475 11.9694487 10.8803653 10.8535664 11.9990029 15.2775252 16.4338851 10.8535664 20.8687673 11.9694487 21.9874049 16.3934075 17.5525226 20.8173664 21.9874049 21.9332487 20.8687673 17.5092898 16.4338851"></polygon>
                        <polygon id="Shape-Copy" points="0 0 32.5606991 0 32.5606991 32.6410959 0 32.6410959"></polygon>
                    </g>
                </g>
                <g id="icon_orange" transform="translate(14.156826, 5.201050)">
                    <g id="icon" transform="translate(6.843174, 6.798950)">
                        <ellipse id="button-bg-copy" fill="#009688" cx="10.1468645" cy="9.52031963" rx="9.49687057" ry="9.52031963"></ellipse>
                        <polygon id="Shape" fill="#FFFFFF" points="7.30402991 12.4506906 4.08587574 9.15146825 2.99000549 10.2670326 7.30402991 14.6897311 16.5649052 5.19556621 15.4767524 4.08000183"></polygon>
                    </g>
                    <g id="icon_warning" transform="translate(14.190563, 0.360046)">
                        <g id="icon" transform="translate(0.652611, 0.438904)">
                            <ellipse id="button-bg-copy" fill="#F6BE00" cx="7.78664396" cy="8.01499748" rx="7.43663785" ry="7.45499992"></ellipse>
                            <path d="M8.30219484,12.3640752 L7.24794341,12.3640752 L7.24794341,10.8200624 L8.30219484,10.8200624 L8.30219484,12.3640752 L8.30219484,12.3640752 Z M8.30219484,8.50404323 L7.24794341,8.50404323 L7.24794341,3.09999847 L8.30219484,3.09999847 L8.30219484,8.50404323 L8.30219484,8.50404323 Z" id="Shape" fill="#FFFFFF"></path>
                        </g>
                    </g>
                    <g id="hover_area" fill="#FFFFFF" fill-opacity="0">
                        <polygon id="Shape" points="0.325895906 0 32.9154865 0 32.9154865 32.6410959 0.325895906 32.6410959"></polygon>
                    </g>
                </g>
                <g id="icon_green" transform="translate(14.864667, 5.201050)">
                    <g id="icon" transform="translate(6.135333, 6.798950)">
                        <ellipse id="button-bg-copy" fill="#009688" cx="10.1468645" cy="9.52031963" rx="9.49687057" ry="9.52031963"></ellipse>
                        <polygon id="Shape" fill="#FFFFFF" points="7.30402991 12.4506906 4.08587574 9.15146825 2.99000549 10.2670326 7.30402991 14.6897311 16.5649052 5.19556621 15.4767524 4.08000183"></polygon>
                    </g>
                    <g id="hover_area" fill="#FFFFFF" fill-opacity="0">
                        <polygon id="Shape" points="2.13162821e-14 0 32.5606991 0 32.5606991 32.6410959 2.13162821e-14 32.6410959"></polygon>
                    </g>
                </g>
            </g>
            <g id="seat_5" transform="translate(52.000000, 19.000000)">
                <path d="M12.5018892,6.41917808 L39.1745335,6.41917808 C41.3714343,6.41917808 43.1677272,8.21577017 43.1677272,10.410992 L43.1677272,34.3630369 C43.1677272,36.5582588 41.3714343,38.3563025 39.1745335,38.3563025 L12.5018892,38.3563025 C10.3035566,38.3563025 8.50525927,36.5582588 8.50525927,34.3630369 L8.50525927,10.410992 C8.50525927,8.21577017 10.2041921,6.41917808 12.5018892,6.41917808 L12.5018892,6.41917808 Z" id="Shape" fill="#CDCCCC" fill-rule="nonzero"></path>
                <path d="M8.50525927,11.4091632 L10.4026348,11.4091632 C12.6012538,11.4091632 14.3992648,13.2060457 14.3992648,15.4009772 L14.3992648,29.3745034 C14.3992648,31.5694349 12.6012538,33.364285 10.4026348,33.364285 L8.50525927,33.364285 C6.30835841,33.364285 4.51006105,31.5691446 4.51006105,29.3742131 L4.51006105,15.4009772 C4.51006105,13.2060457 6.30835841,11.4091632 8.50525927,11.4091632 L8.50525927,11.4091632 Z" id="Shape" fill="#CDCCCC" fill-rule="nonzero"></path>
                <path d="M10.4026348,32.3658234 C12.101854,32.3658234 13.4001789,31.070059 13.4001789,29.3742131 L13.4001789,15.4009772 C13.4001789,13.7051313 12.101854,12.4076248 10.4026348,12.4076248 L8.50525927,12.4076248 C6.80775819,12.4076248 5.50914696,13.7051313 5.50914696,15.4009772 L5.50914696,29.3745034 C5.50914696,31.0703493 6.80775819,32.3661138 8.50525927,32.3661138 L10.4026348,32.3661138 L10.4026348,32.3658234 Z M10.4026348,33.364285 L8.50525927,33.364285 C6.30835841,33.364285 4.51006105,31.5691446 4.51006105,29.3742131 L4.51006105,15.4009772 C4.51006105,13.2060457 6.30835841,11.4091632 8.50525927,11.4091632 L10.4026348,11.4091632 C12.6012538,11.4091632 14.3992648,13.2060457 14.3992648,15.4009772 L14.3992648,29.3745034 C14.3992648,31.5691446 12.6012538,33.364285 10.4026348,33.364285 L10.4026348,33.364285 L10.4026348,33.364285 Z" id="Shape" fill="#F3F3F3" fill-rule="nonzero"></path>
                <polygon id="Shape" fill="#F3F3F3" fill-rule="nonzero" points="19.1936744 38.3560122 18.1945885 38.3560122 18.1945885 6.41917808 19.1936744 6.41917808"></polygon>
                <g id="icon_tether" transform="translate(0.000000, 17.376416)">
                    <path d="M4.83543664,0.00194507198 C7.52697664,0.00194507198 9.66725833,2.14305372 9.66725833,4.83640714 C9.66725833,7.52898711 7.52697664,9.67009576 4.83543664,9.67009576 C2.14312348,9.67009576 0.00284178774,7.52898711 0.00284178774,4.83640714 C0.00284178774,2.14305372 2.21174083,0.00194507198 4.83543664,0.00194507198 L4.83543664,0.00194507198 Z" id="Shape" fill="#595B5A" fill-rule="nonzero"></path>
                    <polygon id="Shape" fill="#FFFFFF" fill-rule="nonzero" points="5.5920247 7.59800626 4.21078629 7.59800626 4.21078629 5.52554148 2.14028169 5.52554148 2.14028169 4.14376938 4.21078629 4.14376938 4.21078629 2.0713046 5.5920247 2.0713046 5.5920247 4.14376938 7.66136957 4.14376938 7.66136957 5.52554148 5.5920247 5.52554148"></polygon>
                    <g id="hover_area" fill="#D8D8D8" fill-opacity="0">
                        <rect id="Shape" x="0.00284178774" y="0.00194507198" width="9.66413804" height="9.68800011"></rect>
                    </g>
                </g>
                <g id="icon_blue" transform="translate(14.864667, 0.201050)">
                    <g id="icon" transform="translate(5.995334, 0.798950)">
                        <ellipse id="button-bg-copy" fill="#0096C3" cx="10.2768694" cy="20.5203196" rx="9.49687057" ry="9.52031963"></ellipse>
                        <polygon id="Shape" fill="#FFFFFF" points="7.81402442 23.4506906 4.59587025 20.1514683 3.5 21.2670326 7.81402442 25.6897311 17.0748997 16.1955662 15.9867469 15.0800018"></polygon>
                    </g>
                    <g id="hover_area" transform="translate(0.000000, 5.000000)" fill="#FFFFFF" fill-opacity="0">
                        <polygon id="Shape" points="2.13162821e-14 0 32.5606991 0 32.5606991 32.6410959 2.13162821e-14 32.6410959"></polygon>
                    </g>
                </g>
                <g id="icon_red" transform="translate(14.864667, 5.201050)">
                    <g id="x-icon">
                        <ellipse id="button-bg-copy" fill="#8A1538" cx="16.2803496" cy="16.3205479" rx="9.49687057" ry="9.52031963"></ellipse>
                        <polygon id="Shape" fill="#FFFFFF" points="21.9332487 11.9990029 20.8173664 10.8803653 16.3934075 15.3152475 11.9694487 10.8803653 10.8535664 11.9990029 15.2775252 16.4338851 10.8535664 20.8687673 11.9694487 21.9874049 16.3934075 17.5525226 20.8173664 21.9874049 21.9332487 20.8687673 17.5092898 16.4338851"></polygon>
                        <polygon id="Shape-Copy" points="0 0 32.5606991 0 32.5606991 32.6410959 0 32.6410959"></polygon>
                    </g>
                </g>
                <g id="icon_orange" transform="translate(14.156826, 5.201050)">
                    <g id="icon" transform="translate(6.843174, 6.798950)">
                        <ellipse id="button-bg-copy" fill="#009688" cx="10.1468645" cy="9.52031963" rx="9.49687057" ry="9.52031963"></ellipse>
                        <polygon id="Shape" fill="#FFFFFF" points="7.30402991 12.4506906 4.08587574 9.15146825 2.99000549 10.2670326 7.30402991 14.6897311 16.5649052 5.19556621 15.4767524 4.08000183"></polygon>
                    </g>
                    <g id="icon_warning" transform="translate(14.190563, 0.360046)">
                        <g id="icon" transform="translate(0.652611, 0.438904)">
                            <ellipse id="button-bg-copy" fill="#F6BE00" cx="7.78664396" cy="8.01499748" rx="7.43663785" ry="7.45499992"></ellipse>
                            <path d="M8.30219484,12.3640752 L7.24794341,12.3640752 L7.24794341,10.8200624 L8.30219484,10.8200624 L8.30219484,12.3640752 L8.30219484,12.3640752 Z M8.30219484,8.50404323 L7.24794341,8.50404323 L7.24794341,3.09999847 L8.30219484,3.09999847 L8.30219484,8.50404323 L8.30219484,8.50404323 Z" id="Shape" fill="#FFFFFF"></path>
                        </g>
                    </g>
                    <g id="hover_area" fill="#FFFFFF" fill-opacity="0">
                        <polygon id="Shape" points="0.325895906 0 32.9154865 0 32.9154865 32.6410959 0.325895906 32.6410959"></polygon>
                    </g>
                </g>
                <g id="icon_green" transform="translate(14.864667, 5.201050)">
                    <g id="icon" transform="translate(6.135333, 6.798950)">
                        <ellipse id="button-bg-copy" fill="#009688" cx="10.1468645" cy="9.52031963" rx="9.49687057" ry="9.52031963"></ellipse>
                        <polygon id="Shape" fill="#FFFFFF" points="7.30402991 12.4506906 4.08587574 9.15146825 2.99000549 10.2670326 7.30402991 14.6897311 16.5649052 5.19556621 15.4767524 4.08000183"></polygon>
                    </g>
                    <g id="hover_area" fill="#FFFFFF" fill-opacity="0">
                        <polygon id="Shape" points="2.13162821e-14 0 32.5606991 0 32.5606991 32.6410959 2.13162821e-14 32.6410959"></polygon>
                    </g>
                </g>
            </g>
            <g id="seat_4" transform="translate(103.000000, 90.000000)">
                <path d="M12.5018892,6.41917808 L39.1745335,6.41917808 C41.3714343,6.41917808 43.1677272,8.21577017 43.1677272,10.410992 L43.1677272,34.3630369 C43.1677272,36.5582588 41.3714343,38.3563025 39.1745335,38.3563025 L12.5018892,38.3563025 C10.3035566,38.3563025 8.50525927,36.5582588 8.50525927,34.3630369 L8.50525927,10.410992 C8.50525927,8.21577017 10.2041921,6.41917808 12.5018892,6.41917808 L12.5018892,6.41917808 Z" id="Shape" fill="#CDCCCC" fill-rule="nonzero"></path>
                <path d="M8.50525927,11.4091632 L10.4026348,11.4091632 C12.6012538,11.4091632 14.3992648,13.2060457 14.3992648,15.4009772 L14.3992648,29.3745034 C14.3992648,31.5694349 12.6012538,33.364285 10.4026348,33.364285 L8.50525927,33.364285 C6.30835841,33.364285 4.51006105,31.5691446 4.51006105,29.3742131 L4.51006105,15.4009772 C4.51006105,13.2060457 6.30835841,11.4091632 8.50525927,11.4091632 L8.50525927,11.4091632 Z" id="Shape" fill="#CDCCCC" fill-rule="nonzero"></path>
                <path d="M10.4026348,32.3658234 C12.101854,32.3658234 13.4001789,31.070059 13.4001789,29.3742131 L13.4001789,15.4009772 C13.4001789,13.7051313 12.101854,12.4076248 10.4026348,12.4076248 L8.50525927,12.4076248 C6.80775819,12.4076248 5.50914696,13.7051313 5.50914696,15.4009772 L5.50914696,29.3745034 C5.50914696,31.0703493 6.80775819,32.3661138 8.50525927,32.3661138 L10.4026348,32.3661138 L10.4026348,32.3658234 Z M10.4026348,33.364285 L8.50525927,33.364285 C6.30835841,33.364285 4.51006105,31.5691446 4.51006105,29.3742131 L4.51006105,15.4009772 C4.51006105,13.2060457 6.30835841,11.4091632 8.50525927,11.4091632 L10.4026348,11.4091632 C12.6012538,11.4091632 14.3992648,13.2060457 14.3992648,15.4009772 L14.3992648,29.3745034 C14.3992648,31.5691446 12.6012538,33.364285 10.4026348,33.364285 L10.4026348,33.364285 L10.4026348,33.364285 Z" id="Shape" fill="#F3F3F3" fill-rule="nonzero"></path>
                <polygon id="Shape" fill="#F3F3F3" fill-rule="nonzero" points="19.1936744 38.3560122 18.1945885 38.3560122 18.1945885 6.41917808 19.1936744 6.41917808"></polygon>
                <g id="icon_tether" transform="translate(0.000000, 17.376416)">
                    <path d="M4.83543664,0.00194507198 C7.52697664,0.00194507198 9.66725833,2.14305372 9.66725833,4.83640714 C9.66725833,7.52898711 7.52697664,9.67009576 4.83543664,9.67009576 C2.14312348,9.67009576 0.00284178774,7.52898711 0.00284178774,4.83640714 C0.00284178774,2.14305372 2.21174083,0.00194507198 4.83543664,0.00194507198 L4.83543664,0.00194507198 Z" id="Shape" fill="#595B5A" fill-rule="nonzero"></path>
                    <polygon id="Shape" fill="#FFFFFF" fill-rule="nonzero" points="5.5920247 7.59800626 4.21078629 7.59800626 4.21078629 5.52554148 2.14028169 5.52554148 2.14028169 4.14376938 4.21078629 4.14376938 4.21078629 2.0713046 5.5920247 2.0713046 5.5920247 4.14376938 7.66136957 4.14376938 7.66136957 5.52554148 5.5920247 5.52554148"></polygon>
                    <g id="hover_area" fill="#D8D8D8" fill-opacity="0">
                        <rect id="Shape" x="0.00284178774" y="0.00194507198" width="9.66413804" height="9.68800011"></rect>
                    </g>
                </g>
                <g id="icon_blue" transform="translate(14.864667, 0.201050)">
                    <g id="icon" transform="translate(5.995334, 0.798950)">
                        <ellipse id="button-bg-copy" fill="#0096C3" cx="10.2768694" cy="20.5203196" rx="9.49687057" ry="9.52031963"></ellipse>
                        <polygon id="Shape" fill="#FFFFFF" points="7.81402442 23.4506906 4.59587025 20.1514683 3.5 21.2670326 7.81402442 25.6897311 17.0748997 16.1955662 15.9867469 15.0800018"></polygon>
                    </g>
                    <g id="hover_area" transform="translate(0.000000, 5.000000)" fill="#FFFFFF" fill-opacity="0">
                        <polygon id="Shape" points="2.13162821e-14 0 32.5606991 0 32.5606991 32.6410959 2.13162821e-14 32.6410959"></polygon>
                    </g>
                </g>
                <g id="icon_red" transform="translate(14.864667, 5.201050)">
                    <g id="x-icon">
                        <ellipse id="button-bg-copy" fill="#8A1538" cx="16.2803496" cy="16.3205479" rx="9.49687057" ry="9.52031963"></ellipse>
                        <polygon id="Shape" fill="#FFFFFF" points="21.9332487 11.9990029 20.8173664 10.8803653 16.3934075 15.3152475 11.9694487 10.8803653 10.8535664 11.9990029 15.2775252 16.4338851 10.8535664 20.8687673 11.9694487 21.9874049 16.3934075 17.5525226 20.8173664 21.9874049 21.9332487 20.8687673 17.5092898 16.4338851"></polygon>
                        <polygon id="Shape-Copy" points="0 0 32.5606991 0 32.5606991 32.6410959 0 32.6410959"></polygon>
                    </g>
                </g>
                <g id="icon_orange" transform="translate(14.156826, 5.201050)">
                    <g id="icon" transform="translate(6.843174, 6.798950)">
                        <ellipse id="button-bg-copy" fill="#009688" cx="10.1468645" cy="9.52031963" rx="9.49687057" ry="9.52031963"></ellipse>
                        <polygon id="Shape" fill="#FFFFFF" points="7.30402991 12.4506906 4.08587574 9.15146825 2.99000549 10.2670326 7.30402991 14.6897311 16.5649052 5.19556621 15.4767524 4.08000183"></polygon>
                    </g>
                    <g id="icon_warning" transform="translate(14.190563, 0.360046)">
                        <g id="icon" transform="translate(0.652611, 0.438904)">
                            <ellipse id="button-bg-copy" fill="#F6BE00" cx="7.78664396" cy="8.01499748" rx="7.43663785" ry="7.45499992"></ellipse>
                            <path d="M8.30219484,12.3640752 L7.24794341,12.3640752 L7.24794341,10.8200624 L8.30219484,10.8200624 L8.30219484,12.3640752 L8.30219484,12.3640752 Z M8.30219484,8.50404323 L7.24794341,8.50404323 L7.24794341,3.09999847 L8.30219484,3.09999847 L8.30219484,8.50404323 L8.30219484,8.50404323 Z" id="Shape" fill="#FFFFFF"></path>
                        </g>
                    </g>
                    <g id="hover_area" fill="#FFFFFF" fill-opacity="0">
                        <polygon id="Shape" points="0.325895906 0 32.9154865 0 32.9154865 32.6410959 0.325895906 32.6410959"></polygon>
                    </g>
                </g>
                <g id="icon_green" transform="translate(14.864667, 5.201050)">
                    <g id="icon" transform="translate(6.135333, 6.798950)">
                        <ellipse id="button-bg-copy" fill="#009688" cx="10.1468645" cy="9.52031963" rx="9.49687057" ry="9.52031963"></ellipse>
                        <polygon id="Shape" fill="#FFFFFF" points="7.30402991 12.4506906 4.08587574 9.15146825 2.99000549 10.2670326 7.30402991 14.6897311 16.5649052 5.19556621 15.4767524 4.08000183"></polygon>
                    </g>
                    <g id="hover_area" fill="#FFFFFF" fill-opacity="0">
                        <polygon id="Shape" points="2.13162821e-14 0 32.5606991 0 32.5606991 32.6410959 2.13162821e-14 32.6410959"></polygon>
                    </g>
                </g>
            </g>
            <g id="seat_3" transform="translate(103.000000, 55.000000)">
                <path d="M12.5018892,6.41917808 L39.1745335,6.41917808 C41.3714343,6.41917808 43.1677272,8.21577017 43.1677272,10.410992 L43.1677272,34.3630369 C43.1677272,36.5582588 41.3714343,38.3563025 39.1745335,38.3563025 L12.5018892,38.3563025 C10.3035566,38.3563025 8.50525927,36.5582588 8.50525927,34.3630369 L8.50525927,10.410992 C8.50525927,8.21577017 10.2041921,6.41917808 12.5018892,6.41917808 L12.5018892,6.41917808 Z" id="Shape" fill="#CDCCCC" fill-rule="nonzero"></path>
                <path d="M8.50525927,11.4091632 L10.4026348,11.4091632 C12.6012538,11.4091632 14.3992648,13.2060457 14.3992648,15.4009772 L14.3992648,29.3745034 C14.3992648,31.5694349 12.6012538,33.364285 10.4026348,33.364285 L8.50525927,33.364285 C6.30835841,33.364285 4.51006105,31.5691446 4.51006105,29.3742131 L4.51006105,15.4009772 C4.51006105,13.2060457 6.30835841,11.4091632 8.50525927,11.4091632 L8.50525927,11.4091632 Z" id="Shape" fill="#CDCCCC" fill-rule="nonzero"></path>
                <path d="M10.4026348,32.3658234 C12.101854,32.3658234 13.4001789,31.070059 13.4001789,29.3742131 L13.4001789,15.4009772 C13.4001789,13.7051313 12.101854,12.4076248 10.4026348,12.4076248 L8.50525927,12.4076248 C6.80775819,12.4076248 5.50914696,13.7051313 5.50914696,15.4009772 L5.50914696,29.3745034 C5.50914696,31.0703493 6.80775819,32.3661138 8.50525927,32.3661138 L10.4026348,32.3661138 L10.4026348,32.3658234 Z M10.4026348,33.364285 L8.50525927,33.364285 C6.30835841,33.364285 4.51006105,31.5691446 4.51006105,29.3742131 L4.51006105,15.4009772 C4.51006105,13.2060457 6.30835841,11.4091632 8.50525927,11.4091632 L10.4026348,11.4091632 C12.6012538,11.4091632 14.3992648,13.2060457 14.3992648,15.4009772 L14.3992648,29.3745034 C14.3992648,31.5691446 12.6012538,33.364285 10.4026348,33.364285 L10.4026348,33.364285 L10.4026348,33.364285 Z" id="Shape" fill="#F3F3F3" fill-rule="nonzero"></path>
                <polygon id="Shape" fill="#F3F3F3" fill-rule="nonzero" points="19.1936744 38.3560122 18.1945885 38.3560122 18.1945885 6.41917808 19.1936744 6.41917808"></polygon>
                <g id="icon_tether" transform="translate(0.000000, 17.376416)">
                    <path d="M4.83543664,0.00194507198 C7.52697664,0.00194507198 9.66725833,2.14305372 9.66725833,4.83640714 C9.66725833,7.52898711 7.52697664,9.67009576 4.83543664,9.67009576 C2.14312348,9.67009576 0.00284178774,7.52898711 0.00284178774,4.83640714 C0.00284178774,2.14305372 2.21174083,0.00194507198 4.83543664,0.00194507198 L4.83543664,0.00194507198 Z" id="Shape" fill="#595B5A" fill-rule="nonzero"></path>
                    <polygon id="Shape" fill="#FFFFFF" fill-rule="nonzero" points="5.5920247 7.59800626 4.21078629 7.59800626 4.21078629 5.52554148 2.14028169 5.52554148 2.14028169 4.14376938 4.21078629 4.14376938 4.21078629 2.0713046 5.5920247 2.0713046 5.5920247 4.14376938 7.66136957 4.14376938 7.66136957 5.52554148 5.5920247 5.52554148"></polygon>
                    <g id="hover_area" fill="#D8D8D8" fill-opacity="0">
                        <rect id="Shape" x="0.00284178774" y="0.00194507198" width="9.66413804" height="9.68800011"></rect>
                    </g>
                </g>
                <g id="icon_blue" transform="translate(14.864667, 0.201050)">
                    <g id="icon" transform="translate(5.995334, 0.798950)">
                        <ellipse id="button-bg-copy" fill="#0096C3" cx="10.2768694" cy="20.5203196" rx="9.49687057" ry="9.52031963"></ellipse>
                        <polygon id="Shape" fill="#FFFFFF" points="7.81402442 23.4506906 4.59587025 20.1514683 3.5 21.2670326 7.81402442 25.6897311 17.0748997 16.1955662 15.9867469 15.0800018"></polygon>
                    </g>
                    <g id="hover_area" transform="translate(0.000000, 5.000000)" fill="#FFFFFF" fill-opacity="0">
                        <polygon id="Shape" points="2.13162821e-14 0 32.5606991 0 32.5606991 32.6410959 2.13162821e-14 32.6410959"></polygon>
                    </g>
                </g>
                <g id="icon_red" transform="translate(14.864667, 5.201050)">
                    <g id="x-icon">
                        <ellipse id="button-bg-copy" fill="#8A1538" cx="16.2803496" cy="16.3205479" rx="9.49687057" ry="9.52031963"></ellipse>
                        <polygon id="Shape" fill="#FFFFFF" points="21.9332487 11.9990029 20.8173664 10.8803653 16.3934075 15.3152475 11.9694487 10.8803653 10.8535664 11.9990029 15.2775252 16.4338851 10.8535664 20.8687673 11.9694487 21.9874049 16.3934075 17.5525226 20.8173664 21.9874049 21.9332487 20.8687673 17.5092898 16.4338851"></polygon>
                        <polygon id="Shape-Copy" points="0 0 32.5606991 0 32.5606991 32.6410959 0 32.6410959"></polygon>
                    </g>
                </g>
                <g id="icon_orange" transform="translate(14.156826, 5.201050)">
                    <g id="icon" transform="translate(6.843174, 6.798950)">
                        <ellipse id="button-bg-copy" fill="#009688" cx="10.1468645" cy="9.52031963" rx="9.49687057" ry="9.52031963"></ellipse>
                        <polygon id="Shape" fill="#FFFFFF" points="7.30402991 12.4506906 4.08587574 9.15146825 2.99000549 10.2670326 7.30402991 14.6897311 16.5649052 5.19556621 15.4767524 4.08000183"></polygon>
                    </g>
                    <g id="icon_warning" transform="translate(14.190563, 0.360046)">
                        <g id="icon" transform="translate(0.652611, 0.438904)">
                            <ellipse id="button-bg-copy" fill="#F6BE00" cx="7.78664396" cy="8.01499748" rx="7.43663785" ry="7.45499992"></ellipse>
                            <path d="M8.30219484,12.3640752 L7.24794341,12.3640752 L7.24794341,10.8200624 L8.30219484,10.8200624 L8.30219484,12.3640752 L8.30219484,12.3640752 Z M8.30219484,8.50404323 L7.24794341,8.50404323 L7.24794341,3.09999847 L8.30219484,3.09999847 L8.30219484,8.50404323 L8.30219484,8.50404323 Z" id="Shape" fill="#FFFFFF"></path>
                        </g>
                    </g>
                    <g id="hover_area" fill="#FFFFFF" fill-opacity="0">
                        <polygon id="Shape" points="0.325895906 0 32.9154865 0 32.9154865 32.6410959 0.325895906 32.6410959"></polygon>
                    </g>
                </g>
                <g id="icon_green" transform="translate(14.864667, 5.201050)">
                    <g id="icon" transform="translate(6.135333, 6.798950)">
                        <ellipse id="button-bg-copy" fill="#009688" cx="10.1468645" cy="9.52031963" rx="9.49687057" ry="9.52031963"></ellipse>
                        <polygon id="Shape" fill="#FFFFFF" points="7.30402991 12.4506906 4.08587574 9.15146825 2.99000549 10.2670326 7.30402991 14.6897311 16.5649052 5.19556621 15.4767524 4.08000183"></polygon>
                    </g>
                    <g id="hover_area" fill="#FFFFFF" fill-opacity="0">
                        <polygon id="Shape" points="2.13162821e-14 0 32.5606991 0 32.5606991 32.6410959 2.13162821e-14 32.6410959"></polygon>
                    </g>
                </g>
            </g>
            <g id="seat_2" transform="translate(103.000000, 19.000000)">
                <path d="M12.5018892,6.41917808 L39.1745335,6.41917808 C41.3714343,6.41917808 43.1677272,8.21577017 43.1677272,10.410992 L43.1677272,34.3630369 C43.1677272,36.5582588 41.3714343,38.3563025 39.1745335,38.3563025 L12.5018892,38.3563025 C10.3035566,38.3563025 8.50525927,36.5582588 8.50525927,34.3630369 L8.50525927,10.410992 C8.50525927,8.21577017 10.2041921,6.41917808 12.5018892,6.41917808 L12.5018892,6.41917808 Z" id="Shape" fill="#CDCCCC" fill-rule="nonzero"></path>
                <path d="M8.50525927,11.4091632 L10.4026348,11.4091632 C12.6012538,11.4091632 14.3992648,13.2060457 14.3992648,15.4009772 L14.3992648,29.3745034 C14.3992648,31.5694349 12.6012538,33.364285 10.4026348,33.364285 L8.50525927,33.364285 C6.30835841,33.364285 4.51006105,31.5691446 4.51006105,29.3742131 L4.51006105,15.4009772 C4.51006105,13.2060457 6.30835841,11.4091632 8.50525927,11.4091632 L8.50525927,11.4091632 Z" id="Shape" fill="#CDCCCC" fill-rule="nonzero"></path>
                <path d="M10.4026348,32.3658234 C12.101854,32.3658234 13.4001789,31.070059 13.4001789,29.3742131 L13.4001789,15.4009772 C13.4001789,13.7051313 12.101854,12.4076248 10.4026348,12.4076248 L8.50525927,12.4076248 C6.80775819,12.4076248 5.50914696,13.7051313 5.50914696,15.4009772 L5.50914696,29.3745034 C5.50914696,31.0703493 6.80775819,32.3661138 8.50525927,32.3661138 L10.4026348,32.3661138 L10.4026348,32.3658234 Z M10.4026348,33.364285 L8.50525927,33.364285 C6.30835841,33.364285 4.51006105,31.5691446 4.51006105,29.3742131 L4.51006105,15.4009772 C4.51006105,13.2060457 6.30835841,11.4091632 8.50525927,11.4091632 L10.4026348,11.4091632 C12.6012538,11.4091632 14.3992648,13.2060457 14.3992648,15.4009772 L14.3992648,29.3745034 C14.3992648,31.5691446 12.6012538,33.364285 10.4026348,33.364285 L10.4026348,33.364285 L10.4026348,33.364285 Z" id="Shape" fill="#F3F3F3" fill-rule="nonzero"></path>
                <polygon id="Shape" fill="#F3F3F3" fill-rule="nonzero" points="19.1936744 38.3560122 18.1945885 38.3560122 18.1945885 6.41917808 19.1936744 6.41917808"></polygon>
                <g id="icon_tether" transform="translate(0.000000, 17.376416)">
                    <path d="M4.83543664,0.00194507198 C7.52697664,0.00194507198 9.66725833,2.14305372 9.66725833,4.83640714 C9.66725833,7.52898711 7.52697664,9.67009576 4.83543664,9.67009576 C2.14312348,9.67009576 0.00284178774,7.52898711 0.00284178774,4.83640714 C0.00284178774,2.14305372 2.21174083,0.00194507198 4.83543664,0.00194507198 L4.83543664,0.00194507198 Z" id="Shape" fill="#595B5A" fill-rule="nonzero"></path>
                    <polygon id="Shape" fill="#FFFFFF" fill-rule="nonzero" points="5.5920247 7.59800626 4.21078629 7.59800626 4.21078629 5.52554148 2.14028169 5.52554148 2.14028169 4.14376938 4.21078629 4.14376938 4.21078629 2.0713046 5.5920247 2.0713046 5.5920247 4.14376938 7.66136957 4.14376938 7.66136957 5.52554148 5.5920247 5.52554148"></polygon>
                    <g id="hover_area" fill="#D8D8D8" fill-opacity="0">
                        <rect id="Shape" x="0.00284178774" y="0.00194507198" width="9.66413804" height="9.68800011"></rect>
                    </g>
                </g>
                <g id="icon_blue" transform="translate(14.864667, 0.201050)">
                    <g id="icon" transform="translate(5.995334, 0.798950)">
                        <ellipse id="button-bg-copy" fill="#0096C3" cx="10.2768694" cy="20.5203196" rx="9.49687057" ry="9.52031963"></ellipse>
                        <polygon id="Shape" fill="#FFFFFF" points="7.81402442 23.4506906 4.59587025 20.1514683 3.5 21.2670326 7.81402442 25.6897311 17.0748997 16.1955662 15.9867469 15.0800018"></polygon>
                    </g>
                    <g id="hover_area" transform="translate(0.000000, 5.000000)" fill="#FFFFFF" fill-opacity="0">
                        <polygon id="Shape" points="2.13162821e-14 0 32.5606991 0 32.5606991 32.6410959 2.13162821e-14 32.6410959"></polygon>
                    </g>
                </g>
                <g id="icon_red" transform="translate(14.864667, 5.201050)">
                    <g id="x-icon">
                        <ellipse id="button-bg-copy" fill="#8A1538" cx="16.2803496" cy="16.3205479" rx="9.49687057" ry="9.52031963"></ellipse>
                        <polygon id="Shape" fill="#FFFFFF" points="21.9332487 11.9990029 20.8173664 10.8803653 16.3934075 15.3152475 11.9694487 10.8803653 10.8535664 11.9990029 15.2775252 16.4338851 10.8535664 20.8687673 11.9694487 21.9874049 16.3934075 17.5525226 20.8173664 21.9874049 21.9332487 20.8687673 17.5092898 16.4338851"></polygon>
                        <polygon id="Shape-Copy" points="0 0 32.5606991 0 32.5606991 32.6410959 0 32.6410959"></polygon>
                    </g>
                </g>
                <g id="icon_orange" transform="translate(14.156826, 5.201050)">
                    <g id="icon" transform="translate(6.843174, 6.798950)">
                        <ellipse id="button-bg-copy" fill="#009688" cx="10.1468645" cy="9.52031963" rx="9.49687057" ry="9.52031963"></ellipse>
                        <polygon id="Shape" fill="#FFFFFF" points="7.30402991 12.4506906 4.08587574 9.15146825 2.99000549 10.2670326 7.30402991 14.6897311 16.5649052 5.19556621 15.4767524 4.08000183"></polygon>
                    </g>
                    <g id="icon_warning" transform="translate(14.190563, 0.360046)">
                        <g id="icon" transform="translate(0.652611, 0.438904)">
                            <ellipse id="button-bg-copy" fill="#F6BE00" cx="7.78664396" cy="8.01499748" rx="7.43663785" ry="7.45499992"></ellipse>
                            <path d="M8.30219484,12.3640752 L7.24794341,12.3640752 L7.24794341,10.8200624 L8.30219484,10.8200624 L8.30219484,12.3640752 L8.30219484,12.3640752 Z M8.30219484,8.50404323 L7.24794341,8.50404323 L7.24794341,3.09999847 L8.30219484,3.09999847 L8.30219484,8.50404323 L8.30219484,8.50404323 Z" id="Shape" fill="#FFFFFF"></path>
                        </g>
                    </g>
                    <g id="hover_area" fill="#FFFFFF" fill-opacity="0">
                        <polygon id="Shape" points="0.325895906 0 32.9154865 0 32.9154865 32.6410959 0.325895906 32.6410959"></polygon>
                    </g>
                </g>
                <g id="icon_green" transform="translate(14.864667, 5.201050)">
                    <g id="icon" transform="translate(6.135333, 6.798950)">
                        <ellipse id="button-bg-copy" fill="#009688" cx="10.1468645" cy="9.52031963" rx="9.49687057" ry="9.52031963"></ellipse>
                        <polygon id="Shape" fill="#FFFFFF" points="7.30402991 12.4506906 4.08587574 9.15146825 2.99000549 10.2670326 7.30402991 14.6897311 16.5649052 5.19556621 15.4767524 4.08000183"></polygon>
                    </g>
                    <g id="hover_area" fill="#FFFFFF" fill-opacity="0">
                        <polygon id="Shape" points="2.13162821e-14 0 32.5606991 0 32.5606991 32.6410959 2.13162821e-14 32.6410959"></polygon>
                    </g>
                </g>
            </g>
            <g id="front_row_bench" transform="translate(155.000000, 24.000000)">
                <g id="seat_1" transform="translate(0.000000, 66.000000)">
                    <path d="M12.5018892,6.41917808 L39.1745335,6.41917808 C41.3714343,6.41917808 43.1677272,8.21577017 43.1677272,10.410992 L43.1677272,34.3630369 C43.1677272,36.5582588 41.3714343,38.3563025 39.1745335,38.3563025 L12.5018892,38.3563025 C10.3035566,38.3563025 8.50525927,36.5582588 8.50525927,34.3630369 L8.50525927,10.410992 C8.50525927,8.21577017 10.2041921,6.41917808 12.5018892,6.41917808 L12.5018892,6.41917808 Z" id="Shape" fill="#CDCCCC" fill-rule="nonzero"></path>
                    <path d="M8.50525927,11.4091632 L10.4026348,11.4091632 C12.6012538,11.4091632 14.3992648,13.2060457 14.3992648,15.4009772 L14.3992648,29.3745034 C14.3992648,31.5694349 12.6012538,33.364285 10.4026348,33.364285 L8.50525927,33.364285 C6.30835841,33.364285 4.51006105,31.5691446 4.51006105,29.3742131 L4.51006105,15.4009772 C4.51006105,13.2060457 6.30835841,11.4091632 8.50525927,11.4091632 L8.50525927,11.4091632 Z" id="Shape" fill="#CDCCCC" fill-rule="nonzero"></path>
                    <path d="M10.4026348,32.3658234 C12.101854,32.3658234 13.4001789,31.070059 13.4001789,29.3742131 L13.4001789,15.4009772 C13.4001789,13.7051313 12.101854,12.4076248 10.4026348,12.4076248 L8.50525927,12.4076248 C6.80775819,12.4076248 5.50914696,13.7051313 5.50914696,15.4009772 L5.50914696,29.3745034 C5.50914696,31.0703493 6.80775819,32.3661138 8.50525927,32.3661138 L10.4026348,32.3661138 L10.4026348,32.3658234 Z M10.4026348,33.364285 L8.50525927,33.364285 C6.30835841,33.364285 4.51006105,31.5691446 4.51006105,29.3742131 L4.51006105,15.4009772 C4.51006105,13.2060457 6.30835841,11.4091632 8.50525927,11.4091632 L10.4026348,11.4091632 C12.6012538,11.4091632 14.3992648,13.2060457 14.3992648,15.4009772 L14.3992648,29.3745034 C14.3992648,31.5691446 12.6012538,33.364285 10.4026348,33.364285 L10.4026348,33.364285 L10.4026348,33.364285 Z" id="Shape" fill="#F3F3F3" fill-rule="nonzero"></path>
                    <polygon id="Shape" fill="#F3F3F3" fill-rule="nonzero" points="19.1936744 38.3560122 18.1945885 38.3560122 18.1945885 6.41917808 19.1936744 6.41917808"></polygon>
                    <g id="icon_tether" transform="translate(0.000000, 17.376416)">
                        <path d="M4.83543664,0.00194507198 C7.52697664,0.00194507198 9.66725833,2.14305372 9.66725833,4.83640714 C9.66725833,7.52898711 7.52697664,9.67009576 4.83543664,9.67009576 C2.14312348,9.67009576 0.00284178774,7.52898711 0.00284178774,4.83640714 C0.00284178774,2.14305372 2.21174083,0.00194507198 4.83543664,0.00194507198 L4.83543664,0.00194507198 Z" id="Shape" fill="#595B5A" fill-rule="nonzero"></path>
                        <polygon id="Shape" fill="#FFFFFF" fill-rule="nonzero" points="5.5920247 7.59800626 4.21078629 7.59800626 4.21078629 5.52554148 2.14028169 5.52554148 2.14028169 4.14376938 4.21078629 4.14376938 4.21078629 2.0713046 5.5920247 2.0713046 5.5920247 4.14376938 7.66136957 4.14376938 7.66136957 5.52554148 5.5920247 5.52554148"></polygon>
                        <g id="hover_area" fill="#D8D8D8" fill-opacity="0">
                            <rect id="Shape" x="0.00284178774" y="0.00194507198" width="9.66413804" height="9.68800011"></rect>
                        </g>
                    </g>
                    <g id="icon_blue" transform="translate(14.864667, 0.201050)">
                        <g id="icon" transform="translate(5.995334, 0.798950)">
                            <ellipse id="button-bg-copy" fill="#0096C3" cx="10.2768694" cy="20.5203196" rx="9.49687057" ry="9.52031963"></ellipse>
                            <polygon id="Shape" fill="#FFFFFF" points="7.81402442 23.4506906 4.59587025 20.1514683 3.5 21.2670326 7.81402442 25.6897311 17.0748997 16.1955662 15.9867469 15.0800018"></polygon>
                        </g>
                        <g id="hover_area" transform="translate(0.000000, 5.000000)" fill="#FFFFFF" fill-opacity="0">
                            <polygon id="Shape" points="2.13162821e-14 0 32.5606991 0 32.5606991 32.6410959 2.13162821e-14 32.6410959"></polygon>
                        </g>
                    </g>
                    <g id="icon_red" transform="translate(14.864667, 5.201050)">
                        <g id="x-icon">
                            <ellipse id="button-bg-copy" fill="#8A1538" cx="16.2803496" cy="16.3205479" rx="9.49687057" ry="9.52031963"></ellipse>
                            <polygon id="Shape" fill="#FFFFFF" points="21.9332487 11.9990029 20.8173664 10.8803653 16.3934075 15.3152475 11.9694487 10.8803653 10.8535664 11.9990029 15.2775252 16.4338851 10.8535664 20.8687673 11.9694487 21.9874049 16.3934075 17.5525226 20.8173664 21.9874049 21.9332487 20.8687673 17.5092898 16.4338851"></polygon>
                            <polygon id="Shape-Copy" points="0 0 32.5606991 0 32.5606991 32.6410959 0 32.6410959"></polygon>
                        </g>
                    </g>
                    <g id="icon_orange" transform="translate(14.156826, 5.201050)">
                        <g id="icon" transform="translate(6.843174, 6.798950)">
                            <ellipse id="button-bg-copy" fill="#009688" cx="10.1468645" cy="9.52031963" rx="9.49687057" ry="9.52031963"></ellipse>
                            <polygon id="Shape" fill="#FFFFFF" points="7.30402991 12.4506906 4.08587574 9.15146825 2.99000549 10.2670326 7.30402991 14.6897311 16.5649052 5.19556621 15.4767524 4.08000183"></polygon>
                        </g>
                        <g id="icon_warning" transform="translate(14.190563, 0.360046)">
                            <g id="icon" transform="translate(0.652611, 0.438904)">
                                <ellipse id="button-bg-copy" fill="#F6BE00" cx="7.78664396" cy="8.01499748" rx="7.43663785" ry="7.45499992"></ellipse>
                                <path d="M8.30219484,12.3640752 L7.24794341,12.3640752 L7.24794341,10.8200624 L8.30219484,10.8200624 L8.30219484,12.3640752 L8.30219484,12.3640752 Z M8.30219484,8.50404323 L7.24794341,8.50404323 L7.24794341,3.09999847 L8.30219484,3.09999847 L8.30219484,8.50404323 L8.30219484,8.50404323 Z" id="Shape" fill="#FFFFFF"></path>
                            </g>
                        </g>
                        <g id="hover_area" fill="#FFFFFF" fill-opacity="0">
                            <polygon id="Shape" points="0.325895906 0 32.9154865 0 32.9154865 32.6410959 0.325895906 32.6410959"></polygon>
                        </g>
                    </g>
                    <g id="icon_green" transform="translate(14.864667, 5.201050)">
                        <g id="icon" transform="translate(6.135333, 6.798950)">
                            <ellipse id="button-bg-copy" fill="#009688" cx="10.1468645" cy="9.52031963" rx="9.49687057" ry="9.52031963"></ellipse>
                            <polygon id="Shape" fill="#FFFFFF" points="7.30402991 12.4506906 4.08587574 9.15146825 2.99000549 10.2670326 7.30402991 14.6897311 16.5649052 5.19556621 15.4767524 4.08000183"></polygon>
                        </g>
                        <g id="hover_area" fill="#FFFFFF" fill-opacity="0">
                            <polygon id="Shape" points="2.13162821e-14 0 32.5606991 0 32.5606991 32.6410959 2.13162821e-14 32.6410959"></polygon>
                        </g>
                    </g>
                </g>
                <g id="seat_0" transform="translate(0.000000, 31.000000)">
                    <path d="M12.5018892,6.41917808 L39.1745335,6.41917808 C41.3714343,6.41917808 43.1677272,8.21577017 43.1677272,10.410992 L43.1677272,34.3630369 C43.1677272,36.5582588 41.3714343,38.3563025 39.1745335,38.3563025 L12.5018892,38.3563025 C10.3035566,38.3563025 8.50525927,36.5582588 8.50525927,34.3630369 L8.50525927,10.410992 C8.50525927,8.21577017 10.2041921,6.41917808 12.5018892,6.41917808 L12.5018892,6.41917808 Z" id="Shape" fill="#CDCCCC" fill-rule="nonzero"></path>
                    <path d="M8.50525927,11.4091632 L10.4026348,11.4091632 C12.6012538,11.4091632 14.3992648,13.2060457 14.3992648,15.4009772 L14.3992648,29.3745034 C14.3992648,31.5694349 12.6012538,33.364285 10.4026348,33.364285 L8.50525927,33.364285 C6.30835841,33.364285 4.51006105,31.5691446 4.51006105,29.3742131 L4.51006105,15.4009772 C4.51006105,13.2060457 6.30835841,11.4091632 8.50525927,11.4091632 L8.50525927,11.4091632 Z" id="Shape" fill="#CDCCCC" fill-rule="nonzero"></path>
                    <path d="M10.4026348,32.3658234 C12.101854,32.3658234 13.4001789,31.070059 13.4001789,29.3742131 L13.4001789,15.4009772 C13.4001789,13.7051313 12.101854,12.4076248 10.4026348,12.4076248 L8.50525927,12.4076248 C6.80775819,12.4076248 5.50914696,13.7051313 5.50914696,15.4009772 L5.50914696,29.3745034 C5.50914696,31.0703493 6.80775819,32.3661138 8.50525927,32.3661138 L10.4026348,32.3661138 L10.4026348,32.3658234 Z M10.4026348,33.364285 L8.50525927,33.364285 C6.30835841,33.364285 4.51006105,31.5691446 4.51006105,29.3742131 L4.51006105,15.4009772 C4.51006105,13.2060457 6.30835841,11.4091632 8.50525927,11.4091632 L10.4026348,11.4091632 C12.6012538,11.4091632 14.3992648,13.2060457 14.3992648,15.4009772 L14.3992648,29.3745034 C14.3992648,31.5691446 12.6012538,33.364285 10.4026348,33.364285 L10.4026348,33.364285 L10.4026348,33.364285 Z" id="Shape" fill="#F3F3F3" fill-rule="nonzero"></path>
                    <polygon id="Shape" fill="#F3F3F3" fill-rule="nonzero" points="19.1936744 38.3560122 18.1945885 38.3560122 18.1945885 6.41917808 19.1936744 6.41917808"></polygon>
                    <g id="icon_tether" transform="translate(0.000000, 17.376416)">
                        <path d="M4.83543664,0.00194507198 C7.52697664,0.00194507198 9.66725833,2.14305372 9.66725833,4.83640714 C9.66725833,7.52898711 7.52697664,9.67009576 4.83543664,9.67009576 C2.14312348,9.67009576 0.00284178774,7.52898711 0.00284178774,4.83640714 C0.00284178774,2.14305372 2.21174083,0.00194507198 4.83543664,0.00194507198 L4.83543664,0.00194507198 Z" id="Shape" fill="#595B5A" fill-rule="nonzero"></path>
                        <polygon id="Shape" fill="#FFFFFF" fill-rule="nonzero" points="5.5920247 7.59800626 4.21078629 7.59800626 4.21078629 5.52554148 2.14028169 5.52554148 2.14028169 4.14376938 4.21078629 4.14376938 4.21078629 2.0713046 5.5920247 2.0713046 5.5920247 4.14376938 7.66136957 4.14376938 7.66136957 5.52554148 5.5920247 5.52554148"></polygon>
                        <g id="hover_area" fill="#D8D8D8" fill-opacity="0">
                            <rect id="Shape" x="0.00284178774" y="0.00194507198" width="9.66413804" height="9.68800011"></rect>
                        </g>
                    </g>
                    <g id="icon_blue" transform="translate(14.864667, 0.201050)">
                        <g id="icon" transform="translate(5.995334, 0.798950)">
                            <ellipse id="button-bg-copy" fill="#0096C3" cx="10.2768694" cy="20.5203196" rx="9.49687057" ry="9.52031963"></ellipse>
                            <polygon id="Shape" fill="#FFFFFF" points="7.81402442 23.4506906 4.59587025 20.1514683 3.5 21.2670326 7.81402442 25.6897311 17.0748997 16.1955662 15.9867469 15.0800018"></polygon>
                        </g>
                        <g id="hover_area" transform="translate(0.000000, 5.000000)" fill="#FFFFFF" fill-opacity="0">
                            <polygon id="Shape" points="2.13162821e-14 0 32.5606991 0 32.5606991 32.6410959 2.13162821e-14 32.6410959"></polygon>
                        </g>
                    </g>
                    <g id="icon_red" transform="translate(14.864667, 5.201050)">
                        <g id="x-icon">
                            <ellipse id="button-bg-copy" fill="#8A1538" cx="16.2803496" cy="16.3205479" rx="9.49687057" ry="9.52031963"></ellipse>
                            <polygon id="Shape" fill="#FFFFFF" points="21.9332487 11.9990029 20.8173664 10.8803653 16.3934075 15.3152475 11.9694487 10.8803653 10.8535664 11.9990029 15.2775252 16.4338851 10.8535664 20.8687673 11.9694487 21.9874049 16.3934075 17.5525226 20.8173664 21.9874049 21.9332487 20.8687673 17.5092898 16.4338851"></polygon>
                            <polygon id="Shape-Copy" points="0 0 32.5606991 0 32.5606991 32.6410959 0 32.6410959"></polygon>
                        </g>
                    </g>
                    <g id="icon_orange" transform="translate(14.156826, 5.201050)">
                        <g id="icon" transform="translate(6.843174, 6.798950)">
                            <ellipse id="button-bg-copy" fill="#009688" cx="10.1468645" cy="9.52031963" rx="9.49687057" ry="9.52031963"></ellipse>
                            <polygon id="Shape" fill="#FFFFFF" points="7.30402991 12.4506906 4.08587574 9.15146825 2.99000549 10.2670326 7.30402991 14.6897311 16.5649052 5.19556621 15.4767524 4.08000183"></polygon>
                        </g>
                        <g id="icon_warning" transform="translate(14.190563, 0.360046)">
                            <g id="icon" transform="translate(0.652611, 0.438904)">
                                <ellipse id="button-bg-copy" fill="#F6BE00" cx="7.78664396" cy="8.01499748" rx="7.43663785" ry="7.45499992"></ellipse>
                                <path d="M8.30219484,12.3640752 L7.24794341,12.3640752 L7.24794341,10.8200624 L8.30219484,10.8200624 L8.30219484,12.3640752 L8.30219484,12.3640752 Z M8.30219484,8.50404323 L7.24794341,8.50404323 L7.24794341,3.09999847 L8.30219484,3.09999847 L8.30219484,8.50404323 L8.30219484,8.50404323 Z" id="Shape" fill="#FFFFFF"></path>
                            </g>
                        </g>
                        <g id="hover_area" fill="#FFFFFF" fill-opacity="0">
                            <polygon id="Shape" points="0.325895906 0 32.9154865 0 32.9154865 32.6410959 0.325895906 32.6410959"></polygon>
                        </g>
                    </g>
                    <g id="icon_green" transform="translate(14.864667, 5.201050)">
                        <g id="icon" transform="translate(6.135333, 6.798950)">
                            <ellipse id="button-bg-copy" fill="#009688" cx="10.1468645" cy="9.52031963" rx="9.49687057" ry="9.52031963"></ellipse>
                            <polygon id="Shape" fill="#FFFFFF" points="7.30402991 12.4506906 4.08587574 9.15146825 2.99000549 10.2670326 7.30402991 14.6897311 16.5649052 5.19556621 15.4767524 4.08000183"></polygon>
                        </g>
                        <g id="hover_area" fill="#FFFFFF" fill-opacity="0">
                            <polygon id="Shape" points="2.13162821e-14 0 32.5606991 0 32.5606991 32.6410959 2.13162821e-14 32.6410959"></polygon>
                        </g>
                    </g>
                </g>
                <g id="seat_driver" transform="translate(3.947136, 0.338973)" fill-rule="nonzero">
                    <path d="M7.99182819,0 L34.6607498,0 C36.8579371,0 38.6576662,1.79659209 38.6576662,3.99181393 L38.6576662,27.9438588 C38.6576662,30.1390807 36.8579371,31.9371244 34.6607498,31.9371244 L7.99182819,31.9371244 C5.79320922,31.9371244 3.99491186,30.1390807 3.99491186,27.9438588 L3.99491186,3.99181393 C3.99491186,1.79659209 5.69413105,0 7.99182819,0 L7.99182819,0 Z" id="Shape" fill="#E1E1E1"></path>
                    <path d="M3.99491186,4.98998516 L5.89429186,4.98998516 C8.09090635,4.98998516 9.88920371,6.78686758 9.88920371,8.98179909 L9.88920371,22.9553253 C9.88920371,25.1502568 8.09090635,26.9451069 5.89429186,26.9451069 L3.99491186,26.9451069 C1.79829736,26.9451069 0,25.1499665 0,22.955035 L0,8.98179909 C0,6.78686758 1.79829736,4.98998516 3.99491186,4.98998516 L3.99491186,4.98998516 Z" id="Shape" fill="#E1E1E1"></path>
                    <path d="M5.89429186,25.9466454 C7.59150658,25.9466454 8.89011781,24.6508809 8.89011781,22.955035 L8.89011781,8.98179909 C8.89011781,7.2859532 7.59150658,5.98844673 5.89429186,5.98844673 L3.99491186,5.98844673 C2.29769714,5.98844673 0.999085906,7.2859532 0.999085906,8.98179909 L0.999085906,22.9553253 C0.999085906,24.6511712 2.29769714,25.9469357 3.99491186,25.9469357 L5.89429186,25.9469357 L5.89429186,25.9466454 Z M5.89429186,26.9451069 L3.99491186,26.9451069 C1.79829736,26.9451069 0,25.1499665 0,22.955035 L0,8.98179909 C0,6.78686758 1.79829736,4.98998516 3.99491186,4.98998516 L5.89429186,4.98998516 C8.09090635,4.98998516 9.88920371,6.78686758 9.88920371,8.98179909 L9.88920371,22.9553253 C9.88949007,25.1499665 8.09119271,26.9451069 5.89429186,26.9451069 L5.89429186,26.9451069 L5.89429186,26.9451069 Z" id="Shape" fill="#F3F3F3"></path>
                    <polygon id="Shape" fill="#F3F3F3" points="14.683327 31.9368341 13.6859592 31.9368341 13.6859592 0 14.683327 0"></polygon>
                </g>
                <g id="steering_wheel" transform="translate(51.624925, 0.338973)" fill="#A19F9E" fill-rule="nonzero">
                    <path d="M24.9397356,6.50611377 C22.3783668,2.21699696 18.5892441,-0.274947108 13.2638251,0.024097793 C8.14196236,0.322852359 4.86493843,3.21458752 2.50916738,7.40266781 C1.68998431,8.79801712 0.769023057,10.1951084 0.461938765,11.7904985 C-0.153979588,14.4821929 -0.153979588,17.3756701 0.461938765,20.1666591 C0.768731429,21.7617588 1.79322062,23.1591404 2.61269532,24.5559414 C5.06995292,28.8398322 8.45050479,31.8320232 13.7762155,31.9345114 C19.1019262,32.0338059 22.7854795,29.3386275 25.2447785,25.055027 C28.623289,18.9707698 28.5218024,12.587758 24.9397356,6.50611377 L24.9397356,6.50611377 Z M7.73309989,22.3595582 C6.40181803,23.9546579 4.968758,24.4537435 4.04575536,22.1612595 C2.30561103,18.1714779 2.40738921,14.0841438 4.25106147,10.0961043 C5.17202272,8.00220928 6.60654089,8.49897222 7.73280826,9.99535807 C9.16586829,11.8895027 8.85907563,14.183148 8.9608538,16.5760879 C8.75758908,18.4719745 9.16615992,20.5661598 7.73309989,22.3595582 L7.73309989,22.3595582 Z M13.6709378,2.01898858 C15.0039694,2.01898858 17.2562125,2.31774315 17.1547259,4.51093265 C17.0526561,6.50611377 15.41429,8.20021766 13.1585473,8.20021766 C11.3169165,8.20021766 9.37117441,7.10391324 9.37117441,5.20976865 C9.26968786,2.81653843 11.6237091,2.11799277 13.6709378,2.01898858 L13.6709378,2.01898858 Z M14.0847579,29.8371324 C12.1358079,30.0386248 9.57677216,29.7413219 9.37117441,27.4459346 C9.16586829,25.4510438 11.2148467,24.2554448 13.2638251,24.1529566 C15.7196245,24.0574365 17.4597688,25.8505445 17.5650466,27.9447298 C17.6668247,30.0386248 15.41429,29.7413219 14.0847579,29.8371324 L14.0847579,29.8371324 Z M22.480145,24.5556511 C20.6385141,26.9471393 19.5087472,26.1475571 18.3859794,24.0571461 C17.0529478,21.4612622 17.8738806,18.5709787 17.4597688,16.275301 C17.6668247,13.1855575 17.0526561,10.3948588 18.3859794,7.80187823 C19.5087472,5.60694673 20.6385141,5.40893836 22.2733807,7.40237747 C25.8589471,11.8895027 25.9639332,19.8693562 22.480145,24.5556511 L22.480145,24.5556511 Z" id="wheel"></path>
                </g>
            </g>
            <g id="front_row_normal" transform="translate(154.000000, 36.000000)">
                <g id="seat_driver" transform="translate(4.928548, 0.338973)" fill-rule="nonzero">
                    <path d="M7.96179985,0 L34.5305162,0 C36.7194478,0 38.5124146,1.79659209 38.5124146,3.99181393 L38.5124146,27.9438588 C38.5124146,30.1390807 36.7194478,31.9371244 34.5305162,31.9371244 L7.96179985,31.9371244 C5.77144193,31.9371244 3.97990145,30.1390807 3.97990145,27.9438588 L3.97990145,3.99181393 C3.97990145,1.79659209 5.67273603,0 7.96179985,0 L7.96179985,0 Z" id="Shape" fill="#E1E1E1"></path>
                    <path d="M3.97990145,4.98998516 L5.87214476,4.98998516 C8.06050574,4.98998516 9.85204621,6.78686758 9.85204621,8.98179909 L9.85204621,22.9553253 C9.85204621,25.1502568 8.06050574,26.9451069 5.87214476,26.9451069 L3.97990145,26.9451069 C1.79154047,26.9451069 0,25.1499665 0,22.955035 L0,8.98179909 C0,6.78686758 1.79154047,4.98998516 3.97990145,4.98998516 L3.97990145,4.98998516 Z" id="Shape" fill="#E1E1E1"></path>
                    <path d="M5.87214476,25.9466454 C7.5629824,25.9466454 8.85671425,24.6508809 8.85671425,22.955035 L8.85671425,8.98179909 C8.85671425,7.2859532 7.5629824,5.98844673 5.87214476,5.98844673 L3.97990145,5.98844673 C2.28906381,5.98844673 0.99533196,7.2859532 0.99533196,8.98179909 L0.99533196,22.9553253 C0.99533196,24.6511712 2.28906381,25.9469357 3.97990145,25.9469357 L5.87214476,25.9469357 L5.87214476,25.9466454 Z M5.87214476,26.9451069 L3.97990145,26.9451069 C1.79154047,26.9451069 0,25.1499665 0,22.955035 L0,8.98179909 C0,6.78686758 1.79154047,4.98998516 3.97990145,4.98998516 L5.87214476,4.98998516 C8.06050574,4.98998516 9.85204621,6.78686758 9.85204621,8.98179909 L9.85204621,22.9553253 C9.85233149,25.1499665 8.06079102,26.9451069 5.87214476,26.9451069 L5.87214476,26.9451069 L5.87214476,26.9451069 Z" id="Shape" fill="#F3F3F3"></path>
                    <polygon id="Shape" fill="#F3F3F3" points="14.6281562 31.9368341 13.6345359 31.9368341 13.6345359 0 14.6281562 0"></polygon>
                </g>
                <g id="steering_wheel" transform="translate(51.478261, 0.700000)" fill="#A19F9E" fill-rule="nonzero">
                    <path d="M24.8460275,6.50611377 C22.2942828,2.21699696 18.5193973,-0.274947108 13.2139878,0.024097793 C8.1113699,0.322852359 4.846659,3.21458752 2.49973948,7.40266781 C1.68363439,8.79801712 0.766133545,10.1951084 0.460203085,11.7904985 C-0.153401028,14.4821929 -0.153401028,17.3756701 0.460203085,20.1666591 C0.765843013,21.7617588 1.78648281,23.1591404 2.60287843,24.5559414 C5.05090318,28.8398322 8.41875303,31.8320232 13.724453,31.9345114 C19.0301529,32.0338059 22.6998658,29.3386275 25.1499243,25.055027 C28.5157404,18.9707698 28.4146352,12.587758 24.8460275,6.50611377 L24.8460275,6.50611377 Z M7.70404369,22.3595582 C6.37776397,23.9546579 4.95008849,24.4537435 4.03055391,22.1612595 C2.29694797,18.1714779 2.39834373,14.0841438 4.23508862,10.0961043 C5.15258946,8.00220928 6.58171761,8.49897222 7.70375316,9.99535807 C9.13142864,11.8895027 8.82578871,14.183148 8.92718446,16.5760879 C8.72468349,18.4719745 9.13171917,20.5661598 7.70404369,22.3595582 L7.70404369,22.3595582 Z M13.6195708,2.01898858 C14.9475938,2.01898858 17.1913743,2.31774315 17.0902691,4.51093265 C16.9885828,6.50611377 15.3563726,8.20021766 13.1091057,8.20021766 C11.2743945,8.20021766 9.33596334,7.10391324 9.33596334,5.20976865 C9.23485812,2.81653843 11.5800344,2.11799277 13.6195708,2.01898858 L13.6195708,2.01898858 Z M14.0318361,29.8371324 C12.0902091,30.0386248 9.54078858,29.7413219 9.33596334,27.4459346 C9.13142864,25.4510438 11.1727082,24.2554448 13.2139878,24.1529566 C15.6605599,24.0574365 17.3941658,25.8505445 17.499048,27.9447298 C17.6004437,30.0386248 15.3563726,29.7413219 14.0318361,29.8371324 L14.0318361,29.8371324 Z M22.3956785,24.5556511 C20.5609674,26.9471393 19.4354454,26.1475571 18.3168963,24.0571461 C16.9888734,21.4612622 17.8067216,18.5709787 17.3941658,16.275301 C17.6004437,13.1855575 16.9885828,10.3948588 18.3168963,7.80187823 C19.4354454,5.60694673 20.5609674,5.40893836 22.1896912,7.40237747 C25.7617852,11.8895027 25.8663768,19.8693562 22.3956785,24.5556511 L22.3956785,24.5556511 Z" id="wheel"></path>
                </g>
                <g id="seat_1" transform="translate(0.000000, 45.000000)">
                    <path d="M12.5018892,6.41917808 L39.1745335,6.41917808 C41.3714343,6.41917808 43.1677272,8.21577017 43.1677272,10.410992 L43.1677272,34.3630369 C43.1677272,36.5582588 41.3714343,38.3563025 39.1745335,38.3563025 L12.5018892,38.3563025 C10.3035566,38.3563025 8.50525927,36.5582588 8.50525927,34.3630369 L8.50525927,10.410992 C8.50525927,8.21577017 10.2041921,6.41917808 12.5018892,6.41917808 L12.5018892,6.41917808 Z" id="Shape" fill="#CDCCCC" fill-rule="nonzero"></path>
                    <path d="M8.50525927,11.4091632 L10.4026348,11.4091632 C12.6012538,11.4091632 14.3992648,13.2060457 14.3992648,15.4009772 L14.3992648,29.3745034 C14.3992648,31.5694349 12.6012538,33.364285 10.4026348,33.364285 L8.50525927,33.364285 C6.30835841,33.364285 4.51006105,31.5691446 4.51006105,29.3742131 L4.51006105,15.4009772 C4.51006105,13.2060457 6.30835841,11.4091632 8.50525927,11.4091632 L8.50525927,11.4091632 Z" id="Shape" fill="#CDCCCC" fill-rule="nonzero"></path>
                    <path d="M10.4026348,32.3658234 C12.101854,32.3658234 13.4001789,31.070059 13.4001789,29.3742131 L13.4001789,15.4009772 C13.4001789,13.7051313 12.101854,12.4076248 10.4026348,12.4076248 L8.50525927,12.4076248 C6.80775819,12.4076248 5.50914696,13.7051313 5.50914696,15.4009772 L5.50914696,29.3745034 C5.50914696,31.0703493 6.80775819,32.3661138 8.50525927,32.3661138 L10.4026348,32.3661138 L10.4026348,32.3658234 Z M10.4026348,33.364285 L8.50525927,33.364285 C6.30835841,33.364285 4.51006105,31.5691446 4.51006105,29.3742131 L4.51006105,15.4009772 C4.51006105,13.2060457 6.30835841,11.4091632 8.50525927,11.4091632 L10.4026348,11.4091632 C12.6012538,11.4091632 14.3992648,13.2060457 14.3992648,15.4009772 L14.3992648,29.3745034 C14.3992648,31.5691446 12.6012538,33.364285 10.4026348,33.364285 L10.4026348,33.364285 L10.4026348,33.364285 Z" id="Shape" fill="#F3F3F3" fill-rule="nonzero"></path>
                    <polygon id="Shape" fill="#F3F3F3" fill-rule="nonzero" points="19.1936744 38.3560122 18.1945885 38.3560122 18.1945885 6.41917808 19.1936744 6.41917808"></polygon>
                    <g id="icon_tether" transform="translate(0.000000, 17.376416)">
                        <path d="M4.83543664,0.00194507198 C7.52697664,0.00194507198 9.66725833,2.14305372 9.66725833,4.83640714 C9.66725833,7.52898711 7.52697664,9.67009576 4.83543664,9.67009576 C2.14312348,9.67009576 0.00284178774,7.52898711 0.00284178774,4.83640714 C0.00284178774,2.14305372 2.21174083,0.00194507198 4.83543664,0.00194507198 L4.83543664,0.00194507198 Z" id="Shape" fill="#595B5A" fill-rule="nonzero"></path>
                        <polygon id="Shape" fill="#FFFFFF" fill-rule="nonzero" points="5.5920247 7.59800626 4.21078629 7.59800626 4.21078629 5.52554148 2.14028169 5.52554148 2.14028169 4.14376938 4.21078629 4.14376938 4.21078629 2.0713046 5.5920247 2.0713046 5.5920247 4.14376938 7.66136957 4.14376938 7.66136957 5.52554148 5.5920247 5.52554148"></polygon>
                        <g id="hover_area" fill="#D8D8D8" fill-opacity="0">
                            <rect id="Shape" x="0.00284178774" y="0.00194507198" width="9.66413804" height="9.68800011"></rect>
                        </g>
                    </g>
                    <g id="icon_blue" transform="translate(14.864667, 0.201050)">
                        <g id="icon" transform="translate(5.995334, 0.798950)">
                            <ellipse id="button-bg-copy" fill="#0096C3" cx="10.2768694" cy="20.5203196" rx="9.49687057" ry="9.52031963"></ellipse>
                            <polygon id="Shape" fill="#FFFFFF" points="7.81402442 23.4506906 4.59587025 20.1514683 3.5 21.2670326 7.81402442 25.6897311 17.0748997 16.1955662 15.9867469 15.0800018"></polygon>
                        </g>
                        <g id="hover_area" transform="translate(0.000000, 5.000000)" fill="#FFFFFF" fill-opacity="0">
                            <polygon id="Shape" points="2.13162821e-14 0 32.5606991 0 32.5606991 32.6410959 2.13162821e-14 32.6410959"></polygon>
                        </g>
                    </g>
                    <g id="icon_red" transform="translate(14.864667, 5.201050)">
                        <g id="x-icon">
                            <ellipse id="button-bg-copy" fill="#8A1538" cx="16.2803496" cy="16.3205479" rx="9.49687057" ry="9.52031963"></ellipse>
                            <polygon id="Shape" fill="#FFFFFF" points="21.9332487 11.9990029 20.8173664 10.8803653 16.3934075 15.3152475 11.9694487 10.8803653 10.8535664 11.9990029 15.2775252 16.4338851 10.8535664 20.8687673 11.9694487 21.9874049 16.3934075 17.5525226 20.8173664 21.9874049 21.9332487 20.8687673 17.5092898 16.4338851"></polygon>
                            <polygon id="Shape-Copy" points="0 0 32.5606991 0 32.5606991 32.6410959 0 32.6410959"></polygon>
                        </g>
                    </g>
                    <g id="icon_orange" transform="translate(14.156826, 5.201050)">
                        <g id="icon" transform="translate(6.843174, 6.798950)">
                            <ellipse id="button-bg-copy" fill="#009688" cx="10.1468645" cy="9.52031963" rx="9.49687057" ry="9.52031963"></ellipse>
                            <polygon id="Shape" fill="#FFFFFF" points="7.30402991 12.4506906 4.08587574 9.15146825 2.99000549 10.2670326 7.30402991 14.6897311 16.5649052 5.19556621 15.4767524 4.08000183"></polygon>
                        </g>
                        <g id="icon_warning" transform="translate(14.190563, 0.360046)">
                            <g id="icon" transform="translate(0.652611, 0.438904)">
                                <ellipse id="button-bg-copy" fill="#F6BE00" cx="7.78664396" cy="8.01499748" rx="7.43663785" ry="7.45499992"></ellipse>
                                <path d="M8.30219484,12.3640752 L7.24794341,12.3640752 L7.24794341,10.8200624 L8.30219484,10.8200624 L8.30219484,12.3640752 L8.30219484,12.3640752 Z M8.30219484,8.50404323 L7.24794341,8.50404323 L7.24794341,3.09999847 L8.30219484,3.09999847 L8.30219484,8.50404323 L8.30219484,8.50404323 Z" id="Shape" fill="#FFFFFF"></path>
                            </g>
                        </g>
                        <g id="hover_area" fill="#FFFFFF" fill-opacity="0">
                            <polygon id="Shape" points="0.325895906 0 32.9154865 0 32.9154865 32.6410959 0.325895906 32.6410959"></polygon>
                        </g>
                    </g>
                    <g id="icon_green" transform="translate(12.864667, 5.201050)">
                        <g id="icon" transform="translate(8.135333, 6.798950)">
                            <ellipse id="button-bg-copy" fill="#009688" cx="10.1468645" cy="9.52031963" rx="9.49687057" ry="9.52031963"></ellipse>
                            <polygon id="Shape" fill="#FFFFFF" points="7.30402991 12.4506906 4.08587574 9.15146825 2.99000549 10.2670326 7.30402991 14.6897311 16.5649052 5.19556621 15.4767524 4.08000183"></polygon>
                        </g>
                        <g id="hover_area" fill="#FFFFFF" fill-opacity="0">
                            <polygon id="Shape" points="0 0 32.5606991 0 32.5606991 32.6410959 0 32.6410959"></polygon>
                        </g>
                    </g>
                </g>
            </g>
        </g>
    </g>
</svg>