<?xml version="1.0" encoding="UTF-8"?>
<svg width="20px" height="20px" viewBox="0 0 20 20" version="1.1" xmlns="http://www.w3.org/2000/svg" xmlns:xlink="http://www.w3.org/1999/xlink">
    <!-- Generator: Sketch 47.1 (45422) - http://www.bohemiancoding.com/sketch -->
    <title>Icon top teather Copy</title>
    <desc>Created with Sketch.</desc>
    <defs></defs>
    <g id="Page-1" stroke="none" stroke-width="1" fill="none" fill-rule="evenodd">
        <g id="icon-Set" transform="translate(-137.000000, -364.000000)">
            <g id="Icon-top-teather-Copy" transform="translate(124.000000, 351.000000)">
                <g id="Icon-24px">
                    <polygon id="Shape" points="0 0 46 0 46 46 0 46"></polygon>
                    <path d="M13.4166667,22.9166667 C13.4166667,28.1606667 17.6726667,32.4166667 22.9166667,32.4166667 C28.1606667,32.4166667 32.4166667,28.1606667 32.4166667,22.9166667 C32.4166667,17.6726667 28.1606667,13.4166667 22.9166667,13.4166667 C17.6726667,13.4166667 13.4166667,17.6726667 13.4166667,22.9166667 Z" id="Shape" fill="#505050"></path>
                    <polygon id="Path" stroke="#FFFFFF" fill="#F5F5F5" points="23.7593714 23.7422929 23.7593714 27.4315992 21.9090254 27.4315992 21.9090254 23.7422929 18.2083333 23.7422929 18.2083333 21.8976397 21.9090254 21.8976397 21.9090254 18.2083333 23.7593714 18.2083333 23.7593714 21.8976397 27.4600634 21.8976397 27.4600634 23.7422929"></polygon>
                </g>
            </g>
        </g>
    </g>
</svg>