<?xml version="1.0" encoding="UTF-8"?>
<svg width="100%" height="100%" viewBox="0 0 370 221" version="1.1" xmlns="http://www.w3.org/2000/svg" xmlns:xlink="http://www.w3.org/1999/xlink">
    <!-- Generator: Sketch 47.1 (45422) - http://www.bohemiancoding.com/sketch -->
    <desc>Created with Sketch.</desc>
    <defs>
        <linearGradient x1="50%" y1="0%" x2="50%" y2="99.0214445%" id="linearGradient-1">
            <stop stop-color="#000000" stop-opacity="0" offset="0%"></stop>
            <stop stop-color="#000000" stop-opacity="0.02" offset="80%"></stop>
            <stop stop-color="#000000" stop-opacity="0.04" offset="100%"></stop>
        </linearGradient>
        <linearGradient x1="50%" y1="0%" x2="50%" y2="100%" id="linearGradient-2">
            <stop stop-color="#FFFFFF" stop-opacity="0.12" offset="0%"></stop>
            <stop stop-color="#FFFFFF" stop-opacity="0.06" offset="20%"></stop>
            <stop stop-color="#FFFFFF" stop-opacity="0" offset="100%"></stop>
        </linearGradient>
        <circle id="path-3" cx="23.4081633" cy="23.3995434" r="13.6849315"></circle>
        <ellipse id="path-4" cx="10.4079317" cy="10.6438356" rx="10.4079317" ry="10.6438356"></ellipse>
        <circle id="path-5" cx="23.3995434" cy="23.3995434" r="13.6849315"></circle>
        <circle id="path-6" cx="14.4081633" cy="14.3995434" r="13.6849315"></circle>
        <ellipse id="path-7" cx="10.4079317" cy="10.6438356" rx="10.4079317" ry="10.6438356"></ellipse>
        <circle id="path-8" cx="23.3995434" cy="23.3995434" r="13.6849315"></circle>
        <circle id="path-9" cx="23.4081633" cy="23.3995434" r="13.6849315"></circle>
        <ellipse id="path-10" cx="10.4079317" cy="10.6438356" rx="10.4079317" ry="10.6438356"></ellipse>
        <circle id="path-11" cx="23.3995434" cy="23.3995434" r="13.6849315"></circle>
        <circle id="path-12" cx="14.4081633" cy="14.3995434" r="13.6849315"></circle>
        <ellipse id="path-13" cx="10.4079317" cy="10.6438356" rx="10.4079317" ry="10.6438356"></ellipse>
        <circle id="path-14" cx="23.3995434" cy="23.3995434" r="13.6849315"></circle>
        <circle id="path-15" cx="23.4081633" cy="23.3995434" r="13.6849315"></circle>
        <ellipse id="path-16" cx="10.4079317" cy="10.6438356" rx="10.4079317" ry="10.6438356"></ellipse>
        <circle id="path-17" cx="23.3995434" cy="23.3995434" r="13.6849315"></circle>
        <circle id="path-18" cx="14.4081633" cy="14.3995434" r="13.6849315"></circle>
        <ellipse id="path-19" cx="10.4079317" cy="10.6438356" rx="10.4079317" ry="10.6438356"></ellipse>
        <circle id="path-20" cx="23.3995434" cy="23.3995434" r="13.6849315"></circle>
        <circle id="path-21" cx="23.4081633" cy="23.3995434" r="13.6849315"></circle>
        <ellipse id="path-22" cx="10.4079317" cy="10.6438356" rx="10.4079317" ry="10.6438356"></ellipse>
        <circle id="path-23" cx="23.3995434" cy="23.3995434" r="13.6849315"></circle>
        <circle id="path-24" cx="14.4081633" cy="14.3995434" r="13.6849315"></circle>
        <ellipse id="path-25" cx="10.4079317" cy="10.6438356" rx="10.4079317" ry="10.6438356"></ellipse>
        <circle id="path-26" cx="23.3995434" cy="23.3995434" r="13.6849315"></circle>
    </defs>
    <g id="normal_car" stroke="none" stroke-width="1" fill="none" fill-rule="evenodd">
        <g>
            <g id="car_body" fill-rule="nonzero">
                <path d="M9.72795511,46.6465251 C11.0501746,47.8573459 18.8718454,42.6706132 22.8578803,38.5630304 C26.2598504,35.0613183 29.0546883,27.7991559 28.0360349,26.6325324 C26.9961596,25.4640674 20.0630424,29.4427416 17.1159601,32.8118619 C13.4122693,37.0943922 8.40665835,45.4799016 9.72795511,46.6465251 L9.72795511,46.6465251 Z" id="Shape" fill="#A19F9E"></path>
                <path d="M27.8856359,194.322463 C26.5643392,195.664034 18.7417456,190.346551 14.754788,186.110059 C11.3537406,182.391965 8.55890274,175.042329 9.57663342,173.873863 C10.6165087,172.709082 17.3983042,176.815744 20.3666085,180.230903 C24.2022444,184.77033 29.2078554,193.154918 27.8856359,194.322463 L27.8856359,194.322463 Z" id="Shape" fill="#A19F9E"></path>
                <path d="M187.725636,195.664034 C161.896683,195.187992 82.7904988,191.990136 63.745187,191.209318 C57.5483791,191.556451 41.3191272,191.81611 33.3461347,186.367876 C19.0231671,176.512808 10.7678304,152.085535 10.1828429,117.891588 L10.1828429,113.35124 L10.1828429,108.812734 C10.7678304,74.6593011 19.1754115,44.3132781 33.3461347,34.4554475 C41.1678055,29.0072144 57.3961347,29.2677941 63.745187,29.6130852 C82.7904988,28.83595 162.027706,25.6380941 187.725636,25.1602112 C216.932569,24.5782806 237.732843,25.0313025 258.835761,25.1602112 C259.746459,22.803024 260.180125,21.4872347 260.180125,21.4872347 C260.180125,21.4872347 211.905736,19.1300475 125.583167,21.4872347 C86.3216459,22.5240288 51.5028928,22.0682445 32.8912469,27.5376555 C31.287606,31.6443176 27.5829925,36.6588651 24.3323441,39.9027598 C19.4780549,44.9173073 12.0900499,50.9281347 7.21546135,52.6997082 C2.05852868,65.9285007 0.130099751,89.9653648 0,112.617382 L0,113.223252 L0,113.829123 C0,136.61189 2.05852868,154.551374 7.21546135,167.824363 C12.0900499,169.597779 19.3267332,175.647279 24.3323441,180.663668 C27.4307481,183.861524 31.287606,188.877913 32.8912469,193.028772 C51.5028928,198.472401 86.474813,198.040557 125.583167,199.036837 C211.905736,201.414281 260.180125,199.036837 260.180125,199.036837 C260.180125,199.036837 259.746459,197.695266 258.835761,195.360177 C237.732843,195.794784 216.932569,196.225707 187.725636,195.664034 L187.725636,195.664034 Z" id="Shape" fill="#CDCCCC"></path>
                <path d="M69.2056858,187.839277 C69.2056858,187.839277 39.0880549,190.086892 30.8327182,180.663668 C19.0240898,167.089584 14.7557107,145.301255 14.7557107,112.920317 C14.7557107,77.7291692 23.0110474,46.5176164 37.3330923,36.6597858 C46.9318703,30.04585 69.2056858,32.0780032 69.2056858,32.0780032 C69.2056858,32.0780032 65.0674065,94.2018564 65.0674065,112.920317 C65.0674065,131.638777 69.2056858,187.839277 69.2056858,187.839277 L69.2056858,187.839277 Z" id="Shape" fill="#E1E1E1"></path>
                <path d="M184.172344,192.724916 C217.538778,193.588604 259.141172,194.065566 259.141172,194.065566 C259.141172,194.065566 253.679751,133.67001 253.679751,113.482911 C253.679751,93.5103534 259.141172,27.3673119 259.141172,27.3673119 C259.141172,27.3673119 219.750474,26.7614411 186.945037,27.3673119 C158.496559,27.9694995 73.1926434,31.9490945 73.1926434,31.9490945 C73.1926434,31.9490945 69.3570075,94.0701854 69.3570075,112.790487 C69.3570075,131.467513 73.1926434,187.708527 73.1926434,187.708527 C73.1926434,187.708527 156.415885,191.990136 184.172344,192.724916" id="Shape" fill="#F3F3F3"></path>
                <path d="M248.047631,17.8124167 L260.180125,17.8124167 C260.180125,17.8124167 258.27384,11.9111616 255.154214,7.19862877 C252.509776,3.09104589 248.652918,0 247.916608,0 C246.312045,0.131671005 246.572244,5.72814909 247.049277,10.2896747 C247.613965,14.5712842 248.047631,17.8124167 248.047631,17.8124167 L248.047631,17.8124167 Z" id="Shape" fill="#CDCCCC"></path>
                <path d="M248.521895,203.48879 L260.353591,203.48879 C260.353591,203.48879 258.40394,209.368867 255.456858,213.906453 C252.813342,218.014956 249.259127,221.126259 248.391796,220.952233 C246.746633,220.822403 247.049277,215.376012 247.613965,210.6644 C247.916608,206.688488 248.521895,203.48879 248.521895,203.48879 L248.521895,203.48879 Z" id="Shape" fill="#CDCCCC"></path>
                <path d="M262.260798,26.1988468 C262.260798,26.1988468 287.783416,31.0835648 297.101696,39.6007452 C310.96793,52.5266023 323.014613,74.31401 322.92788,106.56604 C322.92788,141.753505 314.175212,168.431155 297.360973,179.753941 C287.653317,186.239889 262.087332,193.028772 262.087332,193.028772 C262.087332,193.028772 256.62591,124.550642 256.62591,105.874537 C256.800299,87.1523934 262.260798,26.1988468 262.260798,26.1988468 L262.260798,26.1988468 Z" id="Shape" fill="#E1E1E1"></path>
                <path d="M296.320175,183.600023 C287.783416,189.309757 268.413317,195.359257 262.519152,197.003763 C262.693541,198.173149 262.693541,198.907008 262.693541,198.907008 C262.693541,198.907008 293.24207,199.163904 318.939077,194.626319 C320.067531,190.21488 328.951222,180.317456 335.755162,176.080964 C343.121945,171.496419 354.648229,166.483713 361.409726,165.185419 C366.434713,152.38847 369.080075,134.707725 369.080075,113.048305 C369.080075,92.7322975 368.516309,67.7424299 362.622145,53.305579 C357.597157,53.5624756 346.936359,50.7964637 340.435985,46.3887078 C332.46207,40.9413954 322.451771,30.4795356 320.674663,25.6390148 C297.101696,21.4890763 269.627581,22.2238557 264.16616,22.3730215 C271.967531,23.9945084 291.466808,28.7070413 299.13808,35.9250064 C313.741546,49.5874845 327.479526,78.4639486 327.479526,112.617382 C327.348504,149.709011 314.045112,171.671367 296.320175,183.600023" id="Shape" fill="#CDCCCC"></path>
                <path d="M324.661621,194.065566 C323.187157,191.68628 332.93818,181.094591 340.174863,176.081885 C346.500848,171.799355 358.028055,169.422831 359.501596,171.367511 C360.97606,173.271676 353.176534,182.695821 347.23808,186.239889 C339.743042,190.778395 326.005062,196.225707 324.661621,194.065566 L324.661621,194.065566 Z" id="Shape" fill="#A2A09E"></path>
                <path d="M325.39793,25.161132 C323.925312,27.5385763 333.675411,37.9995153 340.912095,42.9726279 C347.10798,47.2514751 358.635187,49.5874845 360.109651,47.6833192 C361.582269,45.7837578 353.739377,36.5308772 347.975312,32.9868094 C340.435985,28.2300792 326.872394,22.9577144 325.39793,25.161132 L325.39793,25.161132 Z" id="Shape" fill="#A2A09E"></path>
            </g>
            <g id="seat_4" transform="translate(86.733167, 137.009817)">
                <path d="M16.9812469,2.02739726 L55.1791078,2.02739726 C58.3252868,2.02739726 60.8977556,4.59395738 60.8977556,7.72998858 L60.8977556,41.9471956 C60.8977556,45.0832268 58.3252868,47.6518607 55.1791078,47.6518607 L16.9812469,47.6518607 C13.8330175,47.6518607 11.257678,45.0832268 11.257678,41.9471956 L11.257678,7.72998858 C11.257678,4.59395738 13.6907177,2.02739726 16.9812469,2.02739726 L16.9812469,2.02739726 Z" id="Shape" fill="#CDCCCC" fill-rule="nonzero"></path>
                <path d="M11.257678,9.15594749 L13.9749072,9.15594749 C17.1235467,9.15594749 19.698476,11.7229224 19.698476,14.8585388 L19.698476,34.8207192 C19.698476,37.9563356 17.1235467,40.5204072 13.9749072,40.5204072 L11.257678,40.5204072 C8.11149903,40.5204072 5.5361596,37.9559209 5.5361596,34.8203044 L5.5361596,14.8585388 C5.5361596,11.7229224 8.11149903,9.15594749 11.257678,9.15594749 L11.257678,9.15594749 Z" id="Shape" fill="#CDCCCC" fill-rule="nonzero"></path>
                <path d="M13.9749072,39.0940335 C16.4083569,39.0940335 18.2676863,37.2429414 18.2676863,34.8203044 L18.2676863,14.8585388 C18.2676863,12.4359018 16.4083569,10.5823212 13.9749072,10.5823212 L11.257678,10.5823212 C8.82668883,10.5823212 6.96694929,12.4359018 6.96694929,14.8585388 L6.96694929,34.8207192 C6.96694929,37.2433562 8.82668883,39.0944482 11.257678,39.0944482 L13.9749072,39.0944482 L13.9749072,39.0940335 Z M13.9749072,40.5204072 L11.257678,40.5204072 C8.11149903,40.5204072 5.5361596,37.9559209 5.5361596,34.8203044 L5.5361596,14.8585388 C5.5361596,11.7229224 8.11149903,9.15594749 11.257678,9.15594749 L13.9749072,9.15594749 C17.1235467,9.15594749 19.698476,11.7229224 19.698476,14.8585388 L19.698476,34.8207192 C19.698476,37.9559209 17.1235467,40.5204072 13.9749072,40.5204072 L13.9749072,40.5204072 L13.9749072,40.5204072 Z" id="Shape" fill="#F3F3F3" fill-rule="nonzero"></path>
                <polygon id="Shape" fill="#F3F3F3" fill-rule="nonzero" points="26.5645442 47.651446 25.1337545 47.651446 25.1337545 2.02739726 26.5645442 2.02739726"></polygon>
                <g id="icon_tether" transform="translate(0.000000, 18.601370)" fill-rule="nonzero">
                    <path d="M6.92075312,0 C10.7753042,0 13.840399,3.05872664 13.840399,6.90637438 C13.840399,10.7529172 10.7753042,13.8116438 6.92075312,13.8116438 C3.06509476,13.8116438 0,10.7529172 0,6.90637438 C0,3.05872664 3.1633616,0 6.92075312,0 L6.92075312,0 Z" id="Shape" fill="#595B5A"></path>
                    <polygon id="Shape" fill="#FFFFFF" points="8.00833167 10.8542947 6.03026185 10.8542947 6.03026185 7.89363068 3.06509476 7.89363068 3.06509476 5.91967055 6.03026185 5.91967055 6.03026185 2.95900658 8.00833167 2.95900658 8.00833167 5.91967055 10.9718379 5.91967055 10.9718379 7.89363068 8.00833167 7.89363068"></polygon>
                </g>
                <g id="icon_blue_2" transform="translate(18.691490, 0.853196)">
                    <g id="ic_check-copy" transform="translate(0.466715, 0.000000)">
                        <g id="Icon-24px">
                            <g id="button-bg-copy-2">
                                <use fill="#0096C3" fill-rule="evenodd" xlink:href="#path-3"></use>
                                <circle stroke="url(#linearGradient-1)" stroke-width="0.5" cx="23.4081633" cy="23.3995434" r="13.4349315"></circle>
                                <circle stroke="url(#linearGradient-2)" stroke-width="0.5" cx="23.4081633" cy="23.3995434" r="13.4349315"></circle>
                            </g>
                            <polygon id="Shape" points="0 0 46.6715124 0 46.6715124 46.630137 0 46.630137"></polygon>
                            <polygon id="Shape" fill="#FFFFFF" points="19.7906335 27.5015058 15.1819189 22.788331 13.6125245 24.3819944 19.7906335 30.7001351 33.0531216 17.1370424 31.4947793 15.543379"></polygon>
                            <g id="Icon-Notification" transform="translate(21.287671, 1.942922)">
                                <g id="button-bg-copy-2">
                                    <use fill="#F6BE00" fill-rule="evenodd" xlink:href="#path-4"></use>
                                    <ellipse stroke="url(#linearGradient-1)" stroke-width="0.5" cx="10.4079317" cy="10.6438356" rx="10.1579317" ry="10.3938356"></ellipse>
                                    <ellipse stroke="url(#linearGradient-2)" stroke-width="0.5" cx="10.4079317" cy="10.6438356" rx="10.1579317" ry="10.3938356"></ellipse>
                                </g>
                                <g id="ic_error" transform="translate(9.882276, 5.053133)" fill="#FFFFFF">
                                    <g id="Icon-24px">
                                        <path d="M1.50979217,13.2343953 L0,13.2343953 L0,11.0286628 L1.50979217,11.0286628 L1.50979217,13.2343953 L1.50979217,13.2343953 Z M1.50979217,7.72006394 L0,7.72006394 L0,0 L1.50979217,0 L1.50979217,7.72006394 L1.50979217,7.72006394 Z" id="Shape"></path>
                                    </g>
                                </g>
                            </g>
                        </g>
                    </g>
                </g>
                <g id="icon_blue" transform="translate(19.705189, 1.140411)">
                    <g id="ic_check-copy-2">
                        <g id="Icon-24px">
                            <polygon id="Shape" points="0 0 46.630137 0 46.630137 46.630137 0 46.630137"></polygon>
                            <g id="button-bg">
                                <use fill="#0096C3" fill-rule="evenodd" xlink:href="#path-5"></use>
                                <circle stroke="url(#linearGradient-1)" stroke-width="0.5" cx="23.3995434" cy="23.3995434" r="13.4349315"></circle>
                                <circle stroke="url(#linearGradient-2)" stroke-width="0.5" cx="23.3995434" cy="23.3995434" r="13.4349315"></circle>
                            </g>
                            <polygon id="Shape" fill="#FFFFFF" points="19.9360027 27.5344482 15.209844 22.8082896 13.6004566 24.4063432 19.9360027 30.7418893 33.5364593 17.1414326 31.9384056 15.543379"></polygon>
                        </g>
                    </g>
                </g>
                <g id="icon_red" transform="translate(19.705189, 1.140411)">
                    <g id="x-icon">
                        <circle id="button-bg-copy" fill="#8A1538" cx="23.3150685" cy="23.3150685" r="13.6004566"></circle>
                        <polygon id="Shape" fill="#FFFFFF" points="31.4105784 17.1414326 29.8125247 15.543379 23.4769787 21.878925 17.1414326 15.543379 15.543379 17.1414326 21.878925 23.4769787 15.543379 29.8125247 17.1414326 31.4105784 23.4769787 25.0750323 29.8125247 31.4105784 31.4105784 29.8125247 25.0750323 23.4769787"></polygon>
                        <polygon id="Shape-Copy" points="0 0 46.630137 0 46.630137 46.630137 0 46.630137"></polygon>
                    </g>
                </g>
                <g id="icon_orange" transform="translate(18.691490, 1.140411)">
                    <g id="Icon-yes" transform="translate(9.466715, 9.000000)">
                        <g id="button-bg-copy-2">
                            <use fill="#009688" fill-rule="evenodd" xlink:href="#path-6"></use>
                            <circle stroke="url(#linearGradient-1)" stroke-width="0.5" cx="14.4081633" cy="14.3995434" r="13.4349315"></circle>
                            <circle stroke="url(#linearGradient-2)" stroke-width="0.5" cx="14.4081633" cy="14.3995434" r="13.4349315"></circle>
                        </g>
                        <polygon id="Shape" fill="#FFFFFF" points="10.7906335 18.5015058 6.18191889 13.788331 4.61252446 15.3819944 10.7906335 21.7001351 24.0531216 8.13704239 22.4947793 6.543379"></polygon>
                    </g>
                    <g id="Icon-Notification" transform="translate(21.754386, 1.942922)">
                        <g id="button-bg-copy-2">
                            <use fill="#F6BE00" fill-rule="evenodd" xlink:href="#path-7"></use>
                            <ellipse stroke="url(#linearGradient-1)" stroke-width="0.5" cx="10.4079317" cy="10.6438356" rx="10.1579317" ry="10.3938356"></ellipse>
                            <ellipse stroke="url(#linearGradient-2)" stroke-width="0.5" cx="10.4079317" cy="10.6438356" rx="10.1579317" ry="10.3938356"></ellipse>
                        </g>
                        <g id="ic_error" transform="translate(9.882276, 5.053133)" fill="#FFFFFF">
                            <g id="Icon-24px">
                                <path d="M1.50979217,13.2343953 L0,13.2343953 L0,11.0286628 L1.50979217,11.0286628 L1.50979217,13.2343953 L1.50979217,13.2343953 Z M1.50979217,7.72006394 L0,7.72006394 L0,0 L1.50979217,0 L1.50979217,7.72006394 L1.50979217,7.72006394 Z" id="Shape"></path>
                            </g>
                        </g>
                    </g>
                    <g id="hover_area" fill-opacity="0" fill="#FFFFFF">
                        <polygon id="Shape" points="0.466715124 2.84217094e-14 47.1382276 2.84217094e-14 47.1382276 46.630137 0.466715124 46.630137"></polygon>
                    </g>
                </g>
                <g id="icon_green" transform="translate(19.705189, 1.140411)">
                    <g id="ic_check-copy-2">
                        <g id="Icon-24px">
                            <polygon id="Shape" points="0 0 46.630137 0 46.630137 46.630137 0 46.630137"></polygon>
                            <g id="button-bg">
                                <use fill="#009688" fill-rule="evenodd" xlink:href="#path-8"></use>
                                <circle stroke="url(#linearGradient-1)" stroke-width="0.5" cx="23.3995434" cy="23.3995434" r="13.4349315"></circle>
                                <circle stroke="url(#linearGradient-2)" stroke-width="0.5" cx="23.3995434" cy="23.3995434" r="13.4349315"></circle>
                            </g>
                            <polygon id="Shape" fill="#FFFFFF" points="19.9360027 27.5344482 15.209844 22.8082896 13.6004566 24.4063432 19.9360027 30.7418893 33.5364593 17.1414326 31.9384056 15.543379"></polygon>
                        </g>
                    </g>
                </g>
            </g>
            <g id="seat_3" transform="translate(86.733167, 85.446347)">
                <path d="M16.9812469,2.02739726 L55.1791078,2.02739726 C58.3252868,2.02739726 60.8977556,4.59395738 60.8977556,7.72998858 L60.8977556,41.9471956 C60.8977556,45.0832268 58.3252868,47.6518607 55.1791078,47.6518607 L16.9812469,47.6518607 C13.8330175,47.6518607 11.257678,45.0832268 11.257678,41.9471956 L11.257678,7.72998858 C11.257678,4.59395738 13.6907177,2.02739726 16.9812469,2.02739726 L16.9812469,2.02739726 Z" id="Shape" fill="#CDCCCC" fill-rule="nonzero"></path>
                <path d="M11.257678,9.15594749 L13.9749072,9.15594749 C17.1235467,9.15594749 19.698476,11.7229224 19.698476,14.8585388 L19.698476,34.8207192 C19.698476,37.9563356 17.1235467,40.5204072 13.9749072,40.5204072 L11.257678,40.5204072 C8.11149903,40.5204072 5.5361596,37.9559209 5.5361596,34.8203044 L5.5361596,14.8585388 C5.5361596,11.7229224 8.11149903,9.15594749 11.257678,9.15594749 L11.257678,9.15594749 Z" id="Shape" fill="#CDCCCC" fill-rule="nonzero"></path>
                <path d="M13.9749072,39.0940335 C16.4083569,39.0940335 18.2676863,37.2429414 18.2676863,34.8203044 L18.2676863,14.8585388 C18.2676863,12.4359018 16.4083569,10.5823212 13.9749072,10.5823212 L11.257678,10.5823212 C8.82668883,10.5823212 6.96694929,12.4359018 6.96694929,14.8585388 L6.96694929,34.8207192 C6.96694929,37.2433562 8.82668883,39.0944482 11.257678,39.0944482 L13.9749072,39.0944482 L13.9749072,39.0940335 Z M13.9749072,40.5204072 L11.257678,40.5204072 C8.11149903,40.5204072 5.5361596,37.9559209 5.5361596,34.8203044 L5.5361596,14.8585388 C5.5361596,11.7229224 8.11149903,9.15594749 11.257678,9.15594749 L13.9749072,9.15594749 C17.1235467,9.15594749 19.698476,11.7229224 19.698476,14.8585388 L19.698476,34.8207192 C19.698476,37.9559209 17.1235467,40.5204072 13.9749072,40.5204072 L13.9749072,40.5204072 L13.9749072,40.5204072 Z" id="Shape" fill="#F3F3F3" fill-rule="nonzero"></path>
                <polygon id="Shape" fill="#F3F3F3" fill-rule="nonzero" points="26.5645442 47.651446 25.1337545 47.651446 25.1337545 2.02739726 26.5645442 2.02739726"></polygon>
                <g id="icon_tether" transform="translate(0.000000, 17.680594)" fill-rule="nonzero">
                    <path d="M6.92075312,0 C10.7753042,0 13.840399,3.05872664 13.840399,6.90637438 C13.840399,10.7529172 10.7753042,13.8116438 6.92075312,13.8116438 C3.06509476,13.8116438 0,10.7529172 0,6.90637438 C0,3.05872664 3.1633616,0 6.92075312,0 L6.92075312,0 Z" id="Shape" fill="#595B5A"></path>
                    <polygon id="Shape" fill="#FFFFFF" points="8.00833167 10.8542947 6.03026185 10.8542947 6.03026185 7.89363068 3.06509476 7.89363068 3.06509476 5.91967055 6.03026185 5.91967055 6.03026185 2.95900658 8.00833167 2.95900658 8.00833167 5.91967055 10.9718379 5.91967055 10.9718379 7.89363068 8.00833167 7.89363068"></polygon>
                </g>
                <g id="icon_blue_2" transform="translate(18.691490, 0.718037)">
                    <g id="ic_check-copy" transform="translate(0.466715, 0.000000)">
                        <g id="Icon-24px">
                            <g id="button-bg-copy-2">
                                <use fill="#0096C3" fill-rule="evenodd" xlink:href="#path-9"></use>
                                <circle stroke="url(#linearGradient-1)" stroke-width="0.5" cx="23.4081633" cy="23.3995434" r="13.4349315"></circle>
                                <circle stroke="url(#linearGradient-2)" stroke-width="0.5" cx="23.4081633" cy="23.3995434" r="13.4349315"></circle>
                            </g>
                            <polygon id="Shape" points="0 0 46.6715124 0 46.6715124 46.630137 0 46.630137"></polygon>
                            <polygon id="Shape" fill="#FFFFFF" points="19.7906335 27.5015058 15.1819189 22.788331 13.6125245 24.3819944 19.7906335 30.7001351 33.0531216 17.1370424 31.4947793 15.543379"></polygon>
                            <g id="Icon-Notification" transform="translate(21.287671, 1.942922)">
                                <g id="button-bg-copy-2">
                                    <use fill="#F6BE00" fill-rule="evenodd" xlink:href="#path-10"></use>
                                    <ellipse stroke="url(#linearGradient-1)" stroke-width="0.5" cx="10.4079317" cy="10.6438356" rx="10.1579317" ry="10.3938356"></ellipse>
                                    <ellipse stroke="url(#linearGradient-2)" stroke-width="0.5" cx="10.4079317" cy="10.6438356" rx="10.1579317" ry="10.3938356"></ellipse>
                                </g>
                                <g id="ic_error" transform="translate(9.882276, 5.053133)" fill="#FFFFFF">
                                    <g id="Icon-24px">
                                        <path d="M1.50979217,13.2343953 L0,13.2343953 L0,11.0286628 L1.50979217,11.0286628 L1.50979217,13.2343953 L1.50979217,13.2343953 Z M1.50979217,7.72006394 L0,7.72006394 L0,0 L1.50979217,0 L1.50979217,7.72006394 L1.50979217,7.72006394 Z" id="Shape"></path>
                                    </g>
                                </g>
                            </g>
                        </g>
                    </g>
                </g>
                <g id="icon_blue" transform="translate(19.705189, 1.005251)">
                    <g id="ic_check-copy-2">
                        <g id="Icon-24px">
                            <polygon id="Shape" points="0 0 46.630137 0 46.630137 46.630137 0 46.630137"></polygon>
                            <g id="button-bg">
                                <use fill="#0096C3" fill-rule="evenodd" xlink:href="#path-11"></use>
                                <circle stroke="url(#linearGradient-1)" stroke-width="0.5" cx="23.3995434" cy="23.3995434" r="13.4349315"></circle>
                                <circle stroke="url(#linearGradient-2)" stroke-width="0.5" cx="23.3995434" cy="23.3995434" r="13.4349315"></circle>
                            </g>
                            <polygon id="Shape" fill="#FFFFFF" points="19.9360027 27.5344482 15.209844 22.8082896 13.6004566 24.4063432 19.9360027 30.7418893 33.5364593 17.1414326 31.9384056 15.543379"></polygon>
                        </g>
                    </g>
                </g>
                <g id="icon_red" transform="translate(19.705189, 1.005251)">
                    <g id="x-icon">
                        <circle id="button-bg-copy" fill="#8A1538" cx="23.3150685" cy="23.3150685" r="13.6004566"></circle>
                        <polygon id="Shape" fill="#FFFFFF" points="31.4105784 17.1414326 29.8125247 15.543379 23.4769787 21.878925 17.1414326 15.543379 15.543379 17.1414326 21.878925 23.4769787 15.543379 29.8125247 17.1414326 31.4105784 23.4769787 25.0750323 29.8125247 31.4105784 31.4105784 29.8125247 25.0750323 23.4769787"></polygon>
                        <polygon id="Shape-Copy" points="0 0 46.630137 0 46.630137 46.630137 0 46.630137"></polygon>
                    </g>
                </g>
                <g id="icon_orange" transform="translate(18.691490, 1.005251)">
                    <g id="Icon-yes" transform="translate(9.466715, 9.000000)">
                        <g id="button-bg-copy-2">
                            <use fill="#009688" fill-rule="evenodd" xlink:href="#path-12"></use>
                            <circle stroke="url(#linearGradient-1)" stroke-width="0.5" cx="14.4081633" cy="14.3995434" r="13.4349315"></circle>
                            <circle stroke="url(#linearGradient-2)" stroke-width="0.5" cx="14.4081633" cy="14.3995434" r="13.4349315"></circle>
                        </g>
                        <polygon id="Shape" fill="#FFFFFF" points="10.7906335 18.5015058 6.18191889 13.788331 4.61252446 15.3819944 10.7906335 21.7001351 24.0531216 8.13704239 22.4947793 6.543379"></polygon>
                    </g>
                    <g id="Icon-Notification" transform="translate(21.754386, 1.942922)">
                        <g id="button-bg-copy-2">
                            <use fill="#F6BE00" fill-rule="evenodd" xlink:href="#path-13"></use>
                            <ellipse stroke="url(#linearGradient-1)" stroke-width="0.5" cx="10.4079317" cy="10.6438356" rx="10.1579317" ry="10.3938356"></ellipse>
                            <ellipse stroke="url(#linearGradient-2)" stroke-width="0.5" cx="10.4079317" cy="10.6438356" rx="10.1579317" ry="10.3938356"></ellipse>
                        </g>
                        <g id="ic_error" transform="translate(9.882276, 5.053133)" fill="#FFFFFF">
                            <g id="Icon-24px">
                                <path d="M1.50979217,13.2343953 L0,13.2343953 L0,11.0286628 L1.50979217,11.0286628 L1.50979217,13.2343953 L1.50979217,13.2343953 Z M1.50979217,7.72006394 L0,7.72006394 L0,0 L1.50979217,0 L1.50979217,7.72006394 L1.50979217,7.72006394 Z" id="Shape"></path>
                            </g>
                        </g>
                    </g>
                    <g id="hover_area" fill-opacity="0" fill="#FFFFFF">
                        <polygon id="Shape" points="0.466715124 4.26325641e-14 47.1382276 4.26325641e-14 47.1382276 46.630137 0.466715124 46.630137"></polygon>
                    </g>
                </g>
                <g id="icon_green" transform="translate(19.705189, 1.005251)">
                    <g id="ic_check-copy-2">
                        <g id="Icon-24px">
                            <polygon id="Shape" points="0 0 46.630137 0 46.630137 46.630137 0 46.630137"></polygon>
                            <g id="button-bg">
                                <use fill="#009688" fill-rule="evenodd" xlink:href="#path-14"></use>
                                <circle stroke="url(#linearGradient-1)" stroke-width="0.5" cx="23.3995434" cy="23.3995434" r="13.4349315"></circle>
                                <circle stroke="url(#linearGradient-2)" stroke-width="0.5" cx="23.3995434" cy="23.3995434" r="13.4349315"></circle>
                            </g>
                            <polygon id="Shape" fill="#FFFFFF" points="19.9360027 27.5344482 15.209844 22.8082896 13.6004566 24.4063432 19.9360027 30.7418893 33.5364593 17.1414326 31.9384056 15.543379"></polygon>
                        </g>
                    </g>
                </g>
            </g>
            <g id="seat_2" transform="translate(86.733167, 33.882877)">
                <path d="M16.9812469,2.02739726 L55.1791078,2.02739726 C58.3252868,2.02739726 60.8977556,4.59395738 60.8977556,7.72998858 L60.8977556,41.9471956 C60.8977556,45.0832268 58.3252868,47.6518607 55.1791078,47.6518607 L16.9812469,47.6518607 C13.8330175,47.6518607 11.257678,45.0832268 11.257678,41.9471956 L11.257678,7.72998858 C11.257678,4.59395738 13.6907177,2.02739726 16.9812469,2.02739726 L16.9812469,2.02739726 Z" id="Shape" fill="#CDCCCC" fill-rule="nonzero"></path>
                <path d="M11.257678,9.15594749 L13.9749072,9.15594749 C17.1235467,9.15594749 19.698476,11.7229224 19.698476,14.8585388 L19.698476,34.8207192 C19.698476,37.9563356 17.1235467,40.5204072 13.9749072,40.5204072 L11.257678,40.5204072 C8.11149903,40.5204072 5.5361596,37.9559209 5.5361596,34.8203044 L5.5361596,14.8585388 C5.5361596,11.7229224 8.11149903,9.15594749 11.257678,9.15594749 L11.257678,9.15594749 Z" id="Shape" fill="#CDCCCC" fill-rule="nonzero"></path>
                <path d="M13.9749072,39.0940335 C16.4083569,39.0940335 18.2676863,37.2429414 18.2676863,34.8203044 L18.2676863,14.8585388 C18.2676863,12.4359018 16.4083569,10.5823212 13.9749072,10.5823212 L11.257678,10.5823212 C8.82668883,10.5823212 6.96694929,12.4359018 6.96694929,14.8585388 L6.96694929,34.8207192 C6.96694929,37.2433562 8.82668883,39.0944482 11.257678,39.0944482 L13.9749072,39.0944482 L13.9749072,39.0940335 Z M13.9749072,40.5204072 L11.257678,40.5204072 C8.11149903,40.5204072 5.5361596,37.9559209 5.5361596,34.8203044 L5.5361596,14.8585388 C5.5361596,11.7229224 8.11149903,9.15594749 11.257678,9.15594749 L13.9749072,9.15594749 C17.1235467,9.15594749 19.698476,11.7229224 19.698476,14.8585388 L19.698476,34.8207192 C19.698476,37.9559209 17.1235467,40.5204072 13.9749072,40.5204072 L13.9749072,40.5204072 L13.9749072,40.5204072 Z" id="Shape" fill="#F3F3F3" fill-rule="nonzero"></path>
                <polygon id="Shape" fill="#F3F3F3" fill-rule="nonzero" points="26.5645442 47.651446 25.1337545 47.651446 25.1337545 2.02739726 26.5645442 2.02739726"></polygon>
                <g id="icon_tether" transform="translate(0.000000, 17.680594)" fill-rule="nonzero">
                    <path d="M6.92075312,0 C10.7753042,0 13.840399,3.05872664 13.840399,6.90637438 C13.840399,10.7529172 10.7753042,13.8116438 6.92075312,13.8116438 C3.06509476,13.8116438 0,10.7529172 0,6.90637438 C0,3.05872664 3.1633616,0 6.92075312,0 L6.92075312,0 Z" id="Shape" fill="#595B5A"></path>
                    <polygon id="Shape" fill="#FFFFFF" points="8.00833167 10.8542947 6.03026185 10.8542947 6.03026185 7.89363068 3.06509476 7.89363068 3.06509476 5.91967055 6.03026185 5.91967055 6.03026185 2.95900658 8.00833167 2.95900658 8.00833167 5.91967055 10.9718379 5.91967055 10.9718379 7.89363068 8.00833167 7.89363068"></polygon>
                </g>
                <g id="icon_blue_2" transform="translate(18.691490, 0.582877)">
                    <g id="ic_check-copy" transform="translate(0.466715, 0.000000)">
                        <g id="Icon-24px">
                            <g id="button-bg-copy-2">
                                <use fill="#0096C3" fill-rule="evenodd" xlink:href="#path-15"></use>
                                <circle stroke="url(#linearGradient-1)" stroke-width="0.5" cx="23.4081633" cy="23.3995434" r="13.4349315"></circle>
                                <circle stroke="url(#linearGradient-2)" stroke-width="0.5" cx="23.4081633" cy="23.3995434" r="13.4349315"></circle>
                            </g>
                            <polygon id="Shape" points="0 0 46.6715124 0 46.6715124 46.630137 0 46.630137"></polygon>
                            <polygon id="Shape" fill="#FFFFFF" points="19.7906335 27.5015058 15.1819189 22.788331 13.6125245 24.3819944 19.7906335 30.7001351 33.0531216 17.1370424 31.4947793 15.543379"></polygon>
                            <g id="Icon-Notification" transform="translate(21.287671, 1.942922)">
                                <g id="button-bg-copy-2">
                                    <use fill="#F6BE00" fill-rule="evenodd" xlink:href="#path-16"></use>
                                    <ellipse stroke="url(#linearGradient-1)" stroke-width="0.5" cx="10.4079317" cy="10.6438356" rx="10.1579317" ry="10.3938356"></ellipse>
                                    <ellipse stroke="url(#linearGradient-2)" stroke-width="0.5" cx="10.4079317" cy="10.6438356" rx="10.1579317" ry="10.3938356"></ellipse>
                                </g>
                                <g id="ic_error" transform="translate(9.882276, 5.053133)" fill="#FFFFFF">
                                    <g id="Icon-24px">
                                        <path d="M1.50979217,13.2343953 L0,13.2343953 L0,11.0286628 L1.50979217,11.0286628 L1.50979217,13.2343953 L1.50979217,13.2343953 Z M1.50979217,7.72006394 L0,7.72006394 L0,0 L1.50979217,0 L1.50979217,7.72006394 L1.50979217,7.72006394 Z" id="Shape"></path>
                                    </g>
                                </g>
                            </g>
                        </g>
                    </g>
                </g>
                <g id="icon_blue" transform="translate(19.705189, 0.870091)">
                    <g id="ic_check-copy-2">
                        <g id="Icon-24px">
                            <polygon id="Shape" points="0 0 46.630137 0 46.630137 46.630137 0 46.630137"></polygon>
                            <g id="button-bg">
                                <use fill="#0096C3" fill-rule="evenodd" xlink:href="#path-17"></use>
                                <circle stroke="url(#linearGradient-1)" stroke-width="0.5" cx="23.3995434" cy="23.3995434" r="13.4349315"></circle>
                                <circle stroke="url(#linearGradient-2)" stroke-width="0.5" cx="23.3995434" cy="23.3995434" r="13.4349315"></circle>
                            </g>
                            <polygon id="Shape" fill="#FFFFFF" points="19.9360027 27.5344482 15.209844 22.8082896 13.6004566 24.4063432 19.9360027 30.7418893 33.5364593 17.1414326 31.9384056 15.543379"></polygon>
                        </g>
                    </g>
                </g>
                <g id="icon_red" transform="translate(19.705189, 0.870091)">
                    <g id="x-icon">
                        <circle id="button-bg-copy" fill="#8A1538" cx="23.3150685" cy="23.3150685" r="13.6004566"></circle>
                        <polygon id="Shape" fill="#FFFFFF" points="31.4105784 17.1414326 29.8125247 15.543379 23.4769787 21.878925 17.1414326 15.543379 15.543379 17.1414326 21.878925 23.4769787 15.543379 29.8125247 17.1414326 31.4105784 23.4769787 25.0750323 29.8125247 31.4105784 31.4105784 29.8125247 25.0750323 23.4769787"></polygon>
                        <polygon id="Shape-Copy" points="0 0 46.630137 0 46.630137 46.630137 0 46.630137"></polygon>
                    </g>
                </g>
                <g id="icon_orange" transform="translate(18.691490, 0.870091)">
                    <g id="Icon-yes" transform="translate(9.466715, 9.000000)">
                        <g id="button-bg-copy-2">
                            <use fill="#009688" fill-rule="evenodd" xlink:href="#path-18"></use>
                            <circle stroke="url(#linearGradient-1)" stroke-width="0.5" cx="14.4081633" cy="14.3995434" r="13.4349315"></circle>
                            <circle stroke="url(#linearGradient-2)" stroke-width="0.5" cx="14.4081633" cy="14.3995434" r="13.4349315"></circle>
                        </g>
                        <polygon id="Shape" fill="#FFFFFF" points="10.7906335 18.5015058 6.18191889 13.788331 4.61252446 15.3819944 10.7906335 21.7001351 24.0531216 8.13704239 22.4947793 6.543379"></polygon>
                    </g>
                    <g id="Icon-Notification" transform="translate(21.754386, 1.942922)">
                        <g id="button-bg-copy-2">
                            <use fill="#F6BE00" fill-rule="evenodd" xlink:href="#path-19"></use>
                            <ellipse stroke="url(#linearGradient-1)" stroke-width="0.5" cx="10.4079317" cy="10.6438356" rx="10.1579317" ry="10.3938356"></ellipse>
                            <ellipse stroke="url(#linearGradient-2)" stroke-width="0.5" cx="10.4079317" cy="10.6438356" rx="10.1579317" ry="10.3938356"></ellipse>
                        </g>
                        <g id="ic_error" transform="translate(9.882276, 5.053133)" fill="#FFFFFF">
                            <g id="Icon-24px">
                                <path d="M1.50979217,13.2343953 L0,13.2343953 L0,11.0286628 L1.50979217,11.0286628 L1.50979217,13.2343953 L1.50979217,13.2343953 Z M1.50979217,7.72006394 L0,7.72006394 L0,0 L1.50979217,0 L1.50979217,7.72006394 L1.50979217,7.72006394 Z" id="Shape"></path>
                            </g>
                        </g>
                    </g>
                    <g id="hover_area" fill-opacity="0" fill="#FFFFFF">
                        <polygon id="Shape" points="0.466715124 -1.42108547e-14 47.1382276 -1.42108547e-14 47.1382276 46.630137 0.466715124 46.630137"></polygon>
                    </g>
                </g>
                <g id="icon_green" transform="translate(19.705189, 0.870091)">
                    <g id="ic_check-copy-2">
                        <g id="Icon-24px">
                            <polygon id="Shape" points="0 0 46.630137 0 46.630137 46.630137 0 46.630137"></polygon>
                            <g id="button-bg">
                                <use fill="#009688" fill-rule="evenodd" xlink:href="#path-20"></use>
                                <circle stroke="url(#linearGradient-1)" stroke-width="0.5" cx="23.3995434" cy="23.3995434" r="13.4349315"></circle>
                                <circle stroke="url(#linearGradient-2)" stroke-width="0.5" cx="23.3995434" cy="23.3995434" r="13.4349315"></circle>
                            </g>
                            <polygon id="Shape" fill="#FFFFFF" points="19.9360027 27.5344482 15.209844 22.8082896 13.6004566 24.4063432 19.9360027 30.7418893 33.5364593 17.1414326 31.9384056 15.543379"></polygon>
                        </g>
                    </g>
                </g>
            </g>
            <g id="seat_1" transform="translate(159.625935, 121.356621)">
                <path d="M17.9039401,2.02739726 L56.1018011,2.02739726 C59.24798,2.02739726 61.8204489,4.59395738 61.8204489,7.72998858 L61.8204489,41.9471956 C61.8204489,45.0832268 59.24798,47.6518607 56.1018011,47.6518607 L17.9039401,47.6518607 C14.7557107,47.6518607 12.1803713,45.0832268 12.1803713,41.9471956 L12.1803713,7.72998858 C12.1803713,4.59395738 14.6134109,2.02739726 17.9039401,2.02739726 L17.9039401,2.02739726 Z" id="Shape" fill="#CDCCCC" fill-rule="nonzero"></path>
                <path d="M12.1803713,9.15594749 L14.8976004,9.15594749 C18.04624,9.15594749 20.6211693,11.7229224 20.6211693,14.8585388 L20.6211693,34.8207192 C20.6211693,37.9563356 18.04624,40.5204072 14.8976004,40.5204072 L12.1803713,40.5204072 C9.0341923,40.5204072 6.45885287,37.9559209 6.45885287,34.8203044 L6.45885287,14.8585388 C6.45885287,11.7229224 9.0341923,9.15594749 12.1803713,9.15594749 L12.1803713,9.15594749 Z" id="Shape" fill="#CDCCCC" fill-rule="nonzero"></path>
                <path d="M14.8976004,39.0940335 C17.3310502,39.0940335 19.1903796,37.2429414 19.1903796,34.8203044 L19.1903796,14.8585388 C19.1903796,12.4359018 17.3310502,10.5823212 14.8976004,10.5823212 L12.1803713,10.5823212 C9.7493821,10.5823212 7.88964256,12.4359018 7.88964256,14.8585388 L7.88964256,34.8207192 C7.88964256,37.2433562 9.7493821,39.0944482 12.1803713,39.0944482 L14.8976004,39.0944482 L14.8976004,39.0940335 Z M14.8976004,40.5204072 L12.1803713,40.5204072 C9.0341923,40.5204072 6.45885287,37.9559209 6.45885287,34.8203044 L6.45885287,14.8585388 C6.45885287,11.7229224 9.0341923,9.15594749 12.1803713,9.15594749 L14.8976004,9.15594749 C18.04624,9.15594749 20.6211693,11.7229224 20.6211693,14.8585388 L20.6211693,34.8207192 C20.6211693,37.9559209 18.04624,40.5204072 14.8976004,40.5204072 L14.8976004,40.5204072 L14.8976004,40.5204072 Z" id="Shape" fill="#F3F3F3" fill-rule="nonzero"></path>
                <polygon id="Shape" fill="#F3F3F3" fill-rule="nonzero" points="27.4872375 47.651446 26.0564478 47.651446 26.0564478 2.02739726 27.4872375 2.02739726"></polygon>
                <g id="icon_tether" transform="translate(0.000000, 17.680594)" fill-rule="nonzero">
                    <path d="M6.92075312,0 C10.7753042,0 13.840399,3.05872664 13.840399,6.90637438 C13.840399,10.7529172 10.7753042,13.8116438 6.92075312,13.8116438 C3.06509476,13.8116438 0,10.7529172 0,6.90637438 C0,3.05872664 3.1633616,0 6.92075312,0 L6.92075312,0 Z" id="Shape" fill="#595B5A"></path>
                    <polygon id="Shape" fill="#FFFFFF" points="8.00833167 10.8542947 6.03026185 10.8542947 6.03026185 7.89363068 3.06509476 7.89363068 3.06509476 5.91967055 6.03026185 5.91967055 6.03026185 2.95900658 8.00833167 2.95900658 8.00833167 5.91967055 10.9718379 5.91967055 10.9718379 7.89363068 8.00833167 7.89363068"></polygon>
                </g>
                <g id="icon_blue_2" transform="translate(20.273973, 0.000000)">
                    <g id="ic_check-copy" transform="translate(0.466715, 0.000000)">
                        <g id="Icon-24px">
                            <g id="button-bg-copy-2">
                                <use fill="#0096C3" fill-rule="evenodd" xlink:href="#path-21"></use>
                                <circle stroke="url(#linearGradient-1)" stroke-width="0.5" cx="23.4081633" cy="23.3995434" r="13.4349315"></circle>
                                <circle stroke="url(#linearGradient-2)" stroke-width="0.5" cx="23.4081633" cy="23.3995434" r="13.4349315"></circle>
                            </g>
                            <polygon id="Shape" points="0 0 46.6715124 0 46.6715124 46.630137 0 46.630137"></polygon>
                            <polygon id="Shape" fill="#FFFFFF" points="19.7906335 27.5015058 15.1819189 22.788331 13.6125245 24.3819944 19.7906335 30.7001351 33.0531216 17.1370424 31.4947793 15.543379"></polygon>
                            <g id="Icon-Notification" transform="translate(21.287671, 1.942922)">
                                <g id="button-bg-copy-2">
                                    <use fill="#F6BE00" fill-rule="evenodd" xlink:href="#path-22"></use>
                                    <ellipse stroke="url(#linearGradient-1)" stroke-width="0.5" cx="10.4079317" cy="10.6438356" rx="10.1579317" ry="10.3938356"></ellipse>
                                    <ellipse stroke="url(#linearGradient-2)" stroke-width="0.5" cx="10.4079317" cy="10.6438356" rx="10.1579317" ry="10.3938356"></ellipse>
                                </g>
                                <g id="ic_error" transform="translate(9.882276, 5.053133)" fill="#FFFFFF">
                                    <g id="Icon-24px">
                                        <path d="M1.50979217,13.2343953 L0,13.2343953 L0,11.0286628 L1.50979217,11.0286628 L1.50979217,13.2343953 L1.50979217,13.2343953 Z M1.50979217,7.72006394 L0,7.72006394 L0,0 L1.50979217,0 L1.50979217,7.72006394 L1.50979217,7.72006394 Z" id="Shape"></path>
                                    </g>
                                </g>
                            </g>
                        </g>
                    </g>
                </g>
                <g id="icon_blue" transform="translate(21.287671, 0.287215)">
                    <g id="ic_check-copy-2">
                        <g id="Icon-24px">
                            <polygon id="Shape" points="0 0 46.630137 0 46.630137 46.630137 0 46.630137"></polygon>
                            <g id="button-bg">
                                <use fill="#0096C3" fill-rule="evenodd" xlink:href="#path-23"></use>
                                <circle stroke="url(#linearGradient-1)" stroke-width="0.5" cx="23.3995434" cy="23.3995434" r="13.4349315"></circle>
                                <circle stroke="url(#linearGradient-2)" stroke-width="0.5" cx="23.3995434" cy="23.3995434" r="13.4349315"></circle>
                            </g>
                            <polygon id="Shape" fill="#FFFFFF" points="19.9360027 27.5344482 15.209844 22.8082896 13.6004566 24.4063432 19.9360027 30.7418893 33.5364593 17.1414326 31.9384056 15.543379"></polygon>
                        </g>
                    </g>
                </g>
                <g id="icon_red" transform="translate(21.287671, 0.287215)">
                    <g id="x-icon">
                        <circle id="button-bg-copy" fill="#8A1538" cx="23.3150685" cy="23.3150685" r="13.6004566"></circle>
                        <polygon id="Shape" fill="#FFFFFF" points="31.4105784 17.1414326 29.8125247 15.543379 23.4769787 21.878925 17.1414326 15.543379 15.543379 17.1414326 21.878925 23.4769787 15.543379 29.8125247 17.1414326 31.4105784 23.4769787 25.0750323 29.8125247 31.4105784 31.4105784 29.8125247 25.0750323 23.4769787"></polygon>
                        <polygon id="Shape-Copy" points="0 0 46.630137 0 46.630137 46.630137 0 46.630137"></polygon>
                    </g>
                </g>
                <g id="icon_orange" transform="translate(20.273973, 0.287215)">
                    <g id="Icon-yes" transform="translate(9.466715, 9.000000)">
                        <g id="button-bg-copy-2">
                            <use fill="#009688" fill-rule="evenodd" xlink:href="#path-24"></use>
                            <circle stroke="url(#linearGradient-1)" stroke-width="0.5" cx="14.4081633" cy="14.3995434" r="13.4349315"></circle>
                            <circle stroke="url(#linearGradient-2)" stroke-width="0.5" cx="14.4081633" cy="14.3995434" r="13.4349315"></circle>
                        </g>
                        <polygon id="Shape" fill="#FFFFFF" points="10.7906335 18.5015058 6.18191889 13.788331 4.61252446 15.3819944 10.7906335 21.7001351 24.0531216 8.13704239 22.4947793 6.543379"></polygon>
                    </g>
                    <g id="Icon-Notification" transform="translate(21.754386, 1.942922)">
                        <g id="button-bg-copy-2">
                            <use fill="#F6BE00" fill-rule="evenodd" xlink:href="#path-25"></use>
                            <ellipse stroke="url(#linearGradient-1)" stroke-width="0.5" cx="10.4079317" cy="10.6438356" rx="10.1579317" ry="10.3938356"></ellipse>
                            <ellipse stroke="url(#linearGradient-2)" stroke-width="0.5" cx="10.4079317" cy="10.6438356" rx="10.1579317" ry="10.3938356"></ellipse>
                        </g>
                        <g id="ic_error" transform="translate(9.882276, 5.053133)" fill="#FFFFFF">
                            <g id="Icon-24px">
                                <path d="M1.50979217,13.2343953 L0,13.2343953 L0,11.0286628 L1.50979217,11.0286628 L1.50979217,13.2343953 L1.50979217,13.2343953 Z M1.50979217,7.72006394 L0,7.72006394 L0,0 L1.50979217,0 L1.50979217,7.72006394 L1.50979217,7.72006394 Z" id="Shape"></path>
                            </g>
                        </g>
                    </g>
                    <g id="hover_area" fill-opacity="0" fill="#FFFFFF">
                        <polygon id="Shape" points="0.466715124 0 47.1382276 0 47.1382276 46.630137 0.466715124 46.630137"></polygon>
                    </g>
                </g>
                <g id="icon_green" transform="translate(21.287671, 0.287215)">
                    <g id="ic_check-copy-2">
                        <g id="Icon-24px">
                            <polygon id="Shape" points="0 0 46.630137 0 46.630137 46.630137 0 46.630137"></polygon>
                            <g id="button-bg">
                                <use fill="#009688" fill-rule="evenodd" xlink:href="#path-26"></use>
                                <circle stroke="url(#linearGradient-1)" stroke-width="0.5" cx="23.3995434" cy="23.3995434" r="13.4349315"></circle>
                                <circle stroke="url(#linearGradient-2)" stroke-width="0.5" cx="23.3995434" cy="23.3995434" r="13.4349315"></circle>
                            </g>
                            <polygon id="Shape" fill="#FFFFFF" points="19.9360027 27.5344482 15.209844 22.8082896 13.6004566 24.4063432 19.9360027 30.7418893 33.5364593 17.1414326 31.9384056 15.543379"></polygon>
                        </g>
                    </g>
                </g>
            </g>
            <g id="steering_wheel" transform="translate(234.364090, 52.484247)" fill-rule="nonzero" fill="#A19F9E">
                <path d="M35.7161646,9.29444825 C32.0480315,3.16713851 26.6216335,-0.392781583 18.9951075,0.0344254186 C11.6600942,0.461217656 6.96707232,4.59226788 3.59337551,10.5752397 C2.42022444,12.5685959 1.10131697,14.5644406 0.661541935,16.8435693 C-0.220513978,20.688847 -0.220513978,24.8223858 0.661541935,28.8095129 C1.10089933,31.0882268 2.56806904,33.0844863 3.74163775,35.0799163 C7.26067332,41.1997603 12.1019575,45.4743189 19.7289012,45.6207306 C27.3558449,45.7625799 32.6310571,41.912325 36.1530161,35.7928957 C40.9913768,27.1010997 40.8460381,17.9825114 35.7161646,9.29444825 L35.7161646,9.29444825 Z M11.0745628,31.942226 C9.1680357,34.2209399 7.1157522,34.9339193 5.79392125,31.6589422 C3.30186271,25.9592542 3.44761911,20.1202055 6.08793989,14.4230061 C7.40684736,11.4317275 9.46121906,12.1413889 11.0741452,14.279083 C13.1264287,16.9850038 12.6870713,20.26164 12.8328277,23.6801256 C12.5417325,26.388535 13.1268463,29.3802283 11.0745628,31.942226 L11.0745628,31.942226 Z M19.5781331,2.88426941 C21.487166,2.88426941 24.7126006,3.31106164 24.5672618,6.4441895 C24.4210878,9.29444825 22.0747857,11.7145967 18.8443394,11.7145967 C16.2069421,11.7145967 13.4204473,10.1484475 13.4204473,7.44252664 C13.2751085,4.02362633 16.6462995,3.02570396 19.5781331,2.88426941 L19.5781331,2.88426941 Z M20.1707644,42.6244749 C17.3796755,42.9123212 13.7148836,42.4876027 13.4204473,39.2084779 C13.1264287,36.3586339 16.0607681,34.6506355 18.9951075,34.5042237 C22.5120549,34.3677664 25.0041134,36.9293493 25.1548815,39.9210426 C25.3006379,42.9123212 22.0747857,42.4876027 20.1707644,42.6244749 L20.1707644,42.6244749 Z M32.1937879,35.0795015 C29.5563906,38.4959132 27.9384528,37.353653 26.3305384,34.3673516 C24.4215054,30.658946 25.5971624,26.5299696 25.0041134,23.25043 C25.3006379,18.8365107 24.4210878,14.8497983 26.3305384,11.1455403 C27.9384528,8.0099239 29.5563906,7.72705479 31.8976811,10.574825 C37.0325662,16.9850038 37.1829167,28.3847945 32.1937879,35.0795015 L32.1937879,35.0795015 Z" id="wheel"></path>
            </g>
            <g id="seat_driver" transform="translate(166.084788, 52.484247)" fill-rule="nonzero">
                <path d="M11.4450873,0 L49.6376171,0 C52.7842062,0 55.361596,2.56656012 55.361596,5.70259132 L55.361596,39.9197983 C55.361596,43.0558295 52.7842062,45.6244635 49.6376171,45.6244635 L11.4450873,45.6244635 C8.29644777,45.6244635 5.72110834,43.0558295 5.72110834,39.9197983 L5.72110834,5.70259132 C5.72110834,2.56656012 8.15455805,0 11.4450873,0 L11.4450873,0 Z" id="Shape" fill="#E1E1E1"></path>
                <path d="M5.72110834,7.12855023 L8.44120809,7.12855023 C11.586977,7.12855023 14.1623164,9.69552511 14.1623164,12.8311416 L14.1623164,32.7933219 C14.1623164,35.9289384 11.586977,38.4930099 8.44120809,38.4930099 L5.72110834,38.4930099 C2.57533943,38.4930099 0,35.9285236 0,32.7929072 L0,12.8311416 C0,9.69552511 2.57533943,7.12855023 5.72110834,7.12855023 L5.72110834,7.12855023 Z" id="Shape" fill="#E1E1E1"></path>
                <path d="M8.44120809,37.0666362 C10.8717872,37.0666362 12.7315267,35.2155441 12.7315267,32.7929072 L12.7315267,12.8311416 C12.7315267,10.4085046 10.8717872,8.5549239 8.44120809,8.5549239 L5.72110834,8.5549239 C3.29052923,8.5549239 1.43078969,10.4085046 1.43078969,12.8311416 L1.43078969,32.7933219 C1.43078969,35.2159589 3.29052923,37.067051 5.72110834,37.067051 L8.44120809,37.067051 L8.44120809,37.0666362 Z M8.44120809,38.4930099 L5.72110834,38.4930099 C2.57533943,38.4930099 0,35.9285236 0,32.7929072 L0,12.8311416 C0,9.69552511 2.57533943,7.12855023 5.72110834,7.12855023 L8.44120809,7.12855023 C11.586977,7.12855023 14.1623164,9.69552511 14.1623164,12.8311416 L14.1623164,32.7933219 C14.1627265,35.9285236 11.5873871,38.4930099 8.44120809,38.4930099 L8.44120809,38.4930099 L8.44120809,38.4930099 Z" id="Shape" fill="#F3F3F3"></path>
                <polygon id="Shape" fill="#F3F3F3" points="21.0279745 45.6240487 19.5996453 45.6240487 19.5996453 0 21.0279745 0"></polygon>
            </g>
        </g>
    </g>
</svg>