  <svg xmlns="http://www.w3.org/2000/svg" xmlns:xlink="http://www.w3.org/1999/xlink"  viewBox="0 120 368 86">
  <path d="M126.1 184.8c-6 5.7-26.3 5.7-33.1.1-3.2-2.8-3.2-9-3.7-19.5H78.8c.3 7.9.8 23.7 5.4 27.3 6.5 8.6 43.1 9 51-.4 3.5-4.2 4.7-14.1 4.8-26.9h-10.6c.3 4.2.1 15.1-3.3 19.4zM217.7 170.7c-6.5-8.6-43.1-9-51 .4-3.5 4.2-4.7 14.1-4.8 26.9h10.6c-.3-4.2 0-15 3.4-19.3 6-5.7 26.3-5.7 33.1-.1 3.2 2.8 3.2 9 3.7 19.5h10.5c-.4-8-.9-23.7-5.5-27.4zM282.6 170.7c-6.5-8.6-43.1-9-51 .4-3.5 4.2-4.7 14.1-4.8 26.9h10.6c-.3-4.2 0-15 3.4-19.3 6-5.7 26.3-5.7 33.1-.1 3.2 2.8 3.2 9 3.7 19.5h10.5c-.5-8-1-23.7-5.5-27.4zM145 165.3h11.9v32.5H145zM145 154.4v6.1c1.6.6 3.7.9 5.9.9 2.3 0 4.4-.3 6-.9v-6c-1.6-.6-3.7-.9-6-.9-2.2-.1-4.3.3-5.9.8zM337.4 184.7c-6 5.7-26.3 5.7-33.1.1-3.2-2.8-3.2-9-3.7-19.5h-10.5c.3 7.9.8 23.7 5.4 27.3 2.4 3.1 8.7 5.2 16.1 6.1-3.4 6.3-10.1 11.1-14.9 12.8 1.3 2 5.3 4.2 8.6 4.4 12.2-3.2 21.2-13.2 23.6-17.2 7.8-.9 14.6-3 17.5-6.5 3.5-4.2 4.7-14.1 4.8-26.9h-10.6c.4 4.2.2 15.1-3.2 19.4zM65.7 135.5c-13.6-6.8-43.6-6.8-57.3 0-4.2 2.6-5.2 5-6.5 9.6-2.7 9.4-2.3 29.6-.1 37.8 1 4 2.5 7.4 6.6 9.9 5.1 2.6 12.5 4.2 20.5 4.8 5.4 7.1 15.3 15.4 27.1 18.5 3.3-.2 8.4-2.6 9.7-4.6-5.7-2.2-13.7-7.4-17.3-14.2 6.7-.8 12.8-2.3 17.3-4.5 4.2-2.6 5.2-5 6.6-9.6 2.7-9.3 2.3-29.6.1-37.8-1.1-4.1-2.5-7.4-6.7-9.9zm-3.8 42.1c-1 3.2-1.6 5-4.6 6.8-9.7 4.8-30.8 4.8-40.4 0-2.9-1.8-3.9-4.1-4.7-7-1.6-5.8-1.9-20.1 0-26.6 1-3.2 1.6-5 4.6-6.8 9.7-4.8 30.8-4.8 40.4 0 2.9 1.8 3.9 4.1 4.7 7 1.6 5.7 1.9 20 0 26.6zM367.7 148.9c-.4-.8-.8-1.5-1.4-2.1-.6-.6-1.3-1.1-2.1-1.4-.8-.3-1.7-.5-2.6-.5-.9 0-1.8.2-2.6.5s-1.5.8-2.1 1.4c-.6.6-1.1 1.3-1.4 2.1-.4.8-.5 1.7-.5 2.6 0 1 .2 1.8.5 2.6.4.8.8 1.5 1.4 2.1.6.6 1.3 1.1 2.1 1.4.8.3 1.7.5 2.6.5.9 0 1.8-.2 2.6-.5s1.5-.8 2.1-1.4c.6-.6 1.1-1.3 1.4-2.1.4-.8.5-1.7.5-2.6 0-.9-.2-1.8-.5-2.6zm-1.1 4.9c-.3.7-.7 1.3-1.2 1.8s-1.1.9-1.7 1.2c-.7.3-1.4.4-2.1.4-.8 0-1.5-.1-2.2-.4-.7-.3-1.2-.7-1.7-1.2s-.9-1.1-1.2-1.8c-.3-.7-.4-1.4-.4-2.3 0-.8.1-1.5.4-2.2.3-.7.7-1.3 1.2-1.8s1.1-.9 1.7-1.2c.7-.3 1.4-.4 2.2-.4.8 0 1.5.1 2.1.4.7.3 1.2.7 1.7 1.2s.9 1.1 1.2 1.8c.3.7.4 1.4.4 2.2 0 .8-.1 1.6-.4 2.3z"/>
  <path d="M364.1 151.4c.4-.3.6-.8.6-1.5s-.2-1.3-.7-1.7c-.4-.4-1.1-.6-2-.6h-3v7.7h1.2V152h1.3l2.1 3.3h1.3l-2.2-3.4c.5 0 1-.2 1.4-.5zm-2.6-.3h-1.3v-2.5h2.2c.2 0 .4.1.5.2.2.1.3.2.4.4.1.2.2.4.2.6 0 .3-.1.5-.2.7-.1.2-.3.3-.5.4-.2.1-.4.1-.6.2h-.7z"/>
</svg>