<?xml version="1.0" encoding="UTF-8"?>
<svg width="525px" height="114px" viewBox="0 0 525 114" version="1.1" xmlns="http://www.w3.org/2000/svg" xmlns:xlink="http://www.w3.org/1999/xlink">
    <defs>
        <linearGradient x1="50.011325%" y1="103.612992%" x2="50.011325%" y2="-3.88197621%" id="linearGradient-1">
            <stop stop-color="#C2C1C3" offset="0%"></stop>
            <stop stop-color="#D3D2D3" offset="18%"></stop>
            <stop stop-color="#E9E7E8" offset="44.1%"></stop>
            <stop stop-color="#F1F0F0" offset="60.7%"></stop>
            <stop stop-color="#EFEEEE" offset="83.3%"></stop>
            <stop stop-color="#E8E6E6" offset="94.4%"></stop>
            <stop stop-color="#E2E0E1" offset="98.9%"></stop>
        </linearGradient>
    </defs>
    <g id="Page-1" stroke="none" stroke-width="1" fill="none" fill-rule="evenodd">
        <g id="logo-dorel">
            <path d="M17,0.3 L193.6,0.3 L104.5,109.6 L17,0.3 Z M49.3,8.6 L40.6,18.2 L104.7,99.5 L170.5,18.8 L161.8,8.6 L49.3,8.6 Z" id="Shape" fill="#F3F2F2" fill-rule="nonzero"></path>
            <path d="M21,4.5 L196.3,4.5 L107.2,113.8 L21,4.5 Z M53.3,12.7 L44.6,22.3 L108.7,103.6 L174.5,22.9 L165.8,12.7 L53.3,12.7 Z" id="Shape" fill="#ACABAE" fill-rule="nonzero"></path>
            <path d="M19,2.4 L195.6,2.4 L106.5,111.7 L19,2.4 Z M51.3,10.7 L42.6,20.3 L106.7,101.6 L172.5,20.9 L163.8,10.7 L51.3,10.7 Z" id="Shape" fill="url(#linearGradient-1)" fill-rule="nonzero"></path>
            <path d="M76.2,24.7 C61.7,24.7 50,35.6 50,49.1 C50,64.5 60.8,75.3 76.2,75.3 C91.6,75.3 102.4,64.5 102.4,49.1 C102.3,35.6 90.6,24.7 76.2,24.7 Z M76.2,64.2 C68.2,64.2 62,57.6 62,49.2 C62,42.1 68.7,35.8 76.2,35.8 C83.8,35.8 90.4,42 90.4,49.2 C90.4,57.5 84.1,64.2 76.2,64.2 Z M246.4,64.4 C245.7,65.1 244.8,65.4 243.7,65.4 C242.2,65.4 240.5,64.1 238.6,61.6 L232.1,68.4 C235,72.6 239.1,74.9 243.8,74.9 C253.6,74.9 259.3,68.9 259.3,58.5 L259.3,26.3 L247.9,26.3 L247.9,57.9 C247.9,60 247.9,62.9 246.4,64.4 Z M276.2,51.3 L276.2,26.3 L264.8,26.3 L264.8,53 C264.8,59.5 265.2,65.3 269.7,69.7 C273.1,73 278.8,74.9 285.4,74.9 C292,74.9 297.7,73 301.1,69.7 C305.6,65.3 306,59.5 306,53 L306,26.3 L294.6,26.3 L294.6,51.2 C294.6,56.3 294.6,65 285.5,65 C276.2,65 276.2,56.4 276.2,51.3 L276.2,51.3 Z" id="Shape" fill="#007AC2" fill-rule="nonzero"></path>
            <path d="M76.2,23.5 C61.1,23.5 48.9,34.9 48.9,49 C48.9,64.8 60.4,76.3 76.2,76.3 C92,76.3 103.5,64.8 103.5,49 C103.5,35 91.2,23.5 76.2,23.5 Z M76.2,75.2 C60.8,75.2 50,64.5 50,49.1 C50,35.7 61.7,24.7 76.2,24.7 C90.6,24.7 102.4,35.6 102.4,49.1 C102.3,64.5 91.6,75.2 76.2,75.2 L76.2,75.2 Z" id="Shape" fill="#FFFFFF" fill-rule="nonzero"></path>
            <path d="M76.2,35.8 C68.6,35.8 62,42 62,49.2 C62,57.6 68.3,64.2 76.2,64.2 C84.2,64.2 90.4,57.6 90.4,49.2 C90.4,42 83.7,35.8 76.2,35.8 L76.2,35.8 Z M76.2,63 C68.9,63 63.1,56.9 63.1,49.1 C63.1,42.6 69.2,36.9 76.2,36.9 C83.2,36.9 89.3,42.6 89.3,49.1 C89.2,56.9 83.5,63 76.2,63 Z" id="Shape" fill="#FFFFFF" fill-rule="nonzero"></path>
            <path d="M14.5,37 L14.5,63 L16.8,63 C25.5,63 30.6,58.1 30.6,50 C30.6,42 25.3,37 16.9,37 L14.5,37 L14.5,37 Z" id="Shape"></path>
            <path d="M1.5,26.3 L1.5,73.6 L19.4,73.6 C33.1,73.6 44.3,63 44.3,49.9 C44.3,36.9 33.1,26.2 19.4,26.2 L1.5,26.2 L1.5,26.3 Z M31.9,50 C31.9,60.4 24.2,64.1 16.9,64.1 L13.4,64.1 L13.4,35.8 L17,35.8 C26,35.8 31.9,41.4 31.9,50 Z" id="Shape" fill="#007AC2" fill-rule="nonzero"></path>
            <path d="M19.4,25.1 L0.4,25.1 L0.4,74.7 L19.4,74.7 C33.7,74.7 45.4,63.6 45.4,49.9 C45.4,36.3 33.7,25.1 19.4,25.1 Z M1.5,73.6 L1.5,26.3 L19.4,26.3 C33.1,26.3 44.3,36.9 44.3,50 C44.3,63 33.1,73.7 19.4,73.7 L1.5,73.7 L1.5,73.6 Z" id="Shape" fill="#FFFFFF" fill-rule="nonzero"></path>
            <path d="M17,35.8 L13.4,35.8 L13.4,64.1 L16.9,64.1 C24.1,64.1 31.9,60.4 31.9,50 C31.9,41.4 26,35.8 17,35.8 Z M16.9,62.9 L14.6,62.9 L14.6,37 L17,37 C25.5,37 30.7,42 30.7,50 C30.7,58.1 25.5,62.9 16.9,62.9 L16.9,62.9 Z" id="Shape" fill="#FFFFFF" fill-rule="nonzero"></path>
            <path d="M133.6,53.8 C140,52.7 144.1,47.6 144.1,40.7 C144.1,31.6 138,26.4 127.3,26.4 L108.4,26.4 L108.4,73.7 L120.3,73.7 L120.3,55 L121.3,55 L133.6,73.6 L148.3,73.6 L132.7,53.9 L133.6,53.8 Z M122.1,48 L120.3,48 L120.3,34.8 L122.1,34.8 C126.2,34.8 131.7,35.5 131.7,41.4 C131.7,47.3 126.2,48 122.1,48 L122.1,48 Z" id="Shape" fill="#007AC2" fill-rule="nonzero"></path>
            <path d="M145.2,40.6 C145.2,30.9 138.5,25.1 127.2,25.1 L107.2,25.1 L107.2,74.7 L121.4,74.7 L121.4,57.3 L132.9,74.8 L150.6,74.8 L134.7,54.7 C141.1,53.2 145.2,47.8 145.2,40.6 L145.2,40.6 Z M133.5,73.6 L121.2,55 L120.2,55 L120.2,73.6 L108.3,73.6 L108.3,26.3 L127.2,26.3 C137.9,26.3 144,31.5 144,40.6 C144,47.5 139.9,52.6 133.5,53.7 L132.5,53.9 L148.1,73.6 L133.5,73.6 Z" id="Shape" fill="#FFFFFF" fill-rule="nonzero"></path>
            <path d="M122.1,34.8 L120.3,34.8 L120.3,48 L122.1,48 C126.2,48 131.7,47.3 131.7,41.4 C131.7,35.5 126.2,34.8 122.1,34.8 L122.1,34.8 Z M122.1,46.9 L121.4,46.9 L121.4,35.9 L122.1,35.9 C127.9,35.9 130.6,37.6 130.6,41.4 C130.5,45.2 127.9,46.9 122.1,46.9 Z M246.8,58 C246.8,59.9 246.8,62.4 245.6,63.6 C245.1,64.1 244.5,64.3 243.8,64.3 C242.7,64.3 241,62.9 239.2,60.4 L238.8,59.8 L230.7,68.3 L231,68.7 C234.2,73.5 238.6,76.1 244,76.1 C254.6,76.1 260.6,69.7 260.6,58.5 L260.6,25.2 L246.8,25.2 L246.8,58 Z M259.4,58.5 C259.4,68.9 253.8,74.9 243.9,74.9 C239.1,74.9 235.1,72.7 232.2,68.4 L238.7,61.6 C240.6,64.1 242.4,65.4 243.8,65.4 C244.9,65.4 245.8,65.1 246.5,64.4 C248,62.9 248,60 248,58 L248,26.4 L259.4,26.4 L259.4,58.5 L259.4,58.5 Z M293.3,51.3 C293.3,57.9 292.7,63.9 285.3,63.9 C277.9,63.9 277.3,57.9 277.3,51.3 L277.3,25.2 L263.5,25.2 L263.5,53 C263.5,59.8 263.9,65.8 268.7,70.5 C273.6,75.3 281.1,76.1 285.2,76.1 C289.2,76.1 296.8,75.4 301.7,70.5 C306.6,65.8 306.9,59.8 306.9,53 L306.9,25.2 L293.1,25.2 L293.1,51.3 L293.3,51.3 Z M294.5,26.3 L305.9,26.3 L305.9,53 C305.9,59.5 305.5,65.3 301,69.7 C297.6,73 291.9,74.9 285.3,74.9 C278.7,74.9 273,73 269.6,69.7 C265.1,65.3 264.7,59.5 264.7,53 L264.7,26.3 L276.1,26.3 L276.1,51.2 C276.1,56.3 276.1,65 285.2,65 C294.3,65 294.3,56.4 294.3,51.2 L294.3,26.3 L294.5,26.3 Z" id="Shape" fill="#FFFFFF" fill-rule="nonzero"></path>
            <polygon id="Shape" fill="#007AC2" fill-rule="nonzero" points="322.6 26.3 310.2 26.3 330.1 73.6 339.1 73.6 359.3 26.3 346.9 26.3 334.7 56.7"></polygon>
            <path d="M334.7,53.6 L323.4,25.2 L308.4,25.2 L329.1,74.5 L329.2,74.9 L339.7,74.9 L361,25.1 L346,25.1 L334.7,53.6 Z M359.3,26.3 L339.1,73.6 L330.1,73.6 L310.2,26.3 L322.6,26.3 L334.7,56.7 L346.9,26.3 L359.3,26.3 Z" id="Shape" fill="#FFFFFF" fill-rule="nonzero"></path>
            <polygon id="Shape" fill="#007AC2" fill-rule="nonzero" points="374.1 54.6 388.3 54.6 388.3 45.1 374.1 45.1 374.1 35.8 389.1 35.8 389.1 26.3 362.7 26.3 362.7 73.6 389.1 73.6 389.1 64.1 374.1 64.1"></polygon>
            <path d="M361.5,74.8 L390.2,74.8 L390.2,62.9 L375.2,62.9 L375.2,55.7 L389.4,55.7 L389.4,43.9 L375.2,43.9 L375.2,37 L390.2,37 L390.2,25.1 L361.5,25.1 L361.5,74.8 L361.5,74.8 Z M362.7,26.3 L389.1,26.3 L389.1,35.8 L374.1,35.8 L374.1,45.1 L388.3,45.1 L388.3,54.6 L374.1,54.6 L374.1,64.1 L389.1,64.1 L389.1,73.6 L362.7,73.6 L362.7,26.3 Z" id="Shape" fill="#FFFFFF" fill-rule="nonzero"></path>
            <polygon id="Shape" fill="#007AC2" fill-rule="nonzero" points="394.6 26.3 394.6 73.6 406.1 73.6 406.1 43.9 407.1 43.9 430.1 73.6 441.8 73.6 441.8 26.3 430.4 26.3 430.4 55.9 429.4 55.9 429.2 55.7 406.4 26.3"></polygon>
            <path d="M429.3,53.8 L407.2,25.4 L407,25.2 L393.5,25.2 L393.5,74.8 L407.3,74.8 L407.3,46 L429.6,74.7 L443,74.7 L443,25.1 L429.2,25.1 L429.2,53.8 L429.3,53.8 Z M430.4,26.3 L441.8,26.3 L441.8,73.6 L430.1,73.6 L407,43.9 L406,43.9 L406,73.6 L394.6,73.6 L394.6,26.3 L406.3,26.3 L429.2,55.7 L429.4,55.9 L430.4,55.9 L430.4,26.3 L430.4,26.3 Z" id="Shape" fill="#FFFFFF" fill-rule="nonzero"></path>
            <polygon id="Shape" fill="#007AC2" fill-rule="nonzero" points="447.8 26.3 459.2 26.3 459.2 73.6 447.8 73.6"></polygon>
            <path d="M446.6,74.8 L460.4,74.8 L460.4,25.1 L446.6,25.1 L446.6,74.8 L446.6,74.8 Z M447.8,26.3 L459.2,26.3 L459.2,73.6 L447.8,73.6 L447.8,26.3 Z" id="Shape" fill="#FFFFFF" fill-rule="nonzero"></path>
            <polygon id="Shape" fill="#007AC2" fill-rule="nonzero" points="476.9 26.3 465.5 26.3 465.5 73.6 492 73.6 492 64.1 476.9 64.1"></polygon>
            <path d="M478,25.1 L464.2,25.1 L464.2,74.7 L493.1,74.7 L493.1,62.9 L478,62.9 L478,25.1 Z M492,73.6 L465.5,73.6 L465.5,26.3 L476.9,26.3 L476.9,64.1 L492,64.1 L492,73.6 Z" id="Shape" fill="#FFFFFF" fill-rule="nonzero"></path>
            <polygon id="Shape" fill="#007AC2" fill-rule="nonzero" points="523.6 35.8 523.6 26.3 497.2 26.3 497.2 73.6 523.6 73.6 523.6 64.1 508.6 64.1 508.6 54.6 522.8 54.6 522.8 45.1 508.6 45.1 508.6 35.8"></polygon>
            <path d="M524.8,37 L524.8,25.1 L496,25.1 L496,74.7 L524.7,74.7 L524.7,62.9 L509.7,62.9 L509.7,55.7 L524,55.7 L524,43.9 L509.8,43.9 L509.8,37 L524.8,37 Z M522.8,54.6 L508.6,54.6 L508.6,64.1 L523.6,64.1 L523.6,73.6 L497.2,73.6 L497.2,26.3 L523.6,26.3 L523.6,35.8 L508.6,35.8 L508.6,45.1 L522.8,45.1 L522.8,54.6 Z" id="Shape" fill="#FFFFFF" fill-rule="nonzero"></path>
            <polygon id="Shape" fill="#007AC2" fill-rule="nonzero" points="166.3 54.6 181 54.6 181 45.1 166.3 45.1 166.3 35.8 181.8 35.8 181.8 26.3 154.5 26.3 154.5 73.6 181.8 73.6 181.8 64.1 166.3 64.1"></polygon>
            <path d="M153.3,74.8 L182.9,74.8 L182.9,62.9 L167.4,62.9 L167.4,55.7 L182.1,55.7 L182.1,43.9 L167.4,43.9 L167.4,37 L182.9,37 L182.9,25.1 L153.3,25.1 L153.3,74.8 L153.3,74.8 Z M154.5,26.3 L181.8,26.3 L181.8,35.8 L166.3,35.8 L166.3,45.1 L181,45.1 L181,54.6 L166.3,54.6 L166.3,64.1 L181.8,64.1 L181.8,73.6 L154.5,73.6 L154.5,26.3 Z" id="Shape" fill="#FFFFFF" fill-rule="nonzero"></path>
            <polygon id="Shape" fill="#007AC2" fill-rule="nonzero" points="203.3 26.3 191.4 26.3 191.4 73.6 218.9 73.6 218.9 64.1 203.3 64.1"></polygon>
            <path d="M204.4,25.1 L190.2,25.1 L190.2,74.7 L220,74.7 L220,62.9 L204.4,62.9 L204.4,25.1 Z M218.9,73.6 L191.4,73.6 L191.4,26.3 L203.3,26.3 L203.3,64.1 L218.9,64.1 L218.9,73.6 Z" id="Shape" fill="#FFFFFF" fill-rule="nonzero"></path>
            <path d="M217.9,26.5 C218.2,26.7 218.5,27 218.7,27.3 C218.9,27.7 219,28 219,28.4 C219,28.8 218.9,29.1 218.7,29.5 C218.5,29.8 218.2,30.1 217.9,30.3 C217.6,30.5 217.2,30.6 216.8,30.6 C216.4,30.6 216.1,30.5 215.7,30.3 C215.4,30.1 215.1,29.8 214.9,29.5 C214.7,29.2 214.6,28.8 214.6,28.4 C214.6,28 214.7,27.7 214.9,27.3 C215.1,26.9 215.4,26.7 215.7,26.5 C216,26.3 216.4,26.2 216.8,26.2 C217.2,26.2 217.6,26.3 217.9,26.5 Z M215.6,26.1 C215.2,26.3 214.9,26.6 214.6,27.1 C214.4,27.5 214.2,28 214.2,28.4 C214.2,28.9 214.3,29.3 214.5,29.7 C214.7,30.1 215.1,30.4 215.5,30.7 C215.9,30.9 216.3,31 216.8,31 C217.3,31 217.7,30.9 218.1,30.7 C218.5,30.5 218.8,30.1 219.1,29.7 C219.3,29.3 219.4,28.8 219.4,28.4 C219.4,27.9 219.3,27.5 219,27.1 C218.8,26.7 218.4,26.4 218,26.1 C217.6,25.9 217.2,25.8 216.7,25.8 C216.4,25.8 216,25.9 215.6,26.1 L215.6,26.1 Z M216.2,29.8 L216.2,28.6 L216.5,28.6 C216.7,28.6 216.8,28.6 216.9,28.7 C217,28.8 217.2,29 217.4,29.4 L217.7,29.8 L218.3,29.8 L218,29.2 C217.8,28.9 217.7,28.7 217.6,28.6 L217.4,28.4 C217.6,28.4 217.8,28.3 218,28.1 C218.1,27.9 218.2,27.8 218.2,27.6 C218.2,27.5 218.2,27.3 218.1,27.2 C218,27.1 217.9,27 217.7,26.9 C217.6,26.8 217.3,26.8 217,26.8 L216,26.8 L216,29.6 L216.2,29.6 L216.2,29.8 Z M216.2,27.4 L217.2,27.4 C217.3,27.4 217.3,27.5 217.4,27.5 C217.4,27.6 217.5,27.6 217.5,27.7 C217.5,27.8 217.5,27.9 217.4,28 C217.3,28.1 217.1,28.1 216.9,28.1 L216.4,28.1 L216.4,27.4 L216.2,27.4 Z" id="Shape" fill="#007AC2" fill-rule="nonzero"></path>
            <path d="M231.9,103.7 C231.9,97.8 236,93.6 241.8,93.6 C246.7,93.6 249.1,96.4 249.1,97.7 C249.1,99.1 247.4,99.5 247.3,99.4 C246.2,97.4 244,96.4 241.8,96.4 C237.9,96.4 235.1,99.4 235.1,103.7 C235.1,108 238,111 241.9,111 C244.5,111 246.7,109.7 247.5,107.6 C247.6,107.4 249.4,107.8 249.4,109.3 C249.4,110.7 246.8,113.8 241.7,113.8 C235.9,113.7 231.9,109.6 231.9,103.7 Z M251.4,109.6 C251.4,106.3 254.6,104.8 261.1,104.7 L261.5,104.7 L261.5,104.4 C261.5,102.2 260.2,101 257.9,101 C255.7,101 254.4,102.1 253.7,103.5 C253.7,103.5 251.9,103.5 251.9,102.1 C251.9,100.7 254,98.6 258.1,98.6 C262.2,98.6 264.4,100.7 264.4,104.4 L264.4,113.3 C264.4,113.5 263.9,113.6 263.3,113.6 C262.2,113.6 261.5,113 261.5,111.3 C260.4,112.9 258.5,113.8 256.3,113.8 C253.3,113.7 251.4,112 251.4,109.6 L251.4,109.6 Z M261.5,107.6 L261.5,106.5 L260.7,106.5 C256.5,106.6 254.3,107.4 254.3,109.4 C254.3,110.7 255.3,111.5 257,111.5 C259.7,111.5 261.5,109.9 261.5,107.6 Z M270.8,101.3 C271.4,99.5 272.6,98.6 274.5,98.6 C276,98.6 276.9,99.3 276.9,100.5 C276.9,101.6 276.1,102.1 276,102 C275.5,101.6 275,101.4 274.2,101.4 C271.9,101.4 270.9,103.7 270.9,107 L270.9,112.1 C270.9,113.2 270.3,113.5 269.6,113.5 L269.3,113.5 C268.5,113.5 268,113.2 268,112.1 L268,99.1 C268,99 268.5,98.8 269.1,98.8 C269.8,98.7 270.8,99.2 270.8,101.3 L270.8,101.3 Z M278,106.2 C278,101.8 281.1,98.5 285.4,98.5 C289.6,98.5 292.3,101.4 292.3,105.8 L292.3,106 C292.3,106.6 292.1,106.9 291.4,106.9 L280.7,106.9 C280.9,109.6 282.9,111.4 285.6,111.4 C288.1,111.4 289.4,110.3 290.1,109 C290.2,108.9 291.7,109.2 291.7,110.5 C291.7,111.8 289.5,113.8 285.5,113.8 C281.1,113.7 278,110.7 278,106.2 Z M280.8,104.9 L289.5,104.9 C289.3,102.4 287.8,100.8 285.4,100.8 C283,100.8 281.2,102.5 280.8,104.9 L280.8,104.9 Z M303.7,100.2 L303.7,100 C303.7,99.3 304.1,98.9 305,98.9 L306.7,98.9 L306.7,97.8 C306.7,94.2 308.4,92.5 311.3,92.5 C313.5,92.5 314.5,93.4 314.5,94.5 C314.5,95.3 313.8,95.9 313.8,95.8 C313.4,95.4 312.5,95 311.6,95 C310.2,95 309.5,95.9 309.5,97.9 L309.5,99 L311.9,99 C312.9,99 313.2,99.4 313.2,100.1 L313.2,100.3 C313.2,101 312.8,101.4 311.9,101.4 L309.5,101.4 L309.5,112.1 C309.5,113.2 309,113.5 308.2,113.5 L308,113.5 C307.2,113.5 306.6,113.2 306.6,112.1 L306.6,101.4 L305,101.4 C304,101.3 303.7,100.9 303.7,100.2 Z M314.4,106.1 C314.4,101.7 317.5,98.5 322,98.5 C326.4,98.5 329.6,101.7 329.6,106.1 C329.6,110.5 326.5,113.7 322,113.7 C317.5,113.7 314.4,110.6 314.4,106.1 Z M326.8,106.2 C326.8,103.2 324.8,101 322,101 C319.2,101 317.2,103.2 317.2,106.1 C317.2,109.1 319.3,111.3 322,111.3 C324.8,111.3 326.8,109.1 326.8,106.2 Z M335.3,101.3 C335.9,99.5 337.1,98.6 339,98.6 C340.5,98.6 341.4,99.3 341.4,100.5 C341.4,101.6 340.6,102.1 340.5,102 C340,101.6 339.5,101.4 338.7,101.4 C336.4,101.4 335.4,103.7 335.4,107 L335.4,112.1 C335.4,113.2 334.8,113.5 334.1,113.5 L333.8,113.5 C333,113.5 332.5,113.2 332.5,112.1 L332.5,99.1 C332.5,99 333,98.8 333.6,98.8 C334.3,98.7 335.3,99.2 335.3,101.3 L335.3,101.3 Z M353.9,112.1 L353.9,95.7 C353.9,94.6 354.6,94 355.6,94 L360.6,94 C365.4,94 368.2,96.2 368.2,100.2 C368.2,104.3 365.6,106.4 360.5,106.4 L357,106.4 L357,112.1 C357,112.9 356.5,113.5 355.6,113.5 L355.1,113.5 C354.4,113.5 353.9,113 353.9,112.1 L353.9,112.1 Z M357,103.9 L360.6,103.9 C363.6,103.9 365.1,102.6 365.1,100.2 C365.1,97.8 363.6,96.5 360.6,96.5 L357,96.5 L357,103.9 Z M373.8,101.3 C374.4,99.5 375.6,98.6 377.5,98.6 C379,98.6 379.9,99.3 379.9,100.5 C379.9,101.6 379.1,102.1 379,102 C378.5,101.6 378,101.4 377.2,101.4 C374.9,101.4 373.9,103.7 373.9,107 L373.9,112.1 C373.9,113.2 373.3,113.5 372.6,113.5 L372.3,113.5 C371.5,113.5 371,113.2 371,112.1 L371,99.1 C371,99 371.5,98.8 372.1,98.8 C372.8,98.7 373.7,99.2 373.8,101.3 L373.8,101.3 Z M380.9,106.2 C380.9,101.8 384,98.5 388.3,98.5 C392.5,98.5 395.2,101.4 395.2,105.8 L395.2,106 C395.2,106.6 395,106.9 394.3,106.9 L383.6,106.9 C383.8,109.6 385.8,111.4 388.5,111.4 C391,111.4 392.3,110.3 393,109 C393.1,108.9 394.6,109.2 394.6,110.5 C394.6,111.8 392.4,113.8 388.4,113.8 C384,113.7 380.9,110.7 380.9,106.2 Z M383.7,104.9 L392.4,104.9 C392.2,102.4 390.7,100.8 388.3,100.8 C385.9,100.8 384.1,102.5 383.7,104.9 L383.7,104.9 Z M397.2,106.1 C397.2,101.7 400.4,98.5 404.7,98.5 C409,98.5 410.9,101.1 410.9,102.5 C410.9,103.7 409.2,104 409.1,103.8 C408.4,102.2 407.2,101 404.7,101 C402,101 399.9,103.1 399.9,106.1 C399.9,109.1 401.9,111.2 404.7,111.2 C407.1,111.2 408.4,110 409.1,108.4 C409.2,108.2 410.9,108.5 410.9,109.8 C410.9,111.1 409,113.8 404.7,113.8 C400.3,113.7 397.2,110.5 397.2,106.1 Z M413.4,94.2 C413.4,93.1 414.1,92.5 415.2,92.5 C416.3,92.5 416.9,93.1 416.9,94.2 C416.9,95.3 416.3,95.9 415.1,95.9 C414.1,95.8 413.4,95.2 413.4,94.2 Z M413.7,112.1 L413.7,100.2 C413.7,99.1 414.3,98.8 415.1,98.8 L415.4,98.8 C416.2,98.8 416.7,99.1 416.7,100.2 L416.7,112.1 C416.7,113.2 416.2,113.5 415.4,113.5 L415.1,113.5 C414.3,113.5 413.7,113.1 413.7,112.1 Z M419.6,106.1 C419.6,101.7 422.7,98.5 427.2,98.5 C431.6,98.5 434.8,101.7 434.8,106.1 C434.8,110.5 431.7,113.7 427.2,113.7 C422.7,113.7 419.6,110.6 419.6,106.1 Z M432,106.2 C432,103.2 430,101 427.2,101 C424.4,101 422.4,103.2 422.4,106.1 C422.4,109.1 424.5,111.3 427.2,111.3 C430,111.3 432,109.1 432,106.2 Z M447.8,111.2 C446.8,112.7 445.2,113.7 443,113.7 C439.2,113.7 437.4,111.1 437.4,107.5 L437.4,100.2 C437.4,99.1 437.9,98.8 438.7,98.8 L439,98.8 C439.8,98.8 440.3,99.1 440.3,100.2 L440.3,107.2 C440.3,109.7 441.6,111.2 443.8,111.2 C445.6,111.2 447,110.2 447.8,108.6 L447.8,100.2 C447.8,99.1 448.3,98.8 449.1,98.8 L449.4,98.8 C450.2,98.8 450.7,99.1 450.7,100.2 L450.7,113.1 C450.7,113.2 450.2,113.4 449.6,113.4 C448.8,113.5 447.9,113 447.8,111.2 L447.8,111.2 Z M453.4,110.6 C453.4,109.7 454.5,109.2 454.6,109.2 C455.6,110.4 457.2,111.4 459.5,111.4 C461.5,111.4 462.7,110.6 462.7,109.4 C462.7,107.9 461.3,107.7 459,107.1 C456.9,106.7 453.9,106 453.9,102.9 C453.9,100.2 456.2,98.4 459.7,98.4 C463.4,98.4 465.3,100 465.3,101.3 C465.3,102.2 464.2,102.8 464.1,102.7 C463.2,101.5 461.7,100.7 459.9,100.7 C457.9,100.7 456.8,101.5 456.8,102.7 C456.8,104 458.1,104.3 460.4,104.8 C462.6,105.3 465.7,105.9 465.7,109.1 C465.7,111.9 463.4,113.6 459.7,113.6 C455.5,113.7 453.4,112 453.4,110.6 Z M477.8,111.7 L477.8,95.3 C477.8,94.3 478.3,93.9 479.1,93.9 L479.6,93.9 C480.5,93.9 481,94.4 481,95.3 L481,110.6 L489.5,110.6 C490.4,110.6 490.9,111.1 490.9,111.9 L490.9,112 C490.9,112.9 490.4,113.4 489.5,113.4 L479.6,113.4 C478.4,113.4 477.8,112.8 477.8,111.7 L477.8,111.7 Z M493.3,94.2 C493.3,93.1 494,92.5 495.1,92.5 C496.2,92.5 496.8,93.1 496.8,94.2 C496.8,95.3 496.2,95.9 495,95.9 C493.9,95.8 493.3,95.2 493.3,94.2 Z M493.5,112.1 L493.5,100.2 C493.5,99.1 494.1,98.8 494.9,98.8 L495.2,98.8 C496,98.8 496.5,99.1 496.5,100.2 L496.5,112.1 C496.5,113.2 496,113.5 495.2,113.5 L494.9,113.5 C494.1,113.5 493.5,113.1 493.5,112.1 Z M498.7,100.2 L498.7,100 C498.7,99.3 499.1,98.9 500,98.9 L501.7,98.9 L501.7,97.8 C501.7,94.2 503.4,92.5 506.3,92.5 C508.5,92.5 509.5,93.4 509.5,94.5 C509.5,95.3 508.8,95.9 508.8,95.8 C508.4,95.4 507.5,95 506.6,95 C505.2,95 504.5,95.9 504.5,97.9 L504.5,99 L506.9,99 C507.9,99 508.2,99.4 508.2,100.1 L508.2,100.3 C508.2,101 507.8,101.4 506.9,101.4 L504.5,101.4 L504.5,112.1 C504.5,113.2 504,113.5 503.2,113.5 L502.9,113.5 C502.1,113.5 501.5,113.2 501.5,112.1 L501.5,101.4 L499.8,101.4 C499.1,101.3 498.7,100.9 498.7,100.2 Z M509.5,106.2 C509.5,101.8 512.6,98.5 516.9,98.5 C521.1,98.5 523.8,101.4 523.8,105.8 L523.8,106 C523.8,106.6 523.6,106.9 522.9,106.9 L512.2,106.9 C512.4,109.6 514.4,111.4 517.1,111.4 C519.6,111.4 520.9,110.3 521.6,109 C521.7,108.9 523.2,109.2 523.2,110.5 C523.2,111.8 521,113.8 517,113.8 C512.6,113.7 509.5,110.7 509.5,106.2 L509.5,106.2 Z M512.3,104.9 L521,104.9 C520.8,102.4 519.3,100.8 516.9,100.8 C514.5,100.8 512.7,102.5 512.3,104.9 Z" id="Shape" fill="#ACABAE" fill-rule="nonzero"></path>
        </g>
    </g>
</svg>